solid 
   facet normal -5.811611e-01 -8.137886e-01 0.000000e+00
      outer loop
         vertex 3.139686e+00 6.256387e+00 6.000000e+00
         vertex 3.139686e+00 6.256387e+00 2.000000e+00
         vertex 4.898980e+00 5.000000e+00 2.000000e+00
      endloop
   endfacet
   facet normal -5.811611e-01 -8.137886e-01 0.000000e+00
      outer loop
         vertex 4.898980e+00 5.000000e+00 6.000000e+00
         vertex 3.139686e+00 6.256387e+00 6.000000e+00
         vertex 4.898980e+00 5.000000e+00 2.000000e+00
      endloop
   endfacet
   facet normal -3.051323e-01 -9.523100e-01 0.000000e+00
      outer loop
         vertex 1.080928e+00 6.916039e+00 6.000000e+00
         vertex 1.080928e+00 6.916039e+00 2.000000e+00
         vertex 3.139686e+00 6.256387e+00 2.000000e+00
      endloop
   endfacet
   facet normal -3.051323e-01 -9.523100e-01 0.000000e+00
      outer loop
         vertex 3.139686e+00 6.256387e+00 6.000000e+00
         vertex 1.080928e+00 6.916039e+00 6.000000e+00
         vertex 3.139686e+00 6.256387e+00 2.000000e+00
      endloop
   endfacet
   facet normal 0.000000e+00 -1.000000e+00 0.000000e+00
      outer loop
         vertex -1.080928e+00 6.916039e+00 6.000000e+00
         vertex -1.080928e+00 6.916039e+00 2.000000e+00
         vertex 1.080928e+00 6.916039e+00 2.000000e+00
      endloop
   endfacet
   facet normal 0.000000e+00 -1.000000e+00 0.000000e+00
      outer loop
         vertex 1.080928e+00 6.916039e+00 6.000000e+00
         vertex -1.080928e+00 6.916039e+00 6.000000e+00
         vertex 1.080928e+00 6.916039e+00 2.000000e+00
      endloop
   endfacet
   facet normal 3.051323e-01 -9.523100e-01 0.000000e+00
      outer loop
         vertex -3.139686e+00 6.256387e+00 6.000000e+00
         vertex -3.139686e+00 6.256387e+00 2.000000e+00
         vertex -1.080928e+00 6.916039e+00 2.000000e+00
      endloop
   endfacet
   facet normal 3.051323e-01 -9.523100e-01 0.000000e+00
      outer loop
         vertex -1.080928e+00 6.916039e+00 6.000000e+00
         vertex -3.139686e+00 6.256387e+00 6.000000e+00
         vertex -1.080928e+00 6.916039e+00 2.000000e+00
      endloop
   endfacet
   facet normal 5.811611e-01 -8.137886e-01 0.000000e+00
      outer loop
         vertex -4.898980e+00 5.000000e+00 6.000000e+00
         vertex -4.898980e+00 5.000000e+00 2.000000e+00
         vertex -3.139686e+00 6.256387e+00 2.000000e+00
      endloop
   endfacet
   facet normal 5.811611e-01 -8.137886e-01 0.000000e+00
      outer loop
         vertex -3.139686e+00 6.256387e+00 6.000000e+00
         vertex -4.898980e+00 5.000000e+00 6.000000e+00
         vertex -3.139686e+00 6.256387e+00 2.000000e+00
      endloop
   endfacet
   facet normal 0.000000e+00 0.000000e+00 1.000000e+00
      outer loop
         vertex -5.123488e+00 5.000000e+00 2.000000e+00
         vertex -5.123488e+00 3.999983e+00 2.000000e+00
         vertex -4.898980e+00 5.000000e+00 2.000000e+00
      endloop
   endfacet
   facet normal 0.000000e+00 0.000000e+00 1.000000e+00
      outer loop
         vertex -6.172553e+00 2.037053e+00 2.000000e+00
         vertex -6.497913e+00 -1.647122e-01 2.000000e+00
         vertex -5.123488e+00 3.999983e+00 2.000000e+00
      endloop
   endfacet
   facet normal 0.000000e+00 -0.000000e+00 1.000000e+00
      outer loop
         vertex -6.497913e+00 -1.647122e-01 2.000000e+00
         vertex -6.061420e+00 -2.347166e+00 2.000000e+00
         vertex -5.123488e+00 3.999983e+00 2.000000e+00
      endloop
   endfacet
   facet normal 0.000000e+00 0.000000e+00 1.000000e+00
      outer loop
         vertex -6.061420e+00 -2.347166e+00 2.000000e+00
         vertex -4.914252e+00 -4.254425e+00 2.000000e+00
         vertex -5.123488e+00 3.999983e+00 2.000000e+00
      endloop
   endfacet
   facet normal 0.000000e+00 -0.000000e+00 1.000000e+00
      outer loop
         vertex -5.123488e+00 3.999983e+00 2.000000e+00
         vertex -4.914252e+00 -4.254425e+00 2.000000e+00
         vertex -4.898980e+00 5.000000e+00 2.000000e+00
      endloop
   endfacet
   facet normal 0.000000e+00 0.000000e+00 1.000000e+00
      outer loop
         vertex -4.914252e+00 -4.254425e+00 2.000000e+00
         vertex -4.180182e+00 -7.671893e-01 2.000000e+00
         vertex -4.898980e+00 5.000000e+00 2.000000e+00
      endloop
   endfacet
   facet normal 0.000000e+00 -0.000000e+00 1.000000e+00
      outer loop
         vertex -4.898980e+00 5.000000e+00 2.000000e+00
         vertex -4.110885e+00 1.078484e+00 2.000000e+00
         vertex -3.139686e+00 6.256387e+00 2.000000e+00
      endloop
   endfacet
   facet normal 0.000000e+00 -0.000000e+00 1.000000e+00
      outer loop
         vertex -4.110885e+00 1.078484e+00 2.000000e+00
         vertex -3.265199e+00 2.720473e+00 2.000000e+00
         vertex -3.139686e+00 6.256387e+00 2.000000e+00
      endloop
   endfacet
   facet normal 0.000000e+00 0.000000e+00 1.000000e+00
      outer loop
         vertex -3.139686e+00 6.256387e+00 2.000000e+00
         vertex -3.265199e+00 2.720473e+00 2.000000e+00
         vertex -1.080928e+00 6.916039e+00 2.000000e+00
      endloop
   endfacet
   facet normal 0.000000e+00 -0.000000e+00 1.000000e+00
      outer loop
         vertex -3.265199e+00 2.720473e+00 2.000000e+00
         vertex -1.802844e+00 3.848669e+00 2.000000e+00
         vertex -1.080928e+00 6.916039e+00 2.000000e+00
      endloop
   endfacet
   facet normal 0.000000e+00 0.000000e+00 1.000000e+00
      outer loop
         vertex -1.080928e+00 6.916039e+00 2.000000e+00
         vertex -1.802844e+00 3.848669e+00 2.000000e+00
         vertex 1.080928e+00 6.916039e+00 2.000000e+00
      endloop
   endfacet
   facet normal 0.000000e+00 -0.000000e+00 1.000000e+00
      outer loop
         vertex -1.802844e+00 3.848669e+00 2.000000e+00
         vertex -6.661338e-16 4.250000e+00 2.000000e+00
         vertex 1.080928e+00 6.916039e+00 2.000000e+00
      endloop
   endfacet
   facet normal 0.000000e+00 0.000000e+00 1.000000e+00
      outer loop
         vertex 1.080928e+00 6.916039e+00 2.000000e+00
         vertex -6.661338e-16 4.250000e+00 2.000000e+00
         vertex 3.139686e+00 6.256387e+00 2.000000e+00
      endloop
   endfacet
   facet normal 0.000000e+00 -0.000000e+00 1.000000e+00
      outer loop
         vertex -6.661338e-16 4.250000e+00 2.000000e+00
         vertex 1.802844e+00 3.848669e+00 2.000000e+00
         vertex 3.139686e+00 6.256387e+00 2.000000e+00
      endloop
   endfacet
   facet normal 0.000000e+00 0.000000e+00 1.000000e+00
      outer loop
         vertex 3.139686e+00 6.256387e+00 2.000000e+00
         vertex 1.802844e+00 3.848669e+00 2.000000e+00
         vertex 4.898980e+00 5.000000e+00 2.000000e+00
      endloop
   endfacet
   facet normal 0.000000e+00 -0.000000e+00 1.000000e+00
      outer loop
         vertex 1.802844e+00 3.848669e+00 2.000000e+00
         vertex 3.265199e+00 2.720473e+00 2.000000e+00
         vertex 4.898980e+00 5.000000e+00 2.000000e+00
      endloop
   endfacet
   facet normal 0.000000e+00 0.000000e+00 1.000000e+00
      outer loop
         vertex 4.898980e+00 5.000000e+00 2.000000e+00
         vertex 3.265199e+00 2.720473e+00 2.000000e+00
         vertex 5.123488e+00 5.000000e+00 2.000000e+00
      endloop
   endfacet
   facet normal 0.000000e+00 -0.000000e+00 1.000000e+00
      outer loop
         vertex 3.265199e+00 2.720473e+00 2.000000e+00
         vertex 4.110885e+00 1.078484e+00 2.000000e+00
         vertex 5.123488e+00 5.000000e+00 2.000000e+00
      endloop
   endfacet
   facet normal 0.000000e+00 0.000000e+00 1.000000e+00
      outer loop
         vertex 5.123488e+00 5.000000e+00 2.000000e+00
         vertex 4.110885e+00 1.078484e+00 2.000000e+00
         vertex 5.123488e+00 3.999983e+00 2.000000e+00
      endloop
   endfacet
   facet normal 0.000000e+00 -0.000000e+00 1.000000e+00
      outer loop
         vertex 4.110885e+00 1.078484e+00 2.000000e+00
         vertex 4.180182e+00 -7.671893e-01 2.000000e+00
         vertex 5.123488e+00 3.999983e+00 2.000000e+00
      endloop
   endfacet
   facet normal 0.000000e+00 0.000000e+00 1.000000e+00
      outer loop
         vertex 5.123488e+00 3.999983e+00 2.000000e+00
         vertex 4.180182e+00 -7.671893e-01 2.000000e+00
         vertex 6.172553e+00 2.037053e+00 2.000000e+00
      endloop
   endfacet
   facet normal 0.000000e+00 0.000000e+00 1.000000e+00
      outer loop
         vertex 4.180182e+00 -7.671893e-01 2.000000e+00
         vertex 3.460004e+00 -2.467970e+00 2.000000e+00
         vertex 6.172553e+00 2.037053e+00 2.000000e+00
      endloop
   endfacet
   facet normal 0.000000e+00 0.000000e+00 1.000000e+00
      outer loop
         vertex 6.172553e+00 2.037053e+00 2.000000e+00
         vertex 3.460004e+00 -2.467970e+00 2.000000e+00
         vertex 6.497913e+00 -1.647122e-01 2.000000e+00
      endloop
   endfacet
   facet normal 0.000000e+00 0.000000e+00 1.000000e+00
      outer loop
         vertex 3.460004e+00 -2.467970e+00 2.000000e+00
         vertex 2.086364e+00 -3.702646e+00 2.000000e+00
         vertex 6.497913e+00 -1.647122e-01 2.000000e+00
      endloop
   endfacet
   facet normal 0.000000e+00 0.000000e+00 1.000000e+00
      outer loop
         vertex 6.497913e+00 -1.647122e-01 2.000000e+00
         vertex 2.086364e+00 -3.702646e+00 2.000000e+00
         vertex 6.061420e+00 -2.347166e+00 2.000000e+00
      endloop
   endfacet
   facet normal 0.000000e+00 -0.000000e+00 1.000000e+00
      outer loop
         vertex 2.086364e+00 -3.702646e+00 2.000000e+00
         vertex 3.190909e+00 -5.662870e+00 2.000000e+00
         vertex 6.061420e+00 -2.347166e+00 2.000000e+00
      endloop
   endfacet
   facet normal 0.000000e+00 0.000000e+00 1.000000e+00
      outer loop
         vertex 6.061420e+00 -2.347166e+00 2.000000e+00
         vertex 3.190909e+00 -5.662870e+00 2.000000e+00
         vertex 4.914252e+00 -4.254425e+00 2.000000e+00
      endloop
   endfacet
   facet normal 0.000000e+00 0.000000e+00 1.000000e+00
      outer loop
         vertex -4.110885e+00 1.078484e+00 2.000000e+00
         vertex -4.898980e+00 5.000000e+00 2.000000e+00
         vertex -4.180182e+00 -7.671893e-01 2.000000e+00
      endloop
   endfacet
   facet normal 0.000000e+00 0.000000e+00 1.000000e+00
      outer loop
         vertex -4.180182e+00 -7.671893e-01 2.000000e+00
         vertex -4.914252e+00 -4.254425e+00 2.000000e+00
         vertex -3.460004e+00 -2.467970e+00 2.000000e+00
      endloop
   endfacet
   facet normal 0.000000e+00 0.000000e+00 1.000000e+00
      outer loop
         vertex -4.914252e+00 -4.254425e+00 2.000000e+00
         vertex -3.190909e+00 -5.662870e+00 2.000000e+00
         vertex -3.460004e+00 -2.467970e+00 2.000000e+00
      endloop
   endfacet
   facet normal 0.000000e+00 -0.000000e+00 1.000000e+00
      outer loop
         vertex -3.460004e+00 -2.467970e+00 2.000000e+00
         vertex -3.190909e+00 -5.662870e+00 2.000000e+00
         vertex -2.086364e+00 -3.702646e+00 2.000000e+00
      endloop
   endfacet
   facet normal 0.000000e+00 0.000000e+00 -1.000000e+00
      outer loop
         vertex -6.172553e+00 2.037053e+00 6.000000e+00
         vertex -5.123488e+00 3.999983e+00 6.000000e+00
         vertex -6.497913e+00 -1.647122e-01 6.000000e+00
      endloop
   endfacet
   facet normal -0.000000e+00 0.000000e+00 -1.000000e+00
      outer loop
         vertex -5.123488e+00 5.000000e+00 6.000000e+00
         vertex -4.898980e+00 5.000000e+00 6.000000e+00
         vertex -5.123488e+00 3.999983e+00 6.000000e+00
      endloop
   endfacet
   facet normal 0.000000e+00 0.000000e+00 -1.000000e+00
      outer loop
         vertex -4.898980e+00 5.000000e+00 6.000000e+00
         vertex -3.139686e+00 6.256387e+00 6.000000e+00
         vertex -5.123488e+00 3.999983e+00 6.000000e+00
      endloop
   endfacet
   facet normal 0.000000e+00 0.000000e+00 -1.000000e+00
      outer loop
         vertex -3.139686e+00 6.256387e+00 6.000000e+00
         vertex -1.080928e+00 6.916039e+00 6.000000e+00
         vertex -5.123488e+00 3.999983e+00 6.000000e+00
      endloop
   endfacet
   facet normal 0.000000e+00 0.000000e+00 -1.000000e+00
      outer loop
         vertex -5.123488e+00 3.999983e+00 6.000000e+00
         vertex -1.080928e+00 6.916039e+00 6.000000e+00
         vertex -6.497913e+00 -1.647122e-01 6.000000e+00
      endloop
   endfacet
   facet normal -0.000000e+00 0.000000e+00 -1.000000e+00
      outer loop
         vertex -1.080928e+00 6.916039e+00 6.000000e+00
         vertex 1.080928e+00 6.916039e+00 6.000000e+00
         vertex -6.497913e+00 -1.647122e-01 6.000000e+00
      endloop
   endfacet
   facet normal 0.000000e+00 0.000000e+00 -1.000000e+00
      outer loop
         vertex -6.497913e+00 -1.647122e-01 6.000000e+00
         vertex -3.265199e+00 2.720473e+00 6.000000e+00
         vertex -6.061420e+00 -2.347166e+00 6.000000e+00
      endloop
   endfacet
   facet normal -0.000000e+00 0.000000e+00 -1.000000e+00
      outer loop
         vertex -3.265199e+00 2.720473e+00 6.000000e+00
         vertex -4.110885e+00 1.078484e+00 6.000000e+00
         vertex -6.061420e+00 -2.347166e+00 6.000000e+00
      endloop
   endfacet
   facet normal 0.000000e+00 0.000000e+00 -1.000000e+00
      outer loop
         vertex -6.061420e+00 -2.347166e+00 6.000000e+00
         vertex -4.110885e+00 1.078484e+00 6.000000e+00
         vertex -4.914252e+00 -4.254425e+00 6.000000e+00
      endloop
   endfacet
   facet normal -0.000000e+00 0.000000e+00 -1.000000e+00
      outer loop
         vertex -4.110885e+00 1.078484e+00 6.000000e+00
         vertex -4.180182e+00 -7.671893e-01 6.000000e+00
         vertex -4.914252e+00 -4.254425e+00 6.000000e+00
      endloop
   endfacet
   facet normal 0.000000e+00 -0.000000e+00 -1.000000e+00
      outer loop
         vertex -4.914252e+00 -4.254425e+00 6.000000e+00
         vertex -4.180182e+00 -7.671893e-01 6.000000e+00
         vertex -3.190909e+00 -5.662870e+00 6.000000e+00
      endloop
   endfacet
   facet normal -0.000000e+00 -0.000000e+00 -1.000000e+00
      outer loop
         vertex -4.180182e+00 -7.671893e-01 6.000000e+00
         vertex -3.460004e+00 -2.467970e+00 6.000000e+00
         vertex -3.190909e+00 -5.662870e+00 6.000000e+00
      endloop
   endfacet
   facet normal 0.000000e+00 0.000000e+00 -1.000000e+00
      outer loop
         vertex -3.190909e+00 -5.662870e+00 6.000000e+00
         vertex -3.460004e+00 -2.467970e+00 6.000000e+00
         vertex -2.086364e+00 -3.702646e+00 6.000000e+00
      endloop
   endfacet
   facet normal 0.000000e+00 0.000000e+00 -1.000000e+00
      outer loop
         vertex -6.497913e+00 -1.647122e-01 6.000000e+00
         vertex 1.080928e+00 6.916039e+00 6.000000e+00
         vertex -3.265199e+00 2.720473e+00 6.000000e+00
      endloop
   endfacet
   facet normal -0.000000e+00 0.000000e+00 -1.000000e+00
      outer loop
         vertex 1.080928e+00 6.916039e+00 6.000000e+00
         vertex -1.802844e+00 3.848669e+00 6.000000e+00
         vertex -3.265199e+00 2.720473e+00 6.000000e+00
      endloop
   endfacet
   facet normal 0.000000e+00 0.000000e+00 -1.000000e+00
      outer loop
         vertex -1.802844e+00 3.848669e+00 6.000000e+00
         vertex 1.080928e+00 6.916039e+00 6.000000e+00
         vertex -6.661338e-16 4.250000e+00 6.000000e+00
      endloop
   endfacet
   facet normal -0.000000e+00 0.000000e+00 -1.000000e+00
      outer loop
         vertex 1.080928e+00 6.916039e+00 6.000000e+00
         vertex 3.139686e+00 6.256387e+00 6.000000e+00
         vertex -6.661338e-16 4.250000e+00 6.000000e+00
      endloop
   endfacet
   facet normal 0.000000e+00 0.000000e+00 -1.000000e+00
      outer loop
         vertex -6.661338e-16 4.250000e+00 6.000000e+00
         vertex 3.139686e+00 6.256387e+00 6.000000e+00
         vertex 1.802844e+00 3.848669e+00 6.000000e+00
      endloop
   endfacet
   facet normal -0.000000e+00 0.000000e+00 -1.000000e+00
      outer loop
         vertex 3.139686e+00 6.256387e+00 6.000000e+00
         vertex 4.898980e+00 5.000000e+00 6.000000e+00
         vertex 1.802844e+00 3.848669e+00 6.000000e+00
      endloop
   endfacet
   facet normal 0.000000e+00 0.000000e+00 -1.000000e+00
      outer loop
         vertex 1.802844e+00 3.848669e+00 6.000000e+00
         vertex 4.898980e+00 5.000000e+00 6.000000e+00
         vertex 3.265199e+00 2.720473e+00 6.000000e+00
      endloop
   endfacet
   facet normal -0.000000e+00 0.000000e+00 -1.000000e+00
      outer loop
         vertex 4.898980e+00 5.000000e+00 6.000000e+00
         vertex 5.123488e+00 5.000000e+00 6.000000e+00
         vertex 3.265199e+00 2.720473e+00 6.000000e+00
      endloop
   endfacet
   facet normal 0.000000e+00 0.000000e+00 -1.000000e+00
      outer loop
         vertex 3.265199e+00 2.720473e+00 6.000000e+00
         vertex 5.123488e+00 5.000000e+00 6.000000e+00
         vertex 4.110885e+00 1.078484e+00 6.000000e+00
      endloop
   endfacet
   facet normal -0.000000e+00 0.000000e+00 -1.000000e+00
      outer loop
         vertex 5.123488e+00 5.000000e+00 6.000000e+00
         vertex 5.123488e+00 3.999983e+00 6.000000e+00
         vertex 4.110885e+00 1.078484e+00 6.000000e+00
      endloop
   endfacet
   facet normal 0.000000e+00 0.000000e+00 -1.000000e+00
      outer loop
         vertex 4.110885e+00 1.078484e+00 6.000000e+00
         vertex 5.123488e+00 3.999983e+00 6.000000e+00
         vertex 4.180182e+00 -7.671893e-01 6.000000e+00
      endloop
   endfacet
   facet normal -0.000000e+00 0.000000e+00 -1.000000e+00
      outer loop
         vertex 5.123488e+00 3.999983e+00 6.000000e+00
         vertex 6.172553e+00 2.037053e+00 6.000000e+00
         vertex 4.180182e+00 -7.671893e-01 6.000000e+00
      endloop
   endfacet
   facet normal 0.000000e+00 0.000000e+00 -1.000000e+00
      outer loop
         vertex 4.180182e+00 -7.671893e-01 6.000000e+00
         vertex 6.172553e+00 2.037053e+00 6.000000e+00
         vertex 3.460004e+00 -2.467970e+00 6.000000e+00
      endloop
   endfacet
   facet normal -0.000000e+00 0.000000e+00 -1.000000e+00
      outer loop
         vertex 6.172553e+00 2.037053e+00 6.000000e+00
         vertex 6.497913e+00 -1.647122e-01 6.000000e+00
         vertex 3.460004e+00 -2.467970e+00 6.000000e+00
      endloop
   endfacet
   facet normal 0.000000e+00 0.000000e+00 -1.000000e+00
      outer loop
         vertex 3.460004e+00 -2.467970e+00 6.000000e+00
         vertex 6.497913e+00 -1.647122e-01 6.000000e+00
         vertex 2.086364e+00 -3.702646e+00 6.000000e+00
      endloop
   endfacet
   facet normal -0.000000e+00 0.000000e+00 -1.000000e+00
      outer loop
         vertex 6.497913e+00 -1.647122e-01 6.000000e+00
         vertex 6.061420e+00 -2.347166e+00 6.000000e+00
         vertex 2.086364e+00 -3.702646e+00 6.000000e+00
      endloop
   endfacet
   facet normal 0.000000e+00 0.000000e+00 -1.000000e+00
      outer loop
         vertex 2.086364e+00 -3.702646e+00 6.000000e+00
         vertex 6.061420e+00 -2.347166e+00 6.000000e+00
         vertex 3.190909e+00 -5.662870e+00 6.000000e+00
      endloop
   endfacet
   facet normal -0.000000e+00 0.000000e+00 -1.000000e+00
      outer loop
         vertex 6.061420e+00 -2.347166e+00 6.000000e+00
         vertex 4.914252e+00 -4.254425e+00 6.000000e+00
         vertex 3.190909e+00 -5.662870e+00 6.000000e+00
      endloop
   endfacet
   facet normal 0.000000e+00 -1.000000e+00 -0.000000e+00
      outer loop
         vertex -4.898980e+00 5.000000e+00 2.000000e+00
         vertex -4.898980e+00 5.000000e+00 6.000000e+00
         vertex -5.123488e+00 5.000000e+00 2.000000e+00
      endloop
   endfacet
   facet normal 0.000000e+00 -1.000000e+00 0.000000e+00
      outer loop
         vertex -4.898980e+00 5.000000e+00 6.000000e+00
         vertex -5.123488e+00 5.000000e+00 6.000000e+00
         vertex -5.123488e+00 5.000000e+00 2.000000e+00
      endloop
   endfacet
   facet normal 0.000000e+00 -1.000000e+00 -0.000000e+00
      outer loop
         vertex -5.123488e+00 5.000000e+00 2.000000e+00
         vertex -5.123488e+00 5.000000e+00 6.000000e+00
         vertex -5.500012e+00 5.000000e+00 4.000000e+00
      endloop
   endfacet
   facet normal 0.000000e+00 -1.000000e+00 0.000000e+00
      outer loop
         vertex 5.123488e+00 5.000000e+00 6.000000e+00
         vertex 4.898980e+00 5.000000e+00 6.000000e+00
         vertex 5.500012e+00 5.000000e+00 4.000000e+00
      endloop
   endfacet
   facet normal 0.000000e+00 -1.000000e+00 0.000000e+00
      outer loop
         vertex 4.898980e+00 5.000000e+00 6.000000e+00
         vertex 4.898980e+00 5.000000e+00 2.000000e+00
         vertex 5.500012e+00 5.000000e+00 4.000000e+00
      endloop
   endfacet
   facet normal 0.000000e+00 -1.000000e+00 0.000000e+00
      outer loop
         vertex 5.500012e+00 5.000000e+00 4.000000e+00
         vertex 4.898980e+00 5.000000e+00 2.000000e+00
         vertex 5.123488e+00 5.000000e+00 2.000000e+00
      endloop
   endfacet
   facet normal -9.827363e-01 0.000000e+00 1.850119e-01
      outer loop
         vertex -5.500012e+00 5.000000e+00 4.000000e+00
         vertex -5.123488e+00 5.000000e+00 6.000000e+00
         vertex -5.500012e+00 1.800000e+01 4.000000e+00
      endloop
   endfacet
   facet normal -9.250354e-01 0.000000e+00 3.798810e-01
      outer loop
         vertex -5.123488e+00 5.000000e+00 6.000000e+00
         vertex -5.123488e+00 3.999983e+00 6.000000e+00
         vertex -5.050363e+00 1.800000e+01 6.178066e+00
      endloop
   endfacet
   facet normal -9.244908e-01 -1.967534e-05 3.812043e-01
      outer loop
         vertex -5.123488e+00 3.999983e+00 6.000000e+00
         vertex -5.044152e+00 4.099576e+00 6.192410e+00
         vertex -5.050363e+00 1.800000e+01 6.178066e+00
      endloop
   endfacet
   facet normal -9.035896e-01 3.836269e-05 4.283991e-01
      outer loop
         vertex -5.044152e+00 4.099576e+00 6.192410e+00
         vertex -4.889942e+00 4.282344e+00 6.517658e+00
         vertex -5.050363e+00 1.800000e+01 6.178066e+00
      endloop
   endfacet
   facet normal -8.630273e-01 2.412789e-03 5.051516e-01
      outer loop
         vertex -4.889942e+00 4.282344e+00 6.517658e+00
         vertex -4.581617e+00 4.610725e+00 7.042847e+00
         vertex -5.050363e+00 1.800000e+01 6.178066e+00
      endloop
   endfacet
   facet normal -7.797445e-01 2.221065e-03 6.260939e-01
      outer loop
         vertex -4.581617e+00 4.610725e+00 7.042847e+00
         vertex -3.951388e+00 5.161059e+00 7.825790e+00
         vertex -3.774935e+00 1.800000e+01 8.000000e+00
      endloop
   endfacet
   facet normal -7.025703e-01 0.000000e+00 7.116143e-01
      outer loop
         vertex -3.951388e+00 5.161059e+00 7.825790e+00
         vertex -3.774935e+00 5.291490e+00 8.000000e+00
         vertex -3.774935e+00 1.800000e+01 8.000000e+00
      endloop
   endfacet
   facet normal -8.191877e-01 8.359740e-03 5.734646e-01
      outer loop
         vertex -3.774935e+00 1.800000e+01 8.000000e+00
         vertex -5.050363e+00 1.800000e+01 6.178066e+00
         vertex -4.581617e+00 4.610725e+00 7.042847e+00
      endloop
   endfacet
   facet normal -9.793445e-01 2.739531e-03 2.021803e-01
      outer loop
         vertex -5.050363e+00 1.800000e+01 6.178066e+00
         vertex -5.500012e+00 1.800000e+01 4.000000e+00
         vertex -5.123488e+00 5.000000e+00 6.000000e+00
      endloop
   endfacet
   facet normal -9.793445e-01 2.739531e-03 -2.021803e-01
      outer loop
         vertex -5.500012e+00 1.800000e+01 4.000000e+00
         vertex -5.050363e+00 1.800000e+01 1.821934e+00
         vertex -5.123488e+00 5.000000e+00 2.000000e+00
      endloop
   endfacet
   facet normal -8.192014e-01 6.036603e-03 -5.734741e-01
      outer loop
         vertex -5.050363e+00 1.800000e+01 1.821934e+00
         vertex -3.774935e+00 1.800000e+01 8.881784e-16
         vertex -4.815979e+00 4.365358e+00 1.343595e+00
      endloop
   endfacet
   facet normal -7.904843e-01 4.280546e-17 -6.124823e-01
      outer loop
         vertex -3.774935e+00 1.800000e+01 8.881784e-16
         vertex -3.774935e+00 5.291490e+00 0.000000e+00
         vertex -4.815979e+00 4.365358e+00 1.343595e+00
      endloop
   endfacet
   facet normal -9.054106e-01 -6.704784e-04 -4.245365e-01
      outer loop
         vertex -4.815979e+00 4.365358e+00 1.343595e+00
         vertex -5.123488e+00 3.999983e+00 2.000000e+00
         vertex -5.050363e+00 1.800000e+01 1.821934e+00
      endloop
   endfacet
   facet normal -9.250354e-01 -0.000000e+00 -3.798810e-01
      outer loop
         vertex -5.123488e+00 3.999983e+00 2.000000e+00
         vertex -5.123488e+00 5.000000e+00 2.000000e+00
         vertex -5.050363e+00 1.800000e+01 1.821934e+00
      endloop
   endfacet
   facet normal -9.827363e-01 0.000000e+00 -1.850119e-01
      outer loop
         vertex -5.123488e+00 5.000000e+00 2.000000e+00
         vertex -5.500012e+00 5.000000e+00 4.000000e+00
         vertex -5.500012e+00 1.800000e+01 4.000000e+00
      endloop
   endfacet
   facet normal -8.817265e-01 4.712283e-01 2.241169e-02
      outer loop
         vertex -6.172553e+00 2.037053e+00 2.000000e+00
         vertex -5.123488e+00 3.999983e+00 2.000000e+00
         vertex -5.304014e+00 3.757317e+00 0.000000e+00
      endloop
   endfacet
   facet normal -7.716759e-01 6.359716e-01 -7.510573e-03
      outer loop
         vertex -5.123488e+00 3.999983e+00 2.000000e+00
         vertex -4.815979e+00 4.365358e+00 1.343595e+00
         vertex -5.304014e+00 3.757317e+00 0.000000e+00
      endloop
   endfacet
   facet normal -7.069156e-01 7.045685e-01 -6.207686e-02
      outer loop
         vertex -4.815979e+00 4.365358e+00 1.343595e+00
         vertex -3.774935e+00 5.291490e+00 0.000000e+00
         vertex -5.304014e+00 3.757317e+00 0.000000e+00
      endloop
   endfacet
   facet normal -9.007647e-01 4.339371e-01 -1.793140e-02
      outer loop
         vertex -5.304014e+00 3.757317e+00 0.000000e+00
         vertex -6.244094e+00 1.805903e+00 0.000000e+00
         vertex -6.172553e+00 2.037053e+00 2.000000e+00
      endloop
   endfacet
   facet normal -9.933980e-01 1.138772e-01 -1.386729e-02
      outer loop
         vertex -6.244094e+00 1.805903e+00 0.000000e+00
         vertex -6.490782e+00 -3.460527e-01 0.000000e+00
         vertex -6.497913e+00 -1.647122e-01 2.000000e+00
      endloop
   endfacet
   facet normal -9.757081e-01 -2.188677e-01 -9.523614e-03
      outer loop
         vertex -6.490782e+00 -3.460527e-01 0.000000e+00
         vertex -6.016682e+00 -2.459580e+00 0.000000e+00
         vertex -6.061420e+00 -2.347166e+00 2.000000e+00
      endloop
   endfacet
   facet normal -8.496458e-01 -5.273311e-01 -4.901032e-03
      outer loop
         vertex -6.016682e+00 -2.459580e+00 0.000000e+00
         vertex -4.874444e+00 -4.299976e+00 0.000000e+00
         vertex -4.914252e+00 -4.254425e+00 2.000000e+00
      endloop
   endfacet
   facet normal -6.292074e-01 -7.772374e-01 0.000000e+00
      outer loop
         vertex -4.874444e+00 -4.299976e+00 0.000000e+00
         vertex -3.190909e+00 -5.662870e+00 0.000000e+00
         vertex -3.190909e+00 -5.662870e+00 2.000000e+00
      endloop
   endfacet
   facet normal -6.328093e-01 -7.742913e-01 5.039648e-03
      outer loop
         vertex -3.190909e+00 -5.662870e+00 2.000000e+00
         vertex -4.914252e+00 -4.254425e+00 2.000000e+00
         vertex -4.874444e+00 -4.299976e+00 0.000000e+00
      endloop
   endfacet
   facet normal -8.568937e-01 -5.154000e-01 9.801343e-03
      outer loop
         vertex -4.914252e+00 -4.254425e+00 2.000000e+00
         vertex -6.061420e+00 -2.347166e+00 2.000000e+00
         vertex -6.016682e+00 -2.459580e+00 0.000000e+00
      endloop
   endfacet
   facet normal -9.804804e-01 -1.960971e-01 1.428422e-02
      outer loop
         vertex -6.061420e+00 -2.347166e+00 2.000000e+00
         vertex -6.497913e+00 -1.647122e-01 2.000000e+00
         vertex -6.490782e+00 -3.460527e-01 0.000000e+00
      endloop
   endfacet
   facet normal -9.890882e-01 1.461598e-01 1.848790e-02
      outer loop
         vertex -6.497913e+00 -1.647122e-01 2.000000e+00
         vertex -6.172553e+00 2.037053e+00 2.000000e+00
         vertex -6.244094e+00 1.805903e+00 0.000000e+00
      endloop
   endfacet
   facet normal 8.712108e-01 -4.909091e-01 0.000000e+00
      outer loop
         vertex -2.086364e+00 -3.702646e+00 0.000000e+00
         vertex -2.086364e+00 -3.702646e+00 2.000000e+00
         vertex -3.190909e+00 -5.662870e+00 2.000000e+00
      endloop
   endfacet
   facet normal 8.712108e-01 -4.909091e-01 0.000000e+00
      outer loop
         vertex -3.190909e+00 -5.662870e+00 0.000000e+00
         vertex -2.086364e+00 -3.702646e+00 0.000000e+00
         vertex -3.190909e+00 -5.662870e+00 2.000000e+00
      endloop
   endfacet
   facet normal -6.684860e-01 7.437247e-01 0.000000e+00
      outer loop
         vertex 3.460004e+00 -2.467970e+00 2.000000e+00
         vertex 3.460004e+00 -2.467970e+00 0.000000e+00
         vertex 2.086364e+00 -3.702646e+00 0.000000e+00
      endloop
   endfacet
   facet normal -6.684860e-01 7.437247e-01 0.000000e+00
      outer loop
         vertex 2.086364e+00 -3.702646e+00 2.000000e+00
         vertex 3.460004e+00 -2.467970e+00 2.000000e+00
         vertex 2.086364e+00 -3.702646e+00 0.000000e+00
      endloop
   endfacet
   facet normal -9.208473e-01 3.899235e-01 0.000000e+00
      outer loop
         vertex 4.180182e+00 -7.671893e-01 2.000000e+00
         vertex 4.180182e+00 -7.671893e-01 0.000000e+00
         vertex 3.460004e+00 -2.467970e+00 0.000000e+00
      endloop
   endfacet
   facet normal -9.208473e-01 3.899235e-01 0.000000e+00
      outer loop
         vertex 3.460004e+00 -2.467970e+00 2.000000e+00
         vertex 4.180182e+00 -7.671893e-01 2.000000e+00
         vertex 3.460004e+00 -2.467970e+00 0.000000e+00
      endloop
   endfacet
   facet normal -9.992959e-01 -3.751939e-02 0.000000e+00
      outer loop
         vertex 4.110885e+00 1.078484e+00 2.000000e+00
         vertex 4.110885e+00 1.078484e+00 0.000000e+00
         vertex 4.180182e+00 -7.671893e-01 0.000000e+00
      endloop
   endfacet
   facet normal -9.992959e-01 -3.751939e-02 0.000000e+00
      outer loop
         vertex 4.180182e+00 -7.671893e-01 2.000000e+00
         vertex 4.110885e+00 1.078484e+00 2.000000e+00
         vertex 4.180182e+00 -7.671893e-01 0.000000e+00
      endloop
   endfacet
   facet normal -8.890160e-01 -4.578762e-01 0.000000e+00
      outer loop
         vertex 3.265199e+00 2.720473e+00 2.000000e+00
         vertex 3.265199e+00 2.720473e+00 0.000000e+00
         vertex 4.110885e+00 1.078484e+00 0.000000e+00
      endloop
   endfacet
   facet normal -8.890160e-01 -4.578762e-01 0.000000e+00
      outer loop
         vertex 4.110885e+00 1.078484e+00 2.000000e+00
         vertex 3.265199e+00 2.720473e+00 2.000000e+00
         vertex 4.110885e+00 1.078484e+00 0.000000e+00
      endloop
   endfacet
   facet normal -6.108352e-01 -7.917578e-01 0.000000e+00
      outer loop
         vertex 1.802844e+00 3.848669e+00 2.000000e+00
         vertex 1.802844e+00 3.848669e+00 0.000000e+00
         vertex 3.265199e+00 2.720473e+00 0.000000e+00
      endloop
   endfacet
   facet normal -6.108352e-01 -7.917578e-01 0.000000e+00
      outer loop
         vertex 3.265199e+00 2.720473e+00 2.000000e+00
         vertex 1.802844e+00 3.848669e+00 2.000000e+00
         vertex 3.265199e+00 2.720473e+00 0.000000e+00
      endloop
   endfacet
   facet normal -2.172910e-01 -9.761069e-01 0.000000e+00
      outer loop
         vertex -4.440892e-16 4.250000e+00 2.000000e+00
         vertex -4.440892e-16 4.250000e+00 0.000000e+00
         vertex 1.802844e+00 3.848669e+00 0.000000e+00
      endloop
   endfacet
   facet normal -2.172910e-01 -9.761069e-01 0.000000e+00
      outer loop
         vertex 1.802844e+00 3.848669e+00 2.000000e+00
         vertex -4.440892e-16 4.250000e+00 2.000000e+00
         vertex 1.802844e+00 3.848669e+00 0.000000e+00
      endloop
   endfacet
   facet normal 2.172910e-01 -9.761069e-01 0.000000e+00
      outer loop
         vertex -1.802844e+00 3.848669e+00 2.000000e+00
         vertex -1.802844e+00 3.848669e+00 0.000000e+00
         vertex -4.440892e-16 4.250000e+00 0.000000e+00
      endloop
   endfacet
   facet normal 2.172910e-01 -9.761069e-01 0.000000e+00
      outer loop
         vertex -4.440892e-16 4.250000e+00 2.000000e+00
         vertex -1.802844e+00 3.848669e+00 2.000000e+00
         vertex -4.440892e-16 4.250000e+00 0.000000e+00
      endloop
   endfacet
   facet normal 6.108352e-01 -7.917578e-01 0.000000e+00
      outer loop
         vertex -3.265199e+00 2.720473e+00 2.000000e+00
         vertex -3.265199e+00 2.720473e+00 0.000000e+00
         vertex -1.802844e+00 3.848669e+00 0.000000e+00
      endloop
   endfacet
   facet normal 6.108352e-01 -7.917578e-01 0.000000e+00
      outer loop
         vertex -1.802844e+00 3.848669e+00 2.000000e+00
         vertex -3.265199e+00 2.720473e+00 2.000000e+00
         vertex -1.802844e+00 3.848669e+00 0.000000e+00
      endloop
   endfacet
   facet normal 8.890160e-01 -4.578762e-01 0.000000e+00
      outer loop
         vertex -4.110885e+00 1.078484e+00 2.000000e+00
         vertex -4.110885e+00 1.078484e+00 0.000000e+00
         vertex -3.265199e+00 2.720473e+00 0.000000e+00
      endloop
   endfacet
   facet normal 8.890160e-01 -4.578762e-01 0.000000e+00
      outer loop
         vertex -3.265199e+00 2.720473e+00 2.000000e+00
         vertex -4.110885e+00 1.078484e+00 2.000000e+00
         vertex -3.265199e+00 2.720473e+00 0.000000e+00
      endloop
   endfacet
   facet normal 9.992959e-01 -3.751939e-02 0.000000e+00
      outer loop
         vertex -4.180182e+00 -7.671893e-01 2.000000e+00
         vertex -4.180182e+00 -7.671893e-01 0.000000e+00
         vertex -4.110885e+00 1.078484e+00 0.000000e+00
      endloop
   endfacet
   facet normal 9.992959e-01 -3.751939e-02 0.000000e+00
      outer loop
         vertex -4.110885e+00 1.078484e+00 2.000000e+00
         vertex -4.180182e+00 -7.671893e-01 2.000000e+00
         vertex -4.110885e+00 1.078484e+00 0.000000e+00
      endloop
   endfacet
   facet normal 9.208473e-01 3.899235e-01 -0.000000e+00
      outer loop
         vertex -3.460004e+00 -2.467970e+00 2.000000e+00
         vertex -3.460004e+00 -2.467970e+00 0.000000e+00
         vertex -4.180182e+00 -7.671893e-01 0.000000e+00
      endloop
   endfacet
   facet normal 9.208473e-01 3.899235e-01 0.000000e+00
      outer loop
         vertex -4.180182e+00 -7.671893e-01 2.000000e+00
         vertex -3.460004e+00 -2.467970e+00 2.000000e+00
         vertex -4.180182e+00 -7.671893e-01 0.000000e+00
      endloop
   endfacet
   facet normal 6.684860e-01 7.437247e-01 -0.000000e+00
      outer loop
         vertex -2.086364e+00 -3.702646e+00 2.000000e+00
         vertex -2.086364e+00 -3.702646e+00 0.000000e+00
         vertex -3.460004e+00 -2.467970e+00 0.000000e+00
      endloop
   endfacet
   facet normal 6.684860e-01 7.437247e-01 0.000000e+00
      outer loop
         vertex -3.460004e+00 -2.467970e+00 2.000000e+00
         vertex -2.086364e+00 -3.702646e+00 2.000000e+00
         vertex -3.460004e+00 -2.467970e+00 0.000000e+00
      endloop
   endfacet
   facet normal -8.712108e-01 -4.909091e-01 -0.000000e+00
      outer loop
         vertex 3.190909e+00 -5.662870e+00 0.000000e+00
         vertex 3.190909e+00 -5.662870e+00 2.000000e+00
         vertex 2.086364e+00 -3.702646e+00 2.000000e+00
      endloop
   endfacet
   facet normal -8.712108e-01 -4.909091e-01 0.000000e+00
      outer loop
         vertex 2.086364e+00 -3.702646e+00 0.000000e+00
         vertex 3.190909e+00 -5.662870e+00 0.000000e+00
         vertex 2.086364e+00 -3.702646e+00 2.000000e+00
      endloop
   endfacet
   facet normal 7.740506e-01 6.330856e-01 -6.946064e-03
      outer loop
         vertex 4.854044e+00 4.322991e+00 1.413808e+00
         vertex 5.123488e+00 3.999983e+00 2.000000e+00
         vertex 5.304014e+00 3.757317e+00 0.000000e+00
      endloop
   endfacet
   facet normal 8.817265e-01 4.712283e-01 2.241169e-02
      outer loop
         vertex 5.123488e+00 3.999983e+00 2.000000e+00
         vertex 6.172553e+00 2.037053e+00 2.000000e+00
         vertex 5.304014e+00 3.757317e+00 0.000000e+00
      endloop
   endfacet
   facet normal 9.890882e-01 1.461598e-01 1.848790e-02
      outer loop
         vertex 6.172553e+00 2.037053e+00 2.000000e+00
         vertex 6.497913e+00 -1.647122e-01 2.000000e+00
         vertex 6.244094e+00 1.805903e+00 0.000000e+00
      endloop
   endfacet
   facet normal 9.804804e-01 -1.960971e-01 1.428422e-02
      outer loop
         vertex 6.497913e+00 -1.647122e-01 2.000000e+00
         vertex 6.061420e+00 -2.347166e+00 2.000000e+00
         vertex 6.490782e+00 -3.460527e-01 0.000000e+00
      endloop
   endfacet
   facet normal 8.568937e-01 -5.154000e-01 9.801343e-03
      outer loop
         vertex 6.061420e+00 -2.347166e+00 2.000000e+00
         vertex 4.914252e+00 -4.254425e+00 2.000000e+00
         vertex 6.016682e+00 -2.459580e+00 0.000000e+00
      endloop
   endfacet
   facet normal 6.328093e-01 -7.742913e-01 5.039648e-03
      outer loop
         vertex 4.914252e+00 -4.254425e+00 2.000000e+00
         vertex 3.190909e+00 -5.662870e+00 2.000000e+00
         vertex 4.874444e+00 -4.299976e+00 0.000000e+00
      endloop
   endfacet
   facet normal 6.292074e-01 -7.772374e-01 0.000000e+00
      outer loop
         vertex 3.190909e+00 -5.662870e+00 2.000000e+00
         vertex 3.190909e+00 -5.662870e+00 0.000000e+00
         vertex 4.874444e+00 -4.299976e+00 0.000000e+00
      endloop
   endfacet
   facet normal 8.496458e-01 -5.273311e-01 -4.901032e-03
      outer loop
         vertex 4.874444e+00 -4.299976e+00 0.000000e+00
         vertex 6.016682e+00 -2.459580e+00 0.000000e+00
         vertex 4.914252e+00 -4.254425e+00 2.000000e+00
      endloop
   endfacet
   facet normal 9.757081e-01 -2.188677e-01 -9.523614e-03
      outer loop
         vertex 6.016682e+00 -2.459580e+00 0.000000e+00
         vertex 6.490782e+00 -3.460527e-01 0.000000e+00
         vertex 6.061420e+00 -2.347166e+00 2.000000e+00
      endloop
   endfacet
   facet normal 9.933980e-01 1.138772e-01 -1.386729e-02
      outer loop
         vertex 6.490782e+00 -3.460527e-01 0.000000e+00
         vertex 6.244094e+00 1.805903e+00 0.000000e+00
         vertex 6.497913e+00 -1.647122e-01 2.000000e+00
      endloop
   endfacet
   facet normal 9.007647e-01 4.339371e-01 -1.793140e-02
      outer loop
         vertex 6.244094e+00 1.805903e+00 0.000000e+00
         vertex 5.304014e+00 3.757317e+00 0.000000e+00
         vertex 6.172553e+00 2.037053e+00 2.000000e+00
      endloop
   endfacet
   facet normal 7.035391e-01 7.012032e-01 -1.155283e-01
      outer loop
         vertex 5.304014e+00 3.757317e+00 0.000000e+00
         vertex 3.774935e+00 5.291490e+00 1.480297e-15
         vertex 4.432371e+00 4.754376e+00 7.435873e-01
      endloop
   endfacet
   facet normal 7.400398e-01 6.717414e-01 -3.323706e-02
      outer loop
         vertex 4.432371e+00 4.754376e+00 7.435873e-01
         vertex 4.854044e+00 4.322991e+00 1.413808e+00
         vertex 5.304014e+00 3.757317e+00 0.000000e+00
      endloop
   endfacet
   facet normal 8.907915e-01 -1.126811e-03 4.544109e-01
      outer loop
         vertex 4.630199e+00 4.561935e+00 6.968399e+00
         vertex 5.123488e+00 3.999983e+00 6.000000e+00
         vertex 5.050363e+00 1.800000e+01 6.178066e+00
      endloop
   endfacet
   facet normal 9.250354e-01 0.000000e+00 3.798810e-01
      outer loop
         vertex 5.123488e+00 3.999983e+00 6.000000e+00
         vertex 5.123488e+00 5.000000e+00 6.000000e+00
         vertex 5.050363e+00 1.800000e+01 6.178066e+00
      endloop
   endfacet
   facet normal 9.827363e-01 -0.000000e+00 1.850119e-01
      outer loop
         vertex 5.123488e+00 5.000000e+00 6.000000e+00
         vertex 5.500012e+00 5.000000e+00 4.000000e+00
         vertex 5.500012e+00 1.800000e+01 4.000000e+00
      endloop
   endfacet
   facet normal 9.827363e-01 0.000000e+00 -1.850119e-01
      outer loop
         vertex 5.500012e+00 5.000000e+00 4.000000e+00
         vertex 5.123488e+00 5.000000e+00 2.000000e+00
         vertex 5.500012e+00 1.800000e+01 4.000000e+00
      endloop
   endfacet
   facet normal 9.250354e-01 0.000000e+00 -3.798810e-01
      outer loop
         vertex 5.123488e+00 5.000000e+00 2.000000e+00
         vertex 5.123488e+00 3.999983e+00 2.000000e+00
         vertex 5.050363e+00 1.800000e+01 1.821934e+00
      endloop
   endfacet
   facet normal 9.084911e-01 -5.700262e-04 -4.179037e-01
      outer loop
         vertex 5.123488e+00 3.999983e+00 2.000000e+00
         vertex 4.854044e+00 4.322991e+00 1.413808e+00
         vertex 5.050363e+00 1.800000e+01 1.821934e+00
      endloop
   endfacet
   facet normal 8.474723e-01 3.675495e-03 -5.308269e-01
      outer loop
         vertex 4.854044e+00 4.322991e+00 1.413808e+00
         vertex 4.432371e+00 4.754376e+00 7.435873e-01
         vertex 5.050363e+00 1.800000e+01 1.821934e+00
      endloop
   endfacet
   facet normal 7.491732e-01 7.937534e-17 -6.623741e-01
      outer loop
         vertex 4.432371e+00 4.754376e+00 7.435873e-01
         vertex 3.774935e+00 5.291490e+00 1.480297e-15
         vertex 3.774935e+00 1.800000e+01 3.003217e-15
      endloop
   endfacet
   facet normal 8.191870e-01 8.466340e-03 -5.734640e-01
      outer loop
         vertex 3.774935e+00 1.800000e+01 3.003217e-15
         vertex 5.050363e+00 1.800000e+01 1.821934e+00
         vertex 4.432371e+00 4.754376e+00 7.435873e-01
      endloop
   endfacet
   facet normal 9.793445e-01 2.739531e-03 -2.021803e-01
      outer loop
         vertex 5.050363e+00 1.800000e+01 1.821934e+00
         vertex 5.500012e+00 1.800000e+01 4.000000e+00
         vertex 5.123488e+00 5.000000e+00 2.000000e+00
      endloop
   endfacet
   facet normal 9.793445e-01 2.739531e-03 2.021803e-01
      outer loop
         vertex 5.500012e+00 1.800000e+01 4.000000e+00
         vertex 5.050363e+00 1.800000e+01 6.178066e+00
         vertex 5.123488e+00 5.000000e+00 6.000000e+00
      endloop
   endfacet
   facet normal 8.191894e-01 8.113913e-03 5.734657e-01
      outer loop
         vertex 5.050363e+00 1.800000e+01 6.178066e+00
         vertex 3.774935e+00 1.800000e+01 8.000000e+00
         vertex 4.630199e+00 4.561935e+00 6.968399e+00
      endloop
   endfacet
   facet normal 7.013838e-01 -0.000000e+00 7.127838e-01
      outer loop
         vertex 3.774935e+00 1.800000e+01 8.000000e+00
         vertex 3.774935e+00 5.291490e+00 8.000000e+00
         vertex 3.938615e+00 5.170813e+00 7.838938e+00
      endloop
   endfacet
   facet normal 7.417698e-01 1.044176e-03 6.706538e-01
      outer loop
         vertex 3.938615e+00 5.170813e+00 7.838938e+00
         vertex 4.211154e+00 4.951382e+00 7.537841e+00
         vertex 3.774935e+00 1.800000e+01 8.000000e+00
      endloop
   endfacet
   facet normal 8.073932e-01 6.095227e-03 5.899822e-01
      outer loop
         vertex 4.211154e+00 4.951382e+00 7.537841e+00
         vertex 4.630199e+00 4.561935e+00 6.968399e+00
         vertex 3.774935e+00 1.800000e+01 8.000000e+00
      endloop
   endfacet
   facet normal 6.292074e-01 -7.772374e-01 0.000000e+00
      outer loop
         vertex 3.190909e+00 -5.662870e+00 8.000000e+00
         vertex 3.190909e+00 -5.662870e+00 6.000000e+00
         vertex 4.874444e+00 -4.299976e+00 8.000000e+00
      endloop
   endfacet
   facet normal 6.328093e-01 -7.742913e-01 -5.039648e-03
      outer loop
         vertex 3.190909e+00 -5.662870e+00 6.000000e+00
         vertex 4.914252e+00 -4.254425e+00 6.000000e+00
         vertex 4.874444e+00 -4.299976e+00 8.000000e+00
      endloop
   endfacet
   facet normal 8.568937e-01 -5.154000e-01 -9.801343e-03
      outer loop
         vertex 4.914252e+00 -4.254425e+00 6.000000e+00
         vertex 6.061420e+00 -2.347166e+00 6.000000e+00
         vertex 6.016682e+00 -2.459580e+00 8.000000e+00
      endloop
   endfacet
   facet normal 9.804804e-01 -1.960971e-01 -1.428422e-02
      outer loop
         vertex 6.061420e+00 -2.347166e+00 6.000000e+00
         vertex 6.497913e+00 -1.647122e-01 6.000000e+00
         vertex 6.490782e+00 -3.460527e-01 8.000000e+00
      endloop
   endfacet
   facet normal 9.890882e-01 1.461598e-01 -1.848790e-02
      outer loop
         vertex 6.497913e+00 -1.647122e-01 6.000000e+00
         vertex 6.172553e+00 2.037053e+00 6.000000e+00
         vertex 6.244094e+00 1.805903e+00 8.000000e+00
      endloop
   endfacet
   facet normal 8.817265e-01 4.712283e-01 -2.241169e-02
      outer loop
         vertex 6.172553e+00 2.037053e+00 6.000000e+00
         vertex 5.123488e+00 3.999983e+00 6.000000e+00
         vertex 5.304014e+00 3.757317e+00 8.000000e+00
      endloop
   endfacet
   facet normal 7.601488e-01 6.496687e-01 1.021295e-02
      outer loop
         vertex 5.123488e+00 3.999983e+00 6.000000e+00
         vertex 4.630199e+00 4.561935e+00 6.968399e+00
         vertex 5.304014e+00 3.757317e+00 8.000000e+00
      endloop
   endfacet
   facet normal 7.239629e-01 6.869620e-01 6.293628e-02
      outer loop
         vertex 4.630199e+00 4.561935e+00 6.968399e+00
         vertex 4.211154e+00 4.951382e+00 7.537841e+00
         vertex 5.304014e+00 3.757317e+00 8.000000e+00
      endloop
   endfacet
   facet normal 7.055304e-01 6.964565e-01 1.310540e-01
      outer loop
         vertex 4.211154e+00 4.951382e+00 7.537841e+00
         vertex 3.938615e+00 5.170813e+00 7.838938e+00
         vertex 5.304014e+00 3.757317e+00 8.000000e+00
      endloop
   endfacet
   facet normal 6.957218e-01 6.934119e-01 1.874862e-01
      outer loop
         vertex 3.938615e+00 5.170813e+00 7.838938e+00
         vertex 3.774935e+00 5.291490e+00 8.000000e+00
         vertex 5.304014e+00 3.757317e+00 8.000000e+00
      endloop
   endfacet
   facet normal 9.007647e-01 4.339371e-01 1.793140e-02
      outer loop
         vertex 5.304014e+00 3.757317e+00 8.000000e+00
         vertex 6.244094e+00 1.805903e+00 8.000000e+00
         vertex 6.172553e+00 2.037053e+00 6.000000e+00
      endloop
   endfacet
   facet normal 9.933980e-01 1.138772e-01 1.386729e-02
      outer loop
         vertex 6.244094e+00 1.805903e+00 8.000000e+00
         vertex 6.490782e+00 -3.460527e-01 8.000000e+00
         vertex 6.497913e+00 -1.647122e-01 6.000000e+00
      endloop
   endfacet
   facet normal 9.757081e-01 -2.188677e-01 9.523614e-03
      outer loop
         vertex 6.490782e+00 -3.460527e-01 8.000000e+00
         vertex 6.016682e+00 -2.459580e+00 8.000000e+00
         vertex 6.061420e+00 -2.347166e+00 6.000000e+00
      endloop
   endfacet
   facet normal 8.496458e-01 -5.273311e-01 4.901032e-03
      outer loop
         vertex 6.016682e+00 -2.459580e+00 8.000000e+00
         vertex 4.874444e+00 -4.299976e+00 8.000000e+00
         vertex 4.914252e+00 -4.254425e+00 6.000000e+00
      endloop
   endfacet
   facet normal -8.712108e-01 -4.909091e-01 0.000000e+00
      outer loop
         vertex 2.086364e+00 -3.702646e+00 8.000000e+00
         vertex 2.086364e+00 -3.702646e+00 6.000000e+00
         vertex 3.190909e+00 -5.662870e+00 6.000000e+00
      endloop
   endfacet
   facet normal -8.712108e-01 -4.909091e-01 0.000000e+00
      outer loop
         vertex 3.190909e+00 -5.662870e+00 8.000000e+00
         vertex 2.086364e+00 -3.702646e+00 8.000000e+00
         vertex 3.190909e+00 -5.662870e+00 6.000000e+00
      endloop
   endfacet
   facet normal -6.684860e-01 7.437247e-01 0.000000e+00
      outer loop
         vertex 3.460004e+00 -2.467970e+00 8.000000e+00
         vertex 3.460004e+00 -2.467970e+00 6.000000e+00
         vertex 2.086364e+00 -3.702646e+00 6.000000e+00
      endloop
   endfacet
   facet normal -6.684860e-01 7.437247e-01 0.000000e+00
      outer loop
         vertex 2.086364e+00 -3.702646e+00 8.000000e+00
         vertex 3.460004e+00 -2.467970e+00 8.000000e+00
         vertex 2.086364e+00 -3.702646e+00 6.000000e+00
      endloop
   endfacet
   facet normal -9.208473e-01 3.899235e-01 0.000000e+00
      outer loop
         vertex 4.180182e+00 -7.671893e-01 8.000000e+00
         vertex 4.180182e+00 -7.671893e-01 6.000000e+00
         vertex 3.460004e+00 -2.467970e+00 6.000000e+00
      endloop
   endfacet
   facet normal -9.208473e-01 3.899235e-01 0.000000e+00
      outer loop
         vertex 3.460004e+00 -2.467970e+00 8.000000e+00
         vertex 4.180182e+00 -7.671893e-01 8.000000e+00
         vertex 3.460004e+00 -2.467970e+00 6.000000e+00
      endloop
   endfacet
   facet normal -9.992959e-01 -3.751939e-02 0.000000e+00
      outer loop
         vertex 4.110885e+00 1.078484e+00 8.000000e+00
         vertex 4.110885e+00 1.078484e+00 6.000000e+00
         vertex 4.180182e+00 -7.671893e-01 6.000000e+00
      endloop
   endfacet
   facet normal -9.992959e-01 -3.751939e-02 0.000000e+00
      outer loop
         vertex 4.180182e+00 -7.671893e-01 8.000000e+00
         vertex 4.110885e+00 1.078484e+00 8.000000e+00
         vertex 4.180182e+00 -7.671893e-01 6.000000e+00
      endloop
   endfacet
   facet normal -8.890160e-01 -4.578762e-01 0.000000e+00
      outer loop
         vertex 3.265199e+00 2.720473e+00 8.000000e+00
         vertex 3.265199e+00 2.720473e+00 6.000000e+00
         vertex 4.110885e+00 1.078484e+00 6.000000e+00
      endloop
   endfacet
   facet normal -8.890160e-01 -4.578762e-01 0.000000e+00
      outer loop
         vertex 4.110885e+00 1.078484e+00 8.000000e+00
         vertex 3.265199e+00 2.720473e+00 8.000000e+00
         vertex 4.110885e+00 1.078484e+00 6.000000e+00
      endloop
   endfacet
   facet normal -6.108352e-01 -7.917578e-01 0.000000e+00
      outer loop
         vertex 1.802844e+00 3.848669e+00 8.000000e+00
         vertex 1.802844e+00 3.848669e+00 6.000000e+00
         vertex 3.265199e+00 2.720473e+00 6.000000e+00
      endloop
   endfacet
   facet normal -6.108352e-01 -7.917578e-01 0.000000e+00
      outer loop
         vertex 3.265199e+00 2.720473e+00 8.000000e+00
         vertex 1.802844e+00 3.848669e+00 8.000000e+00
         vertex 3.265199e+00 2.720473e+00 6.000000e+00
      endloop
   endfacet
   facet normal -2.172910e-01 -9.761069e-01 0.000000e+00
      outer loop
         vertex -4.440892e-16 4.250000e+00 8.000000e+00
         vertex -4.440892e-16 4.250000e+00 6.000000e+00
         vertex 1.802844e+00 3.848669e+00 6.000000e+00
      endloop
   endfacet
   facet normal -2.172910e-01 -9.761069e-01 0.000000e+00
      outer loop
         vertex 1.802844e+00 3.848669e+00 8.000000e+00
         vertex -4.440892e-16 4.250000e+00 8.000000e+00
         vertex 1.802844e+00 3.848669e+00 6.000000e+00
      endloop
   endfacet
   facet normal 2.172910e-01 -9.761069e-01 0.000000e+00
      outer loop
         vertex -1.802844e+00 3.848669e+00 8.000000e+00
         vertex -1.802844e+00 3.848669e+00 6.000000e+00
         vertex -4.440892e-16 4.250000e+00 6.000000e+00
      endloop
   endfacet
   facet normal 2.172910e-01 -9.761069e-01 0.000000e+00
      outer loop
         vertex -4.440892e-16 4.250000e+00 8.000000e+00
         vertex -1.802844e+00 3.848669e+00 8.000000e+00
         vertex -4.440892e-16 4.250000e+00 6.000000e+00
      endloop
   endfacet
   facet normal 6.108352e-01 -7.917578e-01 0.000000e+00
      outer loop
         vertex -3.265199e+00 2.720473e+00 8.000000e+00
         vertex -3.265199e+00 2.720473e+00 6.000000e+00
         vertex -1.802844e+00 3.848669e+00 6.000000e+00
      endloop
   endfacet
   facet normal 6.108352e-01 -7.917578e-01 0.000000e+00
      outer loop
         vertex -1.802844e+00 3.848669e+00 8.000000e+00
         vertex -3.265199e+00 2.720473e+00 8.000000e+00
         vertex -1.802844e+00 3.848669e+00 6.000000e+00
      endloop
   endfacet
   facet normal 8.890160e-01 -4.578762e-01 0.000000e+00
      outer loop
         vertex -4.110885e+00 1.078484e+00 8.000000e+00
         vertex -4.110885e+00 1.078484e+00 6.000000e+00
         vertex -3.265199e+00 2.720473e+00 6.000000e+00
      endloop
   endfacet
   facet normal 8.890160e-01 -4.578762e-01 0.000000e+00
      outer loop
         vertex -3.265199e+00 2.720473e+00 8.000000e+00
         vertex -4.110885e+00 1.078484e+00 8.000000e+00
         vertex -3.265199e+00 2.720473e+00 6.000000e+00
      endloop
   endfacet
   facet normal 9.992959e-01 -3.751939e-02 0.000000e+00
      outer loop
         vertex -4.180182e+00 -7.671893e-01 8.000000e+00
         vertex -4.180182e+00 -7.671893e-01 6.000000e+00
         vertex -4.110885e+00 1.078484e+00 6.000000e+00
      endloop
   endfacet
   facet normal 9.992959e-01 -3.751939e-02 0.000000e+00
      outer loop
         vertex -4.110885e+00 1.078484e+00 8.000000e+00
         vertex -4.180182e+00 -7.671893e-01 8.000000e+00
         vertex -4.110885e+00 1.078484e+00 6.000000e+00
      endloop
   endfacet
   facet normal 9.208473e-01 3.899235e-01 -0.000000e+00
      outer loop
         vertex -3.460004e+00 -2.467970e+00 8.000000e+00
         vertex -3.460004e+00 -2.467970e+00 6.000000e+00
         vertex -4.180182e+00 -7.671893e-01 6.000000e+00
      endloop
   endfacet
   facet normal 9.208473e-01 3.899235e-01 0.000000e+00
      outer loop
         vertex -4.180182e+00 -7.671893e-01 8.000000e+00
         vertex -3.460004e+00 -2.467970e+00 8.000000e+00
         vertex -4.180182e+00 -7.671893e-01 6.000000e+00
      endloop
   endfacet
   facet normal 6.684860e-01 7.437247e-01 -0.000000e+00
      outer loop
         vertex -2.086364e+00 -3.702646e+00 8.000000e+00
         vertex -2.086364e+00 -3.702646e+00 6.000000e+00
         vertex -3.460004e+00 -2.467970e+00 6.000000e+00
      endloop
   endfacet
   facet normal 6.684860e-01 7.437247e-01 0.000000e+00
      outer loop
         vertex -3.460004e+00 -2.467970e+00 8.000000e+00
         vertex -2.086364e+00 -3.702646e+00 8.000000e+00
         vertex -3.460004e+00 -2.467970e+00 6.000000e+00
      endloop
   endfacet
   facet normal 8.712108e-01 -4.909091e-01 0.000000e+00
      outer loop
         vertex -3.190909e+00 -5.662870e+00 8.000000e+00
         vertex -3.190909e+00 -5.662870e+00 6.000000e+00
         vertex -2.086364e+00 -3.702646e+00 6.000000e+00
      endloop
   endfacet
   facet normal 8.712108e-01 -4.909091e-01 0.000000e+00
      outer loop
         vertex -2.086364e+00 -3.702646e+00 8.000000e+00
         vertex -3.190909e+00 -5.662870e+00 8.000000e+00
         vertex -2.086364e+00 -3.702646e+00 6.000000e+00
      endloop
   endfacet
   facet normal -7.859742e-01 6.182459e-01 4.069258e-03
      outer loop
         vertex -5.044152e+00 4.099576e+00 6.192410e+00
         vertex -5.123488e+00 3.999983e+00 6.000000e+00
         vertex -5.304014e+00 3.757317e+00 8.000000e+00
      endloop
   endfacet
   facet normal -8.817265e-01 4.712283e-01 -2.241169e-02
      outer loop
         vertex -5.123488e+00 3.999983e+00 6.000000e+00
         vertex -6.172553e+00 2.037053e+00 6.000000e+00
         vertex -5.304014e+00 3.757317e+00 8.000000e+00
      endloop
   endfacet
   facet normal -9.890882e-01 1.461598e-01 -1.848790e-02
      outer loop
         vertex -6.172553e+00 2.037053e+00 6.000000e+00
         vertex -6.497913e+00 -1.647122e-01 6.000000e+00
         vertex -6.244094e+00 1.805903e+00 8.000000e+00
      endloop
   endfacet
   facet normal -9.804804e-01 -1.960971e-01 -1.428422e-02
      outer loop
         vertex -6.497913e+00 -1.647122e-01 6.000000e+00
         vertex -6.061420e+00 -2.347166e+00 6.000000e+00
         vertex -6.490782e+00 -3.460527e-01 8.000000e+00
      endloop
   endfacet
   facet normal -8.568937e-01 -5.154000e-01 -9.801343e-03
      outer loop
         vertex -6.061420e+00 -2.347166e+00 6.000000e+00
         vertex -4.914252e+00 -4.254425e+00 6.000000e+00
         vertex -6.016682e+00 -2.459580e+00 8.000000e+00
      endloop
   endfacet
   facet normal -6.328093e-01 -7.742913e-01 -5.039648e-03
      outer loop
         vertex -4.914252e+00 -4.254425e+00 6.000000e+00
         vertex -3.190909e+00 -5.662870e+00 6.000000e+00
         vertex -4.874444e+00 -4.299976e+00 8.000000e+00
      endloop
   endfacet
   facet normal -6.292074e-01 -7.772374e-01 -0.000000e+00
      outer loop
         vertex -3.190909e+00 -5.662870e+00 6.000000e+00
         vertex -3.190909e+00 -5.662870e+00 8.000000e+00
         vertex -4.874444e+00 -4.299976e+00 8.000000e+00
      endloop
   endfacet
   facet normal -8.496458e-01 -5.273311e-01 4.901032e-03
      outer loop
         vertex -4.874444e+00 -4.299976e+00 8.000000e+00
         vertex -6.016682e+00 -2.459580e+00 8.000000e+00
         vertex -4.914252e+00 -4.254425e+00 6.000000e+00
      endloop
   endfacet
   facet normal -9.757081e-01 -2.188677e-01 9.523614e-03
      outer loop
         vertex -6.016682e+00 -2.459580e+00 8.000000e+00
         vertex -6.490782e+00 -3.460527e-01 8.000000e+00
         vertex -6.061420e+00 -2.347166e+00 6.000000e+00
      endloop
   endfacet
   facet normal -9.933980e-01 1.138772e-01 1.386729e-02
      outer loop
         vertex -6.490782e+00 -3.460527e-01 8.000000e+00
         vertex -6.244094e+00 1.805903e+00 8.000000e+00
         vertex -6.497913e+00 -1.647122e-01 6.000000e+00
      endloop
   endfacet
   facet normal -9.007647e-01 4.339371e-01 1.793140e-02
      outer loop
         vertex -6.244094e+00 1.805903e+00 8.000000e+00
         vertex -5.304014e+00 3.757317e+00 8.000000e+00
         vertex -6.172553e+00 2.037053e+00 6.000000e+00
      endloop
   endfacet
   facet normal -6.959769e-01 6.936661e-01 1.855898e-01
      outer loop
         vertex -5.304014e+00 3.757317e+00 8.000000e+00
         vertex -3.774935e+00 5.291490e+00 8.000000e+00
         vertex -3.951388e+00 5.161059e+00 7.825790e+00
      endloop
   endfacet
   facet normal -7.123672e-01 6.968061e-01 8.363116e-02
      outer loop
         vertex -3.951388e+00 5.161059e+00 7.825790e+00
         vertex -4.581617e+00 4.610725e+00 7.042847e+00
         vertex -5.304014e+00 3.757317e+00 8.000000e+00
      endloop
   endfacet
   facet normal -7.487643e-01 6.623481e-01 2.543787e-02
      outer loop
         vertex -4.581617e+00 4.610725e+00 7.042847e+00
         vertex -4.889942e+00 4.282344e+00 6.517658e+00
         vertex -5.304014e+00 3.757317e+00 8.000000e+00
      endloop
   endfacet
   facet normal -7.723036e-01 6.351864e-01 9.242181e-03
      outer loop
         vertex -4.889942e+00 4.282344e+00 6.517658e+00
         vertex -5.044152e+00 4.099576e+00 6.192410e+00
         vertex -5.304014e+00 3.757317e+00 8.000000e+00
      endloop
   endfacet
   facet normal 0.000000e+00 0.000000e+00 1.000000e+00
      outer loop
         vertex -3.190909e+00 -5.662870e+00 8.000000e+00
         vertex -2.086364e+00 -3.702646e+00 8.000000e+00
         vertex -4.874444e+00 -4.299976e+00 8.000000e+00
      endloop
   endfacet
   facet normal 0.000000e+00 0.000000e+00 1.000000e+00
      outer loop
         vertex -2.086364e+00 -3.702646e+00 8.000000e+00
         vertex -3.460004e+00 -2.467970e+00 8.000000e+00
         vertex -4.874444e+00 -4.299976e+00 8.000000e+00
      endloop
   endfacet
   facet normal 0.000000e+00 0.000000e+00 1.000000e+00
      outer loop
         vertex -4.874444e+00 -4.299976e+00 8.000000e+00
         vertex -3.460004e+00 -2.467970e+00 8.000000e+00
         vertex -6.016682e+00 -2.459580e+00 8.000000e+00
      endloop
   endfacet
   facet normal 0.000000e+00 0.000000e+00 1.000000e+00
      outer loop
         vertex -3.460004e+00 -2.467970e+00 8.000000e+00
         vertex -4.180182e+00 -7.671893e-01 8.000000e+00
         vertex -6.016682e+00 -2.459580e+00 8.000000e+00
      endloop
   endfacet
   facet normal 0.000000e+00 0.000000e+00 1.000000e+00
      outer loop
         vertex -6.016682e+00 -2.459580e+00 8.000000e+00
         vertex -4.180182e+00 -7.671893e-01 8.000000e+00
         vertex -6.490782e+00 -3.460527e-01 8.000000e+00
      endloop
   endfacet
   facet normal 0.000000e+00 0.000000e+00 1.000000e+00
      outer loop
         vertex -4.180182e+00 -7.671893e-01 8.000000e+00
         vertex -4.110885e+00 1.078484e+00 8.000000e+00
         vertex -6.490782e+00 -3.460527e-01 8.000000e+00
      endloop
   endfacet
   facet normal 0.000000e+00 0.000000e+00 1.000000e+00
      outer loop
         vertex -6.490782e+00 -3.460527e-01 8.000000e+00
         vertex -4.110885e+00 1.078484e+00 8.000000e+00
         vertex -6.244094e+00 1.805903e+00 8.000000e+00
      endloop
   endfacet
   facet normal 0.000000e+00 0.000000e+00 1.000000e+00
      outer loop
         vertex -4.110885e+00 1.078484e+00 8.000000e+00
         vertex -3.265199e+00 2.720473e+00 8.000000e+00
         vertex -6.244094e+00 1.805903e+00 8.000000e+00
      endloop
   endfacet
   facet normal 0.000000e+00 0.000000e+00 1.000000e+00
      outer loop
         vertex -6.244094e+00 1.805903e+00 8.000000e+00
         vertex -3.265199e+00 2.720473e+00 8.000000e+00
         vertex -5.304014e+00 3.757317e+00 8.000000e+00
      endloop
   endfacet
   facet normal 0.000000e+00 0.000000e+00 1.000000e+00
      outer loop
         vertex -3.265199e+00 2.720473e+00 8.000000e+00
         vertex -1.802844e+00 3.848669e+00 8.000000e+00
         vertex -5.304014e+00 3.757317e+00 8.000000e+00
      endloop
   endfacet
   facet normal 0.000000e+00 0.000000e+00 1.000000e+00
      outer loop
         vertex -5.304014e+00 3.757317e+00 8.000000e+00
         vertex -1.802844e+00 3.848669e+00 8.000000e+00
         vertex -3.774935e+00 5.291490e+00 8.000000e+00
      endloop
   endfacet
   facet normal 0.000000e+00 0.000000e+00 1.000000e+00
      outer loop
         vertex -1.802844e+00 3.848669e+00 8.000000e+00
         vertex -5.169187e-16 4.250000e+00 8.000000e+00
         vertex -3.774935e+00 5.291490e+00 8.000000e+00
      endloop
   endfacet
   facet normal 0.000000e+00 0.000000e+00 1.000000e+00
      outer loop
         vertex -3.774935e+00 5.291490e+00 8.000000e+00
         vertex -5.169187e-16 4.250000e+00 8.000000e+00
         vertex -3.774935e+00 1.800000e+01 8.000000e+00
      endloop
   endfacet
   facet normal 0.000000e+00 0.000000e+00 1.000000e+00
      outer loop
         vertex -5.169187e-16 4.250000e+00 8.000000e+00
         vertex 1.802844e+00 3.848669e+00 8.000000e+00
         vertex -3.774935e+00 1.800000e+01 8.000000e+00
      endloop
   endfacet
   facet normal 0.000000e+00 -0.000000e+00 1.000000e+00
      outer loop
         vertex -3.774935e+00 1.800000e+01 8.000000e+00
         vertex 1.802844e+00 3.848669e+00 8.000000e+00
         vertex 3.774935e+00 1.800000e+01 8.000000e+00
      endloop
   endfacet
   facet normal 0.000000e+00 -0.000000e+00 1.000000e+00
      outer loop
         vertex 1.802844e+00 3.848669e+00 8.000000e+00
         vertex 3.265199e+00 2.720473e+00 8.000000e+00
         vertex 3.774935e+00 1.800000e+01 8.000000e+00
      endloop
   endfacet
   facet normal 0.000000e+00 0.000000e+00 1.000000e+00
      outer loop
         vertex 3.774935e+00 1.800000e+01 8.000000e+00
         vertex 3.265199e+00 2.720473e+00 8.000000e+00
         vertex 3.774935e+00 5.291490e+00 8.000000e+00
      endloop
   endfacet
   facet normal 0.000000e+00 0.000000e+00 1.000000e+00
      outer loop
         vertex 3.265199e+00 2.720473e+00 8.000000e+00
         vertex 4.110885e+00 1.078484e+00 8.000000e+00
         vertex 3.774935e+00 5.291490e+00 8.000000e+00
      endloop
   endfacet
   facet normal 0.000000e+00 -0.000000e+00 1.000000e+00
      outer loop
         vertex 3.774935e+00 5.291490e+00 8.000000e+00
         vertex 4.110885e+00 1.078484e+00 8.000000e+00
         vertex 5.304014e+00 3.757317e+00 8.000000e+00
      endloop
   endfacet
   facet normal 0.000000e+00 -0.000000e+00 1.000000e+00
      outer loop
         vertex 4.110885e+00 1.078484e+00 8.000000e+00
         vertex 4.180182e+00 -7.671893e-01 8.000000e+00
         vertex 5.304014e+00 3.757317e+00 8.000000e+00
      endloop
   endfacet
   facet normal 0.000000e+00 0.000000e+00 1.000000e+00
      outer loop
         vertex 5.304014e+00 3.757317e+00 8.000000e+00
         vertex 4.180182e+00 -7.671893e-01 8.000000e+00
         vertex 6.244094e+00 1.805903e+00 8.000000e+00
      endloop
   endfacet
   facet normal 0.000000e+00 0.000000e+00 1.000000e+00
      outer loop
         vertex 4.180182e+00 -7.671893e-01 8.000000e+00
         vertex 3.460004e+00 -2.467970e+00 8.000000e+00
         vertex 6.244094e+00 1.805903e+00 8.000000e+00
      endloop
   endfacet
   facet normal 0.000000e+00 0.000000e+00 1.000000e+00
      outer loop
         vertex 6.244094e+00 1.805903e+00 8.000000e+00
         vertex 3.460004e+00 -2.467970e+00 8.000000e+00
         vertex 6.490782e+00 -3.460527e-01 8.000000e+00
      endloop
   endfacet
   facet normal 0.000000e+00 0.000000e+00 1.000000e+00
      outer loop
         vertex 3.460004e+00 -2.467970e+00 8.000000e+00
         vertex 2.086364e+00 -3.702646e+00 8.000000e+00
         vertex 6.490782e+00 -3.460527e-01 8.000000e+00
      endloop
   endfacet
   facet normal 0.000000e+00 0.000000e+00 1.000000e+00
      outer loop
         vertex 6.490782e+00 -3.460527e-01 8.000000e+00
         vertex 2.086364e+00 -3.702646e+00 8.000000e+00
         vertex 6.016682e+00 -2.459580e+00 8.000000e+00
      endloop
   endfacet
   facet normal 0.000000e+00 -0.000000e+00 1.000000e+00
      outer loop
         vertex 2.086364e+00 -3.702646e+00 8.000000e+00
         vertex 3.190909e+00 -5.662870e+00 8.000000e+00
         vertex 6.016682e+00 -2.459580e+00 8.000000e+00
      endloop
   endfacet
   facet normal 0.000000e+00 0.000000e+00 1.000000e+00
      outer loop
         vertex 6.016682e+00 -2.459580e+00 8.000000e+00
         vertex 3.190909e+00 -5.662870e+00 8.000000e+00
         vertex 4.874444e+00 -4.299976e+00 8.000000e+00
      endloop
   endfacet
   facet normal 0.000000e+00 1.000000e+00 0.000000e+00
      outer loop
         vertex 5.050363e+00 1.800000e+01 1.821934e+00
         vertex 3.774935e+00 1.800000e+01 3.003217e-15
         vertex 5.500012e+00 1.800000e+01 4.000000e+00
      endloop
   endfacet
   facet normal 0.000000e+00 1.000000e+00 0.000000e+00
      outer loop
         vertex 3.774935e+00 1.800000e+01 3.003217e-15
         vertex -3.774935e+00 1.800000e+01 8.881784e-16
         vertex 5.500012e+00 1.800000e+01 4.000000e+00
      endloop
   endfacet
   facet normal 0.000000e+00 1.000000e+00 0.000000e+00
      outer loop
         vertex 5.500012e+00 1.800000e+01 4.000000e+00
         vertex 1.618034e+00 1.800000e+01 2.824430e+00
         vertex 5.050363e+00 1.800000e+01 6.178066e+00
      endloop
   endfacet
   facet normal -0.000000e+00 1.000000e+00 0.000000e+00
      outer loop
         vertex 1.618034e+00 1.800000e+01 2.824430e+00
         vertex 2.000000e+00 1.800000e+01 4.000000e+00
         vertex 5.050363e+00 1.800000e+01 6.178066e+00
      endloop
   endfacet
   facet normal 0.000000e+00 1.000000e+00 0.000000e+00
      outer loop
         vertex 5.050363e+00 1.800000e+01 6.178066e+00
         vertex 2.000000e+00 1.800000e+01 4.000000e+00
         vertex 3.774935e+00 1.800000e+01 8.000000e+00
      endloop
   endfacet
   facet normal -0.000000e+00 1.000000e+00 0.000000e+00
      outer loop
         vertex 2.000000e+00 1.800000e+01 4.000000e+00
         vertex 1.618034e+00 1.800000e+01 5.175570e+00
         vertex 3.774935e+00 1.800000e+01 8.000000e+00
      endloop
   endfacet
   facet normal 0.000000e+00 1.000000e+00 -0.000000e+00
      outer loop
         vertex 3.774935e+00 1.800000e+01 8.000000e+00
         vertex 6.180340e-01 1.800000e+01 5.902113e+00
         vertex -3.774935e+00 1.800000e+01 8.000000e+00
      endloop
   endfacet
   facet normal 0.000000e+00 1.000000e+00 -0.000000e+00
      outer loop
         vertex 6.180340e-01 1.800000e+01 5.902113e+00
         vertex -6.180340e-01 1.800000e+01 5.902113e+00
         vertex -3.774935e+00 1.800000e+01 8.000000e+00
      endloop
   endfacet
   facet normal 0.000000e+00 1.000000e+00 0.000000e+00
      outer loop
         vertex -3.774935e+00 1.800000e+01 8.000000e+00
         vertex -6.180340e-01 1.800000e+01 5.902113e+00
         vertex -5.050363e+00 1.800000e+01 6.178066e+00
      endloop
   endfacet
   facet normal 0.000000e+00 1.000000e+00 -0.000000e+00
      outer loop
         vertex -6.180340e-01 1.800000e+01 5.902113e+00
         vertex -1.618034e+00 1.800000e+01 5.175570e+00
         vertex -5.050363e+00 1.800000e+01 6.178066e+00
      endloop
   endfacet
   facet normal 0.000000e+00 1.000000e+00 0.000000e+00
      outer loop
         vertex -5.050363e+00 1.800000e+01 6.178066e+00
         vertex -1.618034e+00 1.800000e+01 5.175570e+00
         vertex -5.500012e+00 1.800000e+01 4.000000e+00
      endloop
   endfacet
   facet normal 0.000000e+00 1.000000e+00 -0.000000e+00
      outer loop
         vertex -1.618034e+00 1.800000e+01 5.175570e+00
         vertex -2.000000e+00 1.800000e+01 4.000000e+00
         vertex -5.500012e+00 1.800000e+01 4.000000e+00
      endloop
   endfacet
   facet normal 0.000000e+00 1.000000e+00 0.000000e+00
      outer loop
         vertex -5.500012e+00 1.800000e+01 4.000000e+00
         vertex -2.000000e+00 1.800000e+01 4.000000e+00
         vertex -5.050363e+00 1.800000e+01 1.821934e+00
      endloop
   endfacet
   facet normal 0.000000e+00 1.000000e+00 0.000000e+00
      outer loop
         vertex -2.000000e+00 1.800000e+01 4.000000e+00
         vertex -1.618034e+00 1.800000e+01 2.824430e+00
         vertex -5.050363e+00 1.800000e+01 1.821934e+00
      endloop
   endfacet
   facet normal 0.000000e+00 1.000000e+00 0.000000e+00
      outer loop
         vertex -5.050363e+00 1.800000e+01 1.821934e+00
         vertex -1.618034e+00 1.800000e+01 2.824430e+00
         vertex -3.774935e+00 1.800000e+01 8.881784e-16
      endloop
   endfacet
   facet normal 0.000000e+00 1.000000e+00 0.000000e+00
      outer loop
         vertex -1.618034e+00 1.800000e+01 2.824430e+00
         vertex -6.180340e-01 1.800000e+01 2.097887e+00
         vertex -3.774935e+00 1.800000e+01 8.881784e-16
      endloop
   endfacet
   facet normal -0.000000e+00 1.000000e+00 0.000000e+00
      outer loop
         vertex -3.774935e+00 1.800000e+01 8.881784e-16
         vertex 6.180340e-01 1.800000e+01 2.097887e+00
         vertex 5.500012e+00 1.800000e+01 4.000000e+00
      endloop
   endfacet
   facet normal 0.000000e+00 1.000000e+00 0.000000e+00
      outer loop
         vertex 6.180340e-01 1.800000e+01 2.097887e+00
         vertex -3.774935e+00 1.800000e+01 8.881784e-16
         vertex -6.180340e-01 1.800000e+01 2.097887e+00
      endloop
   endfacet
   facet normal 0.000000e+00 1.000000e+00 0.000000e+00
      outer loop
         vertex 6.180340e-01 1.800000e+01 5.902113e+00
         vertex 3.774935e+00 1.800000e+01 8.000000e+00
         vertex 1.618034e+00 1.800000e+01 5.175570e+00
      endloop
   endfacet
   facet normal 0.000000e+00 1.000000e+00 0.000000e+00
      outer loop
         vertex 1.618034e+00 1.800000e+01 2.824430e+00
         vertex 5.500012e+00 1.800000e+01 4.000000e+00
         vertex 6.180340e-01 1.800000e+01 2.097887e+00
      endloop
   endfacet
   facet normal 0.000000e+00 0.000000e+00 -1.000000e+00
      outer loop
         vertex 3.190909e+00 -5.662870e+00 0.000000e+00
         vertex 2.086364e+00 -3.702646e+00 0.000000e+00
         vertex 4.874444e+00 -4.299976e+00 0.000000e+00
      endloop
   endfacet
   facet normal 0.000000e+00 -0.000000e+00 -1.000000e+00
      outer loop
         vertex 2.086364e+00 -3.702646e+00 0.000000e+00
         vertex 3.460004e+00 -2.467970e+00 0.000000e+00
         vertex 4.874444e+00 -4.299976e+00 0.000000e+00
      endloop
   endfacet
   facet normal 0.000000e+00 0.000000e+00 -1.000000e+00
      outer loop
         vertex 4.874444e+00 -4.299976e+00 0.000000e+00
         vertex 3.460004e+00 -2.467970e+00 0.000000e+00
         vertex 6.016682e+00 -2.459580e+00 0.000000e+00
      endloop
   endfacet
   facet normal 0.000000e+00 -0.000000e+00 -1.000000e+00
      outer loop
         vertex 3.460004e+00 -2.467970e+00 0.000000e+00
         vertex 4.180182e+00 -7.671893e-01 0.000000e+00
         vertex 6.016682e+00 -2.459580e+00 0.000000e+00
      endloop
   endfacet
   facet normal 0.000000e+00 0.000000e+00 -1.000000e+00
      outer loop
         vertex 6.016682e+00 -2.459580e+00 0.000000e+00
         vertex 4.180182e+00 -7.671893e-01 0.000000e+00
         vertex 6.490782e+00 -3.460527e-01 0.000000e+00
      endloop
   endfacet
   facet normal 0.000000e+00 0.000000e+00 -1.000000e+00
      outer loop
         vertex 4.180182e+00 -7.671893e-01 0.000000e+00
         vertex 4.110885e+00 1.078484e+00 0.000000e+00
         vertex 6.490782e+00 -3.460527e-01 0.000000e+00
      endloop
   endfacet
   facet normal 0.000000e+00 0.000000e+00 -1.000000e+00
      outer loop
         vertex 6.490782e+00 -3.460527e-01 0.000000e+00
         vertex 4.110885e+00 1.078484e+00 0.000000e+00
         vertex 6.244094e+00 1.805903e+00 0.000000e+00
      endloop
   endfacet
   facet normal 0.000000e+00 0.000000e+00 -1.000000e+00
      outer loop
         vertex 4.110885e+00 1.078484e+00 0.000000e+00
         vertex 3.265199e+00 2.720473e+00 0.000000e+00
         vertex 6.244094e+00 1.805903e+00 0.000000e+00
      endloop
   endfacet
   facet normal 0.000000e+00 0.000000e+00 -1.000000e+00
      outer loop
         vertex 6.244094e+00 1.805903e+00 0.000000e+00
         vertex 3.265199e+00 2.720473e+00 0.000000e+00
         vertex 5.304014e+00 3.757317e+00 0.000000e+00
      endloop
   endfacet
   facet normal 0.000000e+00 0.000000e+00 -1.000000e+00
      outer loop
         vertex 3.265199e+00 2.720473e+00 0.000000e+00
         vertex 1.802844e+00 3.848669e+00 0.000000e+00
         vertex 5.304014e+00 3.757317e+00 0.000000e+00
      endloop
   endfacet
   facet normal 2.584775e-17 9.906450e-16 -1.000000e+00
      outer loop
         vertex 5.304014e+00 3.757317e+00 0.000000e+00
         vertex 1.802844e+00 3.848669e+00 0.000000e+00
         vertex 3.774935e+00 5.291490e+00 1.480297e-15
      endloop
   endfacet
   facet normal 1.751110e-16 7.866274e-16 -1.000000e+00
      outer loop
         vertex 1.802844e+00 3.848669e+00 0.000000e+00
         vertex -5.169187e-16 4.250000e+00 0.000000e+00
         vertex 3.774935e+00 5.291490e+00 1.480297e-15
      endloop
   endfacet
   facet normal 3.590766e-16 1.198346e-16 -1.000000e+00
      outer loop
         vertex 3.774935e+00 5.291490e+00 1.480297e-15
         vertex -5.169187e-16 4.250000e+00 0.000000e+00
         vertex 3.774935e+00 1.800000e+01 3.003217e-15
      endloop
   endfacet
   facet normal -5.178645e-17 2.326332e-16 -1.000000e+00
      outer loop
         vertex -5.169187e-16 4.250000e+00 0.000000e+00
         vertex -1.802844e+00 3.848669e+00 0.000000e+00
         vertex 3.774935e+00 1.800000e+01 3.003217e-15
      endloop
   endfacet
   facet normal 2.801423e-16 1.018028e-16 -1.000000e+00
      outer loop
         vertex 3.774935e+00 1.800000e+01 3.003217e-15
         vertex -1.802844e+00 3.848669e+00 0.000000e+00
         vertex -3.774935e+00 1.800000e+01 8.881784e-16
      endloop
   endfacet
   facet normal -4.372056e-17 5.667011e-17 -1.000000e+00
      outer loop
         vertex -1.802844e+00 3.848669e+00 0.000000e+00
         vertex -3.265199e+00 2.720473e+00 0.000000e+00
         vertex -3.774935e+00 1.800000e+01 8.881784e-16
      endloop
   endfacet
   facet normal 3.525051e-16 6.988848e-17 -1.000000e+00
      outer loop
         vertex -3.774935e+00 1.800000e+01 8.881784e-16
         vertex -3.265199e+00 2.720473e+00 0.000000e+00
         vertex -3.774935e+00 5.291490e+00 0.000000e+00
      endloop
   endfacet
   facet normal 0.000000e+00 0.000000e+00 -1.000000e+00
      outer loop
         vertex -3.265199e+00 2.720473e+00 0.000000e+00
         vertex -4.110885e+00 1.078484e+00 0.000000e+00
         vertex -3.774935e+00 5.291490e+00 0.000000e+00
      endloop
   endfacet
   facet normal 0.000000e+00 0.000000e+00 -1.000000e+00
      outer loop
         vertex -3.774935e+00 5.291490e+00 0.000000e+00
         vertex -4.110885e+00 1.078484e+00 0.000000e+00
         vertex -5.304014e+00 3.757317e+00 0.000000e+00
      endloop
   endfacet
   facet normal 0.000000e+00 0.000000e+00 -1.000000e+00
      outer loop
         vertex -4.110885e+00 1.078484e+00 0.000000e+00
         vertex -4.180182e+00 -7.671893e-01 0.000000e+00
         vertex -5.304014e+00 3.757317e+00 0.000000e+00
      endloop
   endfacet
   facet normal 0.000000e+00 0.000000e+00 -1.000000e+00
      outer loop
         vertex -5.304014e+00 3.757317e+00 0.000000e+00
         vertex -4.180182e+00 -7.671893e-01 0.000000e+00
         vertex -6.244094e+00 1.805903e+00 0.000000e+00
      endloop
   endfacet
   facet normal 0.000000e+00 0.000000e+00 -1.000000e+00
      outer loop
         vertex -4.180182e+00 -7.671893e-01 0.000000e+00
         vertex -3.460004e+00 -2.467970e+00 0.000000e+00
         vertex -6.244094e+00 1.805903e+00 0.000000e+00
      endloop
   endfacet
   facet normal 0.000000e+00 0.000000e+00 -1.000000e+00
      outer loop
         vertex -6.244094e+00 1.805903e+00 0.000000e+00
         vertex -3.460004e+00 -2.467970e+00 0.000000e+00
         vertex -6.490782e+00 -3.460527e-01 0.000000e+00
      endloop
   endfacet
   facet normal 0.000000e+00 0.000000e+00 -1.000000e+00
      outer loop
         vertex -3.460004e+00 -2.467970e+00 0.000000e+00
         vertex -2.086364e+00 -3.702646e+00 0.000000e+00
         vertex -6.490782e+00 -3.460527e-01 0.000000e+00
      endloop
   endfacet
   facet normal 0.000000e+00 0.000000e+00 -1.000000e+00
      outer loop
         vertex -6.490782e+00 -3.460527e-01 0.000000e+00
         vertex -2.086364e+00 -3.702646e+00 0.000000e+00
         vertex -6.016682e+00 -2.459580e+00 0.000000e+00
      endloop
   endfacet
   facet normal 0.000000e+00 0.000000e+00 -1.000000e+00
      outer loop
         vertex -2.086364e+00 -3.702646e+00 0.000000e+00
         vertex -3.190909e+00 -5.662870e+00 0.000000e+00
         vertex -6.016682e+00 -2.459580e+00 0.000000e+00
      endloop
   endfacet
   facet normal 0.000000e+00 0.000000e+00 -1.000000e+00
      outer loop
         vertex -6.016682e+00 -2.459580e+00 0.000000e+00
         vertex -3.190909e+00 -5.662870e+00 0.000000e+00
         vertex -4.874444e+00 -4.299976e+00 0.000000e+00
      endloop
   endfacet
   facet normal 9.510565e-01 0.000000e+00 -3.090170e-01
      outer loop
         vertex -1.618034e+00 1.800000e+01 5.175570e+00
         vertex -1.618034e+00 8.000000e+00 5.175570e+00
         vertex -2.000000e+00 8.000000e+00 4.000000e+00
      endloop
   endfacet
   facet normal 9.510565e-01 0.000000e+00 -3.090170e-01
      outer loop
         vertex -2.000000e+00 1.800000e+01 4.000000e+00
         vertex -1.618034e+00 1.800000e+01 5.175570e+00
         vertex -2.000000e+00 8.000000e+00 4.000000e+00
      endloop
   endfacet
   facet normal 5.877852e-01 0.000000e+00 -8.090170e-01
      outer loop
         vertex -6.180340e-01 1.800000e+01 5.902113e+00
         vertex -6.180340e-01 8.000000e+00 5.902113e+00
         vertex -1.618034e+00 8.000000e+00 5.175570e+00
      endloop
   endfacet
   facet normal 5.877852e-01 0.000000e+00 -8.090170e-01
      outer loop
         vertex -1.618034e+00 1.800000e+01 5.175570e+00
         vertex -6.180340e-01 1.800000e+01 5.902113e+00
         vertex -1.618034e+00 8.000000e+00 5.175570e+00
      endloop
   endfacet
   facet normal 0.000000e+00 0.000000e+00 -1.000000e+00
      outer loop
         vertex 6.180340e-01 1.800000e+01 5.902113e+00
         vertex 6.180340e-01 8.000000e+00 5.902113e+00
         vertex -6.180340e-01 8.000000e+00 5.902113e+00
      endloop
   endfacet
   facet normal -0.000000e+00 0.000000e+00 -1.000000e+00
      outer loop
         vertex -6.180340e-01 1.800000e+01 5.902113e+00
         vertex 6.180340e-01 1.800000e+01 5.902113e+00
         vertex -6.180340e-01 8.000000e+00 5.902113e+00
      endloop
   endfacet
   facet normal -5.877852e-01 0.000000e+00 -8.090170e-01
      outer loop
         vertex 1.618034e+00 1.800000e+01 5.175570e+00
         vertex 1.618034e+00 8.000000e+00 5.175570e+00
         vertex 6.180340e-01 8.000000e+00 5.902113e+00
      endloop
   endfacet
   facet normal -5.877852e-01 0.000000e+00 -8.090170e-01
      outer loop
         vertex 6.180340e-01 1.800000e+01 5.902113e+00
         vertex 1.618034e+00 1.800000e+01 5.175570e+00
         vertex 6.180340e-01 8.000000e+00 5.902113e+00
      endloop
   endfacet
   facet normal -9.510565e-01 0.000000e+00 -3.090170e-01
      outer loop
         vertex 2.000000e+00 1.800000e+01 4.000000e+00
         vertex 2.000000e+00 8.000000e+00 4.000000e+00
         vertex 1.618034e+00 8.000000e+00 5.175570e+00
      endloop
   endfacet
   facet normal -9.510565e-01 0.000000e+00 -3.090170e-01
      outer loop
         vertex 1.618034e+00 1.800000e+01 5.175570e+00
         vertex 2.000000e+00 1.800000e+01 4.000000e+00
         vertex 1.618034e+00 8.000000e+00 5.175570e+00
      endloop
   endfacet
   facet normal -9.510565e-01 0.000000e+00 3.090170e-01
      outer loop
         vertex 1.618034e+00 1.800000e+01 2.824430e+00
         vertex 1.618034e+00 8.000000e+00 2.824430e+00
         vertex 2.000000e+00 8.000000e+00 4.000000e+00
      endloop
   endfacet
   facet normal -9.510565e-01 0.000000e+00 3.090170e-01
      outer loop
         vertex 2.000000e+00 1.800000e+01 4.000000e+00
         vertex 1.618034e+00 1.800000e+01 2.824430e+00
         vertex 2.000000e+00 8.000000e+00 4.000000e+00
      endloop
   endfacet
   facet normal -5.877852e-01 0.000000e+00 8.090170e-01
      outer loop
         vertex 6.180340e-01 1.800000e+01 2.097887e+00
         vertex 6.180340e-01 8.000000e+00 2.097887e+00
         vertex 1.618034e+00 8.000000e+00 2.824430e+00
      endloop
   endfacet
   facet normal -5.877852e-01 0.000000e+00 8.090170e-01
      outer loop
         vertex 1.618034e+00 1.800000e+01 2.824430e+00
         vertex 6.180340e-01 1.800000e+01 2.097887e+00
         vertex 1.618034e+00 8.000000e+00 2.824430e+00
      endloop
   endfacet
   facet normal 0.000000e+00 0.000000e+00 1.000000e+00
      outer loop
         vertex -6.180340e-01 1.800000e+01 2.097887e+00
         vertex -6.180340e-01 8.000000e+00 2.097887e+00
         vertex 6.180340e-01 8.000000e+00 2.097887e+00
      endloop
   endfacet
   facet normal -0.000000e+00 0.000000e+00 1.000000e+00
      outer loop
         vertex 6.180340e-01 1.800000e+01 2.097887e+00
         vertex -6.180340e-01 1.800000e+01 2.097887e+00
         vertex 6.180340e-01 8.000000e+00 2.097887e+00
      endloop
   endfacet
   facet normal 5.877852e-01 -0.000000e+00 8.090170e-01
      outer loop
         vertex -1.618034e+00 1.800000e+01 2.824430e+00
         vertex -1.618034e+00 8.000000e+00 2.824430e+00
         vertex -6.180340e-01 8.000000e+00 2.097887e+00
      endloop
   endfacet
   facet normal 5.877852e-01 0.000000e+00 8.090170e-01
      outer loop
         vertex -6.180340e-01 1.800000e+01 2.097887e+00
         vertex -1.618034e+00 1.800000e+01 2.824430e+00
         vertex -6.180340e-01 8.000000e+00 2.097887e+00
      endloop
   endfacet
   facet normal 9.510565e-01 -0.000000e+00 3.090170e-01
      outer loop
         vertex -2.000000e+00 1.800000e+01 4.000000e+00
         vertex -2.000000e+00 8.000000e+00 4.000000e+00
         vertex -1.618034e+00 8.000000e+00 2.824430e+00
      endloop
   endfacet
   facet normal 9.510565e-01 0.000000e+00 3.090170e-01
      outer loop
         vertex -1.618034e+00 1.800000e+01 2.824430e+00
         vertex -2.000000e+00 1.800000e+01 4.000000e+00
         vertex -1.618034e+00 8.000000e+00 2.824430e+00
      endloop
   endfacet
   facet normal 0.000000e+00 1.000000e+00 0.000000e+00
      outer loop
         vertex -1.618034e+00 8.000000e+00 2.824430e+00
         vertex -2.000000e+00 8.000000e+00 4.000000e+00
         vertex -6.180340e-01 8.000000e+00 2.097887e+00
      endloop
   endfacet
   facet normal 0.000000e+00 1.000000e+00 0.000000e+00
      outer loop
         vertex -2.000000e+00 8.000000e+00 4.000000e+00
         vertex -1.618034e+00 8.000000e+00 5.175570e+00
         vertex -6.180340e-01 8.000000e+00 2.097887e+00
      endloop
   endfacet
   facet normal 0.000000e+00 1.000000e+00 0.000000e+00
      outer loop
         vertex -6.180340e-01 8.000000e+00 2.097887e+00
         vertex -1.618034e+00 8.000000e+00 5.175570e+00
         vertex 6.180340e-01 8.000000e+00 2.097887e+00
      endloop
   endfacet
   facet normal 0.000000e+00 1.000000e+00 0.000000e+00
      outer loop
         vertex -1.618034e+00 8.000000e+00 5.175570e+00
         vertex -6.180340e-01 8.000000e+00 5.902113e+00
         vertex 6.180340e-01 8.000000e+00 2.097887e+00
      endloop
   endfacet
   facet normal 0.000000e+00 1.000000e+00 0.000000e+00
      outer loop
         vertex 6.180340e-01 8.000000e+00 2.097887e+00
         vertex -6.180340e-01 8.000000e+00 5.902113e+00
         vertex 1.618034e+00 8.000000e+00 2.824430e+00
      endloop
   endfacet
   facet normal 0.000000e+00 1.000000e+00 0.000000e+00
      outer loop
         vertex -6.180340e-01 8.000000e+00 5.902113e+00
         vertex 6.180340e-01 8.000000e+00 5.902113e+00
         vertex 1.618034e+00 8.000000e+00 2.824430e+00
      endloop
   endfacet
   facet normal 0.000000e+00 1.000000e+00 0.000000e+00
      outer loop
         vertex 1.618034e+00 8.000000e+00 2.824430e+00
         vertex 6.180340e-01 8.000000e+00 5.902113e+00
         vertex 2.000000e+00 8.000000e+00 4.000000e+00
      endloop
   endfacet
   facet normal 0.000000e+00 1.000000e+00 0.000000e+00
      outer loop
         vertex 6.180340e-01 8.000000e+00 5.902113e+00
         vertex 1.618034e+00 8.000000e+00 5.175570e+00
         vertex 2.000000e+00 8.000000e+00 4.000000e+00
      endloop
   endfacet
endsolid
