solid 
   facet normal 0.000000e+00 0.000000e+00 -1.000000e+00
      outer loop
         vertex -6.127064e+00 3.378633e+00 0.000000e+00
         vertex -4.500000e+00 3.750000e+00 0.000000e+00
         vertex -7.431868e+00 2.338087e+00 0.000000e+00
      endloop
   endfacet
   facet normal -0.000000e+00 0.000000e+00 -1.000000e+00
      outer loop
         vertex -4.500000e+00 3.750000e+00 0.000000e+00
         vertex 4.500000e+00 3.750000e+00 0.000000e+00
         vertex -7.431868e+00 2.338087e+00 0.000000e+00
      endloop
   endfacet
   facet normal 0.000000e+00 0.000000e+00 -1.000000e+00
      outer loop
         vertex -7.431868e+00 2.338087e+00 0.000000e+00
         vertex 4.500000e+00 3.750000e+00 0.000000e+00
         vertex -8.155980e+00 8.344535e-01 0.000000e+00
      endloop
   endfacet
   facet normal -0.000000e+00 0.000000e+00 -1.000000e+00
      outer loop
         vertex 4.500000e+00 3.750000e+00 0.000000e+00
         vertex 6.127064e+00 3.378633e+00 0.000000e+00
         vertex -8.155980e+00 8.344535e-01 0.000000e+00
      endloop
   endfacet
   facet normal 0.000000e+00 0.000000e+00 -1.000000e+00
      outer loop
         vertex -8.155980e+00 8.344535e-01 0.000000e+00
         vertex -4.133883e+00 8.838835e-01 0.000000e+00
         vertex -8.155980e+00 -8.344535e-01 0.000000e+00
      endloop
   endfacet
   facet normal -0.000000e+00 0.000000e+00 -1.000000e+00
      outer loop
         vertex -4.133883e+00 8.838835e-01 0.000000e+00
         vertex -4.500000e+00 1.300414e-16 0.000000e+00
         vertex -8.155980e+00 -8.344535e-01 0.000000e+00
      endloop
   endfacet
   facet normal 0.000000e+00 0.000000e+00 -1.000000e+00
      outer loop
         vertex -8.155980e+00 -8.344535e-01 0.000000e+00
         vertex -4.500000e+00 1.300414e-16 0.000000e+00
         vertex -7.431868e+00 -2.338087e+00 0.000000e+00
      endloop
   endfacet
   facet normal -0.000000e+00 0.000000e+00 -1.000000e+00
      outer loop
         vertex -4.500000e+00 1.300414e-16 0.000000e+00
         vertex -4.133883e+00 -8.838835e-01 0.000000e+00
         vertex -7.431868e+00 -2.338087e+00 0.000000e+00
      endloop
   endfacet
   facet normal 0.000000e+00 0.000000e+00 -1.000000e+00
      outer loop
         vertex -7.431868e+00 -2.338087e+00 0.000000e+00
         vertex -4.133883e+00 -8.838835e-01 0.000000e+00
         vertex -6.127064e+00 -3.378633e+00 0.000000e+00
      endloop
   endfacet
   facet normal -0.000000e+00 0.000000e+00 -1.000000e+00
      outer loop
         vertex -4.133883e+00 -8.838835e-01 0.000000e+00
         vertex -3.250000e+00 -1.250000e+00 0.000000e+00
         vertex -6.127064e+00 -3.378633e+00 0.000000e+00
      endloop
   endfacet
   facet normal 0.000000e+00 0.000000e+00 -1.000000e+00
      outer loop
         vertex -6.127064e+00 -3.378633e+00 0.000000e+00
         vertex -3.250000e+00 -1.250000e+00 0.000000e+00
         vertex -4.500000e+00 -3.750000e+00 0.000000e+00
      endloop
   endfacet
   facet normal 0.000000e+00 0.000000e+00 -1.000000e+00
      outer loop
         vertex -3.250000e+00 -1.250000e+00 0.000000e+00
         vertex -2.366117e+00 -8.838835e-01 0.000000e+00
         vertex -4.500000e+00 -3.750000e+00 0.000000e+00
      endloop
   endfacet
   facet normal 0.000000e+00 -0.000000e+00 -1.000000e+00
      outer loop
         vertex -4.500000e+00 -3.750000e+00 0.000000e+00
         vertex -2.366117e+00 -8.838835e-01 0.000000e+00
         vertex 4.500000e+00 -3.750000e+00 0.000000e+00
      endloop
   endfacet
   facet normal 0.000000e+00 -0.000000e+00 -1.000000e+00
      outer loop
         vertex -2.366117e+00 -8.838835e-01 0.000000e+00
         vertex -2.000000e+00 -3.292012e-16 0.000000e+00
         vertex 4.500000e+00 -3.750000e+00 0.000000e+00
      endloop
   endfacet
   facet normal 0.000000e+00 0.000000e+00 -1.000000e+00
      outer loop
         vertex 4.500000e+00 -3.750000e+00 0.000000e+00
         vertex -2.000000e+00 -3.292012e-16 0.000000e+00
         vertex 6.127064e+00 -3.378633e+00 0.000000e+00
      endloop
   endfacet
   facet normal 0.000000e+00 0.000000e+00 -1.000000e+00
      outer loop
         vertex -2.000000e+00 -3.292012e-16 0.000000e+00
         vertex -2.366117e+00 8.838835e-01 0.000000e+00
         vertex 6.127064e+00 -3.378633e+00 0.000000e+00
      endloop
   endfacet
   facet normal 0.000000e+00 0.000000e+00 -1.000000e+00
      outer loop
         vertex 6.127064e+00 -3.378633e+00 0.000000e+00
         vertex 3.250000e+00 -1.250000e+00 0.000000e+00
         vertex 7.431868e+00 -2.338087e+00 0.000000e+00
      endloop
   endfacet
   facet normal 0.000000e+00 -0.000000e+00 -1.000000e+00
      outer loop
         vertex 3.250000e+00 -1.250000e+00 0.000000e+00
         vertex 4.133883e+00 -8.838835e-01 0.000000e+00
         vertex 7.431868e+00 -2.338087e+00 0.000000e+00
      endloop
   endfacet
   facet normal 0.000000e+00 0.000000e+00 -1.000000e+00
      outer loop
         vertex 7.431868e+00 -2.338087e+00 0.000000e+00
         vertex 4.133883e+00 -8.838835e-01 0.000000e+00
         vertex 8.155980e+00 -8.344535e-01 0.000000e+00
      endloop
   endfacet
   facet normal 0.000000e+00 -0.000000e+00 -1.000000e+00
      outer loop
         vertex 4.133883e+00 -8.838835e-01 0.000000e+00
         vertex 4.500000e+00 -2.831222e-16 0.000000e+00
         vertex 8.155980e+00 -8.344535e-01 0.000000e+00
      endloop
   endfacet
   facet normal 0.000000e+00 0.000000e+00 -1.000000e+00
      outer loop
         vertex 8.155980e+00 -8.344535e-01 0.000000e+00
         vertex 4.500000e+00 -2.831222e-16 0.000000e+00
         vertex 8.155980e+00 8.344535e-01 0.000000e+00
      endloop
   endfacet
   facet normal 0.000000e+00 0.000000e+00 -1.000000e+00
      outer loop
         vertex 4.500000e+00 -2.831222e-16 0.000000e+00
         vertex 4.133883e+00 8.838835e-01 0.000000e+00
         vertex 8.155980e+00 8.344535e-01 0.000000e+00
      endloop
   endfacet
   facet normal 0.000000e+00 0.000000e+00 -1.000000e+00
      outer loop
         vertex 8.155980e+00 8.344535e-01 0.000000e+00
         vertex 4.133883e+00 8.838835e-01 0.000000e+00
         vertex 7.431868e+00 2.338087e+00 0.000000e+00
      endloop
   endfacet
   facet normal 0.000000e+00 0.000000e+00 -1.000000e+00
      outer loop
         vertex 4.133883e+00 8.838835e-01 0.000000e+00
         vertex 3.250000e+00 1.250000e+00 0.000000e+00
         vertex 7.431868e+00 2.338087e+00 0.000000e+00
      endloop
   endfacet
   facet normal 0.000000e+00 0.000000e+00 -1.000000e+00
      outer loop
         vertex 7.431868e+00 2.338087e+00 0.000000e+00
         vertex 3.250000e+00 1.250000e+00 0.000000e+00
         vertex 6.127064e+00 3.378633e+00 0.000000e+00
      endloop
   endfacet
   facet normal 0.000000e+00 0.000000e+00 -1.000000e+00
      outer loop
         vertex 3.250000e+00 1.250000e+00 0.000000e+00
         vertex 2.366117e+00 8.838835e-01 0.000000e+00
         vertex 6.127064e+00 3.378633e+00 0.000000e+00
      endloop
   endfacet
   facet normal -0.000000e+00 0.000000e+00 -1.000000e+00
      outer loop
         vertex 6.127064e+00 3.378633e+00 0.000000e+00
         vertex -3.250000e+00 1.250000e+00 0.000000e+00
         vertex -8.155980e+00 8.344535e-01 0.000000e+00
      endloop
   endfacet
   facet normal 0.000000e+00 0.000000e+00 -1.000000e+00
      outer loop
         vertex -4.133883e+00 8.838835e-01 0.000000e+00
         vertex -8.155980e+00 8.344535e-01 0.000000e+00
         vertex -3.250000e+00 1.250000e+00 0.000000e+00
      endloop
   endfacet
   facet normal 0.000000e+00 0.000000e+00 -1.000000e+00
      outer loop
         vertex -3.250000e+00 1.250000e+00 0.000000e+00
         vertex 6.127064e+00 3.378633e+00 0.000000e+00
         vertex -2.366117e+00 8.838835e-01 0.000000e+00
      endloop
   endfacet
   facet normal 0.000000e+00 0.000000e+00 -1.000000e+00
      outer loop
         vertex 6.127064e+00 3.378633e+00 0.000000e+00
         vertex 2.366117e+00 8.838835e-01 0.000000e+00
         vertex -2.366117e+00 8.838835e-01 0.000000e+00
      endloop
   endfacet
   facet normal -0.000000e+00 -0.000000e+00 -1.000000e+00
      outer loop
         vertex -2.366117e+00 8.838835e-01 0.000000e+00
         vertex 2.366117e+00 -8.838835e-01 0.000000e+00
         vertex 6.127064e+00 -3.378633e+00 0.000000e+00
      endloop
   endfacet
   facet normal -0.000000e+00 -0.000000e+00 -1.000000e+00
      outer loop
         vertex 2.366117e+00 -8.838835e-01 0.000000e+00
         vertex 3.250000e+00 -1.250000e+00 0.000000e+00
         vertex 6.127064e+00 -3.378633e+00 0.000000e+00
      endloop
   endfacet
   facet normal 0.000000e+00 0.000000e+00 -1.000000e+00
      outer loop
         vertex 2.366117e+00 -8.838835e-01 0.000000e+00
         vertex -2.366117e+00 8.838835e-01 0.000000e+00
         vertex 2.000000e+00 1.761203e-16 0.000000e+00
      endloop
   endfacet
   facet normal -0.000000e+00 0.000000e+00 -1.000000e+00
      outer loop
         vertex -2.366117e+00 8.838835e-01 0.000000e+00
         vertex 2.366117e+00 8.838835e-01 0.000000e+00
         vertex 2.000000e+00 1.761203e-16 0.000000e+00
      endloop
   endfacet
   facet normal -0.000000e+00 0.000000e+00 1.000000e+00
      outer loop
         vertex 4.500000e+00 3.750000e+00 4.000000e+00
         vertex -4.500000e+00 3.750000e+00 4.000000e+00
         vertex 6.127064e+00 3.378633e+00 4.000000e+00
      endloop
   endfacet
   facet normal 0.000000e+00 0.000000e+00 1.000000e+00
      outer loop
         vertex -4.500000e+00 3.750000e+00 4.000000e+00
         vertex -6.127064e+00 3.378633e+00 4.000000e+00
         vertex 6.127064e+00 3.378633e+00 4.000000e+00
      endloop
   endfacet
   facet normal -0.000000e+00 0.000000e+00 1.000000e+00
      outer loop
         vertex 6.127064e+00 3.378633e+00 4.000000e+00
         vertex -6.127064e+00 3.378633e+00 4.000000e+00
         vertex 7.431868e+00 2.338087e+00 4.000000e+00
      endloop
   endfacet
   facet normal 0.000000e+00 0.000000e+00 1.000000e+00
      outer loop
         vertex -6.127064e+00 3.378633e+00 4.000000e+00
         vertex -7.431868e+00 2.338087e+00 4.000000e+00
         vertex 7.431868e+00 2.338087e+00 4.000000e+00
      endloop
   endfacet
   facet normal -0.000000e+00 0.000000e+00 1.000000e+00
      outer loop
         vertex 7.431868e+00 2.338087e+00 4.000000e+00
         vertex -7.431868e+00 2.338087e+00 4.000000e+00
         vertex 8.155980e+00 8.344535e-01 4.000000e+00
      endloop
   endfacet
   facet normal -0.000000e+00 -0.000000e+00 1.000000e+00
      outer loop
         vertex -7.431868e+00 2.338087e+00 4.000000e+00
         vertex 3.250000e+00 1.250000e+00 4.000000e+00
         vertex 8.155980e+00 8.344535e-01 4.000000e+00
      endloop
   endfacet
   facet normal 0.000000e+00 0.000000e+00 1.000000e+00
      outer loop
         vertex 8.155980e+00 8.344535e-01 4.000000e+00
         vertex 4.133883e+00 8.838835e-01 4.000000e+00
         vertex 8.155980e+00 -8.344535e-01 4.000000e+00
      endloop
   endfacet
   facet normal -0.000000e+00 -0.000000e+00 1.000000e+00
      outer loop
         vertex 4.133883e+00 8.838835e-01 4.000000e+00
         vertex 4.500000e+00 -2.831222e-16 4.000000e+00
         vertex 8.155980e+00 -8.344535e-01 4.000000e+00
      endloop
   endfacet
   facet normal 0.000000e+00 0.000000e+00 1.000000e+00
      outer loop
         vertex 8.155980e+00 -8.344535e-01 4.000000e+00
         vertex 4.500000e+00 -2.831222e-16 4.000000e+00
         vertex 7.431868e+00 -2.338087e+00 4.000000e+00
      endloop
   endfacet
   facet normal -0.000000e+00 0.000000e+00 1.000000e+00
      outer loop
         vertex 4.500000e+00 -2.831222e-16 4.000000e+00
         vertex 4.133883e+00 -8.838835e-01 4.000000e+00
         vertex 7.431868e+00 -2.338087e+00 4.000000e+00
      endloop
   endfacet
   facet normal 0.000000e+00 0.000000e+00 1.000000e+00
      outer loop
         vertex 7.431868e+00 -2.338087e+00 4.000000e+00
         vertex 4.133883e+00 -8.838835e-01 4.000000e+00
         vertex 6.127064e+00 -3.378633e+00 4.000000e+00
      endloop
   endfacet
   facet normal -0.000000e+00 0.000000e+00 1.000000e+00
      outer loop
         vertex 4.133883e+00 -8.838835e-01 4.000000e+00
         vertex 3.250000e+00 -1.250000e+00 4.000000e+00
         vertex 6.127064e+00 -3.378633e+00 4.000000e+00
      endloop
   endfacet
   facet normal 0.000000e+00 0.000000e+00 1.000000e+00
      outer loop
         vertex 6.127064e+00 -3.378633e+00 4.000000e+00
         vertex 3.250000e+00 -1.250000e+00 4.000000e+00
         vertex 4.500000e+00 -3.750000e+00 4.000000e+00
      endloop
   endfacet
   facet normal 0.000000e+00 0.000000e+00 1.000000e+00
      outer loop
         vertex 3.250000e+00 -1.250000e+00 4.000000e+00
         vertex 2.366117e+00 -8.838835e-01 4.000000e+00
         vertex 4.500000e+00 -3.750000e+00 4.000000e+00
      endloop
   endfacet
   facet normal 0.000000e+00 0.000000e+00 1.000000e+00
      outer loop
         vertex 4.500000e+00 -3.750000e+00 4.000000e+00
         vertex 2.366117e+00 -8.838835e-01 4.000000e+00
         vertex -4.500000e+00 -3.750000e+00 4.000000e+00
      endloop
   endfacet
   facet normal 0.000000e+00 0.000000e+00 1.000000e+00
      outer loop
         vertex 2.366117e+00 -8.838835e-01 4.000000e+00
         vertex 2.000000e+00 1.761203e-16 4.000000e+00
         vertex -4.500000e+00 -3.750000e+00 4.000000e+00
      endloop
   endfacet
   facet normal 0.000000e+00 0.000000e+00 1.000000e+00
      outer loop
         vertex -4.500000e+00 -3.750000e+00 4.000000e+00
         vertex 2.000000e+00 1.761203e-16 4.000000e+00
         vertex -6.127064e+00 -3.378633e+00 4.000000e+00
      endloop
   endfacet
   facet normal 0.000000e+00 0.000000e+00 1.000000e+00
      outer loop
         vertex 2.000000e+00 1.761203e-16 4.000000e+00
         vertex 2.366117e+00 8.838835e-01 4.000000e+00
         vertex -6.127064e+00 -3.378633e+00 4.000000e+00
      endloop
   endfacet
   facet normal 0.000000e+00 0.000000e+00 1.000000e+00
      outer loop
         vertex -6.127064e+00 -3.378633e+00 4.000000e+00
         vertex -3.250000e+00 -1.250000e+00 4.000000e+00
         vertex -7.431868e+00 -2.338087e+00 4.000000e+00
      endloop
   endfacet
   facet normal 0.000000e+00 0.000000e+00 1.000000e+00
      outer loop
         vertex -3.250000e+00 -1.250000e+00 4.000000e+00
         vertex -4.133883e+00 -8.838835e-01 4.000000e+00
         vertex -7.431868e+00 -2.338087e+00 4.000000e+00
      endloop
   endfacet
   facet normal 0.000000e+00 0.000000e+00 1.000000e+00
      outer loop
         vertex -7.431868e+00 -2.338087e+00 4.000000e+00
         vertex -4.133883e+00 -8.838835e-01 4.000000e+00
         vertex -8.155980e+00 -8.344535e-01 4.000000e+00
      endloop
   endfacet
   facet normal 0.000000e+00 0.000000e+00 1.000000e+00
      outer loop
         vertex -4.133883e+00 -8.838835e-01 4.000000e+00
         vertex -4.500000e+00 1.300414e-16 4.000000e+00
         vertex -8.155980e+00 -8.344535e-01 4.000000e+00
      endloop
   endfacet
   facet normal 0.000000e+00 0.000000e+00 1.000000e+00
      outer loop
         vertex -8.155980e+00 -8.344535e-01 4.000000e+00
         vertex -4.500000e+00 1.300414e-16 4.000000e+00
         vertex -8.155980e+00 8.344535e-01 4.000000e+00
      endloop
   endfacet
   facet normal 0.000000e+00 0.000000e+00 1.000000e+00
      outer loop
         vertex -4.500000e+00 1.300414e-16 4.000000e+00
         vertex -4.133883e+00 8.838835e-01 4.000000e+00
         vertex -8.155980e+00 8.344535e-01 4.000000e+00
      endloop
   endfacet
   facet normal 0.000000e+00 0.000000e+00 1.000000e+00
      outer loop
         vertex -8.155980e+00 8.344535e-01 4.000000e+00
         vertex -4.133883e+00 8.838835e-01 4.000000e+00
         vertex -7.431868e+00 2.338087e+00 4.000000e+00
      endloop
   endfacet
   facet normal 0.000000e+00 0.000000e+00 1.000000e+00
      outer loop
         vertex -4.133883e+00 8.838835e-01 4.000000e+00
         vertex -3.250000e+00 1.250000e+00 4.000000e+00
         vertex -7.431868e+00 2.338087e+00 4.000000e+00
      endloop
   endfacet
   facet normal 0.000000e+00 -0.000000e+00 1.000000e+00
      outer loop
         vertex -7.431868e+00 2.338087e+00 4.000000e+00
         vertex -3.250000e+00 1.250000e+00 4.000000e+00
         vertex 3.250000e+00 1.250000e+00 4.000000e+00
      endloop
   endfacet
   facet normal 0.000000e+00 -0.000000e+00 1.000000e+00
      outer loop
         vertex -3.250000e+00 1.250000e+00 4.000000e+00
         vertex -2.366117e+00 8.838835e-01 4.000000e+00
         vertex 3.250000e+00 1.250000e+00 4.000000e+00
      endloop
   endfacet
   facet normal 0.000000e+00 0.000000e+00 1.000000e+00
      outer loop
         vertex 3.250000e+00 1.250000e+00 4.000000e+00
         vertex -2.366117e+00 8.838835e-01 4.000000e+00
         vertex 2.366117e+00 8.838835e-01 4.000000e+00
      endloop
   endfacet
   facet normal 0.000000e+00 -0.000000e+00 1.000000e+00
      outer loop
         vertex -2.366117e+00 8.838835e-01 4.000000e+00
         vertex -2.000000e+00 -3.292012e-16 4.000000e+00
         vertex 2.366117e+00 8.838835e-01 4.000000e+00
      endloop
   endfacet
   facet normal -0.000000e+00 0.000000e+00 1.000000e+00
      outer loop
         vertex 2.366117e+00 8.838835e-01 4.000000e+00
         vertex -2.366117e+00 -8.838835e-01 4.000000e+00
         vertex -6.127064e+00 -3.378633e+00 4.000000e+00
      endloop
   endfacet
   facet normal -0.000000e+00 0.000000e+00 1.000000e+00
      outer loop
         vertex -2.366117e+00 -8.838835e-01 4.000000e+00
         vertex -3.250000e+00 -1.250000e+00 4.000000e+00
         vertex -6.127064e+00 -3.378633e+00 4.000000e+00
      endloop
   endfacet
   facet normal 0.000000e+00 0.000000e+00 1.000000e+00
      outer loop
         vertex -2.366117e+00 -8.838835e-01 4.000000e+00
         vertex 2.366117e+00 8.838835e-01 4.000000e+00
         vertex -2.000000e+00 -3.292012e-16 4.000000e+00
      endloop
   endfacet
   facet normal 0.000000e+00 0.000000e+00 1.000000e+00
      outer loop
         vertex 4.133883e+00 8.838835e-01 4.000000e+00
         vertex 8.155980e+00 8.344535e-01 4.000000e+00
         vertex 3.250000e+00 1.250000e+00 4.000000e+00
      endloop
   endfacet
   facet normal 9.238795e-01 3.826834e-01 -0.000000e+00
      outer loop
         vertex -4.133883e+00 -8.838835e-01 4.000000e+00
         vertex -4.133883e+00 -8.838835e-01 0.000000e+00
         vertex -4.500000e+00 1.300414e-16 0.000000e+00
      endloop
   endfacet
   facet normal 9.238795e-01 3.826834e-01 0.000000e+00
      outer loop
         vertex -4.500000e+00 1.300414e-16 4.000000e+00
         vertex -4.133883e+00 -8.838835e-01 4.000000e+00
         vertex -4.500000e+00 1.300414e-16 0.000000e+00
      endloop
   endfacet
   facet normal 3.826834e-01 9.238795e-01 -0.000000e+00
      outer loop
         vertex -3.250000e+00 -1.250000e+00 4.000000e+00
         vertex -3.250000e+00 -1.250000e+00 0.000000e+00
         vertex -4.133883e+00 -8.838835e-01 0.000000e+00
      endloop
   endfacet
   facet normal 3.826834e-01 9.238795e-01 0.000000e+00
      outer loop
         vertex -4.133883e+00 -8.838835e-01 4.000000e+00
         vertex -3.250000e+00 -1.250000e+00 4.000000e+00
         vertex -4.133883e+00 -8.838835e-01 0.000000e+00
      endloop
   endfacet
   facet normal -3.826834e-01 9.238795e-01 0.000000e+00
      outer loop
         vertex -2.366117e+00 -8.838835e-01 4.000000e+00
         vertex -2.366117e+00 -8.838835e-01 0.000000e+00
         vertex -3.250000e+00 -1.250000e+00 0.000000e+00
      endloop
   endfacet
   facet normal -3.826834e-01 9.238795e-01 0.000000e+00
      outer loop
         vertex -3.250000e+00 -1.250000e+00 4.000000e+00
         vertex -2.366117e+00 -8.838835e-01 4.000000e+00
         vertex -3.250000e+00 -1.250000e+00 0.000000e+00
      endloop
   endfacet
   facet normal -9.238795e-01 3.826834e-01 0.000000e+00
      outer loop
         vertex -2.000000e+00 -3.292012e-16 4.000000e+00
         vertex -2.000000e+00 -3.292012e-16 0.000000e+00
         vertex -2.366117e+00 -8.838835e-01 0.000000e+00
      endloop
   endfacet
   facet normal -9.238795e-01 3.826834e-01 0.000000e+00
      outer loop
         vertex -2.366117e+00 -8.838835e-01 4.000000e+00
         vertex -2.000000e+00 -3.292012e-16 4.000000e+00
         vertex -2.366117e+00 -8.838835e-01 0.000000e+00
      endloop
   endfacet
   facet normal -9.238795e-01 -3.826834e-01 0.000000e+00
      outer loop
         vertex -2.366117e+00 8.838835e-01 4.000000e+00
         vertex -2.366117e+00 8.838835e-01 0.000000e+00
         vertex -2.000000e+00 -3.292012e-16 0.000000e+00
      endloop
   endfacet
   facet normal -9.238795e-01 -3.826834e-01 0.000000e+00
      outer loop
         vertex -2.000000e+00 -3.292012e-16 4.000000e+00
         vertex -2.366117e+00 8.838835e-01 4.000000e+00
         vertex -2.000000e+00 -3.292012e-16 0.000000e+00
      endloop
   endfacet
   facet normal -3.826834e-01 -9.238795e-01 0.000000e+00
      outer loop
         vertex -3.250000e+00 1.250000e+00 4.000000e+00
         vertex -3.250000e+00 1.250000e+00 0.000000e+00
         vertex -2.366117e+00 8.838835e-01 0.000000e+00
      endloop
   endfacet
   facet normal -3.826834e-01 -9.238795e-01 0.000000e+00
      outer loop
         vertex -2.366117e+00 8.838835e-01 4.000000e+00
         vertex -3.250000e+00 1.250000e+00 4.000000e+00
         vertex -2.366117e+00 8.838835e-01 0.000000e+00
      endloop
   endfacet
   facet normal 3.826834e-01 -9.238795e-01 0.000000e+00
      outer loop
         vertex -4.133883e+00 8.838835e-01 4.000000e+00
         vertex -4.133883e+00 8.838835e-01 0.000000e+00
         vertex -3.250000e+00 1.250000e+00 0.000000e+00
      endloop
   endfacet
   facet normal 3.826834e-01 -9.238795e-01 0.000000e+00
      outer loop
         vertex -3.250000e+00 1.250000e+00 4.000000e+00
         vertex -4.133883e+00 8.838835e-01 4.000000e+00
         vertex -3.250000e+00 1.250000e+00 0.000000e+00
      endloop
   endfacet
   facet normal 9.238795e-01 -3.826834e-01 0.000000e+00
      outer loop
         vertex -4.500000e+00 4.362030e-16 4.000000e+00
         vertex -4.500000e+00 4.362030e-16 0.000000e+00
         vertex -4.133883e+00 8.838835e-01 0.000000e+00
      endloop
   endfacet
   facet normal 9.238795e-01 -3.826834e-01 0.000000e+00
      outer loop
         vertex -4.133883e+00 8.838835e-01 4.000000e+00
         vertex -4.500000e+00 4.362030e-16 4.000000e+00
         vertex -4.133883e+00 8.838835e-01 0.000000e+00
      endloop
   endfacet
   facet normal 9.238795e-01 3.826834e-01 -0.000000e+00
      outer loop
         vertex 2.366117e+00 -8.838835e-01 4.000000e+00
         vertex 2.366117e+00 -8.838835e-01 0.000000e+00
         vertex 2.000000e+00 1.761203e-16 0.000000e+00
      endloop
   endfacet
   facet normal 9.238795e-01 3.826834e-01 0.000000e+00
      outer loop
         vertex 2.000000e+00 1.761203e-16 4.000000e+00
         vertex 2.366117e+00 -8.838835e-01 4.000000e+00
         vertex 2.000000e+00 1.761203e-16 0.000000e+00
      endloop
   endfacet
   facet normal 3.826834e-01 9.238795e-01 -0.000000e+00
      outer loop
         vertex 3.250000e+00 -1.250000e+00 4.000000e+00
         vertex 3.250000e+00 -1.250000e+00 0.000000e+00
         vertex 2.366117e+00 -8.838835e-01 0.000000e+00
      endloop
   endfacet
   facet normal 3.826834e-01 9.238795e-01 0.000000e+00
      outer loop
         vertex 2.366117e+00 -8.838835e-01 4.000000e+00
         vertex 3.250000e+00 -1.250000e+00 4.000000e+00
         vertex 2.366117e+00 -8.838835e-01 0.000000e+00
      endloop
   endfacet
   facet normal -3.826834e-01 9.238795e-01 0.000000e+00
      outer loop
         vertex 4.133883e+00 -8.838835e-01 4.000000e+00
         vertex 4.133883e+00 -8.838835e-01 0.000000e+00
         vertex 3.250000e+00 -1.250000e+00 0.000000e+00
      endloop
   endfacet
   facet normal -3.826834e-01 9.238795e-01 0.000000e+00
      outer loop
         vertex 3.250000e+00 -1.250000e+00 4.000000e+00
         vertex 4.133883e+00 -8.838835e-01 4.000000e+00
         vertex 3.250000e+00 -1.250000e+00 0.000000e+00
      endloop
   endfacet
   facet normal -9.238795e-01 3.826834e-01 0.000000e+00
      outer loop
         vertex 4.500000e+00 -2.831222e-16 4.000000e+00
         vertex 4.500000e+00 -2.831222e-16 0.000000e+00
         vertex 4.133883e+00 -8.838835e-01 0.000000e+00
      endloop
   endfacet
   facet normal -9.238795e-01 3.826834e-01 0.000000e+00
      outer loop
         vertex 4.133883e+00 -8.838835e-01 4.000000e+00
         vertex 4.500000e+00 -2.831222e-16 4.000000e+00
         vertex 4.133883e+00 -8.838835e-01 0.000000e+00
      endloop
   endfacet
   facet normal -9.238795e-01 -3.826834e-01 0.000000e+00
      outer loop
         vertex 4.133883e+00 8.838835e-01 4.000000e+00
         vertex 4.133883e+00 8.838835e-01 0.000000e+00
         vertex 4.500000e+00 -2.831222e-16 0.000000e+00
      endloop
   endfacet
   facet normal -9.238795e-01 -3.826834e-01 0.000000e+00
      outer loop
         vertex 4.500000e+00 -2.831222e-16 4.000000e+00
         vertex 4.133883e+00 8.838835e-01 4.000000e+00
         vertex 4.500000e+00 -2.831222e-16 0.000000e+00
      endloop
   endfacet
   facet normal -3.826834e-01 -9.238795e-01 0.000000e+00
      outer loop
         vertex 3.250000e+00 1.250000e+00 4.000000e+00
         vertex 3.250000e+00 1.250000e+00 0.000000e+00
         vertex 4.133883e+00 8.838835e-01 0.000000e+00
      endloop
   endfacet
   facet normal -3.826834e-01 -9.238795e-01 0.000000e+00
      outer loop
         vertex 4.133883e+00 8.838835e-01 4.000000e+00
         vertex 3.250000e+00 1.250000e+00 4.000000e+00
         vertex 4.133883e+00 8.838835e-01 0.000000e+00
      endloop
   endfacet
   facet normal 3.826834e-01 -9.238795e-01 0.000000e+00
      outer loop
         vertex 2.366117e+00 8.838835e-01 4.000000e+00
         vertex 2.366117e+00 8.838835e-01 0.000000e+00
         vertex 3.250000e+00 1.250000e+00 0.000000e+00
      endloop
   endfacet
   facet normal 3.826834e-01 -9.238795e-01 0.000000e+00
      outer loop
         vertex 3.250000e+00 1.250000e+00 4.000000e+00
         vertex 2.366117e+00 8.838835e-01 4.000000e+00
         vertex 3.250000e+00 1.250000e+00 0.000000e+00
      endloop
   endfacet
   facet normal 9.238795e-01 -3.826834e-01 0.000000e+00
      outer loop
         vertex 2.000000e+00 4.822820e-16 4.000000e+00
         vertex 2.000000e+00 4.822820e-16 0.000000e+00
         vertex 2.366117e+00 8.838835e-01 0.000000e+00
      endloop
   endfacet
   facet normal 9.238795e-01 -3.826834e-01 0.000000e+00
      outer loop
         vertex 2.366117e+00 8.838835e-01 4.000000e+00
         vertex 2.000000e+00 4.822820e-16 4.000000e+00
         vertex 2.366117e+00 8.838835e-01 0.000000e+00
      endloop
   endfacet
   facet normal 0.000000e+00 1.000000e+00 -0.000000e+00
      outer loop
         vertex 4.500000e+00 3.750000e+00 4.000000e+00
         vertex 4.500000e+00 3.750000e+00 0.000000e+00
         vertex -4.500000e+00 3.750000e+00 0.000000e+00
      endloop
   endfacet
   facet normal 0.000000e+00 1.000000e+00 0.000000e+00
      outer loop
         vertex 4.500000e+00 3.750000e+00 4.000000e+00
         vertex -4.500000e+00 3.750000e+00 0.000000e+00
         vertex -4.500000e+00 3.750000e+00 4.000000e+00
      endloop
   endfacet
   facet normal 2.225209e-01 -9.749279e-01 0.000000e+00
      outer loop
         vertex 4.500000e+00 -3.750000e+00 0.000000e+00
         vertex 6.127064e+00 -3.378633e+00 0.000000e+00
         vertex 6.127064e+00 -3.378633e+00 4.000000e+00
      endloop
   endfacet
   facet normal 2.225209e-01 -9.749279e-01 0.000000e+00
      outer loop
         vertex 4.500000e+00 -3.750000e+00 0.000000e+00
         vertex 6.127064e+00 -3.378633e+00 4.000000e+00
         vertex 4.500000e+00 -3.750000e+00 4.000000e+00
      endloop
   endfacet
   facet normal 6.234898e-01 -7.818315e-01 0.000000e+00
      outer loop
         vertex 6.127064e+00 -3.378633e+00 0.000000e+00
         vertex 7.431868e+00 -2.338087e+00 0.000000e+00
         vertex 7.431868e+00 -2.338087e+00 4.000000e+00
      endloop
   endfacet
   facet normal 6.234898e-01 -7.818315e-01 0.000000e+00
      outer loop
         vertex 6.127064e+00 -3.378633e+00 0.000000e+00
         vertex 7.431868e+00 -2.338087e+00 4.000000e+00
         vertex 6.127064e+00 -3.378633e+00 4.000000e+00
      endloop
   endfacet
   facet normal 9.009688e-01 -4.338839e-01 0.000000e+00
      outer loop
         vertex 7.431868e+00 -2.338087e+00 0.000000e+00
         vertex 8.155980e+00 -8.344535e-01 0.000000e+00
         vertex 8.155980e+00 -8.344535e-01 4.000000e+00
      endloop
   endfacet
   facet normal 9.009688e-01 -4.338839e-01 0.000000e+00
      outer loop
         vertex 7.431868e+00 -2.338087e+00 0.000000e+00
         vertex 8.155980e+00 -8.344535e-01 4.000000e+00
         vertex 7.431868e+00 -2.338087e+00 4.000000e+00
      endloop
   endfacet
   facet normal 1.000000e+00 0.000000e+00 -0.000000e+00
      outer loop
         vertex 8.155980e+00 -8.344535e-01 0.000000e+00
         vertex 8.155980e+00 8.344535e-01 0.000000e+00
         vertex 8.155980e+00 8.344535e-01 4.000000e+00
      endloop
   endfacet
   facet normal 1.000000e+00 0.000000e+00 0.000000e+00
      outer loop
         vertex 8.155980e+00 -8.344535e-01 0.000000e+00
         vertex 8.155980e+00 8.344535e-01 4.000000e+00
         vertex 8.155980e+00 -8.344535e-01 4.000000e+00
      endloop
   endfacet
   facet normal 9.009688e-01 4.338839e-01 -0.000000e+00
      outer loop
         vertex 8.155980e+00 8.344535e-01 0.000000e+00
         vertex 7.431868e+00 2.338087e+00 0.000000e+00
         vertex 7.431868e+00 2.338087e+00 4.000000e+00
      endloop
   endfacet
   facet normal 9.009688e-01 4.338839e-01 0.000000e+00
      outer loop
         vertex 8.155980e+00 8.344535e-01 0.000000e+00
         vertex 7.431868e+00 2.338087e+00 4.000000e+00
         vertex 8.155980e+00 8.344535e-01 4.000000e+00
      endloop
   endfacet
   facet normal 6.234898e-01 7.818315e-01 -0.000000e+00
      outer loop
         vertex 7.431868e+00 2.338087e+00 0.000000e+00
         vertex 6.127064e+00 3.378633e+00 0.000000e+00
         vertex 6.127064e+00 3.378633e+00 4.000000e+00
      endloop
   endfacet
   facet normal 6.234898e-01 7.818315e-01 0.000000e+00
      outer loop
         vertex 7.431868e+00 2.338087e+00 0.000000e+00
         vertex 6.127064e+00 3.378633e+00 4.000000e+00
         vertex 7.431868e+00 2.338087e+00 4.000000e+00
      endloop
   endfacet
   facet normal 2.225209e-01 9.749279e-01 -0.000000e+00
      outer loop
         vertex 6.127064e+00 3.378633e+00 0.000000e+00
         vertex 4.500000e+00 3.750000e+00 0.000000e+00
         vertex 4.500000e+00 3.750000e+00 4.000000e+00
      endloop
   endfacet
   facet normal 2.225209e-01 9.749279e-01 0.000000e+00
      outer loop
         vertex 6.127064e+00 3.378633e+00 0.000000e+00
         vertex 4.500000e+00 3.750000e+00 4.000000e+00
         vertex 6.127064e+00 3.378633e+00 4.000000e+00
      endloop
   endfacet
   facet normal 0.000000e+00 -1.000000e+00 0.000000e+00
      outer loop
         vertex -4.500000e+00 -3.750000e+00 4.000000e+00
         vertex -4.500000e+00 -3.750000e+00 0.000000e+00
         vertex 4.500000e+00 -3.750000e+00 0.000000e+00
      endloop
   endfacet
   facet normal 0.000000e+00 -1.000000e+00 0.000000e+00
      outer loop
         vertex -4.500000e+00 -3.750000e+00 4.000000e+00
         vertex 4.500000e+00 -3.750000e+00 0.000000e+00
         vertex 4.500000e+00 -3.750000e+00 4.000000e+00
      endloop
   endfacet
   facet normal -2.225209e-01 9.749279e-01 0.000000e+00
      outer loop
         vertex -4.500000e+00 3.750000e+00 0.000000e+00
         vertex -6.127064e+00 3.378633e+00 0.000000e+00
         vertex -6.127064e+00 3.378633e+00 4.000000e+00
      endloop
   endfacet
   facet normal -2.225209e-01 9.749279e-01 0.000000e+00
      outer loop
         vertex -4.500000e+00 3.750000e+00 0.000000e+00
         vertex -6.127064e+00 3.378633e+00 4.000000e+00
         vertex -4.500000e+00 3.750000e+00 4.000000e+00
      endloop
   endfacet
   facet normal -6.234898e-01 7.818315e-01 0.000000e+00
      outer loop
         vertex -6.127064e+00 3.378633e+00 0.000000e+00
         vertex -7.431868e+00 2.338087e+00 0.000000e+00
         vertex -7.431868e+00 2.338087e+00 4.000000e+00
      endloop
   endfacet
   facet normal -6.234898e-01 7.818315e-01 0.000000e+00
      outer loop
         vertex -6.127064e+00 3.378633e+00 0.000000e+00
         vertex -7.431868e+00 2.338087e+00 4.000000e+00
         vertex -6.127064e+00 3.378633e+00 4.000000e+00
      endloop
   endfacet
   facet normal -9.009688e-01 4.338839e-01 0.000000e+00
      outer loop
         vertex -7.431868e+00 2.338087e+00 0.000000e+00
         vertex -8.155980e+00 8.344535e-01 0.000000e+00
         vertex -8.155980e+00 8.344535e-01 4.000000e+00
      endloop
   endfacet
   facet normal -9.009688e-01 4.338839e-01 0.000000e+00
      outer loop
         vertex -7.431868e+00 2.338087e+00 0.000000e+00
         vertex -8.155980e+00 8.344535e-01 4.000000e+00
         vertex -7.431868e+00 2.338087e+00 4.000000e+00
      endloop
   endfacet
   facet normal -1.000000e+00 0.000000e+00 0.000000e+00
      outer loop
         vertex -8.155980e+00 8.344535e-01 0.000000e+00
         vertex -8.155980e+00 -8.344535e-01 0.000000e+00
         vertex -8.155980e+00 -8.344535e-01 4.000000e+00
      endloop
   endfacet
   facet normal -1.000000e+00 0.000000e+00 0.000000e+00
      outer loop
         vertex -8.155980e+00 8.344535e-01 0.000000e+00
         vertex -8.155980e+00 -8.344535e-01 4.000000e+00
         vertex -8.155980e+00 8.344535e-01 4.000000e+00
      endloop
   endfacet
   facet normal -9.009688e-01 -4.338839e-01 0.000000e+00
      outer loop
         vertex -8.155980e+00 -8.344535e-01 0.000000e+00
         vertex -7.431868e+00 -2.338087e+00 0.000000e+00
         vertex -7.431868e+00 -2.338087e+00 4.000000e+00
      endloop
   endfacet
   facet normal -9.009688e-01 -4.338839e-01 0.000000e+00
      outer loop
         vertex -8.155980e+00 -8.344535e-01 0.000000e+00
         vertex -7.431868e+00 -2.338087e+00 4.000000e+00
         vertex -8.155980e+00 -8.344535e-01 4.000000e+00
      endloop
   endfacet
   facet normal -6.234898e-01 -7.818315e-01 0.000000e+00
      outer loop
         vertex -7.431868e+00 -2.338087e+00 0.000000e+00
         vertex -6.127064e+00 -3.378633e+00 0.000000e+00
         vertex -6.127064e+00 -3.378633e+00 4.000000e+00
      endloop
   endfacet
   facet normal -6.234898e-01 -7.818315e-01 0.000000e+00
      outer loop
         vertex -7.431868e+00 -2.338087e+00 0.000000e+00
         vertex -6.127064e+00 -3.378633e+00 4.000000e+00
         vertex -7.431868e+00 -2.338087e+00 4.000000e+00
      endloop
   endfacet
   facet normal -2.225209e-01 -9.749279e-01 0.000000e+00
      outer loop
         vertex -6.127064e+00 -3.378633e+00 0.000000e+00
         vertex -4.500000e+00 -3.750000e+00 0.000000e+00
         vertex -4.500000e+00 -3.750000e+00 4.000000e+00
      endloop
   endfacet
   facet normal -2.225209e-01 -9.749279e-01 0.000000e+00
      outer loop
         vertex -6.127064e+00 -3.378633e+00 0.000000e+00
         vertex -4.500000e+00 -3.750000e+00 4.000000e+00
         vertex -6.127064e+00 -3.378633e+00 4.000000e+00
      endloop
   endfacet
endsolid
