solid 
   facet normal 0.000000e+00 0.000000e+00 -1.000000e+00
      outer loop
         vertex -6.999048e+00 -2.402776e+00 0.000000e+00
         vertex -7.400000e+00 9.062386e-16 0.000000e+00
         vertex -5.839640e+00 -4.545174e+00 0.000000e+00
      endloop
   endfacet
   facet normal 0.000000e+00 -0.000000e+00 -1.000000e+00
      outer loop
         vertex -7.400000e+00 9.062386e-16 0.000000e+00
         vertex -6.999048e+00 2.402776e+00 0.000000e+00
         vertex -5.839640e+00 -4.545174e+00 0.000000e+00
      endloop
   endfacet
   facet normal 0.000000e+00 0.000000e+00 -1.000000e+00
      outer loop
         vertex -5.839640e+00 -4.545174e+00 0.000000e+00
         vertex -6.999048e+00 2.402776e+00 0.000000e+00
         vertex -4.047416e+00 -6.195032e+00 0.000000e+00
      endloop
   endfacet
   facet normal 0.000000e+00 -0.000000e+00 -1.000000e+00
      outer loop
         vertex -6.999048e+00 2.402776e+00 0.000000e+00
         vertex -5.839640e+00 4.545174e+00 0.000000e+00
         vertex -4.047416e+00 -6.195032e+00 0.000000e+00
      endloop
   endfacet
   facet normal 0.000000e+00 0.000000e+00 -1.000000e+00
      outer loop
         vertex -4.047416e+00 -6.195032e+00 0.000000e+00
         vertex -4.527009e+00 -1.875149e+00 0.000000e+00
         vertex -1.816593e+00 -7.173562e+00 0.000000e+00
      endloop
   endfacet
   facet normal -0.000000e+00 -0.000000e+00 -1.000000e+00
      outer loop
         vertex -4.527009e+00 -1.875149e+00 0.000000e+00
         vertex -3.464823e+00 -3.464823e+00 0.000000e+00
         vertex -1.816593e+00 -7.173562e+00 0.000000e+00
      endloop
   endfacet
   facet normal 0.000000e+00 0.000000e+00 -1.000000e+00
      outer loop
         vertex -1.816593e+00 -7.173562e+00 0.000000e+00
         vertex -3.464823e+00 -3.464823e+00 0.000000e+00
         vertex 6.110871e-01 -7.374725e+00 0.000000e+00
      endloop
   endfacet
   facet normal -0.000000e+00 -0.000000e+00 -1.000000e+00
      outer loop
         vertex -3.464823e+00 -3.464823e+00 0.000000e+00
         vertex -1.875149e+00 -4.527009e+00 0.000000e+00
         vertex 6.110871e-01 -7.374725e+00 0.000000e+00
      endloop
   endfacet
   facet normal 0.000000e+00 0.000000e+00 -1.000000e+00
      outer loop
         vertex 6.110871e-01 -7.374725e+00 0.000000e+00
         vertex -1.875149e+00 -4.527009e+00 0.000000e+00
         vertex 2.972546e+00 -6.776722e+00 0.000000e+00
      endloop
   endfacet
   facet normal -0.000000e+00 -0.000000e+00 -1.000000e+00
      outer loop
         vertex -1.875149e+00 -4.527009e+00 0.000000e+00
         vertex -9.001154e-16 -4.900000e+00 0.000000e+00
         vertex 2.972546e+00 -6.776722e+00 0.000000e+00
      endloop
   endfacet
   facet normal 0.000000e+00 0.000000e+00 -1.000000e+00
      outer loop
         vertex 2.972546e+00 -6.776722e+00 0.000000e+00
         vertex -9.001154e-16 -4.900000e+00 0.000000e+00
         vertex 5.011884e+00 -5.444357e+00 0.000000e+00
      endloop
   endfacet
   facet normal 0.000000e+00 -0.000000e+00 -1.000000e+00
      outer loop
         vertex -9.001154e-16 -4.900000e+00 0.000000e+00
         vertex 1.875149e+00 -4.527009e+00 0.000000e+00
         vertex 5.011884e+00 -5.444357e+00 0.000000e+00
      endloop
   endfacet
   facet normal 0.000000e+00 0.000000e+00 -1.000000e+00
      outer loop
         vertex 5.011884e+00 -5.444357e+00 0.000000e+00
         vertex 1.875149e+00 -4.527009e+00 0.000000e+00
         vertex 6.508106e+00 -3.522011e+00 0.000000e+00
      endloop
   endfacet
   facet normal 0.000000e+00 -0.000000e+00 -1.000000e+00
      outer loop
         vertex 1.875149e+00 -4.527009e+00 0.000000e+00
         vertex 3.464823e+00 -3.464823e+00 0.000000e+00
         vertex 6.508106e+00 -3.522011e+00 0.000000e+00
      endloop
   endfacet
   facet normal 0.000000e+00 0.000000e+00 -1.000000e+00
      outer loop
         vertex 6.508106e+00 -3.522011e+00 0.000000e+00
         vertex 3.464823e+00 -3.464823e+00 0.000000e+00
         vertex 7.299074e+00 -1.218000e+00 0.000000e+00
      endloop
   endfacet
   facet normal 0.000000e+00 -0.000000e+00 -1.000000e+00
      outer loop
         vertex 3.464823e+00 -3.464823e+00 0.000000e+00
         vertex 4.527009e+00 -1.875149e+00 0.000000e+00
         vertex 7.299074e+00 -1.218000e+00 0.000000e+00
      endloop
   endfacet
   facet normal 0.000000e+00 0.000000e+00 -1.000000e+00
      outer loop
         vertex 7.299074e+00 -1.218000e+00 0.000000e+00
         vertex 4.527009e+00 -1.875149e+00 0.000000e+00
         vertex 7.299074e+00 1.218000e+00 0.000000e+00
      endloop
   endfacet
   facet normal 0.000000e+00 -0.000000e+00 -1.000000e+00
      outer loop
         vertex 4.527009e+00 -1.875149e+00 0.000000e+00
         vertex 4.900000e+00 -1.200154e-15 0.000000e+00
         vertex 7.299074e+00 1.218000e+00 0.000000e+00
      endloop
   endfacet
   facet normal 0.000000e+00 0.000000e+00 -1.000000e+00
      outer loop
         vertex 7.299074e+00 1.218000e+00 0.000000e+00
         vertex 4.900000e+00 -1.200154e-15 0.000000e+00
         vertex 6.508106e+00 3.522011e+00 0.000000e+00
      endloop
   endfacet
   facet normal 0.000000e+00 0.000000e+00 -1.000000e+00
      outer loop
         vertex 4.900000e+00 -1.200154e-15 0.000000e+00
         vertex 4.527009e+00 1.875149e+00 0.000000e+00
         vertex 6.508106e+00 3.522011e+00 0.000000e+00
      endloop
   endfacet
   facet normal 0.000000e+00 0.000000e+00 -1.000000e+00
      outer loop
         vertex 6.508106e+00 3.522011e+00 0.000000e+00
         vertex 4.527009e+00 1.875149e+00 0.000000e+00
         vertex 5.011884e+00 5.444357e+00 0.000000e+00
      endloop
   endfacet
   facet normal 0.000000e+00 0.000000e+00 -1.000000e+00
      outer loop
         vertex 4.527009e+00 1.875149e+00 0.000000e+00
         vertex 3.464823e+00 3.464823e+00 0.000000e+00
         vertex 5.011884e+00 5.444357e+00 0.000000e+00
      endloop
   endfacet
   facet normal 0.000000e+00 0.000000e+00 -1.000000e+00
      outer loop
         vertex 5.011884e+00 5.444357e+00 0.000000e+00
         vertex 3.464823e+00 3.464823e+00 0.000000e+00
         vertex 2.972546e+00 6.776722e+00 0.000000e+00
      endloop
   endfacet
   facet normal 0.000000e+00 0.000000e+00 -1.000000e+00
      outer loop
         vertex 3.464823e+00 3.464823e+00 0.000000e+00
         vertex 1.875149e+00 4.527009e+00 0.000000e+00
         vertex 2.972546e+00 6.776722e+00 0.000000e+00
      endloop
   endfacet
   facet normal 0.000000e+00 0.000000e+00 -1.000000e+00
      outer loop
         vertex 2.972546e+00 6.776722e+00 0.000000e+00
         vertex 1.875149e+00 4.527009e+00 0.000000e+00
         vertex 6.110871e-01 7.374725e+00 0.000000e+00
      endloop
   endfacet
   facet normal 0.000000e+00 0.000000e+00 -1.000000e+00
      outer loop
         vertex 1.875149e+00 4.527009e+00 0.000000e+00
         vertex 1.500192e-15 4.900000e+00 0.000000e+00
         vertex 6.110871e-01 7.374725e+00 0.000000e+00
      endloop
   endfacet
   facet normal 0.000000e+00 0.000000e+00 -1.000000e+00
      outer loop
         vertex 6.110871e-01 7.374725e+00 0.000000e+00
         vertex 1.500192e-15 4.900000e+00 0.000000e+00
         vertex -1.816593e+00 7.173562e+00 0.000000e+00
      endloop
   endfacet
   facet normal 0.000000e+00 0.000000e+00 -1.000000e+00
      outer loop
         vertex 1.500192e-15 4.900000e+00 0.000000e+00
         vertex -1.875149e+00 4.527009e+00 0.000000e+00
         vertex -1.816593e+00 7.173562e+00 0.000000e+00
      endloop
   endfacet
   facet normal 0.000000e+00 0.000000e+00 -1.000000e+00
      outer loop
         vertex -1.816593e+00 7.173562e+00 0.000000e+00
         vertex -1.875149e+00 4.527009e+00 0.000000e+00
         vertex -4.047416e+00 6.195032e+00 0.000000e+00
      endloop
   endfacet
   facet normal 0.000000e+00 0.000000e+00 -1.000000e+00
      outer loop
         vertex -1.875149e+00 4.527009e+00 0.000000e+00
         vertex -3.464823e+00 3.464823e+00 0.000000e+00
         vertex -4.047416e+00 6.195032e+00 0.000000e+00
      endloop
   endfacet
   facet normal 0.000000e+00 0.000000e+00 -1.000000e+00
      outer loop
         vertex -4.047416e+00 6.195032e+00 0.000000e+00
         vertex -3.464823e+00 3.464823e+00 0.000000e+00
         vertex -5.839640e+00 4.545174e+00 0.000000e+00
      endloop
   endfacet
   facet normal 0.000000e+00 0.000000e+00 -1.000000e+00
      outer loop
         vertex -3.464823e+00 3.464823e+00 0.000000e+00
         vertex -4.527009e+00 1.875149e+00 0.000000e+00
         vertex -5.839640e+00 4.545174e+00 0.000000e+00
      endloop
   endfacet
   facet normal -0.000000e+00 -0.000000e+00 -1.000000e+00
      outer loop
         vertex -5.839640e+00 4.545174e+00 0.000000e+00
         vertex -4.900000e+00 6.000769e-16 0.000000e+00
         vertex -4.047416e+00 -6.195032e+00 0.000000e+00
      endloop
   endfacet
   facet normal -0.000000e+00 -0.000000e+00 -1.000000e+00
      outer loop
         vertex -4.900000e+00 6.000769e-16 0.000000e+00
         vertex -4.527009e+00 -1.875149e+00 0.000000e+00
         vertex -4.047416e+00 -6.195032e+00 0.000000e+00
      endloop
   endfacet
   facet normal 0.000000e+00 0.000000e+00 -1.000000e+00
      outer loop
         vertex -4.900000e+00 6.000769e-16 0.000000e+00
         vertex -5.839640e+00 4.545174e+00 0.000000e+00
         vertex -4.527009e+00 1.875149e+00 0.000000e+00
      endloop
   endfacet
   facet normal 0.000000e+00 0.000000e+00 1.000000e+00
      outer loop
         vertex -6.999048e+00 2.402776e+00 2.000000e+00
         vertex -7.400000e+00 9.062386e-16 2.000000e+00
         vertex -5.839640e+00 4.545174e+00 2.000000e+00
      endloop
   endfacet
   facet normal 0.000000e+00 -0.000000e+00 1.000000e+00
      outer loop
         vertex -7.400000e+00 9.062386e-16 2.000000e+00
         vertex -6.999048e+00 -2.402776e+00 2.000000e+00
         vertex -5.839640e+00 4.545174e+00 2.000000e+00
      endloop
   endfacet
   facet normal 0.000000e+00 0.000000e+00 1.000000e+00
      outer loop
         vertex -5.839640e+00 4.545174e+00 2.000000e+00
         vertex -6.999048e+00 -2.402776e+00 2.000000e+00
         vertex -4.047416e+00 6.195032e+00 2.000000e+00
      endloop
   endfacet
   facet normal 0.000000e+00 -0.000000e+00 1.000000e+00
      outer loop
         vertex -6.999048e+00 -2.402776e+00 2.000000e+00
         vertex -5.839640e+00 -4.545174e+00 2.000000e+00
         vertex -4.047416e+00 6.195032e+00 2.000000e+00
      endloop
   endfacet
   facet normal 0.000000e+00 0.000000e+00 1.000000e+00
      outer loop
         vertex -4.047416e+00 6.195032e+00 2.000000e+00
         vertex -4.527009e+00 1.875149e+00 2.000000e+00
         vertex -1.816593e+00 7.173562e+00 2.000000e+00
      endloop
   endfacet
   facet normal 0.000000e+00 -0.000000e+00 1.000000e+00
      outer loop
         vertex -4.527009e+00 1.875149e+00 2.000000e+00
         vertex -3.464823e+00 3.464823e+00 2.000000e+00
         vertex -1.816593e+00 7.173562e+00 2.000000e+00
      endloop
   endfacet
   facet normal 0.000000e+00 0.000000e+00 1.000000e+00
      outer loop
         vertex -1.816593e+00 7.173562e+00 2.000000e+00
         vertex -3.464823e+00 3.464823e+00 2.000000e+00
         vertex 6.110871e-01 7.374725e+00 2.000000e+00
      endloop
   endfacet
   facet normal 0.000000e+00 -0.000000e+00 1.000000e+00
      outer loop
         vertex -3.464823e+00 3.464823e+00 2.000000e+00
         vertex -1.875149e+00 4.527009e+00 2.000000e+00
         vertex 6.110871e-01 7.374725e+00 2.000000e+00
      endloop
   endfacet
   facet normal 0.000000e+00 0.000000e+00 1.000000e+00
      outer loop
         vertex 6.110871e-01 7.374725e+00 2.000000e+00
         vertex -1.875149e+00 4.527009e+00 2.000000e+00
         vertex 2.972546e+00 6.776722e+00 2.000000e+00
      endloop
   endfacet
   facet normal 0.000000e+00 -0.000000e+00 1.000000e+00
      outer loop
         vertex -1.875149e+00 4.527009e+00 2.000000e+00
         vertex 1.500192e-15 4.900000e+00 2.000000e+00
         vertex 2.972546e+00 6.776722e+00 2.000000e+00
      endloop
   endfacet
   facet normal 0.000000e+00 0.000000e+00 1.000000e+00
      outer loop
         vertex 2.972546e+00 6.776722e+00 2.000000e+00
         vertex 1.500192e-15 4.900000e+00 2.000000e+00
         vertex 5.011884e+00 5.444357e+00 2.000000e+00
      endloop
   endfacet
   facet normal 0.000000e+00 -0.000000e+00 1.000000e+00
      outer loop
         vertex 1.500192e-15 4.900000e+00 2.000000e+00
         vertex 1.875149e+00 4.527009e+00 2.000000e+00
         vertex 5.011884e+00 5.444357e+00 2.000000e+00
      endloop
   endfacet
   facet normal -0.000000e+00 0.000000e+00 1.000000e+00
      outer loop
         vertex 5.011884e+00 5.444357e+00 2.000000e+00
         vertex 1.875149e+00 4.527009e+00 2.000000e+00
         vertex 6.508106e+00 3.522011e+00 2.000000e+00
      endloop
   endfacet
   facet normal 0.000000e+00 -0.000000e+00 1.000000e+00
      outer loop
         vertex 1.875149e+00 4.527009e+00 2.000000e+00
         vertex 3.464823e+00 3.464823e+00 2.000000e+00
         vertex 6.508106e+00 3.522011e+00 2.000000e+00
      endloop
   endfacet
   facet normal -0.000000e+00 0.000000e+00 1.000000e+00
      outer loop
         vertex 6.508106e+00 3.522011e+00 2.000000e+00
         vertex 3.464823e+00 3.464823e+00 2.000000e+00
         vertex 7.299074e+00 1.218000e+00 2.000000e+00
      endloop
   endfacet
   facet normal -0.000000e+00 -0.000000e+00 1.000000e+00
      outer loop
         vertex 3.464823e+00 3.464823e+00 2.000000e+00
         vertex 4.527009e+00 1.875149e+00 2.000000e+00
         vertex 7.299074e+00 1.218000e+00 2.000000e+00
      endloop
   endfacet
   facet normal 0.000000e+00 0.000000e+00 1.000000e+00
      outer loop
         vertex 7.299074e+00 1.218000e+00 2.000000e+00
         vertex 4.527009e+00 1.875149e+00 2.000000e+00
         vertex 7.299074e+00 -1.218000e+00 2.000000e+00
      endloop
   endfacet
   facet normal -0.000000e+00 -0.000000e+00 1.000000e+00
      outer loop
         vertex 4.527009e+00 1.875149e+00 2.000000e+00
         vertex 4.900000e+00 -1.200154e-15 2.000000e+00
         vertex 7.299074e+00 -1.218000e+00 2.000000e+00
      endloop
   endfacet
   facet normal 0.000000e+00 0.000000e+00 1.000000e+00
      outer loop
         vertex 7.299074e+00 -1.218000e+00 2.000000e+00
         vertex 4.900000e+00 -1.200154e-15 2.000000e+00
         vertex 6.508106e+00 -3.522011e+00 2.000000e+00
      endloop
   endfacet
   facet normal -0.000000e+00 0.000000e+00 1.000000e+00
      outer loop
         vertex 4.900000e+00 -1.200154e-15 2.000000e+00
         vertex 4.527009e+00 -1.875149e+00 2.000000e+00
         vertex 6.508106e+00 -3.522011e+00 2.000000e+00
      endloop
   endfacet
   facet normal 0.000000e+00 0.000000e+00 1.000000e+00
      outer loop
         vertex 6.508106e+00 -3.522011e+00 2.000000e+00
         vertex 4.527009e+00 -1.875149e+00 2.000000e+00
         vertex 5.011884e+00 -5.444357e+00 2.000000e+00
      endloop
   endfacet
   facet normal -0.000000e+00 0.000000e+00 1.000000e+00
      outer loop
         vertex 4.527009e+00 -1.875149e+00 2.000000e+00
         vertex 3.464823e+00 -3.464823e+00 2.000000e+00
         vertex 5.011884e+00 -5.444357e+00 2.000000e+00
      endloop
   endfacet
   facet normal 0.000000e+00 0.000000e+00 1.000000e+00
      outer loop
         vertex 5.011884e+00 -5.444357e+00 2.000000e+00
         vertex 3.464823e+00 -3.464823e+00 2.000000e+00
         vertex 2.972546e+00 -6.776722e+00 2.000000e+00
      endloop
   endfacet
   facet normal -0.000000e+00 0.000000e+00 1.000000e+00
      outer loop
         vertex 3.464823e+00 -3.464823e+00 2.000000e+00
         vertex 1.875149e+00 -4.527009e+00 2.000000e+00
         vertex 2.972546e+00 -6.776722e+00 2.000000e+00
      endloop
   endfacet
   facet normal 0.000000e+00 0.000000e+00 1.000000e+00
      outer loop
         vertex 2.972546e+00 -6.776722e+00 2.000000e+00
         vertex 1.875149e+00 -4.527009e+00 2.000000e+00
         vertex 6.110871e-01 -7.374725e+00 2.000000e+00
      endloop
   endfacet
   facet normal -0.000000e+00 0.000000e+00 1.000000e+00
      outer loop
         vertex 1.875149e+00 -4.527009e+00 2.000000e+00
         vertex -9.001154e-16 -4.900000e+00 2.000000e+00
         vertex 6.110871e-01 -7.374725e+00 2.000000e+00
      endloop
   endfacet
   facet normal 0.000000e+00 0.000000e+00 1.000000e+00
      outer loop
         vertex 6.110871e-01 -7.374725e+00 2.000000e+00
         vertex -9.001154e-16 -4.900000e+00 2.000000e+00
         vertex -1.816593e+00 -7.173562e+00 2.000000e+00
      endloop
   endfacet
   facet normal 0.000000e+00 0.000000e+00 1.000000e+00
      outer loop
         vertex -9.001154e-16 -4.900000e+00 2.000000e+00
         vertex -1.875149e+00 -4.527009e+00 2.000000e+00
         vertex -1.816593e+00 -7.173562e+00 2.000000e+00
      endloop
   endfacet
   facet normal 0.000000e+00 0.000000e+00 1.000000e+00
      outer loop
         vertex -1.816593e+00 -7.173562e+00 2.000000e+00
         vertex -1.875149e+00 -4.527009e+00 2.000000e+00
         vertex -4.047416e+00 -6.195032e+00 2.000000e+00
      endloop
   endfacet
   facet normal 0.000000e+00 0.000000e+00 1.000000e+00
      outer loop
         vertex -1.875149e+00 -4.527009e+00 2.000000e+00
         vertex -3.464823e+00 -3.464823e+00 2.000000e+00
         vertex -4.047416e+00 -6.195032e+00 2.000000e+00
      endloop
   endfacet
   facet normal 0.000000e+00 0.000000e+00 1.000000e+00
      outer loop
         vertex -4.047416e+00 -6.195032e+00 2.000000e+00
         vertex -3.464823e+00 -3.464823e+00 2.000000e+00
         vertex -5.839640e+00 -4.545174e+00 2.000000e+00
      endloop
   endfacet
   facet normal 0.000000e+00 0.000000e+00 1.000000e+00
      outer loop
         vertex -3.464823e+00 -3.464823e+00 2.000000e+00
         vertex -4.527009e+00 -1.875149e+00 2.000000e+00
         vertex -5.839640e+00 -4.545174e+00 2.000000e+00
      endloop
   endfacet
   facet normal 0.000000e+00 -0.000000e+00 1.000000e+00
      outer loop
         vertex -5.839640e+00 -4.545174e+00 2.000000e+00
         vertex -4.900000e+00 6.000769e-16 2.000000e+00
         vertex -4.047416e+00 6.195032e+00 2.000000e+00
      endloop
   endfacet
   facet normal 0.000000e+00 -0.000000e+00 1.000000e+00
      outer loop
         vertex -4.900000e+00 6.000769e-16 2.000000e+00
         vertex -4.527009e+00 1.875149e+00 2.000000e+00
         vertex -4.047416e+00 6.195032e+00 2.000000e+00
      endloop
   endfacet
   facet normal 0.000000e+00 0.000000e+00 1.000000e+00
      outer loop
         vertex -4.900000e+00 6.000769e-16 2.000000e+00
         vertex -5.839640e+00 -4.545174e+00 2.000000e+00
         vertex -4.527009e+00 -1.875149e+00 2.000000e+00
      endloop
   endfacet
   facet normal 9.807852e-01 1.950905e-01 -0.000000e+00
      outer loop
         vertex -4.527009e+00 -1.875149e+00 2.000000e+00
         vertex -4.527009e+00 -1.875149e+00 0.000000e+00
         vertex -4.900000e+00 6.000769e-16 0.000000e+00
      endloop
   endfacet
   facet normal 9.807852e-01 1.950905e-01 0.000000e+00
      outer loop
         vertex -4.900000e+00 6.000769e-16 2.000000e+00
         vertex -4.527009e+00 -1.875149e+00 2.000000e+00
         vertex -4.900000e+00 6.000769e-16 0.000000e+00
      endloop
   endfacet
   facet normal 8.314697e-01 5.555701e-01 -0.000000e+00
      outer loop
         vertex -3.464823e+00 -3.464823e+00 2.000000e+00
         vertex -3.464823e+00 -3.464823e+00 0.000000e+00
         vertex -4.527009e+00 -1.875149e+00 0.000000e+00
      endloop
   endfacet
   facet normal 8.314697e-01 5.555701e-01 0.000000e+00
      outer loop
         vertex -4.527009e+00 -1.875149e+00 2.000000e+00
         vertex -3.464823e+00 -3.464823e+00 2.000000e+00
         vertex -4.527009e+00 -1.875149e+00 0.000000e+00
      endloop
   endfacet
   facet normal 5.555701e-01 8.314697e-01 -0.000000e+00
      outer loop
         vertex -1.875149e+00 -4.527009e+00 2.000000e+00
         vertex -1.875149e+00 -4.527009e+00 0.000000e+00
         vertex -3.464823e+00 -3.464823e+00 0.000000e+00
      endloop
   endfacet
   facet normal 5.555701e-01 8.314697e-01 0.000000e+00
      outer loop
         vertex -3.464823e+00 -3.464823e+00 2.000000e+00
         vertex -1.875149e+00 -4.527009e+00 2.000000e+00
         vertex -3.464823e+00 -3.464823e+00 0.000000e+00
      endloop
   endfacet
   facet normal 1.950905e-01 9.807852e-01 -0.000000e+00
      outer loop
         vertex -9.001154e-16 -4.900000e+00 2.000000e+00
         vertex -9.001154e-16 -4.900000e+00 0.000000e+00
         vertex -1.875149e+00 -4.527009e+00 0.000000e+00
      endloop
   endfacet
   facet normal 1.950905e-01 9.807852e-01 0.000000e+00
      outer loop
         vertex -1.875149e+00 -4.527009e+00 2.000000e+00
         vertex -9.001154e-16 -4.900000e+00 2.000000e+00
         vertex -1.875149e+00 -4.527009e+00 0.000000e+00
      endloop
   endfacet
   facet normal -1.950905e-01 9.807852e-01 0.000000e+00
      outer loop
         vertex 1.875149e+00 -4.527009e+00 2.000000e+00
         vertex 1.875149e+00 -4.527009e+00 0.000000e+00
         vertex -9.001154e-16 -4.900000e+00 0.000000e+00
      endloop
   endfacet
   facet normal -1.950905e-01 9.807852e-01 0.000000e+00
      outer loop
         vertex -9.001154e-16 -4.900000e+00 2.000000e+00
         vertex 1.875149e+00 -4.527009e+00 2.000000e+00
         vertex -9.001154e-16 -4.900000e+00 0.000000e+00
      endloop
   endfacet
   facet normal -5.555701e-01 8.314697e-01 0.000000e+00
      outer loop
         vertex 3.464823e+00 -3.464823e+00 2.000000e+00
         vertex 3.464823e+00 -3.464823e+00 0.000000e+00
         vertex 1.875149e+00 -4.527009e+00 0.000000e+00
      endloop
   endfacet
   facet normal -5.555701e-01 8.314697e-01 0.000000e+00
      outer loop
         vertex 1.875149e+00 -4.527009e+00 2.000000e+00
         vertex 3.464823e+00 -3.464823e+00 2.000000e+00
         vertex 1.875149e+00 -4.527009e+00 0.000000e+00
      endloop
   endfacet
   facet normal -8.314697e-01 5.555701e-01 0.000000e+00
      outer loop
         vertex 4.527009e+00 -1.875149e+00 2.000000e+00
         vertex 4.527009e+00 -1.875149e+00 0.000000e+00
         vertex 3.464823e+00 -3.464823e+00 0.000000e+00
      endloop
   endfacet
   facet normal -8.314697e-01 5.555701e-01 0.000000e+00
      outer loop
         vertex 3.464823e+00 -3.464823e+00 2.000000e+00
         vertex 4.527009e+00 -1.875149e+00 2.000000e+00
         vertex 3.464823e+00 -3.464823e+00 0.000000e+00
      endloop
   endfacet
   facet normal -9.807852e-01 1.950905e-01 0.000000e+00
      outer loop
         vertex 4.900000e+00 -1.200154e-15 2.000000e+00
         vertex 4.900000e+00 -1.200154e-15 0.000000e+00
         vertex 4.527009e+00 -1.875149e+00 0.000000e+00
      endloop
   endfacet
   facet normal -9.807852e-01 1.950905e-01 0.000000e+00
      outer loop
         vertex 4.527009e+00 -1.875149e+00 2.000000e+00
         vertex 4.900000e+00 -1.200154e-15 2.000000e+00
         vertex 4.527009e+00 -1.875149e+00 0.000000e+00
      endloop
   endfacet
   facet normal -9.807852e-01 -1.950905e-01 0.000000e+00
      outer loop
         vertex 4.527009e+00 1.875149e+00 2.000000e+00
         vertex 4.527009e+00 1.875149e+00 0.000000e+00
         vertex 4.900000e+00 -1.200154e-15 0.000000e+00
      endloop
   endfacet
   facet normal -9.807852e-01 -1.950905e-01 0.000000e+00
      outer loop
         vertex 4.900000e+00 -1.200154e-15 2.000000e+00
         vertex 4.527009e+00 1.875149e+00 2.000000e+00
         vertex 4.900000e+00 -1.200154e-15 0.000000e+00
      endloop
   endfacet
   facet normal -8.314697e-01 -5.555701e-01 0.000000e+00
      outer loop
         vertex 3.464823e+00 3.464823e+00 2.000000e+00
         vertex 3.464823e+00 3.464823e+00 0.000000e+00
         vertex 4.527009e+00 1.875149e+00 0.000000e+00
      endloop
   endfacet
   facet normal -8.314697e-01 -5.555701e-01 0.000000e+00
      outer loop
         vertex 4.527009e+00 1.875149e+00 2.000000e+00
         vertex 3.464823e+00 3.464823e+00 2.000000e+00
         vertex 4.527009e+00 1.875149e+00 0.000000e+00
      endloop
   endfacet
   facet normal -5.555701e-01 -8.314697e-01 0.000000e+00
      outer loop
         vertex 1.875149e+00 4.527009e+00 2.000000e+00
         vertex 1.875149e+00 4.527009e+00 0.000000e+00
         vertex 3.464823e+00 3.464823e+00 0.000000e+00
      endloop
   endfacet
   facet normal -5.555701e-01 -8.314697e-01 0.000000e+00
      outer loop
         vertex 3.464823e+00 3.464823e+00 2.000000e+00
         vertex 1.875149e+00 4.527009e+00 2.000000e+00
         vertex 3.464823e+00 3.464823e+00 0.000000e+00
      endloop
   endfacet
   facet normal -1.950905e-01 -9.807852e-01 0.000000e+00
      outer loop
         vertex 1.500192e-15 4.900000e+00 2.000000e+00
         vertex 1.500192e-15 4.900000e+00 0.000000e+00
         vertex 1.875149e+00 4.527009e+00 0.000000e+00
      endloop
   endfacet
   facet normal -1.950905e-01 -9.807852e-01 0.000000e+00
      outer loop
         vertex 1.875149e+00 4.527009e+00 2.000000e+00
         vertex 1.500192e-15 4.900000e+00 2.000000e+00
         vertex 1.875149e+00 4.527009e+00 0.000000e+00
      endloop
   endfacet
   facet normal 1.950905e-01 -9.807852e-01 0.000000e+00
      outer loop
         vertex -1.875149e+00 4.527009e+00 2.000000e+00
         vertex -1.875149e+00 4.527009e+00 0.000000e+00
         vertex 1.500192e-15 4.900000e+00 0.000000e+00
      endloop
   endfacet
   facet normal 1.950905e-01 -9.807852e-01 0.000000e+00
      outer loop
         vertex 1.500192e-15 4.900000e+00 2.000000e+00
         vertex -1.875149e+00 4.527009e+00 2.000000e+00
         vertex 1.500192e-15 4.900000e+00 0.000000e+00
      endloop
   endfacet
   facet normal 5.555701e-01 -8.314697e-01 0.000000e+00
      outer loop
         vertex -3.464823e+00 3.464823e+00 2.000000e+00
         vertex -3.464823e+00 3.464823e+00 0.000000e+00
         vertex -1.875149e+00 4.527009e+00 0.000000e+00
      endloop
   endfacet
   facet normal 5.555701e-01 -8.314697e-01 0.000000e+00
      outer loop
         vertex -1.875149e+00 4.527009e+00 2.000000e+00
         vertex -3.464823e+00 3.464823e+00 2.000000e+00
         vertex -1.875149e+00 4.527009e+00 0.000000e+00
      endloop
   endfacet
   facet normal 8.314697e-01 -5.555701e-01 0.000000e+00
      outer loop
         vertex -4.527009e+00 1.875149e+00 2.000000e+00
         vertex -4.527009e+00 1.875149e+00 0.000000e+00
         vertex -3.464823e+00 3.464823e+00 0.000000e+00
      endloop
   endfacet
   facet normal 8.314697e-01 -5.555701e-01 0.000000e+00
      outer loop
         vertex -3.464823e+00 3.464823e+00 2.000000e+00
         vertex -4.527009e+00 1.875149e+00 2.000000e+00
         vertex -3.464823e+00 3.464823e+00 0.000000e+00
      endloop
   endfacet
   facet normal 9.807852e-01 -1.950905e-01 0.000000e+00
      outer loop
         vertex -4.900000e+00 1.800231e-15 2.000000e+00
         vertex -4.900000e+00 1.800231e-15 0.000000e+00
         vertex -4.527009e+00 1.875149e+00 0.000000e+00
      endloop
   endfacet
   facet normal 9.807852e-01 -1.950905e-01 0.000000e+00
      outer loop
         vertex -4.527009e+00 1.875149e+00 2.000000e+00
         vertex -4.900000e+00 1.800231e-15 2.000000e+00
         vertex -4.527009e+00 1.875149e+00 0.000000e+00
      endloop
   endfacet
   facet normal -9.863613e-01 -1.645946e-01 0.000000e+00
      outer loop
         vertex -7.400000e+00 9.062386e-16 0.000000e+00
         vertex -6.999048e+00 -2.402776e+00 0.000000e+00
         vertex -6.999048e+00 -2.402776e+00 2.000000e+00
      endloop
   endfacet
   facet normal -9.863613e-01 -1.645946e-01 0.000000e+00
      outer loop
         vertex -7.400000e+00 9.062386e-16 0.000000e+00
         vertex -6.999048e+00 -2.402776e+00 2.000000e+00
         vertex -7.400000e+00 9.062386e-16 2.000000e+00
      endloop
   endfacet
   facet normal -8.794737e-01 -4.759475e-01 0.000000e+00
      outer loop
         vertex -6.999048e+00 -2.402776e+00 0.000000e+00
         vertex -5.839640e+00 -4.545174e+00 0.000000e+00
         vertex -5.839640e+00 -4.545174e+00 2.000000e+00
      endloop
   endfacet
   facet normal -8.794737e-01 -4.759475e-01 0.000000e+00
      outer loop
         vertex -6.999048e+00 -2.402776e+00 0.000000e+00
         vertex -5.839640e+00 -4.545174e+00 2.000000e+00
         vertex -6.999048e+00 -2.402776e+00 2.000000e+00
      endloop
   endfacet
   facet normal -6.772816e-01 -7.357239e-01 0.000000e+00
      outer loop
         vertex -5.839640e+00 -4.545174e+00 0.000000e+00
         vertex -4.047416e+00 -6.195032e+00 0.000000e+00
         vertex -4.047416e+00 -6.195032e+00 2.000000e+00
      endloop
   endfacet
   facet normal -6.772816e-01 -7.357239e-01 0.000000e+00
      outer loop
         vertex -5.839640e+00 -4.545174e+00 0.000000e+00
         vertex -4.047416e+00 -6.195032e+00 2.000000e+00
         vertex -5.839640e+00 -4.545174e+00 2.000000e+00
      endloop
   endfacet
   facet normal -4.016954e-01 -9.157733e-01 0.000000e+00
      outer loop
         vertex -4.047416e+00 -6.195032e+00 0.000000e+00
         vertex -1.816593e+00 -7.173562e+00 0.000000e+00
         vertex -1.816593e+00 -7.173562e+00 2.000000e+00
      endloop
   endfacet
   facet normal -4.016954e-01 -9.157733e-01 0.000000e+00
      outer loop
         vertex -4.047416e+00 -6.195032e+00 0.000000e+00
         vertex -1.816593e+00 -7.173562e+00 2.000000e+00
         vertex -4.047416e+00 -6.195032e+00 2.000000e+00
      endloop
   endfacet
   facet normal -8.257935e-02 -9.965845e-01 0.000000e+00
      outer loop
         vertex -1.816593e+00 -7.173562e+00 0.000000e+00
         vertex 6.110871e-01 -7.374725e+00 0.000000e+00
         vertex 6.110871e-01 -7.374725e+00 2.000000e+00
      endloop
   endfacet
   facet normal -8.257935e-02 -9.965845e-01 0.000000e+00
      outer loop
         vertex -1.816593e+00 -7.173562e+00 0.000000e+00
         vertex 6.110871e-01 -7.374725e+00 2.000000e+00
         vertex -1.816593e+00 -7.173562e+00 2.000000e+00
      endloop
   endfacet
   facet normal 2.454856e-01 -9.694002e-01 0.000000e+00
      outer loop
         vertex 6.110871e-01 -7.374725e+00 0.000000e+00
         vertex 2.972546e+00 -6.776722e+00 0.000000e+00
         vertex 2.972546e+00 -6.776722e+00 2.000000e+00
      endloop
   endfacet
   facet normal 2.454856e-01 -9.694002e-01 0.000000e+00
      outer loop
         vertex 6.110871e-01 -7.374725e+00 0.000000e+00
         vertex 2.972546e+00 -6.776722e+00 2.000000e+00
         vertex 6.110871e-01 -7.374725e+00 2.000000e+00
      endloop
   endfacet
   facet normal 5.469481e-01 -8.371665e-01 0.000000e+00
      outer loop
         vertex 2.972546e+00 -6.776722e+00 0.000000e+00
         vertex 5.011884e+00 -5.444357e+00 0.000000e+00
         vertex 5.011884e+00 -5.444357e+00 2.000000e+00
      endloop
   endfacet
   facet normal 5.469481e-01 -8.371665e-01 0.000000e+00
      outer loop
         vertex 2.972546e+00 -6.776722e+00 0.000000e+00
         vertex 5.011884e+00 -5.444357e+00 2.000000e+00
         vertex 2.972546e+00 -6.776722e+00 2.000000e+00
      endloop
   endfacet
   facet normal 7.891405e-01 -6.142127e-01 0.000000e+00
      outer loop
         vertex 5.011884e+00 -5.444357e+00 0.000000e+00
         vertex 6.508106e+00 -3.522011e+00 0.000000e+00
         vertex 6.508106e+00 -3.522011e+00 2.000000e+00
      endloop
   endfacet
   facet normal 7.891405e-01 -6.142127e-01 0.000000e+00
      outer loop
         vertex 5.011884e+00 -5.444357e+00 0.000000e+00
         vertex 6.508106e+00 -3.522011e+00 2.000000e+00
         vertex 5.011884e+00 -5.444357e+00 2.000000e+00
      endloop
   endfacet
   facet normal 9.458172e-01 -3.246995e-01 0.000000e+00
      outer loop
         vertex 6.508106e+00 -3.522011e+00 0.000000e+00
         vertex 7.299074e+00 -1.218000e+00 0.000000e+00
         vertex 7.299074e+00 -1.218000e+00 2.000000e+00
      endloop
   endfacet
   facet normal 9.458172e-01 -3.246995e-01 0.000000e+00
      outer loop
         vertex 6.508106e+00 -3.522011e+00 0.000000e+00
         vertex 7.299074e+00 -1.218000e+00 2.000000e+00
         vertex 6.508106e+00 -3.522011e+00 2.000000e+00
      endloop
   endfacet
   facet normal 1.000000e+00 0.000000e+00 -0.000000e+00
      outer loop
         vertex 7.299074e+00 -1.218000e+00 0.000000e+00
         vertex 7.299074e+00 1.218000e+00 0.000000e+00
         vertex 7.299074e+00 1.218000e+00 2.000000e+00
      endloop
   endfacet
   facet normal 1.000000e+00 0.000000e+00 0.000000e+00
      outer loop
         vertex 7.299074e+00 -1.218000e+00 0.000000e+00
         vertex 7.299074e+00 1.218000e+00 2.000000e+00
         vertex 7.299074e+00 -1.218000e+00 2.000000e+00
      endloop
   endfacet
   facet normal 9.458172e-01 3.246995e-01 -0.000000e+00
      outer loop
         vertex 7.299074e+00 1.218000e+00 0.000000e+00
         vertex 6.508106e+00 3.522011e+00 0.000000e+00
         vertex 6.508106e+00 3.522011e+00 2.000000e+00
      endloop
   endfacet
   facet normal 9.458172e-01 3.246995e-01 0.000000e+00
      outer loop
         vertex 7.299074e+00 1.218000e+00 0.000000e+00
         vertex 6.508106e+00 3.522011e+00 2.000000e+00
         vertex 7.299074e+00 1.218000e+00 2.000000e+00
      endloop
   endfacet
   facet normal 7.891405e-01 6.142127e-01 -0.000000e+00
      outer loop
         vertex 6.508106e+00 3.522011e+00 0.000000e+00
         vertex 5.011884e+00 5.444357e+00 0.000000e+00
         vertex 5.011884e+00 5.444357e+00 2.000000e+00
      endloop
   endfacet
   facet normal 7.891405e-01 6.142127e-01 0.000000e+00
      outer loop
         vertex 6.508106e+00 3.522011e+00 0.000000e+00
         vertex 5.011884e+00 5.444357e+00 2.000000e+00
         vertex 6.508106e+00 3.522011e+00 2.000000e+00
      endloop
   endfacet
   facet normal 5.469481e-01 8.371665e-01 -0.000000e+00
      outer loop
         vertex 5.011884e+00 5.444357e+00 0.000000e+00
         vertex 2.972546e+00 6.776722e+00 0.000000e+00
         vertex 2.972546e+00 6.776722e+00 2.000000e+00
      endloop
   endfacet
   facet normal 5.469481e-01 8.371665e-01 0.000000e+00
      outer loop
         vertex 5.011884e+00 5.444357e+00 0.000000e+00
         vertex 2.972546e+00 6.776722e+00 2.000000e+00
         vertex 5.011884e+00 5.444357e+00 2.000000e+00
      endloop
   endfacet
   facet normal 2.454856e-01 9.694002e-01 -0.000000e+00
      outer loop
         vertex 2.972546e+00 6.776722e+00 0.000000e+00
         vertex 6.110871e-01 7.374725e+00 0.000000e+00
         vertex 6.110871e-01 7.374725e+00 2.000000e+00
      endloop
   endfacet
   facet normal 2.454856e-01 9.694002e-01 0.000000e+00
      outer loop
         vertex 2.972546e+00 6.776722e+00 0.000000e+00
         vertex 6.110871e-01 7.374725e+00 2.000000e+00
         vertex 2.972546e+00 6.776722e+00 2.000000e+00
      endloop
   endfacet
   facet normal -8.257935e-02 9.965845e-01 0.000000e+00
      outer loop
         vertex 6.110871e-01 7.374725e+00 0.000000e+00
         vertex -1.816593e+00 7.173562e+00 0.000000e+00
         vertex -1.816593e+00 7.173562e+00 2.000000e+00
      endloop
   endfacet
   facet normal -8.257935e-02 9.965845e-01 0.000000e+00
      outer loop
         vertex 6.110871e-01 7.374725e+00 0.000000e+00
         vertex -1.816593e+00 7.173562e+00 2.000000e+00
         vertex 6.110871e-01 7.374725e+00 2.000000e+00
      endloop
   endfacet
   facet normal -4.016954e-01 9.157733e-01 0.000000e+00
      outer loop
         vertex -1.816593e+00 7.173562e+00 0.000000e+00
         vertex -4.047416e+00 6.195032e+00 0.000000e+00
         vertex -4.047416e+00 6.195032e+00 2.000000e+00
      endloop
   endfacet
   facet normal -4.016954e-01 9.157733e-01 0.000000e+00
      outer loop
         vertex -1.816593e+00 7.173562e+00 0.000000e+00
         vertex -4.047416e+00 6.195032e+00 2.000000e+00
         vertex -1.816593e+00 7.173562e+00 2.000000e+00
      endloop
   endfacet
   facet normal -6.772816e-01 7.357239e-01 0.000000e+00
      outer loop
         vertex -4.047416e+00 6.195032e+00 0.000000e+00
         vertex -5.839640e+00 4.545174e+00 0.000000e+00
         vertex -5.839640e+00 4.545174e+00 2.000000e+00
      endloop
   endfacet
   facet normal -6.772816e-01 7.357239e-01 0.000000e+00
      outer loop
         vertex -4.047416e+00 6.195032e+00 0.000000e+00
         vertex -5.839640e+00 4.545174e+00 2.000000e+00
         vertex -4.047416e+00 6.195032e+00 2.000000e+00
      endloop
   endfacet
   facet normal -8.794737e-01 4.759475e-01 0.000000e+00
      outer loop
         vertex -5.839640e+00 4.545174e+00 0.000000e+00
         vertex -6.999048e+00 2.402776e+00 0.000000e+00
         vertex -6.999048e+00 2.402776e+00 2.000000e+00
      endloop
   endfacet
   facet normal -8.794737e-01 4.759475e-01 0.000000e+00
      outer loop
         vertex -5.839640e+00 4.545174e+00 0.000000e+00
         vertex -6.999048e+00 2.402776e+00 2.000000e+00
         vertex -5.839640e+00 4.545174e+00 2.000000e+00
      endloop
   endfacet
   facet normal -9.863613e-01 1.645946e-01 0.000000e+00
      outer loop
         vertex -6.999048e+00 2.402776e+00 0.000000e+00
         vertex -7.400000e+00 2.718716e-15 0.000000e+00
         vertex -7.400000e+00 2.718716e-15 2.000000e+00
      endloop
   endfacet
   facet normal -9.863613e-01 1.645946e-01 0.000000e+00
      outer loop
         vertex -6.999048e+00 2.402776e+00 0.000000e+00
         vertex -7.400000e+00 2.718716e-15 2.000000e+00
         vertex -6.999048e+00 2.402776e+00 2.000000e+00
      endloop
   endfacet
endsolid
