solid 
   facet normal 0.000000e+00 0.000000e+00 -1.000000e+00
      outer loop
         vertex 3.000000e+00 5.348622e+00 2.250000e+00
         vertex 5.799252e-01 1.651117e+00 2.250000e+00
         vertex -3.000000e+00 3.164800e+00 2.250000e+00
      endloop
   endfacet
   facet normal 0.000000e+00 0.000000e+00 -1.000000e+00
      outer loop
         vertex 5.799252e-01 1.651117e+00 2.250000e+00
         vertex -5.799252e-01 1.651117e+00 2.250000e+00
         vertex -3.000000e+00 3.164800e+00 2.250000e+00
      endloop
   endfacet
   facet normal -0.000000e+00 0.000000e+00 -1.000000e+00
      outer loop
         vertex -3.000000e+00 3.164800e+00 2.250000e+00
         vertex -5.799252e-01 1.651117e+00 2.250000e+00
         vertex -3.000000e+00 1.110223e-15 2.250000e+00
      endloop
   endfacet
   facet normal -0.000000e+00 0.000000e+00 -1.000000e+00
      outer loop
         vertex -5.799252e-01 1.651117e+00 2.250000e+00
         vertex -1.485034e+00 9.258369e-01 2.250000e+00
         vertex -3.000000e+00 1.110223e-15 2.250000e+00
      endloop
   endfacet
   facet normal 0.000000e+00 0.000000e+00 -1.000000e+00
      outer loop
         vertex -3.000000e+00 1.110223e-15 2.250000e+00
         vertex -1.485034e+00 9.258369e-01 2.250000e+00
         vertex -2.626785e+00 -1.449138e+00 2.250000e+00
      endloop
   endfacet
   facet normal -0.000000e+00 0.000000e+00 -1.000000e+00
      outer loop
         vertex -1.485034e+00 9.258369e-01 2.250000e+00
         vertex -1.737818e+00 -2.061319e-01 2.250000e+00
         vertex -2.626785e+00 -1.449138e+00 2.250000e+00
      endloop
   endfacet
   facet normal 0.000000e+00 -0.000000e+00 -1.000000e+00
      outer loop
         vertex -2.626785e+00 -1.449138e+00 2.250000e+00
         vertex -1.737818e+00 -2.061319e-01 2.250000e+00
         vertex -1.600000e+00 -2.537715e+00 2.250000e+00
      endloop
   endfacet
   facet normal -0.000000e+00 0.000000e+00 -1.000000e+00
      outer loop
         vertex -1.737818e+00 -2.061319e-01 2.250000e+00
         vertex -1.227236e+00 -1.247554e+00 2.250000e+00
         vertex -1.600000e+00 -2.537715e+00 2.250000e+00
      endloop
   endfacet
   facet normal 0.000000e+00 0.000000e+00 -1.000000e+00
      outer loop
         vertex 5.799252e-01 1.651117e+00 2.250000e+00
         vertex 3.000000e+00 5.348622e+00 2.250000e+00
         vertex 1.485034e+00 9.258369e-01 2.250000e+00
      endloop
   endfacet
   facet normal 0.000000e+00 0.000000e+00 -1.000000e+00
      outer loop
         vertex 3.000000e+00 5.348622e+00 2.250000e+00
         vertex 3.000000e+00 1.232595e-32 2.250000e+00
         vertex 1.485034e+00 9.258369e-01 2.250000e+00
      endloop
   endfacet
   facet normal -0.000000e+00 0.000000e+00 -1.000000e+00
      outer loop
         vertex 1.485034e+00 9.258369e-01 2.250000e+00
         vertex 3.000000e+00 1.232595e-32 2.250000e+00
         vertex 1.737818e+00 -2.061319e-01 2.250000e+00
      endloop
   endfacet
   facet normal 0.000000e+00 0.000000e+00 -1.000000e+00
      outer loop
         vertex 3.000000e+00 1.232595e-32 2.250000e+00
         vertex 2.626785e+00 -1.449138e+00 2.250000e+00
         vertex 1.737818e+00 -2.061319e-01 2.250000e+00
      endloop
   endfacet
   facet normal 0.000000e+00 0.000000e+00 -1.000000e+00
      outer loop
         vertex 1.737818e+00 -2.061319e-01 2.250000e+00
         vertex 2.626785e+00 -1.449138e+00 2.250000e+00
         vertex 1.227236e+00 -1.247554e+00 2.250000e+00
      endloop
   endfacet
   facet normal 0.000000e+00 0.000000e+00 -1.000000e+00
      outer loop
         vertex 2.626785e+00 -1.449138e+00 2.250000e+00
         vertex 1.600000e+00 -2.537715e+00 2.250000e+00
         vertex 1.227236e+00 -1.247554e+00 2.250000e+00
      endloop
   endfacet
   facet normal 0.000000e+00 0.000000e+00 1.000000e+00
      outer loop
         vertex 2.626785e+00 -1.449138e+00 -2.250000e+00
         vertex 3.000000e+00 3.697785e-32 -2.250000e+00
         vertex 1.600000e+00 -2.537715e+00 -2.250000e+00
      endloop
   endfacet
   facet normal 0.000000e+00 0.000000e+00 1.000000e+00
      outer loop
         vertex 3.000000e+00 3.697785e-32 -2.250000e+00
         vertex 3.000000e+00 5.348622e+00 -2.250000e+00
         vertex 1.600000e+00 -2.537715e+00 -2.250000e+00
      endloop
   endfacet
   facet normal 0.000000e+00 0.000000e+00 1.000000e+00
      outer loop
         vertex 1.600000e+00 -2.537715e+00 -2.250000e+00
         vertex 1.737818e+00 -2.061319e-01 -2.250000e+00
         vertex 1.227236e+00 -1.247554e+00 -2.250000e+00
      endloop
   endfacet
   facet normal 0.000000e+00 0.000000e+00 1.000000e+00
      outer loop
         vertex 1.600000e+00 -2.537715e+00 -2.250000e+00
         vertex 3.000000e+00 5.348622e+00 -2.250000e+00
         vertex 1.737818e+00 -2.061319e-01 -2.250000e+00
      endloop
   endfacet
   facet normal -0.000000e+00 0.000000e+00 1.000000e+00
      outer loop
         vertex 3.000000e+00 5.348622e+00 -2.250000e+00
         vertex 1.485034e+00 9.258369e-01 -2.250000e+00
         vertex 1.737818e+00 -2.061319e-01 -2.250000e+00
      endloop
   endfacet
   facet normal 0.000000e+00 0.000000e+00 1.000000e+00
      outer loop
         vertex 1.485034e+00 9.258369e-01 -2.250000e+00
         vertex 3.000000e+00 5.348622e+00 -2.250000e+00
         vertex 5.799252e-01 1.651117e+00 -2.250000e+00
      endloop
   endfacet
   facet normal 0.000000e+00 0.000000e+00 1.000000e+00
      outer loop
         vertex 5.799252e-01 1.651117e+00 -2.250000e+00
         vertex 3.000000e+00 5.348622e+00 -2.250000e+00
         vertex -5.799252e-01 1.651117e+00 -2.250000e+00
      endloop
   endfacet
   facet normal -0.000000e+00 0.000000e+00 1.000000e+00
      outer loop
         vertex 3.000000e+00 5.348622e+00 -2.250000e+00
         vertex -3.000000e+00 3.164800e+00 -2.250000e+00
         vertex -5.799252e-01 1.651117e+00 -2.250000e+00
      endloop
   endfacet
   facet normal 0.000000e+00 0.000000e+00 1.000000e+00
      outer loop
         vertex -5.799252e-01 1.651117e+00 -2.250000e+00
         vertex -3.000000e+00 3.164800e+00 -2.250000e+00
         vertex -1.485034e+00 9.258369e-01 -2.250000e+00
      endloop
   endfacet
   facet normal 0.000000e+00 0.000000e+00 1.000000e+00
      outer loop
         vertex -3.000000e+00 3.164800e+00 -2.250000e+00
         vertex -3.000000e+00 1.110223e-15 -2.250000e+00
         vertex -1.485034e+00 9.258369e-01 -2.250000e+00
      endloop
   endfacet
   facet normal -0.000000e+00 0.000000e+00 1.000000e+00
      outer loop
         vertex -1.485034e+00 9.258369e-01 -2.250000e+00
         vertex -3.000000e+00 1.110223e-15 -2.250000e+00
         vertex -1.737818e+00 -2.061319e-01 -2.250000e+00
      endloop
   endfacet
   facet normal 0.000000e+00 -0.000000e+00 1.000000e+00
      outer loop
         vertex -3.000000e+00 1.110223e-15 -2.250000e+00
         vertex -2.626785e+00 -1.449138e+00 -2.250000e+00
         vertex -1.737818e+00 -2.061319e-01 -2.250000e+00
      endloop
   endfacet
   facet normal 0.000000e+00 0.000000e+00 1.000000e+00
      outer loop
         vertex -1.737818e+00 -2.061319e-01 -2.250000e+00
         vertex -2.626785e+00 -1.449138e+00 -2.250000e+00
         vertex -1.227236e+00 -1.247554e+00 -2.250000e+00
      endloop
   endfacet
   facet normal 0.000000e+00 -0.000000e+00 1.000000e+00
      outer loop
         vertex -2.626785e+00 -1.449138e+00 -2.250000e+00
         vertex -1.600000e+00 -2.537715e+00 -2.250000e+00
         vertex -1.227236e+00 -1.247554e+00 -2.250000e+00
      endloop
   endfacet
   facet normal 1.000000e+00 0.000000e+00 0.000000e+00
      outer loop
         vertex 3.000000e+00 1.232595e-32 2.250000e+00
         vertex 3.000000e+00 5.348622e+00 2.250000e+00
         vertex 3.000000e+00 -3.151301e-16 4.000000e+00
      endloop
   endfacet
   facet normal 1.000000e+00 0.000000e+00 0.000000e+00
      outer loop
         vertex 3.000000e+00 3.697785e-32 -2.250000e+00
         vertex 3.000000e+00 -1.518439e-16 -4.000000e+00
         vertex 3.000000e+00 5.348622e+00 -2.250000e+00
      endloop
   endfacet
   facet normal 1.000000e+00 0.000000e+00 0.000000e+00
      outer loop
         vertex 3.000000e+00 -1.518439e-16 -4.000000e+00
         vertex 3.000000e+00 1.200000e+01 -4.000000e+00
         vertex 3.000000e+00 5.348622e+00 -2.250000e+00
      endloop
   endfacet
   facet normal 1.000000e+00 0.000000e+00 0.000000e+00
      outer loop
         vertex 3.000000e+00 1.200000e+01 -4.000000e+00
         vertex 3.000000e+00 1.200000e+01 4.000000e+00
         vertex 3.000000e+00 5.348622e+00 -2.250000e+00
      endloop
   endfacet
   facet normal 1.000000e+00 0.000000e+00 0.000000e+00
      outer loop
         vertex 3.000000e+00 5.348622e+00 -2.250000e+00
         vertex 3.000000e+00 1.200000e+01 4.000000e+00
         vertex 3.000000e+00 5.348622e+00 2.250000e+00
      endloop
   endfacet
   facet normal 1.000000e+00 -0.000000e+00 0.000000e+00
      outer loop
         vertex 3.000000e+00 1.200000e+01 4.000000e+00
         vertex 3.000000e+00 -3.151301e-16 4.000000e+00
         vertex 3.000000e+00 5.348622e+00 2.250000e+00
      endloop
   endfacet
   facet normal -1.000000e+00 -0.000000e+00 0.000000e+00
      outer loop
         vertex -3.000000e+00 1.110223e-15 -2.250000e+00
         vertex -3.000000e+00 3.164800e+00 -2.250000e+00
         vertex -3.000000e+00 6.979870e-16 -4.000000e+00
      endloop
   endfacet
   facet normal -1.000000e+00 0.000000e+00 0.000000e+00
      outer loop
         vertex -3.000000e+00 1.110223e-15 2.250000e+00
         vertex -3.000000e+00 5.347007e-16 4.000000e+00
         vertex -3.000000e+00 3.164800e+00 2.250000e+00
      endloop
   endfacet
   facet normal -1.000000e+00 -0.000000e+00 0.000000e+00
      outer loop
         vertex -3.000000e+00 5.347007e-16 4.000000e+00
         vertex -3.000000e+00 1.200000e+01 4.000000e+00
         vertex -3.000000e+00 3.164800e+00 2.250000e+00
      endloop
   endfacet
   facet normal -1.000000e+00 0.000000e+00 0.000000e+00
      outer loop
         vertex -3.000000e+00 1.200000e+01 4.000000e+00
         vertex -3.000000e+00 1.200000e+01 -4.000000e+00
         vertex -3.000000e+00 3.164800e+00 2.250000e+00
      endloop
   endfacet
   facet normal -1.000000e+00 0.000000e+00 0.000000e+00
      outer loop
         vertex -3.000000e+00 3.164800e+00 2.250000e+00
         vertex -3.000000e+00 1.200000e+01 -4.000000e+00
         vertex -3.000000e+00 3.164800e+00 -2.250000e+00
      endloop
   endfacet
   facet normal -1.000000e+00 0.000000e+00 0.000000e+00
      outer loop
         vertex -3.000000e+00 1.200000e+01 -4.000000e+00
         vertex -3.000000e+00 6.979870e-16 -4.000000e+00
         vertex -3.000000e+00 3.164800e+00 -2.250000e+00
      endloop
   endfacet
   facet normal 3.420201e-01 -9.396926e-01 0.000000e+00
      outer loop
         vertex 3.000000e+00 5.348622e+00 2.250000e+00
         vertex -3.000000e+00 3.164800e+00 2.250000e+00
         vertex -3.000000e+00 3.164800e+00 -2.250000e+00
      endloop
   endfacet
   facet normal 3.420201e-01 -9.396926e-01 0.000000e+00
      outer loop
         vertex 3.000000e+00 5.348622e+00 -2.250000e+00
         vertex 3.000000e+00 5.348622e+00 2.250000e+00
         vertex -3.000000e+00 3.164800e+00 -2.250000e+00
      endloop
   endfacet
   facet normal 7.274521e-01 -6.861585e-01 0.000000e+00
      outer loop
         vertex 1.600000e+00 -2.537715e+00 2.250000e+00
         vertex 2.626785e+00 -1.449138e+00 2.250000e+00
         vertex 2.626785e+00 -1.449138e+00 4.000000e+00
      endloop
   endfacet
   facet normal 7.274521e-01 -6.861585e-01 0.000000e+00
      outer loop
         vertex 1.600000e+00 -2.537715e+00 2.250000e+00
         vertex 2.626785e+00 -1.449138e+00 4.000000e+00
         vertex 1.600000e+00 -2.537715e+00 4.000000e+00
      endloop
   endfacet
   facet normal 9.683995e-01 -2.494043e-01 0.000000e+00
      outer loop
         vertex 2.626785e+00 -1.449138e+00 2.250000e+00
         vertex 3.000000e+00 0.000000e+00 2.250000e+00
         vertex 3.000000e+00 0.000000e+00 4.000000e+00
      endloop
   endfacet
   facet normal 9.683995e-01 -2.494043e-01 0.000000e+00
      outer loop
         vertex 2.626785e+00 -1.449138e+00 2.250000e+00
         vertex 3.000000e+00 0.000000e+00 4.000000e+00
         vertex 2.626785e+00 -1.449138e+00 4.000000e+00
      endloop
   endfacet
   facet normal -9.607042e-01 -2.775742e-01 0.000000e+00
      outer loop
         vertex 1.227236e+00 -1.247554e+00 4.000000e+00
         vertex 1.227236e+00 -1.247554e+00 2.250000e+00
         vertex 1.600000e+00 -2.537715e+00 2.250000e+00
      endloop
   endfacet
   facet normal -9.607042e-01 -2.775742e-01 0.000000e+00
      outer loop
         vertex 1.227236e+00 -1.247554e+00 4.000000e+00
         vertex 1.600000e+00 -2.537715e+00 2.250000e+00
         vertex 1.600000e+00 -2.537715e+00 4.000000e+00
      endloop
   endfacet
   facet normal 8.978934e-01 4.402129e-01 -0.000000e+00
      outer loop
         vertex -1.227236e+00 -1.247554e+00 2.250000e+00
         vertex -1.737818e+00 -2.061319e-01 2.250000e+00
         vertex -1.737818e+00 -2.061319e-01 4.000000e+00
      endloop
   endfacet
   facet normal 8.978934e-01 4.402129e-01 0.000000e+00
      outer loop
         vertex -1.227236e+00 -1.247554e+00 2.250000e+00
         vertex -1.737818e+00 -2.061319e-01 4.000000e+00
         vertex -1.227236e+00 -1.247554e+00 4.000000e+00
      endloop
   endfacet
   facet normal 9.759611e-01 -2.179450e-01 0.000000e+00
      outer loop
         vertex -1.737818e+00 -2.061319e-01 2.250000e+00
         vertex -1.485034e+00 9.258369e-01 2.250000e+00
         vertex -1.485034e+00 9.258369e-01 4.000000e+00
      endloop
   endfacet
   facet normal 9.759611e-01 -2.179450e-01 0.000000e+00
      outer loop
         vertex -1.737818e+00 -2.061319e-01 2.250000e+00
         vertex -1.485034e+00 9.258369e-01 4.000000e+00
         vertex -1.737818e+00 -2.061319e-01 4.000000e+00
      endloop
   endfacet
   facet normal 6.253220e-01 -7.803669e-01 0.000000e+00
      outer loop
         vertex -1.485034e+00 9.258369e-01 2.250000e+00
         vertex -5.799252e-01 1.651117e+00 2.250000e+00
         vertex -5.799252e-01 1.651117e+00 4.000000e+00
      endloop
   endfacet
   facet normal 6.253220e-01 -7.803669e-01 0.000000e+00
      outer loop
         vertex -1.485034e+00 9.258369e-01 2.250000e+00
         vertex -5.799252e-01 1.651117e+00 4.000000e+00
         vertex -1.485034e+00 9.258369e-01 4.000000e+00
      endloop
   endfacet
   facet normal 0.000000e+00 -1.000000e+00 0.000000e+00
      outer loop
         vertex -5.799252e-01 1.651117e+00 2.250000e+00
         vertex 5.799252e-01 1.651117e+00 2.250000e+00
         vertex 5.799252e-01 1.651117e+00 4.000000e+00
      endloop
   endfacet
   facet normal -0.000000e+00 -1.000000e+00 0.000000e+00
      outer loop
         vertex -5.799252e-01 1.651117e+00 2.250000e+00
         vertex 5.799252e-01 1.651117e+00 4.000000e+00
         vertex -5.799252e-01 1.651117e+00 4.000000e+00
      endloop
   endfacet
   facet normal -6.253220e-01 -7.803669e-01 0.000000e+00
      outer loop
         vertex 5.799252e-01 1.651117e+00 2.250000e+00
         vertex 1.485034e+00 9.258369e-01 2.250000e+00
         vertex 1.485034e+00 9.258369e-01 4.000000e+00
      endloop
   endfacet
   facet normal -6.253220e-01 -7.803669e-01 0.000000e+00
      outer loop
         vertex 5.799252e-01 1.651117e+00 2.250000e+00
         vertex 1.485034e+00 9.258369e-01 4.000000e+00
         vertex 5.799252e-01 1.651117e+00 4.000000e+00
      endloop
   endfacet
   facet normal -9.759611e-01 -2.179450e-01 0.000000e+00
      outer loop
         vertex 1.485034e+00 9.258369e-01 2.250000e+00
         vertex 1.737818e+00 -2.061319e-01 2.250000e+00
         vertex 1.737818e+00 -2.061319e-01 4.000000e+00
      endloop
   endfacet
   facet normal -9.759611e-01 -2.179450e-01 0.000000e+00
      outer loop
         vertex 1.485034e+00 9.258369e-01 2.250000e+00
         vertex 1.737818e+00 -2.061319e-01 4.000000e+00
         vertex 1.485034e+00 9.258369e-01 4.000000e+00
      endloop
   endfacet
   facet normal -8.978934e-01 4.402129e-01 0.000000e+00
      outer loop
         vertex 1.737818e+00 -2.061319e-01 2.250000e+00
         vertex 1.227236e+00 -1.247554e+00 2.250000e+00
         vertex 1.227236e+00 -1.247554e+00 4.000000e+00
      endloop
   endfacet
   facet normal -8.978934e-01 4.402129e-01 0.000000e+00
      outer loop
         vertex 1.737818e+00 -2.061319e-01 2.250000e+00
         vertex 1.227236e+00 -1.247554e+00 4.000000e+00
         vertex 1.737818e+00 -2.061319e-01 4.000000e+00
      endloop
   endfacet
   facet normal 9.607042e-01 -2.775742e-01 0.000000e+00
      outer loop
         vertex -1.600000e+00 -2.537715e+00 4.000000e+00
         vertex -1.600000e+00 -2.537715e+00 2.250000e+00
         vertex -1.227236e+00 -1.247554e+00 2.250000e+00
      endloop
   endfacet
   facet normal 9.607042e-01 -2.775742e-01 0.000000e+00
      outer loop
         vertex -1.600000e+00 -2.537715e+00 4.000000e+00
         vertex -1.227236e+00 -1.247554e+00 2.250000e+00
         vertex -1.227236e+00 -1.247554e+00 4.000000e+00
      endloop
   endfacet
   facet normal -9.683995e-01 -2.494043e-01 0.000000e+00
      outer loop
         vertex -3.000000e+00 1.110223e-15 2.250000e+00
         vertex -2.626785e+00 -1.449138e+00 2.250000e+00
         vertex -2.626785e+00 -1.449138e+00 4.000000e+00
      endloop
   endfacet
   facet normal -9.683995e-01 -2.494043e-01 0.000000e+00
      outer loop
         vertex -3.000000e+00 1.110223e-15 2.250000e+00
         vertex -2.626785e+00 -1.449138e+00 4.000000e+00
         vertex -3.000000e+00 1.110223e-15 4.000000e+00
      endloop
   endfacet
   facet normal -7.274521e-01 -6.861585e-01 0.000000e+00
      outer loop
         vertex -2.626785e+00 -1.449138e+00 2.250000e+00
         vertex -1.600000e+00 -2.537715e+00 2.250000e+00
         vertex -1.600000e+00 -2.537715e+00 4.000000e+00
      endloop
   endfacet
   facet normal -7.274521e-01 -6.861585e-01 0.000000e+00
      outer loop
         vertex -2.626785e+00 -1.449138e+00 2.250000e+00
         vertex -1.600000e+00 -2.537715e+00 4.000000e+00
         vertex -2.626785e+00 -1.449138e+00 4.000000e+00
      endloop
   endfacet
   facet normal -9.683995e-01 -2.494043e-01 0.000000e+00
      outer loop
         vertex -3.000000e+00 1.110223e-15 -4.000000e+00
         vertex -2.626785e+00 -1.449138e+00 -4.000000e+00
         vertex -2.626785e+00 -1.449138e+00 -2.250000e+00
      endloop
   endfacet
   facet normal -9.683995e-01 -2.494043e-01 0.000000e+00
      outer loop
         vertex -3.000000e+00 1.110223e-15 -4.000000e+00
         vertex -2.626785e+00 -1.449138e+00 -2.250000e+00
         vertex -3.000000e+00 1.110223e-15 -2.250000e+00
      endloop
   endfacet
   facet normal -7.274521e-01 -6.861585e-01 0.000000e+00
      outer loop
         vertex -2.626785e+00 -1.449138e+00 -4.000000e+00
         vertex -1.600000e+00 -2.537715e+00 -4.000000e+00
         vertex -1.600000e+00 -2.537715e+00 -2.250000e+00
      endloop
   endfacet
   facet normal -7.274521e-01 -6.861585e-01 0.000000e+00
      outer loop
         vertex -2.626785e+00 -1.449138e+00 -4.000000e+00
         vertex -1.600000e+00 -2.537715e+00 -2.250000e+00
         vertex -2.626785e+00 -1.449138e+00 -2.250000e+00
      endloop
   endfacet
   facet normal 9.607042e-01 -2.775742e-01 0.000000e+00
      outer loop
         vertex -1.227236e+00 -1.247554e+00 -4.000000e+00
         vertex -1.227236e+00 -1.247554e+00 -2.250000e+00
         vertex -1.600000e+00 -2.537715e+00 -2.250000e+00
      endloop
   endfacet
   facet normal 9.607042e-01 -2.775742e-01 0.000000e+00
      outer loop
         vertex -1.227236e+00 -1.247554e+00 -4.000000e+00
         vertex -1.600000e+00 -2.537715e+00 -2.250000e+00
         vertex -1.600000e+00 -2.537715e+00 -4.000000e+00
      endloop
   endfacet
   facet normal 8.978934e-01 4.402129e-01 -0.000000e+00
      outer loop
         vertex -1.227236e+00 -1.247554e+00 -4.000000e+00
         vertex -1.737818e+00 -2.061319e-01 -4.000000e+00
         vertex -1.737818e+00 -2.061319e-01 -2.250000e+00
      endloop
   endfacet
   facet normal 8.978934e-01 4.402129e-01 0.000000e+00
      outer loop
         vertex -1.227236e+00 -1.247554e+00 -4.000000e+00
         vertex -1.737818e+00 -2.061319e-01 -2.250000e+00
         vertex -1.227236e+00 -1.247554e+00 -2.250000e+00
      endloop
   endfacet
   facet normal 9.759611e-01 -2.179450e-01 0.000000e+00
      outer loop
         vertex -1.737818e+00 -2.061319e-01 -4.000000e+00
         vertex -1.485034e+00 9.258369e-01 -4.000000e+00
         vertex -1.485034e+00 9.258369e-01 -2.250000e+00
      endloop
   endfacet
   facet normal 9.759611e-01 -2.179450e-01 0.000000e+00
      outer loop
         vertex -1.737818e+00 -2.061319e-01 -4.000000e+00
         vertex -1.485034e+00 9.258369e-01 -2.250000e+00
         vertex -1.737818e+00 -2.061319e-01 -2.250000e+00
      endloop
   endfacet
   facet normal 6.253220e-01 -7.803669e-01 0.000000e+00
      outer loop
         vertex -1.485034e+00 9.258369e-01 -4.000000e+00
         vertex -5.799252e-01 1.651117e+00 -4.000000e+00
         vertex -5.799252e-01 1.651117e+00 -2.250000e+00
      endloop
   endfacet
   facet normal 6.253220e-01 -7.803669e-01 0.000000e+00
      outer loop
         vertex -1.485034e+00 9.258369e-01 -4.000000e+00
         vertex -5.799252e-01 1.651117e+00 -2.250000e+00
         vertex -1.485034e+00 9.258369e-01 -2.250000e+00
      endloop
   endfacet
   facet normal 0.000000e+00 -1.000000e+00 0.000000e+00
      outer loop
         vertex -5.799252e-01 1.651117e+00 -4.000000e+00
         vertex 5.799252e-01 1.651117e+00 -4.000000e+00
         vertex 5.799252e-01 1.651117e+00 -2.250000e+00
      endloop
   endfacet
   facet normal -0.000000e+00 -1.000000e+00 0.000000e+00
      outer loop
         vertex -5.799252e-01 1.651117e+00 -4.000000e+00
         vertex 5.799252e-01 1.651117e+00 -2.250000e+00
         vertex -5.799252e-01 1.651117e+00 -2.250000e+00
      endloop
   endfacet
   facet normal -6.253220e-01 -7.803669e-01 0.000000e+00
      outer loop
         vertex 5.799252e-01 1.651117e+00 -4.000000e+00
         vertex 1.485034e+00 9.258369e-01 -4.000000e+00
         vertex 1.485034e+00 9.258369e-01 -2.250000e+00
      endloop
   endfacet
   facet normal -6.253220e-01 -7.803669e-01 0.000000e+00
      outer loop
         vertex 5.799252e-01 1.651117e+00 -4.000000e+00
         vertex 1.485034e+00 9.258369e-01 -2.250000e+00
         vertex 5.799252e-01 1.651117e+00 -2.250000e+00
      endloop
   endfacet
   facet normal -9.759611e-01 -2.179450e-01 0.000000e+00
      outer loop
         vertex 1.485034e+00 9.258369e-01 -4.000000e+00
         vertex 1.737818e+00 -2.061319e-01 -4.000000e+00
         vertex 1.737818e+00 -2.061319e-01 -2.250000e+00
      endloop
   endfacet
   facet normal -9.759611e-01 -2.179450e-01 0.000000e+00
      outer loop
         vertex 1.485034e+00 9.258369e-01 -4.000000e+00
         vertex 1.737818e+00 -2.061319e-01 -2.250000e+00
         vertex 1.485034e+00 9.258369e-01 -2.250000e+00
      endloop
   endfacet
   facet normal -8.978934e-01 4.402129e-01 0.000000e+00
      outer loop
         vertex 1.737818e+00 -2.061319e-01 -4.000000e+00
         vertex 1.227236e+00 -1.247554e+00 -4.000000e+00
         vertex 1.227236e+00 -1.247554e+00 -2.250000e+00
      endloop
   endfacet
   facet normal -8.978934e-01 4.402129e-01 0.000000e+00
      outer loop
         vertex 1.737818e+00 -2.061319e-01 -4.000000e+00
         vertex 1.227236e+00 -1.247554e+00 -2.250000e+00
         vertex 1.737818e+00 -2.061319e-01 -2.250000e+00
      endloop
   endfacet
   facet normal -9.607042e-01 -2.775742e-01 -0.000000e+00
      outer loop
         vertex 1.600000e+00 -2.537715e+00 -4.000000e+00
         vertex 1.600000e+00 -2.537715e+00 -2.250000e+00
         vertex 1.227236e+00 -1.247554e+00 -2.250000e+00
      endloop
   endfacet
   facet normal -9.607042e-01 -2.775742e-01 -0.000000e+00
      outer loop
         vertex 1.600000e+00 -2.537715e+00 -4.000000e+00
         vertex 1.227236e+00 -1.247554e+00 -2.250000e+00
         vertex 1.227236e+00 -1.247554e+00 -4.000000e+00
      endloop
   endfacet
   facet normal 7.274521e-01 -6.861585e-01 0.000000e+00
      outer loop
         vertex 1.600000e+00 -2.537715e+00 -4.000000e+00
         vertex 2.626785e+00 -1.449138e+00 -4.000000e+00
         vertex 2.626785e+00 -1.449138e+00 -2.250000e+00
      endloop
   endfacet
   facet normal 7.274521e-01 -6.861585e-01 0.000000e+00
      outer loop
         vertex 1.600000e+00 -2.537715e+00 -4.000000e+00
         vertex 2.626785e+00 -1.449138e+00 -2.250000e+00
         vertex 1.600000e+00 -2.537715e+00 -2.250000e+00
      endloop
   endfacet
   facet normal 9.683995e-01 -2.494043e-01 0.000000e+00
      outer loop
         vertex 2.626785e+00 -1.449138e+00 -4.000000e+00
         vertex 3.000000e+00 0.000000e+00 -4.000000e+00
         vertex 3.000000e+00 0.000000e+00 -2.250000e+00
      endloop
   endfacet
   facet normal 9.683995e-01 -2.494043e-01 0.000000e+00
      outer loop
         vertex 2.626785e+00 -1.449138e+00 -4.000000e+00
         vertex 3.000000e+00 0.000000e+00 -2.250000e+00
         vertex 2.626785e+00 -1.449138e+00 -2.250000e+00
      endloop
   endfacet
   facet normal 0.000000e+00 0.000000e+00 -1.000000e+00
      outer loop
         vertex 1.600000e+00 -2.537715e+00 -4.000000e+00
         vertex 1.227236e+00 -1.247554e+00 -4.000000e+00
         vertex 2.626785e+00 -1.449138e+00 -4.000000e+00
      endloop
   endfacet
   facet normal 0.000000e+00 -0.000000e+00 -1.000000e+00
      outer loop
         vertex 1.227236e+00 -1.247554e+00 -4.000000e+00
         vertex 1.737818e+00 -2.061319e-01 -4.000000e+00
         vertex 2.626785e+00 -1.449138e+00 -4.000000e+00
      endloop
   endfacet
   facet normal 0.000000e+00 0.000000e+00 -1.000000e+00
      outer loop
         vertex 2.626785e+00 -1.449138e+00 -4.000000e+00
         vertex 1.737818e+00 -2.061319e-01 -4.000000e+00
         vertex 3.000000e+00 -1.518439e-16 -4.000000e+00
      endloop
   endfacet
   facet normal 0.000000e+00 0.000000e+00 -1.000000e+00
      outer loop
         vertex 1.737818e+00 -2.061319e-01 -4.000000e+00
         vertex 1.485034e+00 9.258369e-01 -4.000000e+00
         vertex 3.000000e+00 -1.518439e-16 -4.000000e+00
      endloop
   endfacet
   facet normal 0.000000e+00 0.000000e+00 -1.000000e+00
      outer loop
         vertex 3.000000e+00 -1.518439e-16 -4.000000e+00
         vertex 1.485034e+00 9.258369e-01 -4.000000e+00
         vertex 3.000000e+00 1.200000e+01 -4.000000e+00
      endloop
   endfacet
   facet normal 0.000000e+00 0.000000e+00 -1.000000e+00
      outer loop
         vertex 1.485034e+00 9.258369e-01 -4.000000e+00
         vertex 5.799252e-01 1.651117e+00 -4.000000e+00
         vertex 3.000000e+00 1.200000e+01 -4.000000e+00
      endloop
   endfacet
   facet normal 0.000000e+00 0.000000e+00 -1.000000e+00
      outer loop
         vertex 3.000000e+00 1.200000e+01 -4.000000e+00
         vertex 5.799252e-01 1.651117e+00 -4.000000e+00
         vertex -3.000000e+00 1.200000e+01 -4.000000e+00
      endloop
   endfacet
   facet normal 0.000000e+00 0.000000e+00 -1.000000e+00
      outer loop
         vertex 5.799252e-01 1.651117e+00 -4.000000e+00
         vertex -5.799252e-01 1.651117e+00 -4.000000e+00
         vertex -3.000000e+00 1.200000e+01 -4.000000e+00
      endloop
   endfacet
   facet normal -0.000000e+00 0.000000e+00 -1.000000e+00
      outer loop
         vertex -3.000000e+00 1.200000e+01 -4.000000e+00
         vertex -5.799252e-01 1.651117e+00 -4.000000e+00
         vertex -3.000000e+00 6.979870e-16 -4.000000e+00
      endloop
   endfacet
   facet normal -0.000000e+00 0.000000e+00 -1.000000e+00
      outer loop
         vertex -5.799252e-01 1.651117e+00 -4.000000e+00
         vertex -1.485034e+00 9.258369e-01 -4.000000e+00
         vertex -3.000000e+00 6.979870e-16 -4.000000e+00
      endloop
   endfacet
   facet normal 0.000000e+00 0.000000e+00 -1.000000e+00
      outer loop
         vertex -3.000000e+00 6.979870e-16 -4.000000e+00
         vertex -1.485034e+00 9.258369e-01 -4.000000e+00
         vertex -2.626785e+00 -1.449138e+00 -4.000000e+00
      endloop
   endfacet
   facet normal -0.000000e+00 0.000000e+00 -1.000000e+00
      outer loop
         vertex -1.485034e+00 9.258369e-01 -4.000000e+00
         vertex -1.737818e+00 -2.061319e-01 -4.000000e+00
         vertex -2.626785e+00 -1.449138e+00 -4.000000e+00
      endloop
   endfacet
   facet normal 0.000000e+00 -0.000000e+00 -1.000000e+00
      outer loop
         vertex -2.626785e+00 -1.449138e+00 -4.000000e+00
         vertex -1.737818e+00 -2.061319e-01 -4.000000e+00
         vertex -1.600000e+00 -2.537715e+00 -4.000000e+00
      endloop
   endfacet
   facet normal -0.000000e+00 0.000000e+00 -1.000000e+00
      outer loop
         vertex -1.737818e+00 -2.061319e-01 -4.000000e+00
         vertex -1.227236e+00 -1.247554e+00 -4.000000e+00
         vertex -1.600000e+00 -2.537715e+00 -4.000000e+00
      endloop
   endfacet
   facet normal 0.000000e+00 1.000000e+00 0.000000e+00
      outer loop
         vertex -3.000000e+00 1.200000e+01 4.000000e+00
         vertex -1.750000e+00 1.200000e+01 5.204749e-16
         vertex -3.000000e+00 1.200000e+01 -4.000000e+00
      endloop
   endfacet
   facet normal 0.000000e+00 1.000000e+00 0.000000e+00
      outer loop
         vertex -1.750000e+00 1.200000e+01 5.204749e-16
         vertex -1.340578e+00 1.200000e+01 -1.124878e+00
         vertex -3.000000e+00 1.200000e+01 -4.000000e+00
      endloop
   endfacet
   facet normal 0.000000e+00 1.000000e+00 0.000000e+00
      outer loop
         vertex -3.000000e+00 1.200000e+01 -4.000000e+00
         vertex -1.340578e+00 1.200000e+01 -1.124878e+00
         vertex 3.000000e+00 1.200000e+01 -4.000000e+00
      endloop
   endfacet
   facet normal 0.000000e+00 1.000000e+00 0.000000e+00
      outer loop
         vertex -1.340578e+00 1.200000e+01 -1.124878e+00
         vertex -3.038843e-01 1.200000e+01 -1.723414e+00
         vertex 3.000000e+00 1.200000e+01 -4.000000e+00
      endloop
   endfacet
   facet normal -0.000000e+00 1.000000e+00 0.000000e+00
      outer loop
         vertex 3.000000e+00 1.200000e+01 -4.000000e+00
         vertex 1.644462e+00 1.200000e+01 -5.985352e-01
         vertex 3.000000e+00 1.200000e+01 4.000000e+00
      endloop
   endfacet
   facet normal -0.000000e+00 1.000000e+00 0.000000e+00
      outer loop
         vertex 1.644462e+00 1.200000e+01 -5.985352e-01
         vertex 1.644462e+00 1.200000e+01 5.985352e-01
         vertex 3.000000e+00 1.200000e+01 4.000000e+00
      endloop
   endfacet
   facet normal 0.000000e+00 1.000000e+00 -0.000000e+00
      outer loop
         vertex 3.000000e+00 1.200000e+01 4.000000e+00
         vertex 8.750000e-01 1.200000e+01 1.515544e+00
         vertex -3.000000e+00 1.200000e+01 4.000000e+00
      endloop
   endfacet
   facet normal -0.000000e+00 1.000000e+00 -0.000000e+00
      outer loop
         vertex 8.750000e-01 1.200000e+01 1.515544e+00
         vertex -3.038843e-01 1.200000e+01 1.723414e+00
         vertex -3.000000e+00 1.200000e+01 4.000000e+00
      endloop
   endfacet
   facet normal 0.000000e+00 1.000000e+00 0.000000e+00
      outer loop
         vertex -3.000000e+00 1.200000e+01 4.000000e+00
         vertex -3.038843e-01 1.200000e+01 1.723414e+00
         vertex -1.340578e+00 1.200000e+01 1.124878e+00
      endloop
   endfacet
   facet normal 0.000000e+00 1.000000e+00 0.000000e+00
      outer loop
         vertex 8.750000e-01 1.200000e+01 1.515544e+00
         vertex 3.000000e+00 1.200000e+01 4.000000e+00
         vertex 1.644462e+00 1.200000e+01 5.985352e-01
      endloop
   endfacet
   facet normal 0.000000e+00 1.000000e+00 0.000000e+00
      outer loop
         vertex 1.644462e+00 1.200000e+01 -5.985352e-01
         vertex 3.000000e+00 1.200000e+01 -4.000000e+00
         vertex 8.750000e-01 1.200000e+01 -1.515544e+00
      endloop
   endfacet
   facet normal -0.000000e+00 1.000000e+00 0.000000e+00
      outer loop
         vertex 3.000000e+00 1.200000e+01 -4.000000e+00
         vertex -3.038843e-01 1.200000e+01 -1.723414e+00
         vertex 8.750000e-01 1.200000e+01 -1.515544e+00
      endloop
   endfacet
   facet normal 0.000000e+00 1.000000e+00 0.000000e+00
      outer loop
         vertex -1.750000e+00 1.200000e+01 5.204749e-16
         vertex -3.000000e+00 1.200000e+01 4.000000e+00
         vertex -1.340578e+00 1.200000e+01 1.124878e+00
      endloop
   endfacet
   facet normal 0.000000e+00 0.000000e+00 1.000000e+00
      outer loop
         vertex -1.600000e+00 -2.537715e+00 4.000000e+00
         vertex -1.227236e+00 -1.247554e+00 4.000000e+00
         vertex -2.626785e+00 -1.449138e+00 4.000000e+00
      endloop
   endfacet
   facet normal 0.000000e+00 0.000000e+00 1.000000e+00
      outer loop
         vertex -1.227236e+00 -1.247554e+00 4.000000e+00
         vertex -1.737818e+00 -2.061319e-01 4.000000e+00
         vertex -2.626785e+00 -1.449138e+00 4.000000e+00
      endloop
   endfacet
   facet normal 0.000000e+00 0.000000e+00 1.000000e+00
      outer loop
         vertex -2.626785e+00 -1.449138e+00 4.000000e+00
         vertex -1.737818e+00 -2.061319e-01 4.000000e+00
         vertex -3.000000e+00 5.347007e-16 4.000000e+00
      endloop
   endfacet
   facet normal 0.000000e+00 0.000000e+00 1.000000e+00
      outer loop
         vertex -1.737818e+00 -2.061319e-01 4.000000e+00
         vertex -1.485034e+00 9.258369e-01 4.000000e+00
         vertex -3.000000e+00 5.347007e-16 4.000000e+00
      endloop
   endfacet
   facet normal 0.000000e+00 0.000000e+00 1.000000e+00
      outer loop
         vertex -3.000000e+00 5.347007e-16 4.000000e+00
         vertex -1.485034e+00 9.258369e-01 4.000000e+00
         vertex -3.000000e+00 1.200000e+01 4.000000e+00
      endloop
   endfacet
   facet normal 0.000000e+00 0.000000e+00 1.000000e+00
      outer loop
         vertex -1.485034e+00 9.258369e-01 4.000000e+00
         vertex -5.799252e-01 1.651117e+00 4.000000e+00
         vertex -3.000000e+00 1.200000e+01 4.000000e+00
      endloop
   endfacet
   facet normal 0.000000e+00 -0.000000e+00 1.000000e+00
      outer loop
         vertex -3.000000e+00 1.200000e+01 4.000000e+00
         vertex -5.799252e-01 1.651117e+00 4.000000e+00
         vertex 3.000000e+00 1.200000e+01 4.000000e+00
      endloop
   endfacet
   facet normal 0.000000e+00 -0.000000e+00 1.000000e+00
      outer loop
         vertex -5.799252e-01 1.651117e+00 4.000000e+00
         vertex 5.799252e-01 1.651117e+00 4.000000e+00
         vertex 3.000000e+00 1.200000e+01 4.000000e+00
      endloop
   endfacet
   facet normal -0.000000e+00 0.000000e+00 1.000000e+00
      outer loop
         vertex 3.000000e+00 1.200000e+01 4.000000e+00
         vertex 5.799252e-01 1.651117e+00 4.000000e+00
         vertex 3.000000e+00 -3.151301e-16 4.000000e+00
      endloop
   endfacet
   facet normal -0.000000e+00 -0.000000e+00 1.000000e+00
      outer loop
         vertex 5.799252e-01 1.651117e+00 4.000000e+00
         vertex 1.485034e+00 9.258369e-01 4.000000e+00
         vertex 3.000000e+00 -3.151301e-16 4.000000e+00
      endloop
   endfacet
   facet normal 0.000000e+00 0.000000e+00 1.000000e+00
      outer loop
         vertex 3.000000e+00 -3.151301e-16 4.000000e+00
         vertex 1.485034e+00 9.258369e-01 4.000000e+00
         vertex 2.626785e+00 -1.449138e+00 4.000000e+00
      endloop
   endfacet
   facet normal -0.000000e+00 -0.000000e+00 1.000000e+00
      outer loop
         vertex 1.485034e+00 9.258369e-01 4.000000e+00
         vertex 1.737818e+00 -2.061319e-01 4.000000e+00
         vertex 2.626785e+00 -1.449138e+00 4.000000e+00
      endloop
   endfacet
   facet normal 0.000000e+00 0.000000e+00 1.000000e+00
      outer loop
         vertex 2.626785e+00 -1.449138e+00 4.000000e+00
         vertex 1.737818e+00 -2.061319e-01 4.000000e+00
         vertex 1.600000e+00 -2.537715e+00 4.000000e+00
      endloop
   endfacet
   facet normal -0.000000e+00 0.000000e+00 1.000000e+00
      outer loop
         vertex 1.737818e+00 -2.061319e-01 4.000000e+00
         vertex 1.227236e+00 -1.247554e+00 4.000000e+00
         vertex 1.600000e+00 -2.537715e+00 4.000000e+00
      endloop
   endfacet
   facet normal 9.396926e-01 0.000000e+00 -3.420202e-01
      outer loop
         vertex -1.340578e+00 1.200000e+01 1.124878e+00
         vertex -1.340578e+00 5.000000e+00 1.124878e+00
         vertex -1.750000e+00 5.000000e+00 9.184851e-17
      endloop
   endfacet
   facet normal 9.396926e-01 1.987393e-17 -3.420202e-01
      outer loop
         vertex -1.750000e+00 1.200000e+01 5.204749e-16
         vertex -1.340578e+00 1.200000e+01 1.124878e+00
         vertex -1.750000e+00 5.000000e+00 9.184851e-17
      endloop
   endfacet
   facet normal 5.000000e-01 0.000000e+00 -8.660254e-01
      outer loop
         vertex -3.038843e-01 1.200000e+01 1.723414e+00
         vertex -3.038843e-01 5.000000e+00 1.723414e+00
         vertex -1.340578e+00 5.000000e+00 1.124878e+00
      endloop
   endfacet
   facet normal 5.000000e-01 0.000000e+00 -8.660254e-01
      outer loop
         vertex -1.340578e+00 1.200000e+01 1.124878e+00
         vertex -3.038843e-01 1.200000e+01 1.723414e+00
         vertex -1.340578e+00 5.000000e+00 1.124878e+00
      endloop
   endfacet
   facet normal -1.736482e-01 0.000000e+00 -9.848077e-01
      outer loop
         vertex 8.750000e-01 1.200000e+01 1.515544e+00
         vertex 8.750000e-01 5.000000e+00 1.515544e+00
         vertex -3.038843e-01 5.000000e+00 1.723414e+00
      endloop
   endfacet
   facet normal -1.736482e-01 0.000000e+00 -9.848077e-01
      outer loop
         vertex -3.038843e-01 1.200000e+01 1.723414e+00
         vertex 8.750000e-01 1.200000e+01 1.515544e+00
         vertex -3.038843e-01 5.000000e+00 1.723414e+00
      endloop
   endfacet
   facet normal -7.660444e-01 0.000000e+00 -6.427876e-01
      outer loop
         vertex 1.644462e+00 1.200000e+01 5.985352e-01
         vertex 1.644462e+00 5.000000e+00 5.985352e-01
         vertex 8.750000e-01 5.000000e+00 1.515544e+00
      endloop
   endfacet
   facet normal -7.660444e-01 0.000000e+00 -6.427876e-01
      outer loop
         vertex 8.750000e-01 1.200000e+01 1.515544e+00
         vertex 1.644462e+00 1.200000e+01 5.985352e-01
         vertex 8.750000e-01 5.000000e+00 1.515544e+00
      endloop
   endfacet
   facet normal -1.000000e+00 0.000000e+00 0.000000e+00
      outer loop
         vertex 1.644462e+00 1.200000e+01 -5.985352e-01
         vertex 1.644462e+00 5.000000e+00 -5.985352e-01
         vertex 1.644462e+00 5.000000e+00 5.985352e-01
      endloop
   endfacet
   facet normal -1.000000e+00 0.000000e+00 0.000000e+00
      outer loop
         vertex 1.644462e+00 1.200000e+01 5.985352e-01
         vertex 1.644462e+00 1.200000e+01 -5.985352e-01
         vertex 1.644462e+00 5.000000e+00 5.985352e-01
      endloop
   endfacet
   facet normal -7.660444e-01 0.000000e+00 6.427876e-01
      outer loop
         vertex 8.750000e-01 1.200000e+01 -1.515544e+00
         vertex 8.750000e-01 5.000000e+00 -1.515544e+00
         vertex 1.644462e+00 5.000000e+00 -5.985352e-01
      endloop
   endfacet
   facet normal -7.660444e-01 0.000000e+00 6.427876e-01
      outer loop
         vertex 1.644462e+00 1.200000e+01 -5.985352e-01
         vertex 8.750000e-01 1.200000e+01 -1.515544e+00
         vertex 1.644462e+00 5.000000e+00 -5.985352e-01
      endloop
   endfacet
   facet normal -1.736482e-01 0.000000e+00 9.848077e-01
      outer loop
         vertex -3.038843e-01 1.200000e+01 -1.723414e+00
         vertex -3.038843e-01 5.000000e+00 -1.723414e+00
         vertex 8.750000e-01 5.000000e+00 -1.515544e+00
      endloop
   endfacet
   facet normal -1.736482e-01 0.000000e+00 9.848077e-01
      outer loop
         vertex 8.750000e-01 1.200000e+01 -1.515544e+00
         vertex -3.038843e-01 1.200000e+01 -1.723414e+00
         vertex 8.750000e-01 5.000000e+00 -1.515544e+00
      endloop
   endfacet
   facet normal 5.000000e-01 -0.000000e+00 8.660254e-01
      outer loop
         vertex -1.340578e+00 1.200000e+01 -1.124878e+00
         vertex -1.340578e+00 5.000000e+00 -1.124878e+00
         vertex -3.038843e-01 5.000000e+00 -1.723414e+00
      endloop
   endfacet
   facet normal 5.000000e-01 0.000000e+00 8.660254e-01
      outer loop
         vertex -3.038843e-01 1.200000e+01 -1.723414e+00
         vertex -1.340578e+00 1.200000e+01 -1.124878e+00
         vertex -3.038843e-01 5.000000e+00 -1.723414e+00
      endloop
   endfacet
   facet normal 9.396926e-01 -2.094270e-17 3.420202e-01
      outer loop
         vertex -1.750000e+00 1.200000e+01 9.184851e-17
         vertex -1.750000e+00 5.000000e+00 -3.367779e-16
         vertex -1.340578e+00 5.000000e+00 -1.124878e+00
      endloop
   endfacet
   facet normal 9.396926e-01 0.000000e+00 3.420202e-01
      outer loop
         vertex -1.340578e+00 1.200000e+01 -1.124878e+00
         vertex -1.750000e+00 1.200000e+01 9.184851e-17
         vertex -1.340578e+00 5.000000e+00 -1.124878e+00
      endloop
   endfacet
   facet normal 0.000000e+00 1.000000e+00 0.000000e+00
      outer loop
         vertex -1.340578e+00 5.000000e+00 -1.124878e+00
         vertex -1.750000e+00 5.000000e+00 9.184851e-17
         vertex -3.038843e-01 5.000000e+00 -1.723414e+00
      endloop
   endfacet
   facet normal 0.000000e+00 1.000000e+00 0.000000e+00
      outer loop
         vertex -1.750000e+00 5.000000e+00 9.184851e-17
         vertex -1.340578e+00 5.000000e+00 1.124878e+00
         vertex -3.038843e-01 5.000000e+00 -1.723414e+00
      endloop
   endfacet
   facet normal 0.000000e+00 1.000000e+00 0.000000e+00
      outer loop
         vertex -3.038843e-01 5.000000e+00 -1.723414e+00
         vertex -1.340578e+00 5.000000e+00 1.124878e+00
         vertex 8.750000e-01 5.000000e+00 -1.515544e+00
      endloop
   endfacet
   facet normal 0.000000e+00 1.000000e+00 0.000000e+00
      outer loop
         vertex -1.340578e+00 5.000000e+00 1.124878e+00
         vertex -3.038843e-01 5.000000e+00 1.723414e+00
         vertex 8.750000e-01 5.000000e+00 -1.515544e+00
      endloop
   endfacet
   facet normal 0.000000e+00 1.000000e+00 0.000000e+00
      outer loop
         vertex 8.750000e-01 5.000000e+00 -1.515544e+00
         vertex -3.038843e-01 5.000000e+00 1.723414e+00
         vertex 1.644462e+00 5.000000e+00 -5.985352e-01
      endloop
   endfacet
   facet normal 0.000000e+00 1.000000e+00 0.000000e+00
      outer loop
         vertex -3.038843e-01 5.000000e+00 1.723414e+00
         vertex 8.750000e-01 5.000000e+00 1.515544e+00
         vertex 1.644462e+00 5.000000e+00 -5.985352e-01
      endloop
   endfacet
   facet normal 0.000000e+00 1.000000e+00 0.000000e+00
      outer loop
         vertex 1.644462e+00 5.000000e+00 -5.985352e-01
         vertex 8.750000e-01 5.000000e+00 1.515544e+00
         vertex 1.644462e+00 5.000000e+00 5.985352e-01
      endloop
   endfacet
endsolid
