solid 
   facet normal 0.000000e+00 0.000000e+00 -1.000000e+00
      outer loop
         vertex -9.767067e-01 -8.195542e-01 -1.400000e+01
         vertex -1.275000e+00 8.572528e-16 -1.400000e+01
         vertex -2.214014e-01 -1.255630e+00 -1.400000e+01
      endloop
   endfacet
   facet normal 0.000000e+00 -0.000000e+00 -1.000000e+00
      outer loop
         vertex -1.275000e+00 8.572528e-16 -1.400000e+01
         vertex -9.767067e-01 8.195542e-01 -1.400000e+01
         vertex -2.214014e-01 -1.255630e+00 -1.400000e+01
      endloop
   endfacet
   facet normal 0.000000e+00 0.000000e+00 -1.000000e+00
      outer loop
         vertex -2.214014e-01 -1.255630e+00 -1.400000e+01
         vertex -9.767067e-01 8.195542e-01 -1.400000e+01
         vertex 6.375000e-01 -1.104182e+00 -1.400000e+01
      endloop
   endfacet
   facet normal 0.000000e+00 -0.000000e+00 -1.000000e+00
      outer loop
         vertex -9.767067e-01 8.195542e-01 -1.400000e+01
         vertex -2.214014e-01 1.255630e+00 -1.400000e+01
         vertex 6.375000e-01 -1.104182e+00 -1.400000e+01
      endloop
   endfacet
   facet normal 0.000000e+00 0.000000e+00 -1.000000e+00
      outer loop
         vertex 6.375000e-01 -1.104182e+00 -1.400000e+01
         vertex -2.214014e-01 1.255630e+00 -1.400000e+01
         vertex 1.198108e+00 -4.360757e-01 -1.400000e+01
      endloop
   endfacet
   facet normal -0.000000e+00 -0.000000e+00 -1.000000e+00
      outer loop
         vertex -2.214014e-01 1.255630e+00 -1.400000e+01
         vertex 6.375000e-01 1.104182e+00 -1.400000e+01
         vertex 1.198108e+00 -4.360757e-01 -1.400000e+01
      endloop
   endfacet
   facet normal 0.000000e+00 0.000000e+00 -1.000000e+00
      outer loop
         vertex 1.198108e+00 -4.360757e-01 -1.400000e+01
         vertex 6.375000e-01 1.104182e+00 -1.400000e+01
         vertex 1.198108e+00 4.360757e-01 -1.400000e+01
      endloop
   endfacet
   facet normal -6.847912e-01 2.492436e-01 -6.847909e-01
      outer loop
         vertex -1.700000e+00 8.312290e-16 -1.357500e+01
         vertex -1.302276e+00 1.092739e+00 -1.357500e+01
         vertex -9.767067e-01 8.195542e-01 -1.400000e+01
      endloop
   endfacet
   facet normal -6.847912e-01 2.492436e-01 -6.847910e-01
      outer loop
         vertex -1.700000e+00 8.312290e-16 -1.357500e+01
         vertex -9.767067e-01 8.195542e-01 -1.400000e+01
         vertex -1.275000e+00 8.572528e-16 -1.400000e+01
      endloop
   endfacet
   facet normal -3.643698e-01 6.311070e-01 -6.847909e-01
      outer loop
         vertex -1.302276e+00 1.092739e+00 -1.357500e+01
         vertex -2.952019e-01 1.674173e+00 -1.357500e+01
         vertex -2.214014e-01 1.255630e+00 -1.400000e+01
      endloop
   endfacet
   facet normal -3.643698e-01 6.311070e-01 -6.847909e-01
      outer loop
         vertex -1.302276e+00 1.092739e+00 -1.357500e+01
         vertex -2.214014e-01 1.255630e+00 -1.400000e+01
         vertex -9.767067e-01 8.195542e-01 -1.400000e+01
      endloop
   endfacet
   facet normal 1.265443e-01 7.176684e-01 -6.847910e-01
      outer loop
         vertex -2.952019e-01 1.674173e+00 -1.357500e+01
         vertex 8.500000e-01 1.472243e+00 -1.357500e+01
         vertex 6.375000e-01 1.104182e+00 -1.400000e+01
      endloop
   endfacet
   facet normal 1.265443e-01 7.176684e-01 -6.847909e-01
      outer loop
         vertex -2.952019e-01 1.674173e+00 -1.357500e+01
         vertex 6.375000e-01 1.104182e+00 -1.400000e+01
         vertex -2.214014e-01 1.255630e+00 -1.400000e+01
      endloop
   endfacet
   facet normal 5.582469e-01 4.684248e-01 -6.847909e-01
      outer loop
         vertex 8.500000e-01 1.472243e+00 -1.357500e+01
         vertex 1.597477e+00 5.814342e-01 -1.357500e+01
         vertex 1.198108e+00 4.360757e-01 -1.400000e+01
      endloop
   endfacet
   facet normal 5.582469e-01 4.684248e-01 -6.847910e-01
      outer loop
         vertex 8.500000e-01 1.472243e+00 -1.357500e+01
         vertex 1.198108e+00 4.360757e-01 -1.400000e+01
         vertex 6.375000e-01 1.104182e+00 -1.400000e+01
      endloop
   endfacet
   facet normal 7.287396e-01 0.000000e+00 -6.847909e-01
      outer loop
         vertex 1.597477e+00 5.814342e-01 -1.357500e+01
         vertex 1.597477e+00 -5.814342e-01 -1.357500e+01
         vertex 1.198108e+00 -4.360757e-01 -1.400000e+01
      endloop
   endfacet
   facet normal 7.287396e-01 0.000000e+00 -6.847909e-01
      outer loop
         vertex 1.597477e+00 5.814342e-01 -1.357500e+01
         vertex 1.198108e+00 -4.360757e-01 -1.400000e+01
         vertex 1.198108e+00 4.360757e-01 -1.400000e+01
      endloop
   endfacet
   facet normal 5.582469e-01 -4.684247e-01 -6.847910e-01
      outer loop
         vertex 1.597477e+00 -5.814342e-01 -1.357500e+01
         vertex 8.500000e-01 -1.472243e+00 -1.357500e+01
         vertex 6.375000e-01 -1.104182e+00 -1.400000e+01
      endloop
   endfacet
   facet normal 5.582469e-01 -4.684248e-01 -6.847909e-01
      outer loop
         vertex 1.597477e+00 -5.814342e-01 -1.357500e+01
         vertex 6.375000e-01 -1.104182e+00 -1.400000e+01
         vertex 1.198108e+00 -4.360757e-01 -1.400000e+01
      endloop
   endfacet
   facet normal 1.265443e-01 -7.176684e-01 -6.847909e-01
      outer loop
         vertex 8.500000e-01 -1.472243e+00 -1.357500e+01
         vertex -2.952019e-01 -1.674173e+00 -1.357500e+01
         vertex -2.214014e-01 -1.255630e+00 -1.400000e+01
      endloop
   endfacet
   facet normal 1.265443e-01 -7.176684e-01 -6.847910e-01
      outer loop
         vertex 8.500000e-01 -1.472243e+00 -1.357500e+01
         vertex -2.214014e-01 -1.255630e+00 -1.400000e+01
         vertex 6.375000e-01 -1.104182e+00 -1.400000e+01
      endloop
   endfacet
   facet normal -3.643698e-01 -6.311070e-01 -6.847909e-01
      outer loop
         vertex -2.952019e-01 -1.674173e+00 -1.357500e+01
         vertex -1.302276e+00 -1.092739e+00 -1.357500e+01
         vertex -9.767067e-01 -8.195542e-01 -1.400000e+01
      endloop
   endfacet
   facet normal -3.643698e-01 -6.311070e-01 -6.847910e-01
      outer loop
         vertex -2.952019e-01 -1.674173e+00 -1.357500e+01
         vertex -9.767067e-01 -8.195542e-01 -1.400000e+01
         vertex -2.214014e-01 -1.255630e+00 -1.400000e+01
      endloop
   endfacet
   facet normal -6.847912e-01 -2.492436e-01 -6.847910e-01
      outer loop
         vertex -1.302276e+00 -1.092739e+00 -1.357500e+01
         vertex -1.700000e+00 4.148491e-16 -1.357500e+01
         vertex -1.275000e+00 5.449678e-16 -1.400000e+01
      endloop
   endfacet
   facet normal -6.847913e-01 -2.492436e-01 -6.847909e-01
      outer loop
         vertex -1.302276e+00 -1.092739e+00 -1.357500e+01
         vertex -1.275000e+00 5.449678e-16 -1.400000e+01
         vertex -9.767067e-01 -8.195542e-01 -1.400000e+01
      endloop
   endfacet
   facet normal -9.396926e-01 3.420202e-01 0.000000e+00
      outer loop
         vertex -1.700000e+00 -8.312290e-16 1.357500e+01
         vertex -1.302276e+00 1.092739e+00 1.357500e+01
         vertex -1.302276e+00 1.092739e+00 -1.357500e+01
      endloop
   endfacet
   facet normal -9.396926e-01 3.420202e-01 2.109896e-17
      outer loop
         vertex -1.700000e+00 -8.312290e-16 1.357500e+01
         vertex -1.302276e+00 1.092739e+00 -1.357500e+01
         vertex -1.700000e+00 8.312290e-16 -1.357500e+01
      endloop
   endfacet
   facet normal -5.000000e-01 8.660254e-01 0.000000e+00
      outer loop
         vertex -1.302276e+00 1.092739e+00 1.357500e+01
         vertex -2.952019e-01 1.674173e+00 1.357500e+01
         vertex -2.952019e-01 1.674173e+00 -1.357500e+01
      endloop
   endfacet
   facet normal -5.000000e-01 8.660254e-01 0.000000e+00
      outer loop
         vertex -1.302276e+00 1.092739e+00 1.357500e+01
         vertex -2.952019e-01 1.674173e+00 -1.357500e+01
         vertex -1.302276e+00 1.092739e+00 -1.357500e+01
      endloop
   endfacet
   facet normal 1.736482e-01 9.848077e-01 0.000000e+00
      outer loop
         vertex -2.952019e-01 1.674173e+00 1.357500e+01
         vertex 8.500000e-01 1.472243e+00 1.357500e+01
         vertex 8.500000e-01 1.472243e+00 -1.357500e+01
      endloop
   endfacet
   facet normal 1.736482e-01 9.848077e-01 0.000000e+00
      outer loop
         vertex -2.952019e-01 1.674173e+00 1.357500e+01
         vertex 8.500000e-01 1.472243e+00 -1.357500e+01
         vertex -2.952019e-01 1.674173e+00 -1.357500e+01
      endloop
   endfacet
   facet normal 7.660445e-01 6.427876e-01 0.000000e+00
      outer loop
         vertex 8.500000e-01 1.472243e+00 1.357500e+01
         vertex 1.597477e+00 5.814342e-01 1.357500e+01
         vertex 1.597477e+00 5.814342e-01 -1.357500e+01
      endloop
   endfacet
   facet normal 7.660445e-01 6.427876e-01 0.000000e+00
      outer loop
         vertex 8.500000e-01 1.472243e+00 1.357500e+01
         vertex 1.597477e+00 5.814342e-01 -1.357500e+01
         vertex 8.500000e-01 1.472243e+00 -1.357500e+01
      endloop
   endfacet
   facet normal 1.000000e+00 -0.000000e+00 0.000000e+00
      outer loop
         vertex 1.597477e+00 5.814342e-01 1.357500e+01
         vertex 1.597477e+00 -5.814342e-01 1.357500e+01
         vertex 1.597477e+00 -5.814342e-01 -1.357500e+01
      endloop
   endfacet
   facet normal 1.000000e+00 0.000000e+00 0.000000e+00
      outer loop
         vertex 1.597477e+00 5.814342e-01 1.357500e+01
         vertex 1.597477e+00 -5.814342e-01 -1.357500e+01
         vertex 1.597477e+00 5.814342e-01 -1.357500e+01
      endloop
   endfacet
   facet normal 7.660445e-01 -6.427876e-01 0.000000e+00
      outer loop
         vertex 1.597477e+00 -5.814342e-01 1.357500e+01
         vertex 8.500000e-01 -1.472243e+00 1.357500e+01
         vertex 8.500000e-01 -1.472243e+00 -1.357500e+01
      endloop
   endfacet
   facet normal 7.660445e-01 -6.427876e-01 0.000000e+00
      outer loop
         vertex 1.597477e+00 -5.814342e-01 1.357500e+01
         vertex 8.500000e-01 -1.472243e+00 -1.357500e+01
         vertex 1.597477e+00 -5.814342e-01 -1.357500e+01
      endloop
   endfacet
   facet normal 1.736482e-01 -9.848077e-01 0.000000e+00
      outer loop
         vertex 8.500000e-01 -1.472243e+00 1.357500e+01
         vertex -2.952019e-01 -1.674173e+00 1.357500e+01
         vertex -2.952019e-01 -1.674173e+00 -1.357500e+01
      endloop
   endfacet
   facet normal 1.736482e-01 -9.848077e-01 0.000000e+00
      outer loop
         vertex 8.500000e-01 -1.472243e+00 1.357500e+01
         vertex -2.952019e-01 -1.674173e+00 -1.357500e+01
         vertex 8.500000e-01 -1.472243e+00 -1.357500e+01
      endloop
   endfacet
   facet normal -5.000000e-01 -8.660254e-01 -0.000000e+00
      outer loop
         vertex -2.952019e-01 -1.674173e+00 1.357500e+01
         vertex -1.302276e+00 -1.092739e+00 1.357500e+01
         vertex -1.302276e+00 -1.092739e+00 -1.357500e+01
      endloop
   endfacet
   facet normal -5.000000e-01 -8.660254e-01 0.000000e+00
      outer loop
         vertex -2.952019e-01 -1.674173e+00 1.357500e+01
         vertex -1.302276e+00 -1.092739e+00 -1.357500e+01
         vertex -2.952019e-01 -1.674173e+00 -1.357500e+01
      endloop
   endfacet
   facet normal -9.396926e-01 -3.420202e-01 -2.094270e-17
      outer loop
         vertex -1.302276e+00 -1.092739e+00 1.357500e+01
         vertex -1.700000e+00 -1.247609e-15 1.357500e+01
         vertex -1.700000e+00 4.148491e-16 -1.357500e+01
      endloop
   endfacet
   facet normal -9.396926e-01 -3.420202e-01 0.000000e+00
      outer loop
         vertex -1.302276e+00 -1.092739e+00 1.357500e+01
         vertex -1.700000e+00 4.148491e-16 -1.357500e+01
         vertex -1.302276e+00 -1.092739e+00 -1.357500e+01
      endloop
   endfacet
   facet normal -6.847913e-01 2.492436e-01 6.847909e-01
      outer loop
         vertex -1.275000e+00 -8.572528e-16 1.400000e+01
         vertex -9.767067e-01 8.195542e-01 1.400000e+01
         vertex -1.302276e+00 1.092739e+00 1.357500e+01
      endloop
   endfacet
   facet normal -6.847912e-01 2.492436e-01 6.847910e-01
      outer loop
         vertex -1.275000e+00 -8.572528e-16 1.400000e+01
         vertex -1.302276e+00 1.092739e+00 1.357500e+01
         vertex -1.700000e+00 -8.312290e-16 1.357500e+01
      endloop
   endfacet
   facet normal -3.643698e-01 6.311070e-01 6.847910e-01
      outer loop
         vertex -9.767067e-01 8.195542e-01 1.400000e+01
         vertex -2.214014e-01 1.255630e+00 1.400000e+01
         vertex -2.952019e-01 1.674173e+00 1.357500e+01
      endloop
   endfacet
   facet normal -3.643698e-01 6.311070e-01 6.847909e-01
      outer loop
         vertex -9.767067e-01 8.195542e-01 1.400000e+01
         vertex -2.952019e-01 1.674173e+00 1.357500e+01
         vertex -1.302276e+00 1.092739e+00 1.357500e+01
      endloop
   endfacet
   facet normal 1.265443e-01 7.176684e-01 6.847910e-01
      outer loop
         vertex -2.214014e-01 1.255630e+00 1.400000e+01
         vertex 6.375000e-01 1.104182e+00 1.400000e+01
         vertex 8.500000e-01 1.472243e+00 1.357500e+01
      endloop
   endfacet
   facet normal 1.265443e-01 7.176684e-01 6.847909e-01
      outer loop
         vertex -2.214014e-01 1.255630e+00 1.400000e+01
         vertex 8.500000e-01 1.472243e+00 1.357500e+01
         vertex -2.952019e-01 1.674173e+00 1.357500e+01
      endloop
   endfacet
   facet normal 5.582469e-01 4.684248e-01 6.847909e-01
      outer loop
         vertex 6.375000e-01 1.104182e+00 1.400000e+01
         vertex 1.198108e+00 4.360757e-01 1.400000e+01
         vertex 1.597477e+00 5.814342e-01 1.357500e+01
      endloop
   endfacet
   facet normal 5.582469e-01 4.684247e-01 6.847910e-01
      outer loop
         vertex 6.375000e-01 1.104182e+00 1.400000e+01
         vertex 1.597477e+00 5.814342e-01 1.357500e+01
         vertex 8.500000e-01 1.472243e+00 1.357500e+01
      endloop
   endfacet
   facet normal 7.287396e-01 -0.000000e+00 6.847909e-01
      outer loop
         vertex 1.198108e+00 4.360757e-01 1.400000e+01
         vertex 1.198108e+00 -4.360757e-01 1.400000e+01
         vertex 1.597477e+00 -5.814342e-01 1.357500e+01
      endloop
   endfacet
   facet normal 7.287396e-01 -0.000000e+00 6.847909e-01
      outer loop
         vertex 1.198108e+00 4.360757e-01 1.400000e+01
         vertex 1.597477e+00 -5.814342e-01 1.357500e+01
         vertex 1.597477e+00 5.814342e-01 1.357500e+01
      endloop
   endfacet
   facet normal 5.582469e-01 -4.684248e-01 6.847910e-01
      outer loop
         vertex 1.198108e+00 -4.360757e-01 1.400000e+01
         vertex 6.375000e-01 -1.104182e+00 1.400000e+01
         vertex 8.500000e-01 -1.472243e+00 1.357500e+01
      endloop
   endfacet
   facet normal 5.582469e-01 -4.684248e-01 6.847909e-01
      outer loop
         vertex 1.198108e+00 -4.360757e-01 1.400000e+01
         vertex 8.500000e-01 -1.472243e+00 1.357500e+01
         vertex 1.597477e+00 -5.814342e-01 1.357500e+01
      endloop
   endfacet
   facet normal 1.265443e-01 -7.176684e-01 6.847909e-01
      outer loop
         vertex 6.375000e-01 -1.104182e+00 1.400000e+01
         vertex -2.214014e-01 -1.255630e+00 1.400000e+01
         vertex -2.952019e-01 -1.674173e+00 1.357500e+01
      endloop
   endfacet
   facet normal 1.265443e-01 -7.176684e-01 6.847910e-01
      outer loop
         vertex 6.375000e-01 -1.104182e+00 1.400000e+01
         vertex -2.952019e-01 -1.674173e+00 1.357500e+01
         vertex 8.500000e-01 -1.472243e+00 1.357500e+01
      endloop
   endfacet
   facet normal -3.643698e-01 -6.311070e-01 6.847909e-01
      outer loop
         vertex -2.214014e-01 -1.255630e+00 1.400000e+01
         vertex -9.767067e-01 -8.195542e-01 1.400000e+01
         vertex -1.302276e+00 -1.092739e+00 1.357500e+01
      endloop
   endfacet
   facet normal -3.643698e-01 -6.311070e-01 6.847909e-01
      outer loop
         vertex -2.214014e-01 -1.255630e+00 1.400000e+01
         vertex -1.302276e+00 -1.092739e+00 1.357500e+01
         vertex -2.952019e-01 -1.674173e+00 1.357500e+01
      endloop
   endfacet
   facet normal -6.847912e-01 -2.492436e-01 6.847910e-01
      outer loop
         vertex -9.767067e-01 -8.195542e-01 1.400000e+01
         vertex -1.275000e+00 -1.169538e-15 1.400000e+01
         vertex -1.700000e+00 -1.247609e-15 1.357500e+01
      endloop
   endfacet
   facet normal -6.847912e-01 -2.492436e-01 6.847909e-01
      outer loop
         vertex -9.767067e-01 -8.195542e-01 1.400000e+01
         vertex -1.700000e+00 -1.247609e-15 1.357500e+01
         vertex -1.302276e+00 -1.092739e+00 1.357500e+01
      endloop
   endfacet
   facet normal 0.000000e+00 0.000000e+00 1.000000e+00
      outer loop
         vertex -9.767067e-01 8.195542e-01 1.400000e+01
         vertex -1.275000e+00 -8.572528e-16 1.400000e+01
         vertex -2.214014e-01 1.255630e+00 1.400000e+01
      endloop
   endfacet
   facet normal 0.000000e+00 -0.000000e+00 1.000000e+00
      outer loop
         vertex -1.275000e+00 -8.572528e-16 1.400000e+01
         vertex -9.767067e-01 -8.195542e-01 1.400000e+01
         vertex -2.214014e-01 1.255630e+00 1.400000e+01
      endloop
   endfacet
   facet normal 0.000000e+00 0.000000e+00 1.000000e+00
      outer loop
         vertex -2.214014e-01 1.255630e+00 1.400000e+01
         vertex -9.767067e-01 -8.195542e-01 1.400000e+01
         vertex 6.375000e-01 1.104182e+00 1.400000e+01
      endloop
   endfacet
   facet normal 0.000000e+00 -0.000000e+00 1.000000e+00
      outer loop
         vertex -9.767067e-01 -8.195542e-01 1.400000e+01
         vertex -2.214014e-01 -1.255630e+00 1.400000e+01
         vertex 6.375000e-01 1.104182e+00 1.400000e+01
      endloop
   endfacet
   facet normal 0.000000e+00 0.000000e+00 1.000000e+00
      outer loop
         vertex 6.375000e-01 1.104182e+00 1.400000e+01
         vertex -2.214014e-01 -1.255630e+00 1.400000e+01
         vertex 1.198108e+00 4.360757e-01 1.400000e+01
      endloop
   endfacet
   facet normal 0.000000e+00 -0.000000e+00 1.000000e+00
      outer loop
         vertex -2.214014e-01 -1.255630e+00 1.400000e+01
         vertex 6.375000e-01 -1.104182e+00 1.400000e+01
         vertex 1.198108e+00 4.360757e-01 1.400000e+01
      endloop
   endfacet
   facet normal 0.000000e+00 0.000000e+00 1.000000e+00
      outer loop
         vertex 1.198108e+00 4.360757e-01 1.400000e+01
         vertex 6.375000e-01 -1.104182e+00 1.400000e+01
         vertex 1.198108e+00 -4.360757e-01 1.400000e+01
      endloop
   endfacet
endsolid
