solid 
   facet normal 1.000000e+00 0.000000e+00 0.000000e+00
      outer loop
         vertex -4.000000e+01 -7.250000e+01 -5.000000e+00
         vertex -4.000000e+01 -7.140954e+01 -3.013030e+00
         vertex -4.000000e+01 -7.250000e+01 -5.759554e-15
      endloop
   endfacet
   facet normal 1.000000e+00 0.000000e+00 0.000000e+00
      outer loop
         vertex -4.000000e+01 -7.140954e+01 -3.013030e+00
         vertex -4.000000e+01 -7.140954e+01 -1.986970e+00
         vertex -4.000000e+01 -7.250000e+01 -5.759554e-15
      endloop
   endfacet
   facet normal 1.000000e+00 0.000000e+00 -0.000000e+00
      outer loop
         vertex -4.000000e+01 -7.250000e+01 -5.759554e-15
         vertex -4.000000e+01 -7.075000e+01 -1.200962e+00
         vertex -4.000000e+01 -6.750000e+01 -5.116096e-15
      endloop
   endfacet
   facet normal 1.000000e+00 0.000000e+00 -0.000000e+00
      outer loop
         vertex -4.000000e+01 -7.075000e+01 -1.200962e+00
         vertex -4.000000e+01 -6.973952e+01 -1.022788e+00
         vertex -4.000000e+01 -6.750000e+01 -5.116096e-15
      endloop
   endfacet
   facet normal 1.000000e+00 -0.000000e+00 0.000000e+00
      outer loop
         vertex -4.000000e+01 -6.750000e+01 -5.116096e-15
         vertex -4.000000e+01 -6.885094e+01 -1.535819e+00
         vertex -4.000000e+01 -6.750000e+01 -5.000000e+00
      endloop
   endfacet
   facet normal 1.000000e+00 -0.000000e+00 -0.000000e+00
      outer loop
         vertex -4.000000e+01 -6.885094e+01 -1.535819e+00
         vertex -4.000000e+01 -6.850000e+01 -2.500000e+00
         vertex -4.000000e+01 -6.750000e+01 -5.000000e+00
      endloop
   endfacet
   facet normal 1.000000e+00 0.000000e+00 0.000000e+00
      outer loop
         vertex -4.000000e+01 -6.750000e+01 -5.000000e+00
         vertex -4.000000e+01 -6.973952e+01 -3.977212e+00
         vertex -4.000000e+01 -7.250000e+01 -5.000000e+00
      endloop
   endfacet
   facet normal 1.000000e+00 0.000000e+00 0.000000e+00
      outer loop
         vertex -4.000000e+01 -6.973952e+01 -3.977212e+00
         vertex -4.000000e+01 -7.075000e+01 -3.799038e+00
         vertex -4.000000e+01 -7.250000e+01 -5.000000e+00
      endloop
   endfacet
   facet normal 1.000000e+00 0.000000e+00 0.000000e+00
      outer loop
         vertex -4.000000e+01 -6.973952e+01 -3.977212e+00
         vertex -4.000000e+01 -6.750000e+01 -5.000000e+00
         vertex -4.000000e+01 -6.885094e+01 -3.464181e+00
      endloop
   endfacet
   facet normal 1.000000e+00 0.000000e+00 0.000000e+00
      outer loop
         vertex -4.000000e+01 -6.885094e+01 -3.464181e+00
         vertex -4.000000e+01 -6.750000e+01 -5.000000e+00
         vertex -4.000000e+01 -6.850000e+01 -2.500000e+00
      endloop
   endfacet
   facet normal 1.000000e+00 0.000000e+00 0.000000e+00
      outer loop
         vertex -4.000000e+01 -6.885094e+01 -1.535819e+00
         vertex -4.000000e+01 -6.750000e+01 -5.116096e-15
         vertex -4.000000e+01 -6.973952e+01 -1.022788e+00
      endloop
   endfacet
   facet normal 1.000000e+00 0.000000e+00 0.000000e+00
      outer loop
         vertex -4.000000e+01 -7.075000e+01 -1.200962e+00
         vertex -4.000000e+01 -7.250000e+01 -5.759554e-15
         vertex -4.000000e+01 -7.140954e+01 -1.986970e+00
      endloop
   endfacet
   facet normal 1.000000e+00 0.000000e+00 0.000000e+00
      outer loop
         vertex -4.000000e+01 -7.140954e+01 -3.013030e+00
         vertex -4.000000e+01 -7.250000e+01 -5.000000e+00
         vertex -4.000000e+01 -7.075000e+01 -3.799038e+00
      endloop
   endfacet
   facet normal -1.000000e+00 -0.000000e+00 0.000000e+00
      outer loop
         vertex 4.000000e+01 -7.250000e+01 4.871375e-15
         vertex 4.000000e+01 -7.140954e+01 -1.986970e+00
         vertex 4.000000e+01 -7.250000e+01 -5.000000e+00
      endloop
   endfacet
   facet normal -1.000000e+00 -0.000000e+00 0.000000e+00
      outer loop
         vertex 4.000000e+01 -7.140954e+01 -1.986970e+00
         vertex 4.000000e+01 -7.140954e+01 -3.013030e+00
         vertex 4.000000e+01 -7.250000e+01 -5.000000e+00
      endloop
   endfacet
   facet normal -1.000000e+00 0.000000e+00 -0.000000e+00
      outer loop
         vertex 4.000000e+01 -7.250000e+01 -5.000000e+00
         vertex 4.000000e+01 -7.075000e+01 -3.799038e+00
         vertex 4.000000e+01 -6.750000e+01 -5.000000e+00
      endloop
   endfacet
   facet normal -1.000000e+00 -0.000000e+00 -0.000000e+00
      outer loop
         vertex 4.000000e+01 -7.075000e+01 -3.799038e+00
         vertex 4.000000e+01 -6.973952e+01 -3.977212e+00
         vertex 4.000000e+01 -6.750000e+01 -5.000000e+00
      endloop
   endfacet
   facet normal -1.000000e+00 0.000000e+00 0.000000e+00
      outer loop
         vertex 4.000000e+01 -6.750000e+01 -5.000000e+00
         vertex 4.000000e+01 -6.885094e+01 -3.464181e+00
         vertex 4.000000e+01 -6.750000e+01 4.884981e-15
      endloop
   endfacet
   facet normal -1.000000e+00 0.000000e+00 -0.000000e+00
      outer loop
         vertex 4.000000e+01 -6.885094e+01 -3.464181e+00
         vertex 4.000000e+01 -6.850000e+01 -2.500000e+00
         vertex 4.000000e+01 -6.750000e+01 4.884981e-15
      endloop
   endfacet
   facet normal -1.000000e+00 0.000000e+00 0.000000e+00
      outer loop
         vertex 4.000000e+01 -6.750000e+01 4.884981e-15
         vertex 4.000000e+01 -6.973952e+01 -1.022788e+00
         vertex 4.000000e+01 -7.250000e+01 4.871375e-15
      endloop
   endfacet
   facet normal -1.000000e+00 0.000000e+00 0.000000e+00
      outer loop
         vertex 4.000000e+01 -6.973952e+01 -1.022788e+00
         vertex 4.000000e+01 -7.075000e+01 -1.200962e+00
         vertex 4.000000e+01 -7.250000e+01 4.871375e-15
      endloop
   endfacet
   facet normal -1.000000e+00 0.000000e+00 0.000000e+00
      outer loop
         vertex 4.000000e+01 -6.973952e+01 -1.022788e+00
         vertex 4.000000e+01 -6.750000e+01 4.884981e-15
         vertex 4.000000e+01 -6.885094e+01 -1.535819e+00
      endloop
   endfacet
   facet normal -1.000000e+00 0.000000e+00 0.000000e+00
      outer loop
         vertex 4.000000e+01 -6.885094e+01 -1.535819e+00
         vertex 4.000000e+01 -6.750000e+01 4.884981e-15
         vertex 4.000000e+01 -6.850000e+01 -2.500000e+00
      endloop
   endfacet
   facet normal -1.000000e+00 0.000000e+00 0.000000e+00
      outer loop
         vertex 4.000000e+01 -6.885094e+01 -3.464181e+00
         vertex 4.000000e+01 -6.750000e+01 -5.000000e+00
         vertex 4.000000e+01 -6.973952e+01 -3.977212e+00
      endloop
   endfacet
   facet normal -1.000000e+00 0.000000e+00 0.000000e+00
      outer loop
         vertex 4.000000e+01 -7.075000e+01 -3.799038e+00
         vertex 4.000000e+01 -7.250000e+01 -5.000000e+00
         vertex 4.000000e+01 -7.140954e+01 -3.013030e+00
      endloop
   endfacet
   facet normal -1.000000e+00 0.000000e+00 0.000000e+00
      outer loop
         vertex 4.000000e+01 -7.140954e+01 -1.986970e+00
         vertex 4.000000e+01 -7.250000e+01 4.871375e-15
         vertex 4.000000e+01 -7.075000e+01 -1.200962e+00
      endloop
   endfacet
   facet normal -1.000000e+00 0.000000e+00 -0.000000e+00
      outer loop
         vertex -4.500000e+01 -7.250000e+01 -5.000000e+00
         vertex -4.500000e+01 -6.973952e+01 -3.977212e+00
         vertex -4.500000e+01 7.250000e+01 -5.000000e+00
      endloop
   endfacet
   facet normal -1.000000e+00 0.000000e+00 -0.000000e+00
      outer loop
         vertex -4.500000e+01 -6.973952e+01 -3.977212e+00
         vertex -4.500000e+01 -6.885094e+01 -3.464181e+00
         vertex -4.500000e+01 7.250000e+01 -5.000000e+00
      endloop
   endfacet
   facet normal -1.000000e+00 0.000000e+00 0.000000e+00
      outer loop
         vertex -4.500000e+01 7.250000e+01 -5.000000e+00
         vertex -4.500000e+01 7.114906e+01 -3.464181e+00
         vertex -4.500000e+01 7.250000e+01 -5.510911e-15
      endloop
   endfacet
   facet normal -1.000000e+00 0.000000e+00 -0.000000e+00
      outer loop
         vertex -4.500000e+01 7.114906e+01 -3.464181e+00
         vertex -4.500000e+01 7.150000e+01 -2.500000e+00
         vertex -4.500000e+01 7.250000e+01 -5.510911e-15
      endloop
   endfacet
   facet normal -1.000000e+00 0.000000e+00 0.000000e+00
      outer loop
         vertex -4.500000e+01 7.250000e+01 -5.510911e-15
         vertex -4.500000e+01 7.026048e+01 -1.022788e+00
         vertex -4.500000e+01 -7.250000e+01 -5.147230e-15
      endloop
   endfacet
   facet normal -1.000000e+00 0.000000e+00 0.000000e+00
      outer loop
         vertex -4.500000e+01 7.026048e+01 -1.022788e+00
         vertex -4.500000e+01 6.925000e+01 -1.200962e+00
         vertex -4.500000e+01 -7.250000e+01 -5.147230e-15
      endloop
   endfacet
   facet normal -1.000000e+00 -0.000000e+00 0.000000e+00
      outer loop
         vertex -4.500000e+01 -7.250000e+01 -5.147230e-15
         vertex -4.500000e+01 -7.140954e+01 -1.986970e+00
         vertex -4.500000e+01 -7.250000e+01 -5.000000e+00
      endloop
   endfacet
   facet normal -1.000000e+00 -0.000000e+00 0.000000e+00
      outer loop
         vertex -4.500000e+01 -7.140954e+01 -1.986970e+00
         vertex -4.500000e+01 -7.140954e+01 -3.013030e+00
         vertex -4.500000e+01 -7.250000e+01 -5.000000e+00
      endloop
   endfacet
   facet normal -1.000000e+00 0.000000e+00 -0.000000e+00
      outer loop
         vertex -4.500000e+01 -7.250000e+01 -5.000000e+00
         vertex -4.500000e+01 -7.075000e+01 -3.799038e+00
         vertex -4.500000e+01 -6.973952e+01 -3.977212e+00
      endloop
   endfacet
   facet normal -1.000000e+00 0.000000e+00 0.000000e+00
      outer loop
         vertex -4.500000e+01 -7.075000e+01 -3.799038e+00
         vertex -4.500000e+01 -7.250000e+01 -5.000000e+00
         vertex -4.500000e+01 -7.140954e+01 -3.013030e+00
      endloop
   endfacet
   facet normal -1.000000e+00 0.000000e+00 0.000000e+00
      outer loop
         vertex -4.500000e+01 -7.140954e+01 -1.986970e+00
         vertex -4.500000e+01 -7.250000e+01 -5.147230e-15
         vertex -4.500000e+01 -7.075000e+01 -1.200962e+00
      endloop
   endfacet
   facet normal -1.000000e+00 -0.000000e+00 0.000000e+00
      outer loop
         vertex -4.500000e+01 -7.250000e+01 -5.147230e-15
         vertex -4.500000e+01 -6.973952e+01 -1.022788e+00
         vertex -4.500000e+01 -7.075000e+01 -1.200962e+00
      endloop
   endfacet
   facet normal -1.000000e+00 0.000000e+00 0.000000e+00
      outer loop
         vertex -4.500000e+01 -7.250000e+01 -5.147230e-15
         vertex -4.500000e+01 6.925000e+01 -1.200962e+00
         vertex -4.500000e+01 -6.973952e+01 -1.022788e+00
      endloop
   endfacet
   facet normal -1.000000e+00 0.000000e+00 0.000000e+00
      outer loop
         vertex -4.500000e+01 6.925000e+01 -1.200962e+00
         vertex -4.500000e+01 6.859046e+01 -1.986970e+00
         vertex -4.500000e+01 -6.973952e+01 -1.022788e+00
      endloop
   endfacet
   facet normal -1.000000e+00 0.000000e+00 0.000000e+00
      outer loop
         vertex -4.500000e+01 -6.973952e+01 -1.022788e+00
         vertex -4.500000e+01 6.859046e+01 -1.986970e+00
         vertex -4.500000e+01 -6.885094e+01 -1.535819e+00
      endloop
   endfacet
   facet normal -1.000000e+00 0.000000e+00 0.000000e+00
      outer loop
         vertex -4.500000e+01 6.859046e+01 -1.986970e+00
         vertex -4.500000e+01 6.859046e+01 -3.013030e+00
         vertex -4.500000e+01 -6.885094e+01 -1.535819e+00
      endloop
   endfacet
   facet normal -1.000000e+00 0.000000e+00 0.000000e+00
      outer loop
         vertex -4.500000e+01 -6.885094e+01 -1.535819e+00
         vertex -4.500000e+01 6.859046e+01 -3.013030e+00
         vertex -4.500000e+01 -6.850000e+01 -2.500000e+00
      endloop
   endfacet
   facet normal -1.000000e+00 0.000000e+00 0.000000e+00
      outer loop
         vertex -4.500000e+01 6.859046e+01 -3.013030e+00
         vertex -4.500000e+01 6.925000e+01 -3.799038e+00
         vertex -4.500000e+01 -6.850000e+01 -2.500000e+00
      endloop
   endfacet
   facet normal -1.000000e+00 0.000000e+00 0.000000e+00
      outer loop
         vertex -4.500000e+01 -6.850000e+01 -2.500000e+00
         vertex -4.500000e+01 6.925000e+01 -3.799038e+00
         vertex -4.500000e+01 -6.885094e+01 -3.464181e+00
      endloop
   endfacet
   facet normal -1.000000e+00 0.000000e+00 0.000000e+00
      outer loop
         vertex -4.500000e+01 6.925000e+01 -3.799038e+00
         vertex -4.500000e+01 7.026048e+01 -3.977212e+00
         vertex -4.500000e+01 -6.885094e+01 -3.464181e+00
      endloop
   endfacet
   facet normal -1.000000e+00 -0.000000e+00 -0.000000e+00
      outer loop
         vertex -4.500000e+01 -6.885094e+01 -3.464181e+00
         vertex -4.500000e+01 7.026048e+01 -3.977212e+00
         vertex -4.500000e+01 7.250000e+01 -5.000000e+00
      endloop
   endfacet
   facet normal -1.000000e+00 0.000000e+00 0.000000e+00
      outer loop
         vertex -4.500000e+01 7.114906e+01 -3.464181e+00
         vertex -4.500000e+01 7.250000e+01 -5.000000e+00
         vertex -4.500000e+01 7.026048e+01 -3.977212e+00
      endloop
   endfacet
   facet normal -1.000000e+00 0.000000e+00 0.000000e+00
      outer loop
         vertex -4.500000e+01 7.026048e+01 -1.022788e+00
         vertex -4.500000e+01 7.250000e+01 -5.510911e-15
         vertex -4.500000e+01 7.114906e+01 -1.535819e+00
      endloop
   endfacet
   facet normal -1.000000e+00 0.000000e+00 0.000000e+00
      outer loop
         vertex -4.500000e+01 7.250000e+01 -5.510911e-15
         vertex -4.500000e+01 7.150000e+01 -2.500000e+00
         vertex -4.500000e+01 7.114906e+01 -1.535819e+00
      endloop
   endfacet
   facet normal 1.000000e+00 0.000000e+00 0.000000e+00
      outer loop
         vertex 4.500000e+01 7.250000e+01 -5.000000e+00
         vertex 4.500000e+01 7.026048e+01 -3.977212e+00
         vertex 4.500000e+01 -7.250000e+01 -5.000000e+00
      endloop
   endfacet
   facet normal 1.000000e+00 0.000000e+00 0.000000e+00
      outer loop
         vertex 4.500000e+01 7.026048e+01 -3.977212e+00
         vertex 4.500000e+01 6.925000e+01 -3.799038e+00
         vertex 4.500000e+01 -7.250000e+01 -5.000000e+00
      endloop
   endfacet
   facet normal 1.000000e+00 0.000000e+00 0.000000e+00
      outer loop
         vertex 4.500000e+01 -7.250000e+01 -5.000000e+00
         vertex 4.500000e+01 -7.140954e+01 -3.013030e+00
         vertex 4.500000e+01 -7.250000e+01 4.259052e-15
      endloop
   endfacet
   facet normal 1.000000e+00 0.000000e+00 0.000000e+00
      outer loop
         vertex 4.500000e+01 -7.140954e+01 -3.013030e+00
         vertex 4.500000e+01 -7.140954e+01 -1.986970e+00
         vertex 4.500000e+01 -7.250000e+01 4.259052e-15
      endloop
   endfacet
   facet normal 1.000000e+00 0.000000e+00 -0.000000e+00
      outer loop
         vertex 4.500000e+01 -7.250000e+01 4.259052e-15
         vertex 4.500000e+01 -6.973952e+01 -1.022788e+00
         vertex 4.500000e+01 7.250000e+01 5.510911e-15
      endloop
   endfacet
   facet normal 1.000000e+00 0.000000e+00 -0.000000e+00
      outer loop
         vertex 4.500000e+01 -6.973952e+01 -1.022788e+00
         vertex 4.500000e+01 -6.885094e+01 -1.535819e+00
         vertex 4.500000e+01 7.250000e+01 5.510911e-15
      endloop
   endfacet
   facet normal 1.000000e+00 -0.000000e+00 0.000000e+00
      outer loop
         vertex 4.500000e+01 7.250000e+01 5.510911e-15
         vertex 4.500000e+01 7.114906e+01 -1.535819e+00
         vertex 4.500000e+01 7.250000e+01 -5.000000e+00
      endloop
   endfacet
   facet normal 1.000000e+00 -0.000000e+00 -0.000000e+00
      outer loop
         vertex 4.500000e+01 7.114906e+01 -1.535819e+00
         vertex 4.500000e+01 7.150000e+01 -2.500000e+00
         vertex 4.500000e+01 7.250000e+01 -5.000000e+00
      endloop
   endfacet
   facet normal 1.000000e+00 0.000000e+00 0.000000e+00
      outer loop
         vertex 4.500000e+01 7.250000e+01 -5.000000e+00
         vertex 4.500000e+01 7.114906e+01 -3.464181e+00
         vertex 4.500000e+01 7.026048e+01 -3.977212e+00
      endloop
   endfacet
   facet normal 1.000000e+00 0.000000e+00 0.000000e+00
      outer loop
         vertex 4.500000e+01 7.114906e+01 -3.464181e+00
         vertex 4.500000e+01 7.250000e+01 -5.000000e+00
         vertex 4.500000e+01 7.150000e+01 -2.500000e+00
      endloop
   endfacet
   facet normal 1.000000e+00 0.000000e+00 0.000000e+00
      outer loop
         vertex 4.500000e+01 7.114906e+01 -1.535819e+00
         vertex 4.500000e+01 7.250000e+01 5.510911e-15
         vertex 4.500000e+01 7.026048e+01 -1.022788e+00
      endloop
   endfacet
   facet normal 1.000000e+00 0.000000e+00 0.000000e+00
      outer loop
         vertex 4.500000e+01 7.026048e+01 -1.022788e+00
         vertex 4.500000e+01 7.250000e+01 5.510911e-15
         vertex 4.500000e+01 6.925000e+01 -1.200962e+00
      endloop
   endfacet
   facet normal 1.000000e+00 0.000000e+00 0.000000e+00
      outer loop
         vertex 4.500000e+01 7.250000e+01 5.510911e-15
         vertex 4.500000e+01 -6.885094e+01 -1.535819e+00
         vertex 4.500000e+01 6.925000e+01 -1.200962e+00
      endloop
   endfacet
   facet normal 1.000000e+00 -0.000000e+00 0.000000e+00
      outer loop
         vertex 4.500000e+01 6.925000e+01 -1.200962e+00
         vertex 4.500000e+01 -6.885094e+01 -1.535819e+00
         vertex 4.500000e+01 6.859046e+01 -1.986970e+00
      endloop
   endfacet
   facet normal 1.000000e+00 0.000000e+00 -0.000000e+00
      outer loop
         vertex 4.500000e+01 -6.885094e+01 -1.535819e+00
         vertex 4.500000e+01 -6.850000e+01 -2.500000e+00
         vertex 4.500000e+01 6.859046e+01 -1.986970e+00
      endloop
   endfacet
   facet normal 1.000000e+00 -0.000000e+00 0.000000e+00
      outer loop
         vertex 4.500000e+01 6.859046e+01 -1.986970e+00
         vertex 4.500000e+01 -6.850000e+01 -2.500000e+00
         vertex 4.500000e+01 6.859046e+01 -3.013030e+00
      endloop
   endfacet
   facet normal 1.000000e+00 0.000000e+00 0.000000e+00
      outer loop
         vertex 4.500000e+01 -6.850000e+01 -2.500000e+00
         vertex 4.500000e+01 -6.885094e+01 -3.464181e+00
         vertex 4.500000e+01 6.859046e+01 -3.013030e+00
      endloop
   endfacet
   facet normal 1.000000e+00 -0.000000e+00 0.000000e+00
      outer loop
         vertex 4.500000e+01 6.859046e+01 -3.013030e+00
         vertex 4.500000e+01 -6.885094e+01 -3.464181e+00
         vertex 4.500000e+01 6.925000e+01 -3.799038e+00
      endloop
   endfacet
   facet normal 1.000000e+00 0.000000e+00 0.000000e+00
      outer loop
         vertex 4.500000e+01 -6.885094e+01 -3.464181e+00
         vertex 4.500000e+01 -6.973952e+01 -3.977212e+00
         vertex 4.500000e+01 6.925000e+01 -3.799038e+00
      endloop
   endfacet
   facet normal 1.000000e+00 -0.000000e+00 0.000000e+00
      outer loop
         vertex 4.500000e+01 6.925000e+01 -3.799038e+00
         vertex 4.500000e+01 -6.973952e+01 -3.977212e+00
         vertex 4.500000e+01 -7.250000e+01 -5.000000e+00
      endloop
   endfacet
   facet normal 1.000000e+00 0.000000e+00 0.000000e+00
      outer loop
         vertex 4.500000e+01 -7.140954e+01 -3.013030e+00
         vertex 4.500000e+01 -7.250000e+01 -5.000000e+00
         vertex 4.500000e+01 -7.075000e+01 -3.799038e+00
      endloop
   endfacet
   facet normal 1.000000e+00 0.000000e+00 0.000000e+00
      outer loop
         vertex 4.500000e+01 -7.250000e+01 -5.000000e+00
         vertex 4.500000e+01 -6.973952e+01 -3.977212e+00
         vertex 4.500000e+01 -7.075000e+01 -3.799038e+00
      endloop
   endfacet
   facet normal 1.000000e+00 0.000000e+00 0.000000e+00
      outer loop
         vertex 4.500000e+01 -6.973952e+01 -1.022788e+00
         vertex 4.500000e+01 -7.250000e+01 4.259052e-15
         vertex 4.500000e+01 -7.075000e+01 -1.200962e+00
      endloop
   endfacet
   facet normal 1.000000e+00 0.000000e+00 -0.000000e+00
      outer loop
         vertex 4.500000e+01 -7.250000e+01 4.259052e-15
         vertex 4.500000e+01 -7.140954e+01 -1.986970e+00
         vertex 4.500000e+01 -7.075000e+01 -1.200962e+00
      endloop
   endfacet
   facet normal 0.000000e+00 -9.396915e-01 3.420232e-01
      outer loop
         vertex 4.000000e+01 -6.885094e+01 -3.464181e+00
         vertex 4.500000e+01 -6.885094e+01 -3.464181e+00
         vertex 4.500000e+01 -6.850000e+01 -2.500000e+00
      endloop
   endfacet
   facet normal 0.000000e+00 -9.396915e-01 3.420232e-01
      outer loop
         vertex 4.000000e+01 -6.850000e+01 -2.500000e+00
         vertex 4.000000e+01 -6.885094e+01 -3.464181e+00
         vertex 4.500000e+01 -6.850000e+01 -2.500000e+00
      endloop
   endfacet
   facet normal 0.000000e+00 -5.000028e-01 8.660238e-01
      outer loop
         vertex 4.000000e+01 -6.973952e+01 -3.977212e+00
         vertex 4.500000e+01 -6.973952e+01 -3.977212e+00
         vertex 4.500000e+01 -6.885094e+01 -3.464181e+00
      endloop
   endfacet
   facet normal 0.000000e+00 -5.000028e-01 8.660238e-01
      outer loop
         vertex 4.000000e+01 -6.885094e+01 -3.464181e+00
         vertex 4.000000e+01 -6.973952e+01 -3.977212e+00
         vertex 4.500000e+01 -6.885094e+01 -3.464181e+00
      endloop
   endfacet
   facet normal 0.000000e+00 1.736477e-01 9.848078e-01
      outer loop
         vertex 4.000000e+01 -7.075000e+01 -3.799038e+00
         vertex 4.500000e+01 -7.075000e+01 -3.799038e+00
         vertex 4.500000e+01 -6.973952e+01 -3.977212e+00
      endloop
   endfacet
   facet normal 0.000000e+00 1.736477e-01 9.848078e-01
      outer loop
         vertex 4.000000e+01 -6.973952e+01 -3.977212e+00
         vertex 4.000000e+01 -7.075000e+01 -3.799038e+00
         vertex 4.500000e+01 -6.973952e+01 -3.977212e+00
      endloop
   endfacet
   facet normal 0.000000e+00 7.660448e-01 6.427872e-01
      outer loop
         vertex 4.000000e+01 -7.140954e+01 -3.013030e+00
         vertex 4.500000e+01 -7.140954e+01 -3.013030e+00
         vertex 4.500000e+01 -7.075000e+01 -3.799038e+00
      endloop
   endfacet
   facet normal 0.000000e+00 7.660448e-01 6.427872e-01
      outer loop
         vertex 4.000000e+01 -7.075000e+01 -3.799038e+00
         vertex 4.000000e+01 -7.140954e+01 -3.013030e+00
         vertex 4.500000e+01 -7.075000e+01 -3.799038e+00
      endloop
   endfacet
   facet normal 0.000000e+00 1.000000e+00 0.000000e+00
      outer loop
         vertex 4.000000e+01 -7.140954e+01 -1.986970e+00
         vertex 4.500000e+01 -7.140954e+01 -1.986970e+00
         vertex 4.500000e+01 -7.140954e+01 -3.013030e+00
      endloop
   endfacet
   facet normal 0.000000e+00 1.000000e+00 0.000000e+00
      outer loop
         vertex 4.000000e+01 -7.140954e+01 -3.013030e+00
         vertex 4.000000e+01 -7.140954e+01 -1.986970e+00
         vertex 4.500000e+01 -7.140954e+01 -3.013030e+00
      endloop
   endfacet
   facet normal 0.000000e+00 7.660448e-01 -6.427872e-01
      outer loop
         vertex 4.000000e+01 -7.075000e+01 -1.200962e+00
         vertex 4.500000e+01 -7.075000e+01 -1.200962e+00
         vertex 4.500000e+01 -7.140954e+01 -1.986970e+00
      endloop
   endfacet
   facet normal 0.000000e+00 7.660448e-01 -6.427872e-01
      outer loop
         vertex 4.000000e+01 -7.140954e+01 -1.986970e+00
         vertex 4.000000e+01 -7.075000e+01 -1.200962e+00
         vertex 4.500000e+01 -7.140954e+01 -1.986970e+00
      endloop
   endfacet
   facet normal 0.000000e+00 1.736477e-01 -9.848078e-01
      outer loop
         vertex 4.000000e+01 -6.973952e+01 -1.022788e+00
         vertex 4.500000e+01 -6.973952e+01 -1.022788e+00
         vertex 4.500000e+01 -7.075000e+01 -1.200962e+00
      endloop
   endfacet
   facet normal 0.000000e+00 1.736477e-01 -9.848078e-01
      outer loop
         vertex 4.000000e+01 -7.075000e+01 -1.200962e+00
         vertex 4.000000e+01 -6.973952e+01 -1.022788e+00
         vertex 4.500000e+01 -7.075000e+01 -1.200962e+00
      endloop
   endfacet
   facet normal -0.000000e+00 -5.000027e-01 -8.660239e-01
      outer loop
         vertex 4.000000e+01 -6.885094e+01 -1.535819e+00
         vertex 4.500000e+01 -6.885094e+01 -1.535819e+00
         vertex 4.500000e+01 -6.973952e+01 -1.022788e+00
      endloop
   endfacet
   facet normal 0.000000e+00 -5.000027e-01 -8.660239e-01
      outer loop
         vertex 4.000000e+01 -6.973952e+01 -1.022788e+00
         vertex 4.000000e+01 -6.885094e+01 -1.535819e+00
         vertex 4.500000e+01 -6.973952e+01 -1.022788e+00
      endloop
   endfacet
   facet normal -0.000000e+00 -9.396915e-01 -3.420232e-01
      outer loop
         vertex 4.000000e+01 -6.850000e+01 -2.500000e+00
         vertex 4.500000e+01 -6.850000e+01 -2.500000e+00
         vertex 4.500000e+01 -6.885094e+01 -1.535819e+00
      endloop
   endfacet
   facet normal 0.000000e+00 -9.396915e-01 -3.420232e-01
      outer loop
         vertex 4.000000e+01 -6.885094e+01 -1.535819e+00
         vertex 4.000000e+01 -6.850000e+01 -2.500000e+00
         vertex 4.500000e+01 -6.885094e+01 -1.535819e+00
      endloop
   endfacet
   facet normal 0.000000e+00 -9.396915e-01 3.420232e-01
      outer loop
         vertex -4.500000e+01 -6.885094e+01 -3.464181e+00
         vertex -4.000000e+01 -6.885094e+01 -3.464181e+00
         vertex -4.000000e+01 -6.850000e+01 -2.500000e+00
      endloop
   endfacet
   facet normal 0.000000e+00 -9.396915e-01 3.420232e-01
      outer loop
         vertex -4.500000e+01 -6.850000e+01 -2.500000e+00
         vertex -4.500000e+01 -6.885094e+01 -3.464181e+00
         vertex -4.000000e+01 -6.850000e+01 -2.500000e+00
      endloop
   endfacet
   facet normal 0.000000e+00 -5.000028e-01 8.660238e-01
      outer loop
         vertex -4.500000e+01 -6.973952e+01 -3.977212e+00
         vertex -4.000000e+01 -6.973952e+01 -3.977212e+00
         vertex -4.000000e+01 -6.885094e+01 -3.464181e+00
      endloop
   endfacet
   facet normal 0.000000e+00 -5.000028e-01 8.660238e-01
      outer loop
         vertex -4.500000e+01 -6.885094e+01 -3.464181e+00
         vertex -4.500000e+01 -6.973952e+01 -3.977212e+00
         vertex -4.000000e+01 -6.885094e+01 -3.464181e+00
      endloop
   endfacet
   facet normal 0.000000e+00 1.736477e-01 9.848078e-01
      outer loop
         vertex -4.500000e+01 -7.075000e+01 -3.799038e+00
         vertex -4.000000e+01 -7.075000e+01 -3.799038e+00
         vertex -4.000000e+01 -6.973952e+01 -3.977212e+00
      endloop
   endfacet
   facet normal 0.000000e+00 1.736477e-01 9.848078e-01
      outer loop
         vertex -4.500000e+01 -6.973952e+01 -3.977212e+00
         vertex -4.500000e+01 -7.075000e+01 -3.799038e+00
         vertex -4.000000e+01 -6.973952e+01 -3.977212e+00
      endloop
   endfacet
   facet normal 0.000000e+00 7.660448e-01 6.427872e-01
      outer loop
         vertex -4.500000e+01 -7.140954e+01 -3.013030e+00
         vertex -4.000000e+01 -7.140954e+01 -3.013030e+00
         vertex -4.000000e+01 -7.075000e+01 -3.799038e+00
      endloop
   endfacet
   facet normal 0.000000e+00 7.660448e-01 6.427872e-01
      outer loop
         vertex -4.500000e+01 -7.075000e+01 -3.799038e+00
         vertex -4.500000e+01 -7.140954e+01 -3.013030e+00
         vertex -4.000000e+01 -7.075000e+01 -3.799038e+00
      endloop
   endfacet
   facet normal 0.000000e+00 1.000000e+00 0.000000e+00
      outer loop
         vertex -4.500000e+01 -7.140954e+01 -1.986970e+00
         vertex -4.000000e+01 -7.140954e+01 -1.986970e+00
         vertex -4.000000e+01 -7.140954e+01 -3.013030e+00
      endloop
   endfacet
   facet normal 0.000000e+00 1.000000e+00 0.000000e+00
      outer loop
         vertex -4.500000e+01 -7.140954e+01 -3.013030e+00
         vertex -4.500000e+01 -7.140954e+01 -1.986970e+00
         vertex -4.000000e+01 -7.140954e+01 -3.013030e+00
      endloop
   endfacet
   facet normal 0.000000e+00 7.660448e-01 -6.427872e-01
      outer loop
         vertex -4.500000e+01 -7.075000e+01 -1.200962e+00
         vertex -4.000000e+01 -7.075000e+01 -1.200962e+00
         vertex -4.000000e+01 -7.140954e+01 -1.986970e+00
      endloop
   endfacet
   facet normal 0.000000e+00 7.660448e-01 -6.427872e-01
      outer loop
         vertex -4.500000e+01 -7.140954e+01 -1.986970e+00
         vertex -4.500000e+01 -7.075000e+01 -1.200962e+00
         vertex -4.000000e+01 -7.140954e+01 -1.986970e+00
      endloop
   endfacet
   facet normal 0.000000e+00 1.736477e-01 -9.848078e-01
      outer loop
         vertex -4.500000e+01 -6.973952e+01 -1.022788e+00
         vertex -4.000000e+01 -6.973952e+01 -1.022788e+00
         vertex -4.000000e+01 -7.075000e+01 -1.200962e+00
      endloop
   endfacet
   facet normal 0.000000e+00 1.736477e-01 -9.848078e-01
      outer loop
         vertex -4.500000e+01 -7.075000e+01 -1.200962e+00
         vertex -4.500000e+01 -6.973952e+01 -1.022788e+00
         vertex -4.000000e+01 -7.075000e+01 -1.200962e+00
      endloop
   endfacet
   facet normal -0.000000e+00 -5.000027e-01 -8.660239e-01
      outer loop
         vertex -4.500000e+01 -6.885094e+01 -1.535819e+00
         vertex -4.000000e+01 -6.885094e+01 -1.535819e+00
         vertex -4.000000e+01 -6.973952e+01 -1.022788e+00
      endloop
   endfacet
   facet normal 0.000000e+00 -5.000027e-01 -8.660239e-01
      outer loop
         vertex -4.500000e+01 -6.973952e+01 -1.022788e+00
         vertex -4.500000e+01 -6.885094e+01 -1.535819e+00
         vertex -4.000000e+01 -6.973952e+01 -1.022788e+00
      endloop
   endfacet
   facet normal -0.000000e+00 -9.396915e-01 -3.420232e-01
      outer loop
         vertex -4.500000e+01 -6.850000e+01 -2.500000e+00
         vertex -4.000000e+01 -6.850000e+01 -2.500000e+00
         vertex -4.000000e+01 -6.885094e+01 -1.535819e+00
      endloop
   endfacet
   facet normal 0.000000e+00 -9.396915e-01 -3.420232e-01
      outer loop
         vertex -4.500000e+01 -6.885094e+01 -1.535819e+00
         vertex -4.500000e+01 -6.850000e+01 -2.500000e+00
         vertex -4.000000e+01 -6.885094e+01 -1.535819e+00
      endloop
   endfacet
   facet normal 0.000000e+00 -1.000000e+00 0.000000e+00
      outer loop
         vertex 4.000000e+01 -6.750000e+01 4.898587e-15
         vertex -4.000000e+01 -6.750000e+01 -5.342676e-15
         vertex -4.000000e+01 -6.750000e+01 -5.000000e+00
      endloop
   endfacet
   facet normal 0.000000e+00 -1.000000e+00 0.000000e+00
      outer loop
         vertex 4.000000e+01 -6.750000e+01 4.898587e-15
         vertex -4.000000e+01 -6.750000e+01 -5.000000e+00
         vertex 4.000000e+01 -6.750000e+01 -5.000000e+00
      endloop
   endfacet
   facet normal 1.224647e-16 -1.286915e-16 1.000000e+00
      outer loop
         vertex -4.000000e+01 -7.250000e+01 -5.759554e-15
         vertex -4.000000e+01 -6.750000e+01 -5.116096e-15
         vertex -4.500000e+01 -7.250000e+01 -5.147230e-15
      endloop
   endfacet
   facet normal 1.224647e-16 -2.721178e-18 1.000000e+00
      outer loop
         vertex 4.000000e+01 -7.250000e+01 4.871375e-15
         vertex 4.500000e+01 -7.250000e+01 4.259052e-15
         vertex 4.000000e+01 -6.750000e+01 4.884981e-15
      endloop
   endfacet
   facet normal 1.165524e-16 -8.633509e-18 1.000000e+00
      outer loop
         vertex 4.500000e+01 -7.250000e+01 4.259052e-15
         vertex 4.500000e+01 7.250000e+01 5.510911e-15
         vertex 4.000000e+01 -6.750000e+01 4.884981e-15
      endloop
   endfacet
   facet normal -9.260208e-17 -1.163707e-18 1.000000e+00
      outer loop
         vertex 4.500000e+01 7.250000e+01 5.510911e-15
         vertex 4.000000e+01 6.750000e+01 5.042082e-15
         vertex 4.000000e+01 -6.750000e+01 4.884981e-15
      endloop
   endfacet
   facet normal -1.250135e-16 -1.163707e-18 1.000000e+00
      outer loop
         vertex 4.000000e+01 -6.750000e+01 4.884981e-15
         vertex 4.000000e+01 6.750000e+01 5.042082e-15
         vertex -4.000000e+01 -6.750000e+01 -5.116096e-15
      endloop
   endfacet
   facet normal -1.282941e-16 7.803934e-19 1.000000e+00
      outer loop
         vertex 4.000000e+01 6.750000e+01 5.042082e-15
         vertex -4.000000e+01 6.750000e+01 -5.221449e-15
         vertex -4.000000e+01 -6.750000e+01 -5.116096e-15
      endloop
   endfacet
   facet normal -7.007187e-18 7.803934e-19 1.000000e+00
      outer loop
         vertex -4.000000e+01 -6.750000e+01 -5.116096e-15
         vertex -4.000000e+01 6.750000e+01 -5.221449e-15
         vertex -4.500000e+01 -7.250000e+01 -5.147230e-15
      endloop
   endfacet
   facet normal -1.793187e-15 6.457254e-17 1.000000e+00
      outer loop
         vertex -4.000000e+01 6.750000e+01 -5.221449e-15
         vertex -4.000000e+01 7.250000e+01 -5.544312e-15
         vertex -4.500000e+01 -7.250000e+01 -5.147230e-15
      endloop
   endfacet
   facet normal 6.680295e-18 2.508140e-18 1.000000e+00
      outer loop
         vertex -4.500000e+01 -7.250000e+01 -5.147230e-15
         vertex -4.000000e+01 7.250000e+01 -5.544312e-15
         vertex -4.500000e+01 7.250000e+01 -5.510911e-15
      endloop
   endfacet
   facet normal 6.680295e-18 -1.004461e-16 1.000000e+00
      outer loop
         vertex 4.000000e+01 6.750000e+01 5.042082e-15
         vertex 4.500000e+01 7.250000e+01 5.510911e-15
         vertex 4.000000e+01 7.250000e+01 5.544312e-15
      endloop
   endfacet
   facet normal 0.000000e+00 -1.000000e+00 0.000000e+00
      outer loop
         vertex -4.500000e+01 -7.250000e+01 -5.000000e+00
         vertex -4.000000e+01 -7.250000e+01 -5.000000e+00
         vertex -4.000000e+01 -7.250000e+01 -5.759554e-15
      endloop
   endfacet
   facet normal -0.000000e+00 -1.000000e+00 0.000000e+00
      outer loop
         vertex -4.500000e+01 -7.250000e+01 -5.000000e+00
         vertex -4.000000e+01 -7.250000e+01 -5.759554e-15
         vertex -4.500000e+01 -7.250000e+01 -5.147230e-15
      endloop
   endfacet
   facet normal 0.000000e+00 0.000000e+00 -1.000000e+00
      outer loop
         vertex -4.000000e+01 -7.250000e+01 -5.000000e+00
         vertex -4.500000e+01 -7.250000e+01 -5.000000e+00
         vertex -4.000000e+01 -6.750000e+01 -5.000000e+00
      endloop
   endfacet
   facet normal 0.000000e+00 0.000000e+00 -1.000000e+00
      outer loop
         vertex -4.500000e+01 -7.250000e+01 -5.000000e+00
         vertex -4.500000e+01 7.250000e+01 -5.000000e+00
         vertex -4.000000e+01 -6.750000e+01 -5.000000e+00
      endloop
   endfacet
   facet normal 0.000000e+00 0.000000e+00 -1.000000e+00
      outer loop
         vertex -4.000000e+01 -6.750000e+01 -5.000000e+00
         vertex -4.500000e+01 7.250000e+01 -5.000000e+00
         vertex 4.000000e+01 -6.750000e+01 -5.000000e+00
      endloop
   endfacet
   facet normal -0.000000e+00 -0.000000e+00 -1.000000e+00
      outer loop
         vertex -4.500000e+01 7.250000e+01 -5.000000e+00
         vertex -4.000000e+01 6.750000e+01 -5.000000e+00
         vertex 4.000000e+01 -6.750000e+01 -5.000000e+00
      endloop
   endfacet
   facet normal -0.000000e+00 -0.000000e+00 -1.000000e+00
      outer loop
         vertex -4.000000e+01 6.750000e+01 -5.000000e+00
         vertex 4.000000e+01 6.750000e+01 -5.000000e+00
         vertex 4.000000e+01 -6.750000e+01 -5.000000e+00
      endloop
   endfacet
   facet normal -0.000000e+00 0.000000e+00 -1.000000e+00
      outer loop
         vertex 4.000000e+01 7.250000e+01 -5.000000e+00
         vertex 4.500000e+01 7.250000e+01 -5.000000e+00
         vertex 4.000000e+01 6.750000e+01 -5.000000e+00
      endloop
   endfacet
   facet normal 0.000000e+00 0.000000e+00 -1.000000e+00
      outer loop
         vertex 4.000000e+01 6.750000e+01 -5.000000e+00
         vertex 4.500000e+01 7.250000e+01 -5.000000e+00
         vertex 4.000000e+01 -6.750000e+01 -5.000000e+00
      endloop
   endfacet
   facet normal 0.000000e+00 0.000000e+00 -1.000000e+00
      outer loop
         vertex 4.500000e+01 7.250000e+01 -5.000000e+00
         vertex 4.500000e+01 -7.250000e+01 -5.000000e+00
         vertex 4.000000e+01 -6.750000e+01 -5.000000e+00
      endloop
   endfacet
   facet normal 0.000000e+00 0.000000e+00 -1.000000e+00
      outer loop
         vertex 4.000000e+01 -6.750000e+01 -5.000000e+00
         vertex 4.500000e+01 -7.250000e+01 -5.000000e+00
         vertex 4.000000e+01 -7.250000e+01 -5.000000e+00
      endloop
   endfacet
   facet normal 0.000000e+00 0.000000e+00 -1.000000e+00
      outer loop
         vertex -4.000000e+01 6.750000e+01 -5.000000e+00
         vertex -4.500000e+01 7.250000e+01 -5.000000e+00
         vertex -4.000000e+01 7.250000e+01 -5.000000e+00
      endloop
   endfacet
   facet normal 0.000000e+00 -1.000000e+00 0.000000e+00
      outer loop
         vertex 4.000000e+01 -7.250000e+01 4.871375e-15
         vertex 4.000000e+01 -7.250000e+01 -5.000000e+00
         vertex 4.500000e+01 -7.250000e+01 -5.000000e+00
      endloop
   endfacet
   facet normal 0.000000e+00 -1.000000e+00 0.000000e+00
      outer loop
         vertex 4.000000e+01 -7.250000e+01 4.871375e-15
         vertex 4.500000e+01 -7.250000e+01 -5.000000e+00
         vertex 4.500000e+01 -7.250000e+01 4.259052e-15
      endloop
   endfacet
   facet normal 0.000000e+00 1.000000e+00 0.000000e+00
      outer loop
         vertex -4.000000e+01 7.250000e+01 -5.000000e+00
         vertex -4.500000e+01 7.250000e+01 -5.000000e+00
         vertex -4.500000e+01 7.250000e+01 -5.510911e-15
      endloop
   endfacet
   facet normal 0.000000e+00 1.000000e+00 0.000000e+00
      outer loop
         vertex -4.000000e+01 7.250000e+01 -5.000000e+00
         vertex -4.500000e+01 7.250000e+01 -5.510911e-15
         vertex -4.000000e+01 7.250000e+01 -5.544312e-15
      endloop
   endfacet
   facet normal 0.000000e+00 -9.396915e-01 3.420232e-01
      outer loop
         vertex -4.500000e+01 7.114906e+01 -3.464181e+00
         vertex -4.000000e+01 7.114906e+01 -3.464181e+00
         vertex -4.000000e+01 7.150000e+01 -2.500000e+00
      endloop
   endfacet
   facet normal 0.000000e+00 -9.396915e-01 3.420232e-01
      outer loop
         vertex -4.500000e+01 7.150000e+01 -2.500000e+00
         vertex -4.500000e+01 7.114906e+01 -3.464181e+00
         vertex -4.000000e+01 7.150000e+01 -2.500000e+00
      endloop
   endfacet
   facet normal 0.000000e+00 -5.000028e-01 8.660238e-01
      outer loop
         vertex -4.500000e+01 7.026048e+01 -3.977212e+00
         vertex -4.000000e+01 7.026048e+01 -3.977212e+00
         vertex -4.000000e+01 7.114906e+01 -3.464181e+00
      endloop
   endfacet
   facet normal 0.000000e+00 -5.000028e-01 8.660238e-01
      outer loop
         vertex -4.500000e+01 7.114906e+01 -3.464181e+00
         vertex -4.500000e+01 7.026048e+01 -3.977212e+00
         vertex -4.000000e+01 7.114906e+01 -3.464181e+00
      endloop
   endfacet
   facet normal 0.000000e+00 1.736477e-01 9.848078e-01
      outer loop
         vertex -4.500000e+01 6.925000e+01 -3.799038e+00
         vertex -4.000000e+01 6.925000e+01 -3.799038e+00
         vertex -4.000000e+01 7.026048e+01 -3.977212e+00
      endloop
   endfacet
   facet normal 0.000000e+00 1.736477e-01 9.848078e-01
      outer loop
         vertex -4.500000e+01 7.026048e+01 -3.977212e+00
         vertex -4.500000e+01 6.925000e+01 -3.799038e+00
         vertex -4.000000e+01 7.026048e+01 -3.977212e+00
      endloop
   endfacet
   facet normal 0.000000e+00 7.660448e-01 6.427872e-01
      outer loop
         vertex -4.500000e+01 6.859046e+01 -3.013030e+00
         vertex -4.000000e+01 6.859046e+01 -3.013030e+00
         vertex -4.000000e+01 6.925000e+01 -3.799038e+00
      endloop
   endfacet
   facet normal 0.000000e+00 7.660448e-01 6.427872e-01
      outer loop
         vertex -4.500000e+01 6.925000e+01 -3.799038e+00
         vertex -4.500000e+01 6.859046e+01 -3.013030e+00
         vertex -4.000000e+01 6.925000e+01 -3.799038e+00
      endloop
   endfacet
   facet normal 0.000000e+00 1.000000e+00 0.000000e+00
      outer loop
         vertex -4.500000e+01 6.859046e+01 -1.986970e+00
         vertex -4.000000e+01 6.859046e+01 -1.986970e+00
         vertex -4.000000e+01 6.859046e+01 -3.013030e+00
      endloop
   endfacet
   facet normal 0.000000e+00 1.000000e+00 0.000000e+00
      outer loop
         vertex -4.500000e+01 6.859046e+01 -3.013030e+00
         vertex -4.500000e+01 6.859046e+01 -1.986970e+00
         vertex -4.000000e+01 6.859046e+01 -3.013030e+00
      endloop
   endfacet
   facet normal 0.000000e+00 7.660448e-01 -6.427872e-01
      outer loop
         vertex -4.500000e+01 6.925000e+01 -1.200962e+00
         vertex -4.000000e+01 6.925000e+01 -1.200962e+00
         vertex -4.000000e+01 6.859046e+01 -1.986970e+00
      endloop
   endfacet
   facet normal 0.000000e+00 7.660448e-01 -6.427872e-01
      outer loop
         vertex -4.500000e+01 6.859046e+01 -1.986970e+00
         vertex -4.500000e+01 6.925000e+01 -1.200962e+00
         vertex -4.000000e+01 6.859046e+01 -1.986970e+00
      endloop
   endfacet
   facet normal 0.000000e+00 1.736477e-01 -9.848078e-01
      outer loop
         vertex -4.500000e+01 7.026048e+01 -1.022788e+00
         vertex -4.000000e+01 7.026048e+01 -1.022788e+00
         vertex -4.000000e+01 6.925000e+01 -1.200962e+00
      endloop
   endfacet
   facet normal 0.000000e+00 1.736477e-01 -9.848078e-01
      outer loop
         vertex -4.500000e+01 6.925000e+01 -1.200962e+00
         vertex -4.500000e+01 7.026048e+01 -1.022788e+00
         vertex -4.000000e+01 6.925000e+01 -1.200962e+00
      endloop
   endfacet
   facet normal -0.000000e+00 -5.000027e-01 -8.660239e-01
      outer loop
         vertex -4.500000e+01 7.114906e+01 -1.535819e+00
         vertex -4.000000e+01 7.114906e+01 -1.535819e+00
         vertex -4.000000e+01 7.026048e+01 -1.022788e+00
      endloop
   endfacet
   facet normal 0.000000e+00 -5.000027e-01 -8.660239e-01
      outer loop
         vertex -4.500000e+01 7.026048e+01 -1.022788e+00
         vertex -4.500000e+01 7.114906e+01 -1.535819e+00
         vertex -4.000000e+01 7.026048e+01 -1.022788e+00
      endloop
   endfacet
   facet normal -0.000000e+00 -9.396915e-01 -3.420232e-01
      outer loop
         vertex -4.500000e+01 7.150000e+01 -2.500000e+00
         vertex -4.000000e+01 7.150000e+01 -2.500000e+00
         vertex -4.000000e+01 7.114906e+01 -1.535819e+00
      endloop
   endfacet
   facet normal 0.000000e+00 -9.396915e-01 -3.420232e-01
      outer loop
         vertex -4.500000e+01 7.114906e+01 -1.535819e+00
         vertex -4.500000e+01 7.150000e+01 -2.500000e+00
         vertex -4.000000e+01 7.114906e+01 -1.535819e+00
      endloop
   endfacet
   facet normal 0.000000e+00 1.000000e+00 -0.000000e+00
      outer loop
         vertex 4.500000e+01 7.250000e+01 5.510911e-15
         vertex 4.500000e+01 7.250000e+01 -5.000000e+00
         vertex 4.000000e+01 7.250000e+01 -5.000000e+00
      endloop
   endfacet
   facet normal 0.000000e+00 1.000000e+00 0.000000e+00
      outer loop
         vertex 4.500000e+01 7.250000e+01 5.510911e-15
         vertex 4.000000e+01 7.250000e+01 -5.000000e+00
         vertex 4.000000e+01 7.250000e+01 5.544312e-15
      endloop
   endfacet
   facet normal 0.000000e+00 -9.396915e-01 3.420232e-01
      outer loop
         vertex 4.000000e+01 7.114906e+01 -3.464181e+00
         vertex 4.500000e+01 7.114906e+01 -3.464181e+00
         vertex 4.500000e+01 7.150000e+01 -2.500000e+00
      endloop
   endfacet
   facet normal 0.000000e+00 -9.396915e-01 3.420232e-01
      outer loop
         vertex 4.000000e+01 7.150000e+01 -2.500000e+00
         vertex 4.000000e+01 7.114906e+01 -3.464181e+00
         vertex 4.500000e+01 7.150000e+01 -2.500000e+00
      endloop
   endfacet
   facet normal 0.000000e+00 -5.000028e-01 8.660238e-01
      outer loop
         vertex 4.000000e+01 7.026048e+01 -3.977212e+00
         vertex 4.500000e+01 7.026048e+01 -3.977212e+00
         vertex 4.500000e+01 7.114906e+01 -3.464181e+00
      endloop
   endfacet
   facet normal 0.000000e+00 -5.000028e-01 8.660238e-01
      outer loop
         vertex 4.000000e+01 7.114906e+01 -3.464181e+00
         vertex 4.000000e+01 7.026048e+01 -3.977212e+00
         vertex 4.500000e+01 7.114906e+01 -3.464181e+00
      endloop
   endfacet
   facet normal 0.000000e+00 1.736477e-01 9.848078e-01
      outer loop
         vertex 4.000000e+01 6.925000e+01 -3.799038e+00
         vertex 4.500000e+01 6.925000e+01 -3.799038e+00
         vertex 4.500000e+01 7.026048e+01 -3.977212e+00
      endloop
   endfacet
   facet normal 0.000000e+00 1.736477e-01 9.848078e-01
      outer loop
         vertex 4.000000e+01 7.026048e+01 -3.977212e+00
         vertex 4.000000e+01 6.925000e+01 -3.799038e+00
         vertex 4.500000e+01 7.026048e+01 -3.977212e+00
      endloop
   endfacet
   facet normal 0.000000e+00 7.660448e-01 6.427872e-01
      outer loop
         vertex 4.000000e+01 6.859046e+01 -3.013030e+00
         vertex 4.500000e+01 6.859046e+01 -3.013030e+00
         vertex 4.500000e+01 6.925000e+01 -3.799038e+00
      endloop
   endfacet
   facet normal 0.000000e+00 7.660448e-01 6.427872e-01
      outer loop
         vertex 4.000000e+01 6.925000e+01 -3.799038e+00
         vertex 4.000000e+01 6.859046e+01 -3.013030e+00
         vertex 4.500000e+01 6.925000e+01 -3.799038e+00
      endloop
   endfacet
   facet normal 0.000000e+00 1.000000e+00 0.000000e+00
      outer loop
         vertex 4.000000e+01 6.859046e+01 -1.986970e+00
         vertex 4.500000e+01 6.859046e+01 -1.986970e+00
         vertex 4.500000e+01 6.859046e+01 -3.013030e+00
      endloop
   endfacet
   facet normal 0.000000e+00 1.000000e+00 0.000000e+00
      outer loop
         vertex 4.000000e+01 6.859046e+01 -3.013030e+00
         vertex 4.000000e+01 6.859046e+01 -1.986970e+00
         vertex 4.500000e+01 6.859046e+01 -3.013030e+00
      endloop
   endfacet
   facet normal 0.000000e+00 7.660448e-01 -6.427872e-01
      outer loop
         vertex 4.000000e+01 6.925000e+01 -1.200962e+00
         vertex 4.500000e+01 6.925000e+01 -1.200962e+00
         vertex 4.500000e+01 6.859046e+01 -1.986970e+00
      endloop
   endfacet
   facet normal 0.000000e+00 7.660448e-01 -6.427872e-01
      outer loop
         vertex 4.000000e+01 6.859046e+01 -1.986970e+00
         vertex 4.000000e+01 6.925000e+01 -1.200962e+00
         vertex 4.500000e+01 6.859046e+01 -1.986970e+00
      endloop
   endfacet
   facet normal 0.000000e+00 1.736477e-01 -9.848078e-01
      outer loop
         vertex 4.000000e+01 7.026048e+01 -1.022788e+00
         vertex 4.500000e+01 7.026048e+01 -1.022788e+00
         vertex 4.500000e+01 6.925000e+01 -1.200962e+00
      endloop
   endfacet
   facet normal 0.000000e+00 1.736477e-01 -9.848078e-01
      outer loop
         vertex 4.000000e+01 6.925000e+01 -1.200962e+00
         vertex 4.000000e+01 7.026048e+01 -1.022788e+00
         vertex 4.500000e+01 6.925000e+01 -1.200962e+00
      endloop
   endfacet
   facet normal -0.000000e+00 -5.000027e-01 -8.660239e-01
      outer loop
         vertex 4.000000e+01 7.114906e+01 -1.535819e+00
         vertex 4.500000e+01 7.114906e+01 -1.535819e+00
         vertex 4.500000e+01 7.026048e+01 -1.022788e+00
      endloop
   endfacet
   facet normal 0.000000e+00 -5.000027e-01 -8.660239e-01
      outer loop
         vertex 4.000000e+01 7.026048e+01 -1.022788e+00
         vertex 4.000000e+01 7.114906e+01 -1.535819e+00
         vertex 4.500000e+01 7.026048e+01 -1.022788e+00
      endloop
   endfacet
   facet normal -0.000000e+00 -9.396915e-01 -3.420232e-01
      outer loop
         vertex 4.000000e+01 7.150000e+01 -2.500000e+00
         vertex 4.500000e+01 7.150000e+01 -2.500000e+00
         vertex 4.500000e+01 7.114906e+01 -1.535819e+00
      endloop
   endfacet
   facet normal 0.000000e+00 -9.396915e-01 -3.420232e-01
      outer loop
         vertex 4.000000e+01 7.114906e+01 -1.535819e+00
         vertex 4.000000e+01 7.150000e+01 -2.500000e+00
         vertex 4.500000e+01 7.114906e+01 -1.535819e+00
      endloop
   endfacet
   facet normal -1.000000e+00 0.000000e+00 0.000000e+00
      outer loop
         vertex 4.000000e+01 7.250000e+01 -5.000000e+00
         vertex 4.000000e+01 7.114906e+01 -3.464181e+00
         vertex 4.000000e+01 7.250000e+01 5.544312e-15
      endloop
   endfacet
   facet normal -1.000000e+00 0.000000e+00 -0.000000e+00
      outer loop
         vertex 4.000000e+01 7.114906e+01 -3.464181e+00
         vertex 4.000000e+01 7.150000e+01 -2.500000e+00
         vertex 4.000000e+01 7.250000e+01 5.544312e-15
      endloop
   endfacet
   facet normal -1.000000e+00 0.000000e+00 0.000000e+00
      outer loop
         vertex 4.000000e+01 7.250000e+01 5.544312e-15
         vertex 4.000000e+01 7.026048e+01 -1.022788e+00
         vertex 4.000000e+01 6.750000e+01 5.042082e-15
      endloop
   endfacet
   facet normal -1.000000e+00 0.000000e+00 0.000000e+00
      outer loop
         vertex 4.000000e+01 7.026048e+01 -1.022788e+00
         vertex 4.000000e+01 6.925000e+01 -1.200962e+00
         vertex 4.000000e+01 6.750000e+01 5.042082e-15
      endloop
   endfacet
   facet normal -1.000000e+00 -0.000000e+00 0.000000e+00
      outer loop
         vertex 4.000000e+01 6.750000e+01 5.042082e-15
         vertex 4.000000e+01 6.859046e+01 -1.986970e+00
         vertex 4.000000e+01 6.750000e+01 -5.000000e+00
      endloop
   endfacet
   facet normal -1.000000e+00 -0.000000e+00 0.000000e+00
      outer loop
         vertex 4.000000e+01 6.859046e+01 -1.986970e+00
         vertex 4.000000e+01 6.859046e+01 -3.013030e+00
         vertex 4.000000e+01 6.750000e+01 -5.000000e+00
      endloop
   endfacet
   facet normal -1.000000e+00 0.000000e+00 -0.000000e+00
      outer loop
         vertex 4.000000e+01 6.750000e+01 -5.000000e+00
         vertex 4.000000e+01 6.925000e+01 -3.799038e+00
         vertex 4.000000e+01 7.250000e+01 -5.000000e+00
      endloop
   endfacet
   facet normal -1.000000e+00 -0.000000e+00 -0.000000e+00
      outer loop
         vertex 4.000000e+01 6.925000e+01 -3.799038e+00
         vertex 4.000000e+01 7.026048e+01 -3.977212e+00
         vertex 4.000000e+01 7.250000e+01 -5.000000e+00
      endloop
   endfacet
   facet normal -1.000000e+00 0.000000e+00 0.000000e+00
      outer loop
         vertex 4.000000e+01 7.250000e+01 -5.000000e+00
         vertex 4.000000e+01 7.026048e+01 -3.977212e+00
         vertex 4.000000e+01 7.114906e+01 -3.464181e+00
      endloop
   endfacet
   facet normal -1.000000e+00 0.000000e+00 0.000000e+00
      outer loop
         vertex 4.000000e+01 6.925000e+01 -3.799038e+00
         vertex 4.000000e+01 6.750000e+01 -5.000000e+00
         vertex 4.000000e+01 6.859046e+01 -3.013030e+00
      endloop
   endfacet
   facet normal -1.000000e+00 0.000000e+00 0.000000e+00
      outer loop
         vertex 4.000000e+01 6.859046e+01 -1.986970e+00
         vertex 4.000000e+01 6.750000e+01 5.042082e-15
         vertex 4.000000e+01 6.925000e+01 -1.200962e+00
      endloop
   endfacet
   facet normal -1.000000e+00 0.000000e+00 0.000000e+00
      outer loop
         vertex 4.000000e+01 7.026048e+01 -1.022788e+00
         vertex 4.000000e+01 7.250000e+01 5.544312e-15
         vertex 4.000000e+01 7.114906e+01 -1.535819e+00
      endloop
   endfacet
   facet normal -1.000000e+00 0.000000e+00 0.000000e+00
      outer loop
         vertex 4.000000e+01 7.114906e+01 -1.535819e+00
         vertex 4.000000e+01 7.250000e+01 5.544312e-15
         vertex 4.000000e+01 7.150000e+01 -2.500000e+00
      endloop
   endfacet
   facet normal 0.000000e+00 1.000000e+00 0.000000e+00
      outer loop
         vertex -4.000000e+01 6.750000e+01 -4.898587e-15
         vertex 4.000000e+01 6.750000e+01 4.898587e-15
         vertex 4.000000e+01 6.750000e+01 -5.000000e+00
      endloop
   endfacet
   facet normal 0.000000e+00 1.000000e+00 0.000000e+00
      outer loop
         vertex -4.000000e+01 6.750000e+01 -4.898587e-15
         vertex 4.000000e+01 6.750000e+01 -5.000000e+00
         vertex -4.000000e+01 6.750000e+01 -5.000000e+00
      endloop
   endfacet
   facet normal 1.000000e+00 -0.000000e+00 0.000000e+00
      outer loop
         vertex -4.000000e+01 7.250000e+01 -5.544312e-15
         vertex -4.000000e+01 7.114906e+01 -1.535819e+00
         vertex -4.000000e+01 7.250000e+01 -5.000000e+00
      endloop
   endfacet
   facet normal 1.000000e+00 -0.000000e+00 -0.000000e+00
      outer loop
         vertex -4.000000e+01 7.114906e+01 -1.535819e+00
         vertex -4.000000e+01 7.150000e+01 -2.500000e+00
         vertex -4.000000e+01 7.250000e+01 -5.000000e+00
      endloop
   endfacet
   facet normal 1.000000e+00 0.000000e+00 0.000000e+00
      outer loop
         vertex -4.000000e+01 7.250000e+01 -5.000000e+00
         vertex -4.000000e+01 7.026048e+01 -3.977212e+00
         vertex -4.000000e+01 6.750000e+01 -5.000000e+00
      endloop
   endfacet
   facet normal 1.000000e+00 0.000000e+00 0.000000e+00
      outer loop
         vertex -4.000000e+01 7.026048e+01 -3.977212e+00
         vertex -4.000000e+01 6.925000e+01 -3.799038e+00
         vertex -4.000000e+01 6.750000e+01 -5.000000e+00
      endloop
   endfacet
   facet normal 1.000000e+00 0.000000e+00 0.000000e+00
      outer loop
         vertex -4.000000e+01 6.750000e+01 -5.000000e+00
         vertex -4.000000e+01 6.859046e+01 -3.013030e+00
         vertex -4.000000e+01 6.750000e+01 -5.221449e-15
      endloop
   endfacet
   facet normal 1.000000e+00 0.000000e+00 0.000000e+00
      outer loop
         vertex -4.000000e+01 6.859046e+01 -3.013030e+00
         vertex -4.000000e+01 6.859046e+01 -1.986970e+00
         vertex -4.000000e+01 6.750000e+01 -5.221449e-15
      endloop
   endfacet
   facet normal 1.000000e+00 0.000000e+00 -0.000000e+00
      outer loop
         vertex -4.000000e+01 6.750000e+01 -5.221449e-15
         vertex -4.000000e+01 6.925000e+01 -1.200962e+00
         vertex -4.000000e+01 7.250000e+01 -5.544312e-15
      endloop
   endfacet
   facet normal 1.000000e+00 0.000000e+00 -0.000000e+00
      outer loop
         vertex -4.000000e+01 6.925000e+01 -1.200962e+00
         vertex -4.000000e+01 7.026048e+01 -1.022788e+00
         vertex -4.000000e+01 7.250000e+01 -5.544312e-15
      endloop
   endfacet
   facet normal 1.000000e+00 -0.000000e+00 0.000000e+00
      outer loop
         vertex -4.000000e+01 7.250000e+01 -5.544312e-15
         vertex -4.000000e+01 7.026048e+01 -1.022788e+00
         vertex -4.000000e+01 7.114906e+01 -1.535819e+00
      endloop
   endfacet
   facet normal 1.000000e+00 0.000000e+00 0.000000e+00
      outer loop
         vertex -4.000000e+01 6.925000e+01 -1.200962e+00
         vertex -4.000000e+01 6.750000e+01 -5.221449e-15
         vertex -4.000000e+01 6.859046e+01 -1.986970e+00
      endloop
   endfacet
   facet normal 1.000000e+00 0.000000e+00 0.000000e+00
      outer loop
         vertex -4.000000e+01 6.859046e+01 -3.013030e+00
         vertex -4.000000e+01 6.750000e+01 -5.000000e+00
         vertex -4.000000e+01 6.925000e+01 -3.799038e+00
      endloop
   endfacet
   facet normal 1.000000e+00 0.000000e+00 0.000000e+00
      outer loop
         vertex -4.000000e+01 7.026048e+01 -3.977212e+00
         vertex -4.000000e+01 7.250000e+01 -5.000000e+00
         vertex -4.000000e+01 7.114906e+01 -3.464181e+00
      endloop
   endfacet
   facet normal 1.000000e+00 0.000000e+00 0.000000e+00
      outer loop
         vertex -4.000000e+01 7.114906e+01 -3.464181e+00
         vertex -4.000000e+01 7.250000e+01 -5.000000e+00
         vertex -4.000000e+01 7.150000e+01 -2.500000e+00
      endloop
   endfacet
endsolid
