solid 
   facet normal 0.000000e+00 0.000000e+00 -1.000000e+00
      outer loop
         vertex -1.213526e+00 -8.816779e-01 -1.450000e+01
         vertex -1.500000e+00 8.878689e-16 -1.450000e+01
         vertex -4.635255e-01 -1.426585e+00 -1.450000e+01
      endloop
   endfacet
   facet normal 0.000000e+00 -0.000000e+00 -1.000000e+00
      outer loop
         vertex -1.500000e+00 8.878689e-16 -1.450000e+01
         vertex -1.213526e+00 8.816779e-01 -1.450000e+01
         vertex -4.635255e-01 -1.426585e+00 -1.450000e+01
      endloop
   endfacet
   facet normal 0.000000e+00 0.000000e+00 -1.000000e+00
      outer loop
         vertex -4.635255e-01 -1.426585e+00 -1.450000e+01
         vertex -1.213526e+00 8.816779e-01 -1.450000e+01
         vertex 4.635255e-01 -1.426585e+00 -1.450000e+01
      endloop
   endfacet
   facet normal 0.000000e+00 -0.000000e+00 -1.000000e+00
      outer loop
         vertex -1.213526e+00 8.816779e-01 -1.450000e+01
         vertex -4.635255e-01 1.426585e+00 -1.450000e+01
         vertex 4.635255e-01 -1.426585e+00 -1.450000e+01
      endloop
   endfacet
   facet normal 0.000000e+00 0.000000e+00 -1.000000e+00
      outer loop
         vertex 4.635255e-01 -1.426585e+00 -1.450000e+01
         vertex -4.635255e-01 1.426585e+00 -1.450000e+01
         vertex 1.213526e+00 -8.816779e-01 -1.450000e+01
      endloop
   endfacet
   facet normal -0.000000e+00 -0.000000e+00 -1.000000e+00
      outer loop
         vertex -4.635255e-01 1.426585e+00 -1.450000e+01
         vertex 4.635255e-01 1.426585e+00 -1.450000e+01
         vertex 1.213526e+00 -8.816779e-01 -1.450000e+01
      endloop
   endfacet
   facet normal 0.000000e+00 0.000000e+00 -1.000000e+00
      outer loop
         vertex 1.213526e+00 -8.816779e-01 -1.450000e+01
         vertex 4.635255e-01 1.426585e+00 -1.450000e+01
         vertex 1.500000e+00 -6.034608e-16 -1.450000e+01
      endloop
   endfacet
   facet normal -0.000000e+00 -0.000000e+00 -1.000000e+00
      outer loop
         vertex 4.635255e-01 1.426585e+00 -1.450000e+01
         vertex 1.213526e+00 8.816779e-01 -1.450000e+01
         vertex 1.500000e+00 -6.034608e-16 -1.450000e+01
      endloop
   endfacet
   facet normal -5.889135e-01 1.913496e-01 -7.852173e-01
      outer loop
         vertex -1.900000e+00 8.694992e-16 -1.420000e+01
         vertex -1.537132e+00 1.116792e+00 -1.420000e+01
         vertex -1.213526e+00 8.816779e-01 -1.450000e+01
      endloop
   endfacet
   facet normal -5.889134e-01 1.913495e-01 -7.852174e-01
      outer loop
         vertex -1.900000e+00 8.694992e-16 -1.420000e+01
         vertex -1.213526e+00 8.816779e-01 -1.450000e+01
         vertex -1.500000e+00 6.864468e-16 -1.450000e+01
      endloop
   endfacet
   facet normal -3.639685e-01 5.009596e-01 -7.852174e-01
      outer loop
         vertex -1.537132e+00 1.116792e+00 -1.420000e+01
         vertex -5.871323e-01 1.807007e+00 -1.420000e+01
         vertex -4.635255e-01 1.426585e+00 -1.450000e+01
      endloop
   endfacet
   facet normal -3.639685e-01 5.009597e-01 -7.852173e-01
      outer loop
         vertex -1.537132e+00 1.116792e+00 -1.420000e+01
         vertex -4.635255e-01 1.426585e+00 -1.450000e+01
         vertex -1.213526e+00 8.816779e-01 -1.450000e+01
      endloop
   endfacet
   facet normal 0.000000e+00 6.192201e-01 -7.852175e-01
      outer loop
         vertex -5.871323e-01 1.807007e+00 -1.420000e+01
         vertex 5.871323e-01 1.807007e+00 -1.420000e+01
         vertex 4.635255e-01 1.426585e+00 -1.450000e+01
      endloop
   endfacet
   facet normal 0.000000e+00 6.192201e-01 -7.852175e-01
      outer loop
         vertex -5.871323e-01 1.807007e+00 -1.420000e+01
         vertex 4.635255e-01 1.426585e+00 -1.450000e+01
         vertex -4.635255e-01 1.426585e+00 -1.450000e+01
      endloop
   endfacet
   facet normal 3.639686e-01 5.009597e-01 -7.852174e-01
      outer loop
         vertex 5.871323e-01 1.807007e+00 -1.420000e+01
         vertex 1.537132e+00 1.116792e+00 -1.420000e+01
         vertex 1.213526e+00 8.816779e-01 -1.450000e+01
      endloop
   endfacet
   facet normal 3.639684e-01 5.009596e-01 -7.852174e-01
      outer loop
         vertex 5.871323e-01 1.807007e+00 -1.420000e+01
         vertex 1.213526e+00 8.816779e-01 -1.450000e+01
         vertex 4.635255e-01 1.426585e+00 -1.450000e+01
      endloop
   endfacet
   facet normal 5.889134e-01 1.913496e-01 -7.852174e-01
      outer loop
         vertex 1.537132e+00 1.116792e+00 -1.420000e+01
         vertex 1.900000e+00 -6.368163e-16 -1.420000e+01
         vertex 1.500000e+00 -5.027497e-16 -1.450000e+01
      endloop
   endfacet
   facet normal 5.889135e-01 1.913496e-01 -7.852173e-01
      outer loop
         vertex 1.537132e+00 1.116792e+00 -1.420000e+01
         vertex 1.500000e+00 -5.027497e-16 -1.450000e+01
         vertex 1.213526e+00 8.816779e-01 -1.450000e+01
      endloop
   endfacet
   facet normal 5.889135e-01 -1.913496e-01 -7.852173e-01
      outer loop
         vertex 1.900000e+00 -6.368163e-16 -1.420000e+01
         vertex 1.537132e+00 -1.116792e+00 -1.420000e+01
         vertex 1.213526e+00 -8.816779e-01 -1.450000e+01
      endloop
   endfacet
   facet normal 5.889134e-01 -1.913495e-01 -7.852174e-01
      outer loop
         vertex 1.900000e+00 -6.368163e-16 -1.420000e+01
         vertex 1.213526e+00 -8.816779e-01 -1.450000e+01
         vertex 1.500000e+00 -5.027497e-16 -1.450000e+01
      endloop
   endfacet
   facet normal 3.639685e-01 -5.009596e-01 -7.852174e-01
      outer loop
         vertex 1.537132e+00 -1.116792e+00 -1.420000e+01
         vertex 5.871323e-01 -1.807007e+00 -1.420000e+01
         vertex 4.635255e-01 -1.426585e+00 -1.450000e+01
      endloop
   endfacet
   facet normal 3.639685e-01 -5.009597e-01 -7.852173e-01
      outer loop
         vertex 1.537132e+00 -1.116792e+00 -1.420000e+01
         vertex 4.635255e-01 -1.426585e+00 -1.450000e+01
         vertex 1.213526e+00 -8.816779e-01 -1.450000e+01
      endloop
   endfacet
   facet normal 0.000000e+00 -6.192201e-01 -7.852175e-01
      outer loop
         vertex 5.871323e-01 -1.807007e+00 -1.420000e+01
         vertex -5.871323e-01 -1.807007e+00 -1.420000e+01
         vertex -4.635255e-01 -1.426585e+00 -1.450000e+01
      endloop
   endfacet
   facet normal 0.000000e+00 -6.192201e-01 -7.852175e-01
      outer loop
         vertex 5.871323e-01 -1.807007e+00 -1.420000e+01
         vertex -4.635255e-01 -1.426585e+00 -1.450000e+01
         vertex 4.635255e-01 -1.426585e+00 -1.450000e+01
      endloop
   endfacet
   facet normal -3.639686e-01 -5.009597e-01 -7.852174e-01
      outer loop
         vertex -5.871323e-01 -1.807007e+00 -1.420000e+01
         vertex -1.537132e+00 -1.116792e+00 -1.420000e+01
         vertex -1.213526e+00 -8.816779e-01 -1.450000e+01
      endloop
   endfacet
   facet normal -3.639684e-01 -5.009596e-01 -7.852174e-01
      outer loop
         vertex -5.871323e-01 -1.807007e+00 -1.420000e+01
         vertex -1.213526e+00 -8.816779e-01 -1.450000e+01
         vertex -4.635255e-01 -1.426585e+00 -1.450000e+01
      endloop
   endfacet
   facet normal -5.889134e-01 -1.913496e-01 -7.852174e-01
      outer loop
         vertex -1.537132e+00 -1.116792e+00 -1.420000e+01
         vertex -1.900000e+00 4.041334e-16 -1.420000e+01
         vertex -1.500000e+00 3.190527e-16 -1.450000e+01
      endloop
   endfacet
   facet normal -5.889135e-01 -1.913496e-01 -7.852173e-01
      outer loop
         vertex -1.537132e+00 -1.116792e+00 -1.420000e+01
         vertex -1.500000e+00 3.190527e-16 -1.450000e+01
         vertex -1.213526e+00 -8.816779e-01 -1.450000e+01
      endloop
   endfacet
   facet normal -9.510565e-01 3.090170e-01 0.000000e+00
      outer loop
         vertex -1.900000e+00 -8.694992e-16 1.420000e+01
         vertex -1.537132e+00 1.116792e+00 1.420000e+01
         vertex -1.537132e+00 1.116792e+00 -1.420000e+01
      endloop
   endfacet
   facet normal -9.510565e-01 3.090170e-01 0.000000e+00
      outer loop
         vertex -1.900000e+00 -8.694992e-16 1.420000e+01
         vertex -1.537132e+00 1.116792e+00 -1.420000e+01
         vertex -1.900000e+00 -8.694992e-16 -1.420000e+01
      endloop
   endfacet
   facet normal -5.877853e-01 8.090170e-01 0.000000e+00
      outer loop
         vertex -1.537132e+00 1.116792e+00 1.420000e+01
         vertex -5.871323e-01 1.807007e+00 1.420000e+01
         vertex -5.871323e-01 1.807007e+00 -1.420000e+01
      endloop
   endfacet
   facet normal -5.877853e-01 8.090170e-01 0.000000e+00
      outer loop
         vertex -1.537132e+00 1.116792e+00 1.420000e+01
         vertex -5.871323e-01 1.807007e+00 -1.420000e+01
         vertex -1.537132e+00 1.116792e+00 -1.420000e+01
      endloop
   endfacet
   facet normal 0.000000e+00 1.000000e+00 0.000000e+00
      outer loop
         vertex -5.871323e-01 1.807007e+00 1.420000e+01
         vertex 5.871323e-01 1.807007e+00 1.420000e+01
         vertex 5.871323e-01 1.807007e+00 -1.420000e+01
      endloop
   endfacet
   facet normal 0.000000e+00 1.000000e+00 0.000000e+00
      outer loop
         vertex -5.871323e-01 1.807007e+00 1.420000e+01
         vertex 5.871323e-01 1.807007e+00 -1.420000e+01
         vertex -5.871323e-01 1.807007e+00 -1.420000e+01
      endloop
   endfacet
   facet normal 5.877853e-01 8.090170e-01 0.000000e+00
      outer loop
         vertex 5.871323e-01 1.807007e+00 1.420000e+01
         vertex 1.537132e+00 1.116792e+00 1.420000e+01
         vertex 1.537132e+00 1.116792e+00 -1.420000e+01
      endloop
   endfacet
   facet normal 5.877853e-01 8.090170e-01 0.000000e+00
      outer loop
         vertex 5.871323e-01 1.807007e+00 1.420000e+01
         vertex 1.537132e+00 1.116792e+00 -1.420000e+01
         vertex 5.871323e-01 1.807007e+00 -1.420000e+01
      endloop
   endfacet
   facet normal 9.510565e-01 3.090170e-01 0.000000e+00
      outer loop
         vertex 1.537132e+00 1.116792e+00 1.420000e+01
         vertex 1.900000e+00 1.102182e-15 1.420000e+01
         vertex 1.900000e+00 1.102182e-15 -1.420000e+01
      endloop
   endfacet
   facet normal 9.510565e-01 3.090170e-01 0.000000e+00
      outer loop
         vertex 1.537132e+00 1.116792e+00 1.420000e+01
         vertex 1.900000e+00 1.102182e-15 -1.420000e+01
         vertex 1.537132e+00 1.116792e+00 -1.420000e+01
      endloop
   endfacet
   facet normal 9.510565e-01 -3.090170e-01 0.000000e+00
      outer loop
         vertex 1.900000e+00 1.102182e-15 1.420000e+01
         vertex 1.537132e+00 -1.116792e+00 1.420000e+01
         vertex 1.537132e+00 -1.116792e+00 -1.420000e+01
      endloop
   endfacet
   facet normal 9.510565e-01 -3.090170e-01 0.000000e+00
      outer loop
         vertex 1.900000e+00 1.102182e-15 1.420000e+01
         vertex 1.537132e+00 -1.116792e+00 -1.420000e+01
         vertex 1.900000e+00 1.102182e-15 -1.420000e+01
      endloop
   endfacet
   facet normal 5.877853e-01 -8.090170e-01 0.000000e+00
      outer loop
         vertex 1.537132e+00 -1.116792e+00 1.420000e+01
         vertex 5.871323e-01 -1.807007e+00 1.420000e+01
         vertex 5.871323e-01 -1.807007e+00 -1.420000e+01
      endloop
   endfacet
   facet normal 5.877853e-01 -8.090170e-01 0.000000e+00
      outer loop
         vertex 1.537132e+00 -1.116792e+00 1.420000e+01
         vertex 5.871323e-01 -1.807007e+00 -1.420000e+01
         vertex 1.537132e+00 -1.116792e+00 -1.420000e+01
      endloop
   endfacet
   facet normal 0.000000e+00 -1.000000e+00 0.000000e+00
      outer loop
         vertex 5.871323e-01 -1.807007e+00 1.420000e+01
         vertex -5.871323e-01 -1.807007e+00 1.420000e+01
         vertex -5.871323e-01 -1.807007e+00 -1.420000e+01
      endloop
   endfacet
   facet normal 0.000000e+00 -1.000000e+00 0.000000e+00
      outer loop
         vertex 5.871323e-01 -1.807007e+00 1.420000e+01
         vertex -5.871323e-01 -1.807007e+00 -1.420000e+01
         vertex 5.871323e-01 -1.807007e+00 -1.420000e+01
      endloop
   endfacet
   facet normal -5.877853e-01 -8.090170e-01 -0.000000e+00
      outer loop
         vertex -5.871323e-01 -1.807007e+00 1.420000e+01
         vertex -1.537132e+00 -1.116792e+00 1.420000e+01
         vertex -1.537132e+00 -1.116792e+00 -1.420000e+01
      endloop
   endfacet
   facet normal -5.877853e-01 -8.090170e-01 0.000000e+00
      outer loop
         vertex -5.871323e-01 -1.807007e+00 1.420000e+01
         vertex -1.537132e+00 -1.116792e+00 -1.420000e+01
         vertex -5.871323e-01 -1.807007e+00 -1.420000e+01
      endloop
   endfacet
   facet normal -9.510565e-01 -3.090170e-01 -0.000000e+00
      outer loop
         vertex -1.537132e+00 -1.116792e+00 1.420000e+01
         vertex -1.900000e+00 -1.334865e-15 1.420000e+01
         vertex -1.900000e+00 -1.334865e-15 -1.420000e+01
      endloop
   endfacet
   facet normal -9.510565e-01 -3.090170e-01 0.000000e+00
      outer loop
         vertex -1.537132e+00 -1.116792e+00 1.420000e+01
         vertex -1.900000e+00 -1.334865e-15 -1.420000e+01
         vertex -1.537132e+00 -1.116792e+00 -1.420000e+01
      endloop
   endfacet
   facet normal -5.889135e-01 1.913496e-01 7.852173e-01
      outer loop
         vertex -1.500000e+00 -8.878689e-16 1.450000e+01
         vertex -1.213526e+00 8.816779e-01 1.450000e+01
         vertex -1.537132e+00 1.116792e+00 1.420000e+01
      endloop
   endfacet
   facet normal -5.889134e-01 1.913496e-01 7.852174e-01
      outer loop
         vertex -1.500000e+00 -8.878689e-16 1.450000e+01
         vertex -1.537132e+00 1.116792e+00 1.420000e+01
         vertex -1.900000e+00 -1.124634e-15 1.420000e+01
      endloop
   endfacet
   facet normal -3.639684e-01 5.009596e-01 7.852174e-01
      outer loop
         vertex -1.213526e+00 8.816779e-01 1.450000e+01
         vertex -4.635255e-01 1.426585e+00 1.450000e+01
         vertex -5.871323e-01 1.807007e+00 1.420000e+01
      endloop
   endfacet
   facet normal -3.639686e-01 5.009597e-01 7.852174e-01
      outer loop
         vertex -1.213526e+00 8.816779e-01 1.450000e+01
         vertex -5.871323e-01 1.807007e+00 1.420000e+01
         vertex -1.537132e+00 1.116792e+00 1.420000e+01
      endloop
   endfacet
   facet normal 0.000000e+00 6.192201e-01 7.852175e-01
      outer loop
         vertex -4.635255e-01 1.426585e+00 1.450000e+01
         vertex 4.635255e-01 1.426585e+00 1.450000e+01
         vertex 5.871323e-01 1.807007e+00 1.420000e+01
      endloop
   endfacet
   facet normal 0.000000e+00 6.192201e-01 7.852175e-01
      outer loop
         vertex -4.635255e-01 1.426585e+00 1.450000e+01
         vertex 5.871323e-01 1.807007e+00 1.420000e+01
         vertex -5.871323e-01 1.807007e+00 1.420000e+01
      endloop
   endfacet
   facet normal 3.639685e-01 5.009597e-01 7.852173e-01
      outer loop
         vertex 4.635255e-01 1.426585e+00 1.450000e+01
         vertex 1.213526e+00 8.816779e-01 1.450000e+01
         vertex 1.537132e+00 1.116792e+00 1.420000e+01
      endloop
   endfacet
   facet normal 3.639685e-01 5.009596e-01 7.852174e-01
      outer loop
         vertex 4.635255e-01 1.426585e+00 1.450000e+01
         vertex 1.537132e+00 1.116792e+00 1.420000e+01
         vertex 5.871323e-01 1.807007e+00 1.420000e+01
      endloop
   endfacet
   facet normal 5.889134e-01 1.913495e-01 7.852174e-01
      outer loop
         vertex 1.213526e+00 8.816779e-01 1.450000e+01
         vertex 1.500000e+00 1.071566e-15 1.450000e+01
         vertex 1.900000e+00 1.357317e-15 1.420000e+01
      endloop
   endfacet
   facet normal 5.889135e-01 1.913496e-01 7.852173e-01
      outer loop
         vertex 1.213526e+00 8.816779e-01 1.450000e+01
         vertex 1.900000e+00 1.357317e-15 1.420000e+01
         vertex 1.537132e+00 1.116792e+00 1.420000e+01
      endloop
   endfacet
   facet normal 5.889135e-01 -1.913496e-01 7.852173e-01
      outer loop
         vertex 1.500000e+00 1.071566e-15 1.450000e+01
         vertex 1.213526e+00 -8.816779e-01 1.450000e+01
         vertex 1.537132e+00 -1.116792e+00 1.420000e+01
      endloop
   endfacet
   facet normal 5.889134e-01 -1.913496e-01 7.852174e-01
      outer loop
         vertex 1.500000e+00 1.071566e-15 1.450000e+01
         vertex 1.537132e+00 -1.116792e+00 1.420000e+01
         vertex 1.900000e+00 1.357317e-15 1.420000e+01
      endloop
   endfacet
   facet normal 3.639684e-01 -5.009596e-01 7.852174e-01
      outer loop
         vertex 1.213526e+00 -8.816779e-01 1.450000e+01
         vertex 4.635255e-01 -1.426585e+00 1.450000e+01
         vertex 5.871323e-01 -1.807007e+00 1.420000e+01
      endloop
   endfacet
   facet normal 3.639686e-01 -5.009597e-01 7.852174e-01
      outer loop
         vertex 1.213526e+00 -8.816779e-01 1.450000e+01
         vertex 5.871323e-01 -1.807007e+00 1.420000e+01
         vertex 1.537132e+00 -1.116792e+00 1.420000e+01
      endloop
   endfacet
   facet normal 0.000000e+00 -6.192201e-01 7.852175e-01
      outer loop
         vertex 4.635255e-01 -1.426585e+00 1.450000e+01
         vertex -4.635255e-01 -1.426585e+00 1.450000e+01
         vertex -5.871323e-01 -1.807007e+00 1.420000e+01
      endloop
   endfacet
   facet normal 0.000000e+00 -6.192201e-01 7.852175e-01
      outer loop
         vertex 4.635255e-01 -1.426585e+00 1.450000e+01
         vertex -5.871323e-01 -1.807007e+00 1.420000e+01
         vertex 5.871323e-01 -1.807007e+00 1.420000e+01
      endloop
   endfacet
   facet normal -3.639685e-01 -5.009597e-01 7.852173e-01
      outer loop
         vertex -4.635255e-01 -1.426585e+00 1.450000e+01
         vertex -1.213526e+00 -8.816779e-01 1.450000e+01
         vertex -1.537132e+00 -1.116792e+00 1.420000e+01
      endloop
   endfacet
   facet normal -3.639685e-01 -5.009596e-01 7.852174e-01
      outer loop
         vertex -4.635255e-01 -1.426585e+00 1.450000e+01
         vertex -1.537132e+00 -1.116792e+00 1.420000e+01
         vertex -5.871323e-01 -1.807007e+00 1.420000e+01
      endloop
   endfacet
   facet normal -5.889134e-01 -1.913495e-01 7.852174e-01
      outer loop
         vertex -1.213526e+00 -8.816779e-01 1.450000e+01
         vertex -1.500000e+00 -1.255263e-15 1.450000e+01
         vertex -1.900000e+00 -1.590000e-15 1.420000e+01
      endloop
   endfacet
   facet normal -5.889135e-01 -1.913496e-01 7.852173e-01
      outer loop
         vertex -1.213526e+00 -8.816779e-01 1.450000e+01
         vertex -1.900000e+00 -1.590000e-15 1.420000e+01
         vertex -1.537132e+00 -1.116792e+00 1.420000e+01
      endloop
   endfacet
   facet normal 0.000000e+00 0.000000e+00 1.000000e+00
      outer loop
         vertex -1.213526e+00 8.816779e-01 1.450000e+01
         vertex -1.500000e+00 -8.878689e-16 1.450000e+01
         vertex -4.635255e-01 1.426585e+00 1.450000e+01
      endloop
   endfacet
   facet normal 0.000000e+00 -0.000000e+00 1.000000e+00
      outer loop
         vertex -1.500000e+00 -8.878689e-16 1.450000e+01
         vertex -1.213526e+00 -8.816779e-01 1.450000e+01
         vertex -4.635255e-01 1.426585e+00 1.450000e+01
      endloop
   endfacet
   facet normal 0.000000e+00 0.000000e+00 1.000000e+00
      outer loop
         vertex -4.635255e-01 1.426585e+00 1.450000e+01
         vertex -1.213526e+00 -8.816779e-01 1.450000e+01
         vertex 4.635255e-01 1.426585e+00 1.450000e+01
      endloop
   endfacet
   facet normal 0.000000e+00 -0.000000e+00 1.000000e+00
      outer loop
         vertex -1.213526e+00 -8.816779e-01 1.450000e+01
         vertex -4.635255e-01 -1.426585e+00 1.450000e+01
         vertex 4.635255e-01 1.426585e+00 1.450000e+01
      endloop
   endfacet
   facet normal 0.000000e+00 0.000000e+00 1.000000e+00
      outer loop
         vertex 4.635255e-01 1.426585e+00 1.450000e+01
         vertex -4.635255e-01 -1.426585e+00 1.450000e+01
         vertex 1.213526e+00 8.816779e-01 1.450000e+01
      endloop
   endfacet
   facet normal 0.000000e+00 -0.000000e+00 1.000000e+00
      outer loop
         vertex -4.635255e-01 -1.426585e+00 1.450000e+01
         vertex 4.635255e-01 -1.426585e+00 1.450000e+01
         vertex 1.213526e+00 8.816779e-01 1.450000e+01
      endloop
   endfacet
   facet normal 0.000000e+00 0.000000e+00 1.000000e+00
      outer loop
         vertex 1.213526e+00 8.816779e-01 1.450000e+01
         vertex 4.635255e-01 -1.426585e+00 1.450000e+01
         vertex 1.500000e+00 1.071566e-15 1.450000e+01
      endloop
   endfacet
   facet normal 0.000000e+00 -0.000000e+00 1.000000e+00
      outer loop
         vertex 4.635255e-01 -1.426585e+00 1.450000e+01
         vertex 1.213526e+00 -8.816779e-01 1.450000e+01
         vertex 1.500000e+00 1.071566e-15 1.450000e+01
      endloop
   endfacet
   facet normal -9.238776e-01 3.826881e-01 0.000000e+00
      outer loop
         vertex -1.022580e-15 0.000000e+00 -1.670000e+01
         vertex -7.230661e-16 7.230805e-16 -1.670000e+01
         vertex -7.230661e-16 7.230805e-16 -1.700000e+01
      endloop
   endfacet
   facet normal -9.238776e-01 3.826881e-01 0.000000e+00
      outer loop
         vertex -1.022580e-15 0.000000e+00 -1.670000e+01
         vertex -7.230661e-16 7.230805e-16 -1.700000e+01
         vertex -1.022580e-15 0.000000e+00 -1.700000e+01
      endloop
   endfacet
   facet normal -3.826696e-01 9.238853e-01 0.000000e+00
      outer loop
         vertex -7.230661e-16 7.230805e-16 -1.670000e+01
         vertex 2.045160e-20 1.022580e-15 -1.670000e+01
         vertex 2.045160e-20 1.022580e-15 -1.700000e+01
      endloop
   endfacet
   facet normal -3.826696e-01 9.238853e-01 0.000000e+00
      outer loop
         vertex -7.230661e-16 7.230805e-16 -1.670000e+01
         vertex 2.045160e-20 1.022580e-15 -1.700000e+01
         vertex -7.230661e-16 7.230805e-16 -1.700000e+01
      endloop
   endfacet
   facet normal 3.827066e-01 9.238700e-01 0.000000e+00
      outer loop
         vertex 2.045160e-20 1.022580e-15 -1.670000e+01
         vertex 7.230950e-16 7.230516e-16 -1.670000e+01
         vertex 7.230950e-16 7.230516e-16 -1.700000e+01
      endloop
   endfacet
   facet normal 3.827066e-01 9.238700e-01 0.000000e+00
      outer loop
         vertex 2.045160e-20 1.022580e-15 -1.670000e+01
         vertex 7.230950e-16 7.230516e-16 -1.700000e+01
         vertex 2.045160e-20 1.022580e-15 -1.700000e+01
      endloop
   endfacet
   facet normal 9.238929e-01 3.826511e-01 0.000000e+00
      outer loop
         vertex 7.230950e-16 7.230516e-16 -1.670000e+01
         vertex 1.022580e-15 -4.090320e-20 -1.670000e+01
         vertex 1.022580e-15 -4.090320e-20 -1.700000e+01
      endloop
   endfacet
   facet normal 9.238929e-01 3.826511e-01 0.000000e+00
      outer loop
         vertex 7.230950e-16 7.230516e-16 -1.670000e+01
         vertex 1.022580e-15 -4.090320e-20 -1.700000e+01
         vertex 7.230950e-16 7.230516e-16 -1.700000e+01
      endloop
   endfacet
   facet normal 9.238623e-01 -3.827250e-01 0.000000e+00
      outer loop
         vertex 1.022580e-15 -4.090320e-20 -1.670000e+01
         vertex 7.230372e-16 -7.231095e-16 -1.670000e+01
         vertex 7.230372e-16 -7.231095e-16 -1.700000e+01
      endloop
   endfacet
   facet normal 9.238623e-01 -3.827250e-01 0.000000e+00
      outer loop
         vertex 1.022580e-15 -4.090320e-20 -1.670000e+01
         vertex 7.230372e-16 -7.231095e-16 -1.700000e+01
         vertex 1.022580e-15 -4.090320e-20 -1.700000e+01
      endloop
   endfacet
   facet normal 3.826326e-01 -9.239006e-01 0.000000e+00
      outer loop
         vertex 7.230372e-16 -7.231095e-16 -1.670000e+01
         vertex -6.135480e-20 -1.022580e-15 -1.670000e+01
         vertex -6.135480e-20 -1.022580e-15 -1.700000e+01
      endloop
   endfacet
   facet normal 3.826326e-01 -9.239006e-01 0.000000e+00
      outer loop
         vertex 7.230372e-16 -7.231095e-16 -1.670000e+01
         vertex -6.135480e-20 -1.022580e-15 -1.700000e+01
         vertex 7.230372e-16 -7.231095e-16 -1.700000e+01
      endloop
   endfacet
   facet normal -3.827435e-01 -9.238546e-01 -0.000000e+00
      outer loop
         vertex -6.135480e-20 -1.022580e-15 -1.670000e+01
         vertex -7.231239e-16 -7.230227e-16 -1.670000e+01
         vertex -7.231239e-16 -7.230227e-16 -1.700000e+01
      endloop
   endfacet
   facet normal -3.827435e-01 -9.238546e-01 0.000000e+00
      outer loop
         vertex -6.135480e-20 -1.022580e-15 -1.670000e+01
         vertex -7.231239e-16 -7.230227e-16 -1.700000e+01
         vertex -6.135480e-20 -1.022580e-15 -1.700000e+01
      endloop
   endfacet
   facet normal -9.238929e-01 -3.826511e-01 -0.000000e+00
      outer loop
         vertex -7.231239e-16 -7.230227e-16 -1.670000e+01
         vertex -1.022580e-15 -2.504599e-31 -1.670000e+01
         vertex -1.022580e-15 -2.504599e-31 -1.700000e+01
      endloop
   endfacet
   facet normal -9.238929e-01 -3.826511e-01 0.000000e+00
      outer loop
         vertex -7.231239e-16 -7.230227e-16 -1.670000e+01
         vertex -1.022580e-15 -2.504599e-31 -1.700000e+01
         vertex -7.231239e-16 -7.230227e-16 -1.700000e+01
      endloop
   endfacet
   facet normal 9.238776e-01 -3.826881e-01 0.000000e+00
      outer loop
         vertex -1.040950e-15 0.000000e+00 -1.700000e+01
         vertex -7.360553e-16 7.360700e-16 -1.700000e+01
         vertex -7.360553e-16 7.360700e-16 -1.670000e+01
      endloop
   endfacet
   facet normal 9.238776e-01 -3.826881e-01 0.000000e+00
      outer loop
         vertex -1.040950e-15 0.000000e+00 -1.700000e+01
         vertex -7.360553e-16 7.360700e-16 -1.670000e+01
         vertex -1.040950e-15 0.000000e+00 -1.670000e+01
      endloop
   endfacet
   facet normal 3.826696e-01 -9.238852e-01 0.000000e+00
      outer loop
         vertex -7.360553e-16 7.360700e-16 -1.700000e+01
         vertex 2.081900e-20 1.040950e-15 -1.700000e+01
         vertex 2.081900e-20 1.040950e-15 -1.670000e+01
      endloop
   endfacet
   facet normal 3.826696e-01 -9.238852e-01 0.000000e+00
      outer loop
         vertex -7.360553e-16 7.360700e-16 -1.700000e+01
         vertex 2.081900e-20 1.040950e-15 -1.670000e+01
         vertex -7.360553e-16 7.360700e-16 -1.670000e+01
      endloop
   endfacet
   facet normal -3.827066e-01 -9.238699e-01 0.000000e+00
      outer loop
         vertex 2.081900e-20 1.040950e-15 -1.700000e+01
         vertex 7.360847e-16 7.360406e-16 -1.700000e+01
         vertex 7.360847e-16 7.360406e-16 -1.670000e+01
      endloop
   endfacet
   facet normal -3.827066e-01 -9.238699e-01 0.000000e+00
      outer loop
         vertex 2.081900e-20 1.040950e-15 -1.700000e+01
         vertex 7.360847e-16 7.360406e-16 -1.670000e+01
         vertex 2.081900e-20 1.040950e-15 -1.670000e+01
      endloop
   endfacet
   facet normal -9.238929e-01 -3.826512e-01 0.000000e+00
      outer loop
         vertex 7.360847e-16 7.360406e-16 -1.700000e+01
         vertex 1.040950e-15 -4.163799e-20 -1.700000e+01
         vertex 1.040950e-15 -4.163799e-20 -1.670000e+01
      endloop
   endfacet
   facet normal -9.238929e-01 -3.826512e-01 0.000000e+00
      outer loop
         vertex 7.360847e-16 7.360406e-16 -1.700000e+01
         vertex 1.040950e-15 -4.163799e-20 -1.670000e+01
         vertex 7.360847e-16 7.360406e-16 -1.670000e+01
      endloop
   endfacet
   facet normal -9.238623e-01 3.827251e-01 0.000000e+00
      outer loop
         vertex 1.040950e-15 -4.163799e-20 -1.700000e+01
         vertex 7.360258e-16 -7.360994e-16 -1.700000e+01
         vertex 7.360258e-16 -7.360994e-16 -1.670000e+01
      endloop
   endfacet
   facet normal -9.238623e-01 3.827251e-01 0.000000e+00
      outer loop
         vertex 1.040950e-15 -4.163799e-20 -1.700000e+01
         vertex 7.360258e-16 -7.360994e-16 -1.670000e+01
         vertex 1.040950e-15 -4.163799e-20 -1.670000e+01
      endloop
   endfacet
   facet normal -3.826327e-01 9.239006e-01 0.000000e+00
      outer loop
         vertex 7.360258e-16 -7.360994e-16 -1.700000e+01
         vertex -6.245699e-20 -1.040950e-15 -1.700000e+01
         vertex -6.245699e-20 -1.040950e-15 -1.670000e+01
      endloop
   endfacet
   facet normal -3.826327e-01 9.239006e-01 0.000000e+00
      outer loop
         vertex 7.360258e-16 -7.360994e-16 -1.700000e+01
         vertex -6.245699e-20 -1.040950e-15 -1.670000e+01
         vertex 7.360258e-16 -7.360994e-16 -1.670000e+01
      endloop
   endfacet
   facet normal 3.827435e-01 9.238546e-01 -0.000000e+00
      outer loop
         vertex -6.245699e-20 -1.040950e-15 -1.700000e+01
         vertex -7.361142e-16 -7.360111e-16 -1.700000e+01
         vertex -7.361142e-16 -7.360111e-16 -1.670000e+01
      endloop
   endfacet
   facet normal 3.827435e-01 9.238546e-01 0.000000e+00
      outer loop
         vertex -6.245699e-20 -1.040950e-15 -1.700000e+01
         vertex -7.361142e-16 -7.360111e-16 -1.670000e+01
         vertex -6.245699e-20 -1.040950e-15 -1.670000e+01
      endloop
   endfacet
   facet normal 9.238929e-01 3.826511e-01 -0.000000e+00
      outer loop
         vertex -7.361142e-16 -7.360111e-16 -1.700000e+01
         vertex -1.040950e-15 -2.549592e-31 -1.700000e+01
         vertex -1.040950e-15 -2.549592e-31 -1.670000e+01
      endloop
   endfacet
   facet normal 9.238929e-01 3.826511e-01 0.000000e+00
      outer loop
         vertex -7.361142e-16 -7.360111e-16 -1.700000e+01
         vertex -1.040950e-15 -2.549592e-31 -1.670000e+01
         vertex -7.361142e-16 -7.360111e-16 -1.670000e+01
      endloop
   endfacet
endsolid
