solid 
   facet normal -7.439450e-01 -6.682408e-01 0.000000e+00
      outer loop
         vertex -1.398234e+00 -9.269740e+00 2.088585e+01
         vertex -1.398234e+00 -9.269740e+00 1.411415e+01
         vertex -6.583442e-01 -1.009345e+01 1.418621e+01
      endloop
   endfacet
   facet normal -8.248997e-02 -9.965919e-01 0.000000e+00
      outer loop
         vertex -6.583442e-01 -1.009345e+01 1.418621e+01
         vertex 4.460677e-01 -1.018486e+01 1.419421e+01
         vertex -6.583442e-01 -1.009345e+01 2.081379e+01
      endloop
   endfacet
   facet normal 6.243069e-01 -7.811792e-01 0.000000e+00
      outer loop
         vertex 4.460677e-01 -1.018486e+01 1.419421e+01
         vertex 1.311999e+00 -9.492826e+00 1.413367e+01
         vertex 1.311999e+00 -9.492826e+00 2.086633e+01
      endloop
   endfacet
   facet normal 9.064663e-01 -4.222781e-01 0.000000e+00
      outer loop
         vertex 1.311999e+00 -9.492826e+00 1.413367e+01
         vertex 1.415923e+00 -9.269740e+00 1.411415e+01
         vertex 1.415923e+00 -9.269740e+00 2.088585e+01
      endloop
   endfacet
   facet normal 9.064663e-01 -4.222781e-01 0.000000e+00
      outer loop
         vertex 1.415923e+00 -9.269740e+00 2.088585e+01
         vertex 1.311999e+00 -9.492826e+00 2.086633e+01
         vertex 1.311999e+00 -9.492826e+00 1.413367e+01
      endloop
   endfacet
   facet normal 6.243069e-01 -7.811792e-01 0.000000e+00
      outer loop
         vertex 1.311999e+00 -9.492826e+00 2.086633e+01
         vertex 4.460677e-01 -1.018486e+01 2.080579e+01
         vertex 4.460677e-01 -1.018486e+01 1.419421e+01
      endloop
   endfacet
   facet normal -8.248997e-02 -9.965919e-01 0.000000e+00
      outer loop
         vertex 4.460677e-01 -1.018486e+01 2.080579e+01
         vertex -6.583442e-01 -1.009345e+01 2.081379e+01
         vertex 4.460677e-01 -1.018486e+01 1.419421e+01
      endloop
   endfacet
   facet normal -7.439450e-01 -6.682408e-01 0.000000e+00
      outer loop
         vertex -6.583442e-01 -1.009345e+01 2.081379e+01
         vertex -1.398234e+00 -9.269740e+00 2.088585e+01
         vertex -6.583442e-01 -1.009345e+01 1.418621e+01
      endloop
   endfacet
   facet normal -9.380523e-01 -3.464937e-01 0.000000e+00
      outer loop
         vertex -3.991155e+00 -2.250000e+00 2.150000e+01
         vertex -3.991155e+00 -2.250000e+00 1.350000e+01
         vertex -1.398234e+00 -9.269740e+00 1.411415e+01
      endloop
   endfacet
   facet normal -9.380523e-01 -3.464937e-01 0.000000e+00
      outer loop
         vertex -3.991155e+00 -2.250000e+00 2.150000e+01
         vertex -1.398234e+00 -9.269740e+00 1.411415e+01
         vertex -1.398234e+00 -9.269740e+00 2.088585e+01
      endloop
   endfacet
   facet normal 9.380523e-01 -3.464937e-01 0.000000e+00
      outer loop
         vertex 1.415923e+00 -9.269740e+00 2.088585e+01
         vertex 1.415923e+00 -9.269740e+00 1.411415e+01
         vertex 4.008845e+00 -2.250000e+00 1.350000e+01
      endloop
   endfacet
   facet normal 9.380523e-01 -3.464937e-01 0.000000e+00
      outer loop
         vertex 1.415923e+00 -9.269740e+00 2.088585e+01
         vertex 4.008845e+00 -2.250000e+00 1.350000e+01
         vertex 4.008845e+00 -2.250000e+00 2.150000e+01
      endloop
   endfacet
   facet normal 0.000000e+00 -1.000000e+00 -0.000000e+00
      outer loop
         vertex 8.214032e+00 -2.250000e+00 0.000000e+00
         vertex 4.008845e+00 -2.250000e+00 1.350000e+01
         vertex -7.385968e+00 -2.250000e+00 0.000000e+00
      endloop
   endfacet
   facet normal 0.000000e+00 -1.000000e+00 -0.000000e+00
      outer loop
         vertex 4.008845e+00 -2.250000e+00 1.350000e+01
         vertex -3.991155e+00 -2.250000e+00 1.350000e+01
         vertex -7.385968e+00 -2.250000e+00 0.000000e+00
      endloop
   endfacet
   facet normal -0.000000e+00 -1.000000e+00 0.000000e+00
      outer loop
         vertex -7.385968e+00 -2.250000e+00 0.000000e+00
         vertex -3.991155e+00 -2.250000e+00 1.350000e+01
         vertex -7.385968e+00 -2.250000e+00 3.500000e+01
      endloop
   endfacet
   facet normal -0.000000e+00 -1.000000e+00 -0.000000e+00
      outer loop
         vertex -3.991155e+00 -2.250000e+00 1.350000e+01
         vertex -3.991155e+00 -2.250000e+00 2.150000e+01
         vertex -7.385968e+00 -2.250000e+00 3.500000e+01
      endloop
   endfacet
   facet normal 0.000000e+00 -1.000000e+00 0.000000e+00
      outer loop
         vertex -7.385968e+00 -2.250000e+00 3.500000e+01
         vertex -3.991155e+00 -2.250000e+00 2.150000e+01
         vertex 8.214032e+00 -2.250000e+00 3.500000e+01
      endloop
   endfacet
   facet normal 0.000000e+00 -1.000000e+00 0.000000e+00
      outer loop
         vertex -3.991155e+00 -2.250000e+00 2.150000e+01
         vertex 4.008845e+00 -2.250000e+00 2.150000e+01
         vertex 8.214032e+00 -2.250000e+00 3.500000e+01
      endloop
   endfacet
   facet normal 0.000000e+00 -1.000000e+00 0.000000e+00
      outer loop
         vertex 8.214032e+00 -2.250000e+00 3.500000e+01
         vertex 4.008845e+00 -2.250000e+00 2.150000e+01
         vertex 8.214032e+00 -2.250000e+00 0.000000e+00
      endloop
   endfacet
   facet normal 0.000000e+00 -1.000000e+00 0.000000e+00
      outer loop
         vertex 4.008845e+00 -2.250000e+00 2.150000e+01
         vertex 4.008845e+00 -2.250000e+00 1.350000e+01
         vertex 8.214032e+00 -2.250000e+00 0.000000e+00
      endloop
   endfacet
   facet normal -2.177579e-05 -8.714769e-02 9.961954e-01
      outer loop
         vertex 1.415923e+00 -9.269740e+00 2.088585e+01
         vertex 4.008845e+00 -2.250000e+00 2.150000e+01
         vertex 1.311999e+00 -9.492826e+00 2.086633e+01
      endloop
   endfacet
   facet normal 0.000000e+00 -8.715574e-02 9.961947e-01
      outer loop
         vertex 4.008845e+00 -2.250000e+00 2.150000e+01
         vertex -3.991155e+00 -2.250000e+00 2.150000e+01
         vertex 1.311999e+00 -9.492826e+00 2.086633e+01
      endloop
   endfacet
   facet normal 4.635272e-07 -8.715540e-02 9.961947e-01
      outer loop
         vertex 1.311999e+00 -9.492826e+00 2.086633e+01
         vertex -3.991155e+00 -2.250000e+00 2.150000e+01
         vertex 4.460677e-01 -1.018486e+01 2.080579e+01
      endloop
   endfacet
   facet normal -8.153429e-08 -8.715570e-02 9.961947e-01
      outer loop
         vertex -3.991155e+00 -2.250000e+00 2.150000e+01
         vertex -1.398234e+00 -9.269740e+00 2.088585e+01
         vertex 4.460677e-01 -1.018486e+01 2.080579e+01
      endloop
   endfacet
   facet normal -2.128786e-07 -8.715597e-02 9.961947e-01
      outer loop
         vertex 4.460677e-01 -1.018486e+01 2.080579e+01
         vertex -1.398234e+00 -9.269740e+00 2.088585e+01
         vertex -6.583442e-01 -1.009345e+01 2.081379e+01
      endloop
   endfacet
   facet normal -2.240852e-06 -8.715663e-02 -9.961946e-01
      outer loop
         vertex -1.398234e+00 -9.269740e+00 1.411415e+01
         vertex -3.991155e+00 -2.250000e+00 1.350000e+01
         vertex -6.583442e-01 -1.009345e+01 1.418621e+01
      endloop
   endfacet
   facet normal -0.000000e+00 -8.715568e-02 -9.961947e-01
      outer loop
         vertex -3.991155e+00 -2.250000e+00 1.350000e+01
         vertex 4.008845e+00 -2.250000e+00 1.350000e+01
         vertex -6.583442e-01 -1.009345e+01 1.418621e+01
      endloop
   endfacet
   facet normal 6.393608e-07 -8.715606e-02 -9.961947e-01
      outer loop
         vertex -6.583442e-01 -1.009345e+01 1.418621e+01
         vertex 4.008845e+00 -2.250000e+00 1.350000e+01
         vertex 4.460677e-01 -1.018486e+01 1.419421e+01
      endloop
   endfacet
   facet normal 3.903978e-07 -8.715595e-02 -9.961947e-01
      outer loop
         vertex 4.008845e+00 -2.250000e+00 1.350000e+01
         vertex 1.415923e+00 -9.269740e+00 1.411415e+01
         vertex 4.460677e-01 -1.018486e+01 1.419421e+01
      endloop
   endfacet
   facet normal -3.407052e-06 -8.715196e-02 -9.961950e-01
      outer loop
         vertex 4.460677e-01 -1.018486e+01 1.419421e+01
         vertex 1.415923e+00 -9.269740e+00 1.411415e+01
         vertex 1.311999e+00 -9.492826e+00 1.413367e+01
      endloop
   endfacet
   facet normal -0.000000e+00 0.000000e+00 1.000000e+00
      outer loop
         vertex 1.127359e+01 2.250000e+00 3.500000e+01
         vertex 5.000000e+00 2.250000e+00 3.500000e+01
         vertex 9.431839e+00 2.121120e-01 3.500000e+01
      endloop
   endfacet
   facet normal 0.000000e+00 0.000000e+00 1.000000e+00
      outer loop
         vertex 7.282624e+00 9.250000e+00 3.500000e+01
         vertex 5.024065e+00 1.011246e+01 3.500000e+01
         vertex 5.529441e+00 9.139431e+00 3.500000e+01
      endloop
   endfacet
   facet normal 0.000000e+00 0.000000e+00 1.000000e+00
      outer loop
         vertex 5.529441e+00 9.139431e+00 3.500000e+01
         vertex 5.024065e+00 1.011246e+01 3.500000e+01
         vertex 4.022753e+00 8.236232e+00 3.500000e+01
      endloop
   endfacet
   facet normal 0.000000e+00 0.000000e+00 1.000000e+00
      outer loop
         vertex 5.024065e+00 1.011246e+01 3.500000e+01
         vertex 2.612443e+00 1.028281e+01 3.500000e+01
         vertex 4.022753e+00 8.236232e+00 3.500000e+01
      endloop
   endfacet
   facet normal 0.000000e+00 0.000000e+00 1.000000e+00
      outer loop
         vertex 4.022753e+00 8.236232e+00 3.500000e+01
         vertex 2.612443e+00 1.028281e+01 3.500000e+01
         vertex 3.098978e+00 6.742072e+00 3.500000e+01
      endloop
   endfacet
   facet normal -0.000000e+00 0.000000e+00 1.000000e+00
      outer loop
         vertex 2.612443e+00 1.028281e+01 3.500000e+01
         vertex 2.550755e-01 9.746381e+00 3.500000e+01
         vertex 3.098978e+00 6.742072e+00 3.500000e+01
      endloop
   endfacet
   facet normal 0.000000e+00 0.000000e+00 1.000000e+00
      outer loop
         vertex 3.098978e+00 6.742072e+00 3.500000e+01
         vertex 2.550755e-01 9.746381e+00 3.500000e+01
         vertex 2.964378e+00 4.990570e+00 3.500000e+01
      endloop
   endfacet
   facet normal -0.000000e+00 0.000000e+00 1.000000e+00
      outer loop
         vertex 2.550755e-01 9.746381e+00 3.500000e+01
         vertex -1.845387e+00 8.549305e+00 3.500000e+01
         vertex 2.964378e+00 4.990570e+00 3.500000e+01
      endloop
   endfacet
   facet normal 0.000000e+00 0.000000e+00 1.000000e+00
      outer loop
         vertex 2.964378e+00 4.990570e+00 3.500000e+01
         vertex -1.845387e+00 8.549305e+00 3.500000e+01
         vertex 3.649008e+00 3.372807e+00 3.500000e+01
      endloop
   endfacet
   facet normal -0.000000e+00 0.000000e+00 1.000000e+00
      outer loop
         vertex -1.845387e+00 8.549305e+00 3.500000e+01
         vertex -3.508377e+00 6.794484e+00 3.500000e+01
         vertex 3.649008e+00 3.372807e+00 3.500000e+01
      endloop
   endfacet
   facet normal 0.000000e+00 0.000000e+00 1.000000e+00
      outer loop
         vertex 3.649008e+00 3.372807e+00 3.500000e+01
         vertex -3.508377e+00 6.794484e+00 3.500000e+01
         vertex 5.000000e+00 2.250000e+00 3.500000e+01
      endloop
   endfacet
   facet normal -0.000000e+00 0.000000e+00 1.000000e+00
      outer loop
         vertex -3.508377e+00 6.794484e+00 3.500000e+01
         vertex -4.590935e+00 4.632771e+00 3.500000e+01
         vertex 5.000000e+00 2.250000e+00 3.500000e+01
      endloop
   endfacet
   facet normal 0.000000e+00 0.000000e+00 1.000000e+00
      outer loop
         vertex 5.000000e+00 2.250000e+00 3.500000e+01
         vertex -4.590935e+00 4.632771e+00 3.500000e+01
         vertex 9.431839e+00 2.121120e-01 3.500000e+01
      endloop
   endfacet
   facet normal -0.000000e+00 -0.000000e+00 1.000000e+00
      outer loop
         vertex -4.590935e+00 4.632771e+00 3.500000e+01
         vertex 7.132628e+00 8.988454e-01 3.500000e+01
         vertex 9.431839e+00 2.121120e-01 3.500000e+01
      endloop
   endfacet
   facet normal -0.000000e+00 0.000000e+00 1.000000e+00
      outer loop
         vertex 9.431839e+00 2.121120e-01 3.500000e+01
         vertex 8.032628e+00 -1.154600e-03 3.500000e+01
         vertex 8.214032e+00 -2.250000e+00 3.500000e+01
      endloop
   endfacet
   facet normal -0.000000e+00 0.000000e+00 1.000000e+00
      outer loop
         vertex 8.032628e+00 -1.154600e-03 3.500000e+01
         vertex 7.769024e+00 -6.375507e-01 3.500000e+01
         vertex 8.214032e+00 -2.250000e+00 3.500000e+01
      endloop
   endfacet
   facet normal 0.000000e+00 0.000000e+00 1.000000e+00
      outer loop
         vertex 8.214032e+00 -2.250000e+00 3.500000e+01
         vertex 7.132628e+00 -9.011546e-01 3.500000e+01
         vertex -7.385968e+00 -2.250000e+00 3.500000e+01
      endloop
   endfacet
   facet normal 0.000000e+00 0.000000e+00 1.000000e+00
      outer loop
         vertex 7.132628e+00 -9.011546e-01 3.500000e+01
         vertex 6.496232e+00 -6.375507e-01 3.500000e+01
         vertex -7.385968e+00 -2.250000e+00 3.500000e+01
      endloop
   endfacet
   facet normal 0.000000e+00 0.000000e+00 1.000000e+00
      outer loop
         vertex -7.385968e+00 -2.250000e+00 3.500000e+01
         vertex 6.496232e+00 -6.375507e-01 3.500000e+01
         vertex -8.708485e+00 -1.820288e+00 3.500000e+01
      endloop
   endfacet
   facet normal 0.000000e+00 0.000000e+00 1.000000e+00
      outer loop
         vertex 6.496232e+00 -6.375507e-01 3.500000e+01
         vertex 6.232628e+00 -1.154600e-03 3.500000e+01
         vertex -8.708485e+00 -1.820288e+00 3.500000e+01
      endloop
   endfacet
   facet normal 0.000000e+00 0.000000e+00 1.000000e+00
      outer loop
         vertex -8.708485e+00 -1.820288e+00 3.500000e+01
         vertex -7.559347e+00 -8.975962e-01 3.500000e+01
         vertex -9.525845e+00 -6.952882e-01 3.500000e+01
      endloop
   endfacet
   facet normal 0.000000e+00 0.000000e+00 1.000000e+00
      outer loop
         vertex -7.559347e+00 -8.975962e-01 3.500000e+01
         vertex -8.195744e+00 -6.339923e-01 3.500000e+01
         vertex -9.525845e+00 -6.952882e-01 3.500000e+01
      endloop
   endfacet
   facet normal 0.000000e+00 0.000000e+00 1.000000e+00
      outer loop
         vertex -9.525845e+00 -6.952882e-01 3.500000e+01
         vertex -8.195744e+00 -6.339923e-01 3.500000e+01
         vertex -9.525845e+00 6.952882e-01 3.500000e+01
      endloop
   endfacet
   facet normal 0.000000e+00 0.000000e+00 1.000000e+00
      outer loop
         vertex -8.195744e+00 -6.339923e-01 3.500000e+01
         vertex -8.459347e+00 2.403832e-03 3.500000e+01
         vertex -9.525845e+00 6.952882e-01 3.500000e+01
      endloop
   endfacet
   facet normal 0.000000e+00 0.000000e+00 1.000000e+00
      outer loop
         vertex -9.525845e+00 6.952882e-01 3.500000e+01
         vertex -8.459347e+00 2.403832e-03 3.500000e+01
         vertex -8.708485e+00 1.820288e+00 3.500000e+01
      endloop
   endfacet
   facet normal 0.000000e+00 0.000000e+00 1.000000e+00
      outer loop
         vertex -8.459347e+00 2.403832e-03 3.500000e+01
         vertex -8.195744e+00 6.387999e-01 3.500000e+01
         vertex -8.708485e+00 1.820288e+00 3.500000e+01
      endloop
   endfacet
   facet normal 0.000000e+00 -0.000000e+00 1.000000e+00
      outer loop
         vertex -8.708485e+00 1.820288e+00 3.500000e+01
         vertex -8.195744e+00 6.387999e-01 3.500000e+01
         vertex -7.385968e+00 2.250000e+00 3.500000e+01
      endloop
   endfacet
   facet normal 0.000000e+00 -0.000000e+00 1.000000e+00
      outer loop
         vertex -8.195744e+00 6.387999e-01 3.500000e+01
         vertex -7.559347e+00 9.024038e-01 3.500000e+01
         vertex -7.385968e+00 2.250000e+00 3.500000e+01
      endloop
   endfacet
   facet normal 0.000000e+00 0.000000e+00 1.000000e+00
      outer loop
         vertex -7.385968e+00 2.250000e+00 3.500000e+01
         vertex -7.559347e+00 9.024038e-01 3.500000e+01
         vertex -5.000000e+00 2.250000e+00 3.500000e+01
      endloop
   endfacet
   facet normal 0.000000e+00 -0.000000e+00 1.000000e+00
      outer loop
         vertex -7.559347e+00 9.024038e-01 3.500000e+01
         vertex -6.922951e+00 6.387999e-01 3.500000e+01
         vertex -5.000000e+00 2.250000e+00 3.500000e+01
      endloop
   endfacet
   facet normal 0.000000e+00 -0.000000e+00 1.000000e+00
      outer loop
         vertex -6.922951e+00 6.387999e-01 3.500000e+01
         vertex -6.659347e+00 2.403832e-03 3.500000e+01
         vertex -5.000000e+00 2.250000e+00 3.500000e+01
      endloop
   endfacet
   facet normal 0.000000e+00 0.000000e+00 1.000000e+00
      outer loop
         vertex -6.659347e+00 2.403832e-03 3.500000e+01
         vertex -6.922951e+00 -6.339923e-01 3.500000e+01
         vertex -5.000000e+00 2.250000e+00 3.500000e+01
      endloop
   endfacet
   facet normal 0.000000e+00 0.000000e+00 1.000000e+00
      outer loop
         vertex -7.559347e+00 -8.975962e-01 3.500000e+01
         vertex -8.708485e+00 -1.820288e+00 3.500000e+01
         vertex -6.922951e+00 -6.339923e-01 3.500000e+01
      endloop
   endfacet
   facet normal 0.000000e+00 0.000000e+00 1.000000e+00
      outer loop
         vertex -8.708485e+00 -1.820288e+00 3.500000e+01
         vertex 6.232628e+00 -1.154600e-03 3.500000e+01
         vertex -6.922951e+00 -6.339923e-01 3.500000e+01
      endloop
   endfacet
   facet normal 0.000000e+00 0.000000e+00 1.000000e+00
      outer loop
         vertex -6.922951e+00 -6.339923e-01 3.500000e+01
         vertex 6.232628e+00 -1.154600e-03 3.500000e+01
         vertex -5.000000e+00 2.250000e+00 3.500000e+01
      endloop
   endfacet
   facet normal 0.000000e+00 0.000000e+00 1.000000e+00
      outer loop
         vertex 6.232628e+00 -1.154600e-03 3.500000e+01
         vertex 6.496232e+00 6.352415e-01 3.500000e+01
         vertex -5.000000e+00 2.250000e+00 3.500000e+01
      endloop
   endfacet
   facet normal 0.000000e+00 0.000000e+00 1.000000e+00
      outer loop
         vertex -5.000000e+00 2.250000e+00 3.500000e+01
         vertex 6.496232e+00 6.352415e-01 3.500000e+01
         vertex -4.590935e+00 4.632771e+00 3.500000e+01
      endloop
   endfacet
   facet normal 0.000000e+00 0.000000e+00 1.000000e+00
      outer loop
         vertex 6.496232e+00 6.352415e-01 3.500000e+01
         vertex 7.132628e+00 8.988454e-01 3.500000e+01
         vertex -4.590935e+00 4.632771e+00 3.500000e+01
      endloop
   endfacet
   facet normal 0.000000e+00 0.000000e+00 1.000000e+00
      outer loop
         vertex 7.132628e+00 -9.011546e-01 3.500000e+01
         vertex 8.214032e+00 -2.250000e+00 3.500000e+01
         vertex 7.769024e+00 -6.375507e-01 3.500000e+01
      endloop
   endfacet
   facet normal 0.000000e+00 0.000000e+00 1.000000e+00
      outer loop
         vertex 8.032628e+00 -1.154600e-03 3.500000e+01
         vertex 9.431839e+00 2.121120e-01 3.500000e+01
         vertex 7.769024e+00 6.352415e-01 3.500000e+01
      endloop
   endfacet
   facet normal 0.000000e+00 0.000000e+00 1.000000e+00
      outer loop
         vertex 9.431839e+00 2.121120e-01 3.500000e+01
         vertex 7.132628e+00 8.988454e-01 3.500000e+01
         vertex 7.769024e+00 6.352415e-01 3.500000e+01
      endloop
   endfacet
   facet normal -3.090170e-01 9.510565e-01 0.000000e+00
      outer loop
         vertex -7.385968e+00 2.250000e+00 0.000000e+00
         vertex -8.708485e+00 1.820288e+00 0.000000e+00
         vertex -8.708485e+00 1.820288e+00 3.500000e+01
      endloop
   endfacet
   facet normal -3.090170e-01 9.510565e-01 0.000000e+00
      outer loop
         vertex -7.385968e+00 2.250000e+00 0.000000e+00
         vertex -8.708485e+00 1.820288e+00 3.500000e+01
         vertex -7.385968e+00 2.250000e+00 3.500000e+01
      endloop
   endfacet
   facet normal -8.090171e-01 5.877851e-01 0.000000e+00
      outer loop
         vertex -8.708485e+00 1.820288e+00 0.000000e+00
         vertex -9.525845e+00 6.952882e-01 0.000000e+00
         vertex -9.525845e+00 6.952882e-01 3.500000e+01
      endloop
   endfacet
   facet normal -8.090171e-01 5.877851e-01 0.000000e+00
      outer loop
         vertex -8.708485e+00 1.820288e+00 0.000000e+00
         vertex -9.525845e+00 6.952882e-01 3.500000e+01
         vertex -8.708485e+00 1.820288e+00 3.500000e+01
      endloop
   endfacet
   facet normal -1.000000e+00 0.000000e+00 0.000000e+00
      outer loop
         vertex -9.525845e+00 6.952882e-01 0.000000e+00
         vertex -9.525845e+00 -6.952882e-01 0.000000e+00
         vertex -9.525845e+00 -6.952882e-01 3.500000e+01
      endloop
   endfacet
   facet normal -1.000000e+00 0.000000e+00 0.000000e+00
      outer loop
         vertex -9.525845e+00 6.952882e-01 0.000000e+00
         vertex -9.525845e+00 -6.952882e-01 3.500000e+01
         vertex -9.525845e+00 6.952882e-01 3.500000e+01
      endloop
   endfacet
   facet normal -8.090171e-01 -5.877851e-01 0.000000e+00
      outer loop
         vertex -9.525845e+00 -6.952882e-01 0.000000e+00
         vertex -8.708485e+00 -1.820288e+00 0.000000e+00
         vertex -8.708485e+00 -1.820288e+00 3.500000e+01
      endloop
   endfacet
   facet normal -8.090171e-01 -5.877851e-01 0.000000e+00
      outer loop
         vertex -9.525845e+00 -6.952882e-01 0.000000e+00
         vertex -8.708485e+00 -1.820288e+00 3.500000e+01
         vertex -9.525845e+00 -6.952882e-01 3.500000e+01
      endloop
   endfacet
   facet normal -3.090170e-01 -9.510565e-01 0.000000e+00
      outer loop
         vertex -8.708485e+00 -1.820288e+00 0.000000e+00
         vertex -7.385968e+00 -2.250000e+00 0.000000e+00
         vertex -7.385968e+00 -2.250000e+00 3.500000e+01
      endloop
   endfacet
   facet normal -3.090170e-01 -9.510565e-01 0.000000e+00
      outer loop
         vertex -8.708485e+00 -1.820288e+00 0.000000e+00
         vertex -7.385968e+00 -2.250000e+00 3.500000e+01
         vertex -8.708485e+00 -1.820288e+00 3.500000e+01
      endloop
   endfacet
   facet normal 0.000000e+00 0.000000e+00 -1.000000e+00
      outer loop
         vertex -8.708485e+00 1.820288e+00 0.000000e+00
         vertex -7.385968e+00 2.250000e+00 0.000000e+00
         vertex -9.525845e+00 6.952882e-01 0.000000e+00
      endloop
   endfacet
   facet normal -0.000000e+00 0.000000e+00 -1.000000e+00
      outer loop
         vertex -7.385968e+00 2.250000e+00 0.000000e+00
         vertex -5.000000e+00 2.250000e+00 0.000000e+00
         vertex -9.525845e+00 6.952882e-01 0.000000e+00
      endloop
   endfacet
   facet normal -0.000000e+00 0.000000e+00 -1.000000e+00
      outer loop
         vertex -9.525845e+00 6.952882e-01 0.000000e+00
         vertex -8.195744e+00 6.387999e-01 0.000000e+00
         vertex -9.525845e+00 -6.952882e-01 0.000000e+00
      endloop
   endfacet
   facet normal -0.000000e+00 0.000000e+00 -1.000000e+00
      outer loop
         vertex -8.195744e+00 6.387999e-01 0.000000e+00
         vertex -8.459347e+00 2.403832e-03 0.000000e+00
         vertex -9.525845e+00 -6.952882e-01 0.000000e+00
      endloop
   endfacet
   facet normal 0.000000e+00 0.000000e+00 -1.000000e+00
      outer loop
         vertex -9.525845e+00 -6.952882e-01 0.000000e+00
         vertex -8.459347e+00 2.403832e-03 0.000000e+00
         vertex -8.708485e+00 -1.820288e+00 0.000000e+00
      endloop
   endfacet
   facet normal -0.000000e+00 0.000000e+00 -1.000000e+00
      outer loop
         vertex -8.459347e+00 2.403832e-03 0.000000e+00
         vertex -8.195744e+00 -6.339923e-01 0.000000e+00
         vertex -8.708485e+00 -1.820288e+00 0.000000e+00
      endloop
   endfacet
   facet normal 0.000000e+00 -0.000000e+00 -1.000000e+00
      outer loop
         vertex -8.708485e+00 -1.820288e+00 0.000000e+00
         vertex -8.195744e+00 -6.339923e-01 0.000000e+00
         vertex -7.385968e+00 -2.250000e+00 0.000000e+00
      endloop
   endfacet
   facet normal -0.000000e+00 -0.000000e+00 -1.000000e+00
      outer loop
         vertex -8.195744e+00 -6.339923e-01 0.000000e+00
         vertex -7.559347e+00 -8.975962e-01 0.000000e+00
         vertex -7.385968e+00 -2.250000e+00 0.000000e+00
      endloop
   endfacet
   facet normal 0.000000e+00 0.000000e+00 -1.000000e+00
      outer loop
         vertex -7.385968e+00 -2.250000e+00 0.000000e+00
         vertex -7.559347e+00 -8.975962e-01 0.000000e+00
         vertex 8.214032e+00 -2.250000e+00 0.000000e+00
      endloop
   endfacet
   facet normal 0.000000e+00 -0.000000e+00 -1.000000e+00
      outer loop
         vertex -7.559347e+00 -8.975962e-01 0.000000e+00
         vertex -6.922951e+00 -6.339923e-01 0.000000e+00
         vertex 8.214032e+00 -2.250000e+00 0.000000e+00
      endloop
   endfacet
   facet normal 0.000000e+00 0.000000e+00 -1.000000e+00
      outer loop
         vertex 8.214032e+00 -2.250000e+00 0.000000e+00
         vertex 7.769024e+00 -6.375507e-01 0.000000e+00
         vertex 9.431839e+00 2.121120e-01 0.000000e+00
      endloop
   endfacet
   facet normal 0.000000e+00 -0.000000e+00 -1.000000e+00
      outer loop
         vertex 7.769024e+00 -6.375507e-01 0.000000e+00
         vertex 8.032628e+00 -1.154600e-03 0.000000e+00
         vertex 9.431839e+00 2.121120e-01 0.000000e+00
      endloop
   endfacet
   facet normal 0.000000e+00 0.000000e+00 -1.000000e+00
      outer loop
         vertex 9.431839e+00 2.121120e-01 0.000000e+00
         vertex 8.032628e+00 -1.154600e-03 0.000000e+00
         vertex 1.127359e+01 2.250000e+00 0.000000e+00
      endloop
   endfacet
   facet normal 0.000000e+00 0.000000e+00 -1.000000e+00
      outer loop
         vertex 8.032628e+00 -1.154600e-03 0.000000e+00
         vertex 7.769024e+00 6.352415e-01 0.000000e+00
         vertex 1.127359e+01 2.250000e+00 0.000000e+00
      endloop
   endfacet
   facet normal 0.000000e+00 0.000000e+00 -1.000000e+00
      outer loop
         vertex 1.127359e+01 2.250000e+00 0.000000e+00
         vertex 7.769024e+00 6.352415e-01 0.000000e+00
         vertex 5.000000e+00 2.250000e+00 0.000000e+00
      endloop
   endfacet
   facet normal 0.000000e+00 0.000000e+00 -1.000000e+00
      outer loop
         vertex 7.769024e+00 6.352415e-01 0.000000e+00
         vertex 7.132628e+00 8.988454e-01 0.000000e+00
         vertex 5.000000e+00 2.250000e+00 0.000000e+00
      endloop
   endfacet
   facet normal 0.000000e+00 0.000000e+00 -1.000000e+00
      outer loop
         vertex 7.132628e+00 8.988454e-01 0.000000e+00
         vertex 6.496232e+00 6.352415e-01 0.000000e+00
         vertex 5.000000e+00 2.250000e+00 0.000000e+00
      endloop
   endfacet
   facet normal 0.000000e+00 0.000000e+00 -1.000000e+00
      outer loop
         vertex 6.496232e+00 6.352415e-01 0.000000e+00
         vertex 6.232628e+00 -1.154600e-03 0.000000e+00
         vertex 5.000000e+00 2.250000e+00 0.000000e+00
      endloop
   endfacet
   facet normal 0.000000e+00 0.000000e+00 -1.000000e+00
      outer loop
         vertex 5.000000e+00 2.250000e+00 0.000000e+00
         vertex 6.232628e+00 -1.154600e-03 0.000000e+00
         vertex 3.649008e+00 3.372807e+00 0.000000e+00
      endloop
   endfacet
   facet normal 0.000000e+00 0.000000e+00 -1.000000e+00
      outer loop
         vertex 6.232628e+00 -1.154600e-03 0.000000e+00
         vertex 6.496232e+00 -6.375507e-01 0.000000e+00
         vertex 3.649008e+00 3.372807e+00 0.000000e+00
      endloop
   endfacet
   facet normal 0.000000e+00 0.000000e+00 -1.000000e+00
      outer loop
         vertex 7.132628e+00 -9.011546e-01 0.000000e+00
         vertex 8.214032e+00 -2.250000e+00 0.000000e+00
         vertex 6.496232e+00 -6.375507e-01 0.000000e+00
      endloop
   endfacet
   facet normal 0.000000e+00 0.000000e+00 -1.000000e+00
      outer loop
         vertex 8.214032e+00 -2.250000e+00 0.000000e+00
         vertex -6.922951e+00 -6.339923e-01 0.000000e+00
         vertex 6.496232e+00 -6.375507e-01 0.000000e+00
      endloop
   endfacet
   facet normal 0.000000e+00 0.000000e+00 -1.000000e+00
      outer loop
         vertex 6.496232e+00 -6.375507e-01 0.000000e+00
         vertex -6.922951e+00 -6.339923e-01 0.000000e+00
         vertex 3.649008e+00 3.372807e+00 0.000000e+00
      endloop
   endfacet
   facet normal 0.000000e+00 -0.000000e+00 -1.000000e+00
      outer loop
         vertex -6.922951e+00 -6.339923e-01 0.000000e+00
         vertex -6.659347e+00 2.403832e-03 0.000000e+00
         vertex 3.649008e+00 3.372807e+00 0.000000e+00
      endloop
   endfacet
   facet normal 0.000000e+00 0.000000e+00 -1.000000e+00
      outer loop
         vertex 3.649008e+00 3.372807e+00 0.000000e+00
         vertex -6.659347e+00 2.403832e-03 0.000000e+00
         vertex 2.964378e+00 4.990570e+00 0.000000e+00
      endloop
   endfacet
   facet normal 0.000000e+00 0.000000e+00 -1.000000e+00
      outer loop
         vertex -6.659347e+00 2.403832e-03 0.000000e+00
         vertex -6.922951e+00 6.387999e-01 0.000000e+00
         vertex 2.964378e+00 4.990570e+00 0.000000e+00
      endloop
   endfacet
   facet normal 0.000000e+00 0.000000e+00 -1.000000e+00
      outer loop
         vertex 2.964378e+00 4.990570e+00 0.000000e+00
         vertex -6.922951e+00 6.387999e-01 0.000000e+00
         vertex 3.098978e+00 6.742072e+00 0.000000e+00
      endloop
   endfacet
   facet normal 0.000000e+00 -0.000000e+00 -1.000000e+00
      outer loop
         vertex -6.922951e+00 6.387999e-01 0.000000e+00
         vertex -5.000000e+00 2.250000e+00 0.000000e+00
         vertex 3.098978e+00 6.742072e+00 0.000000e+00
      endloop
   endfacet
   facet normal 0.000000e+00 0.000000e+00 -1.000000e+00
      outer loop
         vertex 3.098978e+00 6.742072e+00 0.000000e+00
         vertex -5.000000e+00 2.250000e+00 0.000000e+00
         vertex 4.022753e+00 8.236232e+00 0.000000e+00
      endloop
   endfacet
   facet normal 0.000000e+00 -0.000000e+00 -1.000000e+00
      outer loop
         vertex -5.000000e+00 2.250000e+00 0.000000e+00
         vertex -4.590935e+00 4.632771e+00 0.000000e+00
         vertex 4.022753e+00 8.236232e+00 0.000000e+00
      endloop
   endfacet
   facet normal 0.000000e+00 0.000000e+00 -1.000000e+00
      outer loop
         vertex 4.022753e+00 8.236232e+00 0.000000e+00
         vertex -4.590935e+00 4.632771e+00 0.000000e+00
         vertex 5.529441e+00 9.139431e+00 0.000000e+00
      endloop
   endfacet
   facet normal 0.000000e+00 -0.000000e+00 -1.000000e+00
      outer loop
         vertex -4.590935e+00 4.632771e+00 0.000000e+00
         vertex -3.508377e+00 6.794484e+00 0.000000e+00
         vertex 5.529441e+00 9.139431e+00 0.000000e+00
      endloop
   endfacet
   facet normal 0.000000e+00 -0.000000e+00 -1.000000e+00
      outer loop
         vertex -3.508377e+00 6.794484e+00 0.000000e+00
         vertex -1.845387e+00 8.549305e+00 0.000000e+00
         vertex 5.529441e+00 9.139431e+00 0.000000e+00
      endloop
   endfacet
   facet normal 0.000000e+00 -0.000000e+00 -1.000000e+00
      outer loop
         vertex -1.845387e+00 8.549305e+00 0.000000e+00
         vertex 2.550755e-01 9.746381e+00 0.000000e+00
         vertex 5.529441e+00 9.139431e+00 0.000000e+00
      endloop
   endfacet
   facet normal 0.000000e+00 0.000000e+00 -1.000000e+00
      outer loop
         vertex 5.529441e+00 9.139431e+00 0.000000e+00
         vertex 2.550755e-01 9.746381e+00 0.000000e+00
         vertex 7.282624e+00 9.250000e+00 0.000000e+00
      endloop
   endfacet
   facet normal 0.000000e+00 -0.000000e+00 -1.000000e+00
      outer loop
         vertex 2.550755e-01 9.746381e+00 0.000000e+00
         vertex 2.612443e+00 1.028281e+01 0.000000e+00
         vertex 7.282624e+00 9.250000e+00 0.000000e+00
      endloop
   endfacet
   facet normal 0.000000e+00 0.000000e+00 -1.000000e+00
      outer loop
         vertex 7.282624e+00 9.250000e+00 0.000000e+00
         vertex 2.612443e+00 1.028281e+01 0.000000e+00
         vertex 5.024065e+00 1.011246e+01 0.000000e+00
      endloop
   endfacet
   facet normal 0.000000e+00 0.000000e+00 -1.000000e+00
      outer loop
         vertex 7.769024e+00 -6.375507e-01 0.000000e+00
         vertex 8.214032e+00 -2.250000e+00 0.000000e+00
         vertex 7.132628e+00 -9.011546e-01 0.000000e+00
      endloop
   endfacet
   facet normal -0.000000e+00 0.000000e+00 -1.000000e+00
      outer loop
         vertex -5.000000e+00 2.250000e+00 0.000000e+00
         vertex -7.559347e+00 9.024038e-01 0.000000e+00
         vertex -9.525845e+00 6.952882e-01 0.000000e+00
      endloop
   endfacet
   facet normal 0.000000e+00 0.000000e+00 -1.000000e+00
      outer loop
         vertex -7.559347e+00 9.024038e-01 0.000000e+00
         vertex -8.195744e+00 6.387999e-01 0.000000e+00
         vertex -9.525845e+00 6.952882e-01 0.000000e+00
      endloop
   endfacet
   facet normal 0.000000e+00 0.000000e+00 -1.000000e+00
      outer loop
         vertex -7.559347e+00 9.024038e-01 0.000000e+00
         vertex -5.000000e+00 2.250000e+00 0.000000e+00
         vertex -6.922951e+00 6.387999e-01 0.000000e+00
      endloop
   endfacet
   facet normal 7.419067e-01 -6.705031e-01 0.000000e+00
      outer loop
         vertex 9.431839e+00 2.121120e-01 3.500000e+01
         vertex 9.431839e+00 2.121120e-01 0.000000e+00
         vertex 1.127359e+01 2.250000e+00 0.000000e+00
      endloop
   endfacet
   facet normal 7.419067e-01 -6.705031e-01 0.000000e+00
      outer loop
         vertex 1.127359e+01 2.250000e+00 3.500000e+01
         vertex 9.431839e+00 2.121120e-01 3.500000e+01
         vertex 1.127359e+01 2.250000e+00 0.000000e+00
      endloop
   endfacet
   facet normal 8.963482e-01 -4.433507e-01 0.000000e+00
      outer loop
         vertex 8.214032e+00 -2.250000e+00 3.500000e+01
         vertex 8.214032e+00 -2.250000e+00 0.000000e+00
         vertex 9.431839e+00 2.121120e-01 0.000000e+00
      endloop
   endfacet
   facet normal 8.963482e-01 -4.433507e-01 0.000000e+00
      outer loop
         vertex 9.431839e+00 2.121120e-01 3.500000e+01
         vertex 8.214032e+00 -2.250000e+00 3.500000e+01
         vertex 9.431839e+00 2.121120e-01 0.000000e+00
      endloop
   endfacet
   facet normal -0.000000e+00 1.000000e+00 0.000000e+00
      outer loop
         vertex 5.000000e+00 2.250000e+00 0.000000e+00
         vertex 5.000000e+00 2.250000e+00 3.500000e+01
         vertex 1.127359e+01 2.250000e+00 3.500000e+01
      endloop
   endfacet
   facet normal 0.000000e+00 1.000000e+00 0.000000e+00
      outer loop
         vertex 5.000000e+00 2.250000e+00 0.000000e+00
         vertex 1.127359e+01 2.250000e+00 3.500000e+01
         vertex 1.127359e+01 2.250000e+00 0.000000e+00
      endloop
   endfacet
   facet normal 6.294253e-02 -9.980172e-01 0.000000e+00
      outer loop
         vertex 7.282624e+00 9.250000e+00 3.500000e+01
         vertex 5.529441e+00 9.139431e+00 3.500000e+01
         vertex 5.529441e+00 9.139431e+00 0.000000e+00
      endloop
   endfacet
   facet normal 6.294253e-02 -9.980172e-01 0.000000e+00
      outer loop
         vertex 7.282624e+00 9.250000e+00 3.500000e+01
         vertex 5.529441e+00 9.139431e+00 0.000000e+00
         vertex 7.282624e+00 9.250000e+00 0.000000e+00
      endloop
   endfacet
   facet normal 5.141553e-01 -8.576971e-01 0.000000e+00
      outer loop
         vertex 5.529441e+00 9.139431e+00 3.500000e+01
         vertex 4.022753e+00 8.236232e+00 3.500000e+01
         vertex 4.022753e+00 8.236232e+00 0.000000e+00
      endloop
   endfacet
   facet normal 5.141553e-01 -8.576971e-01 0.000000e+00
      outer loop
         vertex 5.529441e+00 9.139431e+00 3.500000e+01
         vertex 4.022753e+00 8.236232e+00 0.000000e+00
         vertex 5.529441e+00 9.139431e+00 0.000000e+00
      endloop
   endfacet
   facet normal 8.505660e-01 -5.258684e-01 0.000000e+00
      outer loop
         vertex 4.022753e+00 8.236232e+00 3.500000e+01
         vertex 3.098978e+00 6.742072e+00 3.500000e+01
         vertex 3.098978e+00 6.742072e+00 0.000000e+00
      endloop
   endfacet
   facet normal 8.505660e-01 -5.258684e-01 0.000000e+00
      outer loop
         vertex 4.022753e+00 8.236232e+00 3.500000e+01
         vertex 3.098978e+00 6.742072e+00 0.000000e+00
         vertex 4.022753e+00 8.236232e+00 0.000000e+00
      endloop
   endfacet
   facet normal 9.970602e-01 -7.662238e-02 0.000000e+00
      outer loop
         vertex 3.098978e+00 6.742072e+00 3.500000e+01
         vertex 2.964378e+00 4.990570e+00 3.500000e+01
         vertex 2.964378e+00 4.990570e+00 0.000000e+00
      endloop
   endfacet
   facet normal 9.970602e-01 -7.662238e-02 0.000000e+00
      outer loop
         vertex 3.098978e+00 6.742072e+00 3.500000e+01
         vertex 2.964378e+00 4.990570e+00 0.000000e+00
         vertex 3.098978e+00 6.742072e+00 0.000000e+00
      endloop
   endfacet
   facet normal 9.209283e-01 3.897321e-01 0.000000e+00
      outer loop
         vertex 2.964378e+00 4.990570e+00 3.500000e+01
         vertex 3.649008e+00 3.372807e+00 3.500000e+01
         vertex 3.649008e+00 3.372807e+00 0.000000e+00
      endloop
   endfacet
   facet normal 9.209283e-01 3.897321e-01 0.000000e+00
      outer loop
         vertex 2.964378e+00 4.990570e+00 3.500000e+01
         vertex 3.649008e+00 3.372807e+00 0.000000e+00
         vertex 2.964378e+00 4.990570e+00 0.000000e+00
      endloop
   endfacet
   facet normal 6.391691e-01 7.690662e-01 0.000000e+00
      outer loop
         vertex 3.649008e+00 3.372807e+00 3.500000e+01
         vertex 5.000000e+00 2.250000e+00 3.500000e+01
         vertex 5.000000e+00 2.250000e+00 0.000000e+00
      endloop
   endfacet
   facet normal 6.391691e-01 7.690662e-01 0.000000e+00
      outer loop
         vertex 3.649008e+00 3.372807e+00 3.500000e+01
         vertex 5.000000e+00 2.250000e+00 0.000000e+00
         vertex 3.649008e+00 3.372807e+00 0.000000e+00
      endloop
   endfacet
   facet normal -9.855816e-01 1.692007e-01 0.000000e+00
      outer loop
         vertex -5.000000e+00 2.250000e+00 3.500000e+01
         vertex -4.590935e+00 4.632771e+00 3.500000e+01
         vertex -4.590935e+00 4.632771e+00 0.000000e+00
      endloop
   endfacet
   facet normal -9.855816e-01 1.692007e-01 0.000000e+00
      outer loop
         vertex -5.000000e+00 2.250000e+00 3.500000e+01
         vertex -4.590935e+00 4.632771e+00 0.000000e+00
         vertex -5.000000e+00 2.250000e+00 0.000000e+00
      endloop
   endfacet
   facet normal -8.941454e-01 4.477768e-01 0.000000e+00
      outer loop
         vertex -4.590935e+00 4.632771e+00 3.500000e+01
         vertex -3.508377e+00 6.794484e+00 3.500000e+01
         vertex -3.508377e+00 6.794484e+00 0.000000e+00
      endloop
   endfacet
   facet normal -8.941454e-01 4.477768e-01 0.000000e+00
      outer loop
         vertex -4.590935e+00 4.632771e+00 3.500000e+01
         vertex -3.508377e+00 6.794484e+00 0.000000e+00
         vertex -4.590935e+00 4.632771e+00 0.000000e+00
      endloop
   endfacet
   facet normal -7.258437e-01 6.878597e-01 0.000000e+00
      outer loop
         vertex -3.508377e+00 6.794484e+00 3.500000e+01
         vertex -1.845387e+00 8.549305e+00 3.500000e+01
         vertex -1.845387e+00 8.549305e+00 0.000000e+00
      endloop
   endfacet
   facet normal -7.258437e-01 6.878597e-01 0.000000e+00
      outer loop
         vertex -3.508377e+00 6.794484e+00 3.500000e+01
         vertex -1.845387e+00 8.549305e+00 0.000000e+00
         vertex -3.508377e+00 6.794484e+00 0.000000e+00
      endloop
   endfacet
   facet normal -4.951445e-01 8.688107e-01 0.000000e+00
      outer loop
         vertex -1.845387e+00 8.549305e+00 3.500000e+01
         vertex 2.550755e-01 9.746381e+00 3.500000e+01
         vertex 2.550755e-01 9.746381e+00 0.000000e+00
      endloop
   endfacet
   facet normal -4.951445e-01 8.688107e-01 0.000000e+00
      outer loop
         vertex -1.845387e+00 8.549305e+00 3.500000e+01
         vertex 2.550755e-01 9.746381e+00 0.000000e+00
         vertex -1.845387e+00 8.549305e+00 0.000000e+00
      endloop
   endfacet
   facet normal -2.218804e-01 9.750739e-01 0.000000e+00
      outer loop
         vertex 2.550755e-01 9.746381e+00 3.500000e+01
         vertex 2.612443e+00 1.028281e+01 3.500000e+01
         vertex 2.612443e+00 1.028281e+01 0.000000e+00
      endloop
   endfacet
   facet normal -2.218804e-01 9.750739e-01 0.000000e+00
      outer loop
         vertex 2.550755e-01 9.746381e+00 3.500000e+01
         vertex 2.612443e+00 1.028281e+01 0.000000e+00
         vertex 2.550755e-01 9.746381e+00 0.000000e+00
      endloop
   endfacet
   facet normal 7.045806e-02 9.975147e-01 0.000000e+00
      outer loop
         vertex 2.612443e+00 1.028281e+01 3.500000e+01
         vertex 5.024065e+00 1.011246e+01 3.500000e+01
         vertex 5.024065e+00 1.011246e+01 0.000000e+00
      endloop
   endfacet
   facet normal 7.045806e-02 9.975147e-01 0.000000e+00
      outer loop
         vertex 2.612443e+00 1.028281e+01 3.500000e+01
         vertex 5.024065e+00 1.011246e+01 0.000000e+00
         vertex 2.612443e+00 1.028281e+01 0.000000e+00
      endloop
   endfacet
   facet normal 3.567395e-01 9.342039e-01 0.000000e+00
      outer loop
         vertex 5.024065e+00 1.011246e+01 3.500000e+01
         vertex 7.282624e+00 9.250000e+00 3.500000e+01
         vertex 7.282624e+00 9.250000e+00 0.000000e+00
      endloop
   endfacet
   facet normal 3.567395e-01 9.342039e-01 0.000000e+00
      outer loop
         vertex 5.024065e+00 1.011246e+01 3.500000e+01
         vertex 7.282624e+00 9.250000e+00 0.000000e+00
         vertex 5.024065e+00 1.011246e+01 0.000000e+00
      endloop
   endfacet
   facet normal -0.000000e+00 1.000000e+00 0.000000e+00
      outer loop
         vertex -7.385968e+00 2.250000e+00 0.000000e+00
         vertex -7.385968e+00 2.250000e+00 3.500000e+01
         vertex -5.000000e+00 2.250000e+00 3.500000e+01
      endloop
   endfacet
   facet normal 0.000000e+00 1.000000e+00 0.000000e+00
      outer loop
         vertex -7.385968e+00 2.250000e+00 0.000000e+00
         vertex -5.000000e+00 2.250000e+00 3.500000e+01
         vertex -5.000000e+00 2.250000e+00 0.000000e+00
      endloop
   endfacet
   facet normal -9.238794e-01 3.826838e-01 0.000000e+00
      outer loop
         vertex 7.769024e+00 -6.375507e-01 0.000000e+00
         vertex 7.769024e+00 -6.375507e-01 3.500000e+01
         vertex 8.032628e+00 -1.154600e-03 3.500000e+01
      endloop
   endfacet
   facet normal -9.238794e-01 3.826838e-01 0.000000e+00
      outer loop
         vertex 8.032628e+00 -1.154600e-03 0.000000e+00
         vertex 7.769024e+00 -6.375507e-01 0.000000e+00
         vertex 8.032628e+00 -1.154600e-03 3.500000e+01
      endloop
   endfacet
   facet normal -3.826835e-01 9.238795e-01 0.000000e+00
      outer loop
         vertex 7.132628e+00 -9.011546e-01 0.000000e+00
         vertex 7.132628e+00 -9.011546e-01 3.500000e+01
         vertex 7.769024e+00 -6.375507e-01 3.500000e+01
      endloop
   endfacet
   facet normal -3.826835e-01 9.238795e-01 0.000000e+00
      outer loop
         vertex 7.769024e+00 -6.375507e-01 0.000000e+00
         vertex 7.132628e+00 -9.011546e-01 0.000000e+00
         vertex 7.769024e+00 -6.375507e-01 3.500000e+01
      endloop
   endfacet
   facet normal 3.826835e-01 9.238795e-01 0.000000e+00
      outer loop
         vertex 6.496232e+00 -6.375507e-01 0.000000e+00
         vertex 6.496232e+00 -6.375507e-01 3.500000e+01
         vertex 7.132628e+00 -9.011546e-01 3.500000e+01
      endloop
   endfacet
   facet normal 3.826835e-01 9.238795e-01 0.000000e+00
      outer loop
         vertex 7.132628e+00 -9.011546e-01 0.000000e+00
         vertex 6.496232e+00 -6.375507e-01 0.000000e+00
         vertex 7.132628e+00 -9.011546e-01 3.500000e+01
      endloop
   endfacet
   facet normal 9.238794e-01 3.826838e-01 0.000000e+00
      outer loop
         vertex 6.232628e+00 -1.154600e-03 0.000000e+00
         vertex 6.232628e+00 -1.154600e-03 3.500000e+01
         vertex 6.496232e+00 -6.375507e-01 3.500000e+01
      endloop
   endfacet
   facet normal 9.238794e-01 3.826838e-01 0.000000e+00
      outer loop
         vertex 6.496232e+00 -6.375507e-01 0.000000e+00
         vertex 6.232628e+00 -1.154600e-03 0.000000e+00
         vertex 6.496232e+00 -6.375507e-01 3.500000e+01
      endloop
   endfacet
   facet normal 9.238794e-01 -3.826838e-01 0.000000e+00
      outer loop
         vertex 6.496232e+00 6.352415e-01 0.000000e+00
         vertex 6.496232e+00 6.352415e-01 3.500000e+01
         vertex 6.232628e+00 -1.154600e-03 3.500000e+01
      endloop
   endfacet
   facet normal 9.238794e-01 -3.826838e-01 0.000000e+00
      outer loop
         vertex 6.232628e+00 -1.154600e-03 0.000000e+00
         vertex 6.496232e+00 6.352415e-01 0.000000e+00
         vertex 6.232628e+00 -1.154600e-03 3.500000e+01
      endloop
   endfacet
   facet normal 3.826835e-01 -9.238795e-01 0.000000e+00
      outer loop
         vertex 7.132628e+00 8.988454e-01 0.000000e+00
         vertex 7.132628e+00 8.988454e-01 3.500000e+01
         vertex 6.496232e+00 6.352415e-01 3.500000e+01
      endloop
   endfacet
   facet normal 3.826835e-01 -9.238795e-01 0.000000e+00
      outer loop
         vertex 6.496232e+00 6.352415e-01 0.000000e+00
         vertex 7.132628e+00 8.988454e-01 0.000000e+00
         vertex 6.496232e+00 6.352415e-01 3.500000e+01
      endloop
   endfacet
   facet normal -3.826835e-01 -9.238795e-01 -0.000000e+00
      outer loop
         vertex 7.769024e+00 6.352415e-01 0.000000e+00
         vertex 7.769024e+00 6.352415e-01 3.500000e+01
         vertex 7.132628e+00 8.988454e-01 3.500000e+01
      endloop
   endfacet
   facet normal -3.826835e-01 -9.238795e-01 0.000000e+00
      outer loop
         vertex 7.132628e+00 8.988454e-01 0.000000e+00
         vertex 7.769024e+00 6.352415e-01 0.000000e+00
         vertex 7.132628e+00 8.988454e-01 3.500000e+01
      endloop
   endfacet
   facet normal -9.238794e-01 -3.826838e-01 -0.000000e+00
      outer loop
         vertex 8.032628e+00 -1.154600e-03 0.000000e+00
         vertex 8.032628e+00 -1.154600e-03 3.500000e+01
         vertex 7.769024e+00 6.352415e-01 3.500000e+01
      endloop
   endfacet
   facet normal -9.238794e-01 -3.826838e-01 0.000000e+00
      outer loop
         vertex 7.769024e+00 6.352415e-01 0.000000e+00
         vertex 8.032628e+00 -1.154600e-03 0.000000e+00
         vertex 7.769024e+00 6.352415e-01 3.500000e+01
      endloop
   endfacet
   facet normal -9.238796e-01 3.826832e-01 0.000000e+00
      outer loop
         vertex -6.922951e+00 -6.339923e-01 0.000000e+00
         vertex -6.922951e+00 -6.339923e-01 3.500000e+01
         vertex -6.659347e+00 2.403832e-03 3.500000e+01
      endloop
   endfacet
   facet normal -9.238796e-01 3.826832e-01 0.000000e+00
      outer loop
         vertex -6.659347e+00 2.403832e-03 0.000000e+00
         vertex -6.922951e+00 -6.339923e-01 0.000000e+00
         vertex -6.659347e+00 2.403832e-03 3.500000e+01
      endloop
   endfacet
   facet normal -3.826833e-01 9.238796e-01 0.000000e+00
      outer loop
         vertex -7.559347e+00 -8.975962e-01 0.000000e+00
         vertex -7.559347e+00 -8.975962e-01 3.500000e+01
         vertex -6.922951e+00 -6.339923e-01 3.500000e+01
      endloop
   endfacet
   facet normal -3.826833e-01 9.238796e-01 0.000000e+00
      outer loop
         vertex -6.922951e+00 -6.339923e-01 0.000000e+00
         vertex -7.559347e+00 -8.975962e-01 0.000000e+00
         vertex -6.922951e+00 -6.339923e-01 3.500000e+01
      endloop
   endfacet
   facet normal 3.826833e-01 9.238796e-01 0.000000e+00
      outer loop
         vertex -8.195744e+00 -6.339923e-01 0.000000e+00
         vertex -8.195744e+00 -6.339923e-01 3.500000e+01
         vertex -7.559347e+00 -8.975962e-01 3.500000e+01
      endloop
   endfacet
   facet normal 3.826833e-01 9.238796e-01 0.000000e+00
      outer loop
         vertex -7.559347e+00 -8.975962e-01 0.000000e+00
         vertex -8.195744e+00 -6.339923e-01 0.000000e+00
         vertex -7.559347e+00 -8.975962e-01 3.500000e+01
      endloop
   endfacet
   facet normal 9.238799e-01 3.826826e-01 0.000000e+00
      outer loop
         vertex -8.459347e+00 2.403832e-03 0.000000e+00
         vertex -8.459347e+00 2.403832e-03 3.500000e+01
         vertex -8.195744e+00 -6.339923e-01 3.500000e+01
      endloop
   endfacet
   facet normal 9.238799e-01 3.826826e-01 0.000000e+00
      outer loop
         vertex -8.195744e+00 -6.339923e-01 0.000000e+00
         vertex -8.459347e+00 2.403832e-03 0.000000e+00
         vertex -8.195744e+00 -6.339923e-01 3.500000e+01
      endloop
   endfacet
   facet normal 9.238799e-01 -3.826826e-01 0.000000e+00
      outer loop
         vertex -8.195744e+00 6.387999e-01 0.000000e+00
         vertex -8.195744e+00 6.387999e-01 3.500000e+01
         vertex -8.459347e+00 2.403832e-03 3.500000e+01
      endloop
   endfacet
   facet normal 9.238799e-01 -3.826826e-01 0.000000e+00
      outer loop
         vertex -8.459347e+00 2.403832e-03 0.000000e+00
         vertex -8.195744e+00 6.387999e-01 0.000000e+00
         vertex -8.459347e+00 2.403832e-03 3.500000e+01
      endloop
   endfacet
   facet normal 3.826833e-01 -9.238796e-01 0.000000e+00
      outer loop
         vertex -7.559347e+00 9.024038e-01 0.000000e+00
         vertex -7.559347e+00 9.024038e-01 3.500000e+01
         vertex -8.195744e+00 6.387999e-01 3.500000e+01
      endloop
   endfacet
   facet normal 3.826833e-01 -9.238796e-01 0.000000e+00
      outer loop
         vertex -8.195744e+00 6.387999e-01 0.000000e+00
         vertex -7.559347e+00 9.024038e-01 0.000000e+00
         vertex -8.195744e+00 6.387999e-01 3.500000e+01
      endloop
   endfacet
   facet normal -3.826833e-01 -9.238796e-01 -0.000000e+00
      outer loop
         vertex -6.922951e+00 6.387999e-01 0.000000e+00
         vertex -6.922951e+00 6.387999e-01 3.500000e+01
         vertex -7.559347e+00 9.024038e-01 3.500000e+01
      endloop
   endfacet
   facet normal -3.826833e-01 -9.238796e-01 0.000000e+00
      outer loop
         vertex -7.559347e+00 9.024038e-01 0.000000e+00
         vertex -6.922951e+00 6.387999e-01 0.000000e+00
         vertex -7.559347e+00 9.024038e-01 3.500000e+01
      endloop
   endfacet
   facet normal -9.238796e-01 -3.826832e-01 -0.000000e+00
      outer loop
         vertex -6.659347e+00 2.403832e-03 0.000000e+00
         vertex -6.659347e+00 2.403832e-03 3.500000e+01
         vertex -6.922951e+00 6.387999e-01 3.500000e+01
      endloop
   endfacet
   facet normal -9.238796e-01 -3.826832e-01 0.000000e+00
      outer loop
         vertex -6.922951e+00 6.387999e-01 0.000000e+00
         vertex -6.659347e+00 2.403832e-03 0.000000e+00
         vertex -6.922951e+00 6.387999e-01 3.500000e+01
      endloop
   endfacet
endsolid
